<svg xmlns="http://www.w3.org/2000/svg" viewBox="0 0 230 101"><defs><style>.cls-1,.cls-2{fill:#fefefe;}.cls-1{opacity:0.86;}.cls-2{fill-opacity:0.85;}.cls-3{fill:#1d1d1b;}</style></defs><g id="Layer_17" data-name="Layer 17"><rect class="cls-1" width="230" height="42" rx="9.53"/><rect class="cls-2" y="59" width="230" height="42" rx="9.53"/><path class="cls-3" d="M48.2,20.66A15.11,15.11,0,0,1,45.5,24a11.62,11.62,0,0,1-5.34,3.3l-.33.09a7.58,7.58,0,0,1-2,.3c.3.33,2.07-.06,2.31-.12a9.62,9.62,0,0,0,2-.78,17,17,0,0,0,7.08-7.53.63.63,0,0,0,.12.18c-.12.48-.21,1-.36,1.44l-.09.27-.18.36a16.29,16.29,0,0,1-3.6,4.11,11.68,11.68,0,0,1-4.35,2.19,10.44,10.44,0,0,1-2.37.27c-.24,0-.69-.12-.72-.39a3.62,3.62,0,0,1-1.74-.48,4.38,4.38,0,0,1-1.59-1.71,5.48,5.48,0,0,1-1.41-3A8.29,8.29,0,0,1,35.24,16a11.67,11.67,0,0,1,5.19-3.54.48.48,0,0,1,.39-.39,15.13,15.13,0,0,1,6.75-.48c.75.15,2.13.48,1.77,1.56-.12.33-.42.42-.75.48a.29.29,0,0,1-.27.39c-.66,0-1.32,0-2,0a12.1,12.1,0,0,0-1.8.12A11,11,0,0,0,41,15.23a10.18,10.18,0,0,0-4.29,4.56,7.66,7.66,0,0,0-.81,3.15,2.57,2.57,0,0,0,1,2.31l.39.09a5.26,5.26,0,0,0,2.16-.12c.21-.06.42-.15.6-.21a9.27,9.27,0,0,0,2.64-1.77,14.19,14.19,0,0,0,2.22-2.79c.3-.48.57-1,.84-1.44h-.12l-2,.42c-1.35.3-2.67.72-4,1.08a1.17,1.17,0,0,1-.9-2.13l.18-.09a1,1,0,0,1,.75-1.14s.09,0,.15-.06c1.35-.39,2.73-.75,4.11-1.08a39.69,39.69,0,0,1,4.17-.9,1.52,1.52,0,0,1,1.68,1,2.52,2.52,0,0,1-.12,1.56A15.09,15.09,0,0,1,48.2,20.66Z"/><path class="cls-3" d="M67.55,26.51A45.08,45.08,0,0,0,61,28.25c-1,.36-2,.72-3,1.14h0l-.21.09c-.33.15-.66.27-1,.42l0,0a12.21,12.21,0,0,1-2,.72,2.32,2.32,0,0,1-.3,0,1,1,0,0,1-1.26-.45.68.68,0,0,1,0-.42,1.66,1.66,0,0,1-1-2c-.18-1-.24-2.1-.33-3.15l-.36-3.6L51,17.66a1.91,1.91,0,0,1-.48-1.47,2.05,2.05,0,0,1,.75-1.41,1.78,1.78,0,0,0,.12-.24c.63-.27,1.29-.51,1.92-.72a47.27,47.27,0,0,1,6.06-1.56c1.59-.36,3.15-.78,4.71-1.2a3.54,3.54,0,0,1,.6.12l.48.18.48.39a3.63,3.63,0,0,1,.18,1.86l-1.5.45c-.66.21-1.35.42-2,.6a.43.43,0,0,1-.18.06c-1.53.42-4.5,1.32-4.83,1.47-1,.33-1.92.69-2.85,1.08l-.06.06c0,.3.21,1.38.21,1.53,1.68-.72,3.33-1.44,5-2.07,1-.24,1.95-.51,2.91-.78l.39-.09c.36-.06.69-.09,1-.12.75,0,1.47,0,1.89.72a1.77,1.77,0,0,1,.12.24,1.84,1.84,0,0,1,.15.36s0,0,.06,0a1.11,1.11,0,0,1,.51.75,1.45,1.45,0,0,1-.78,1.5,8.61,8.61,0,0,1-2,.42c-.72.12-1.47.27-2.19.45a32.36,32.36,0,0,0-4.26,1.44c-.87.36-1.68.78-2.52,1.2l.18,1.95V25l.09-.06c.66-.3,1.32-.57,2-.84l2.55-1c.45-.18.9-.36,1.35-.51.72-.27,1.44-.54,2.16-.78l1.17-.36c.33-.09.63-.24,1-.33,2.31-.48,2.88,2.16,3,3.87a1.4,1.4,0,0,1-.57,1.23A.35.35,0,0,1,67.55,26.51ZM57.38,11.72l.69-.18A30.51,30.51,0,0,1,61.82,11a7.31,7.31,0,0,1,.81,0c-1.17.3-2.37.6-3.54.87A52.94,52.94,0,0,0,53,13.4a16.37,16.37,0,0,0-2,.78c-.06,0-.06-.12,0-.18A29.78,29.78,0,0,1,57.38,11.72ZM55.19,30.2a.11.11,0,0,0,.09,0c.24-.12.48-.24.69-.36.48-.24.93-.48,1.38-.72V29c-.54.21-1.08.42-1.65.6a17,17,0,0,1-1.74.6A4.89,4.89,0,0,0,55.19,30.2Zm2.61-9.48c-.6.18-1.17.36-1.74.51a1.49,1.49,0,0,1-.48.84c1.47-.75,3-1.32,4.53-1.92a3.66,3.66,0,0,1,.51-.21l0-.09Z"/><path class="cls-3" d="M83.84,12.47a1.69,1.69,0,0,1-.63,1.41,1.18,1.18,0,0,1-.45.18.3.3,0,0,1-.21.12c-1.53.3-3,.57-4.56.78,0,1.32,0,2.64,0,4,0,1.83,0,3.66,0,5.49,0,1.05.09,2.1.12,3.15a2.49,2.49,0,0,1-.72,1.86v-.06c0-.42,0-.84.06-1.26V27a17.35,17.35,0,0,1-.36,2,1.32,1.32,0,0,1-1.59.84C74.24,29.39,74,28,73.91,26.84c-.09-1.53-.06-3.09,0-4.62s.18-3.09.24-4.65l.06-1.32v-1H73c-.81,0-1.62,0-2.4-.09a4.76,4.76,0,0,1-1.83-.51,2.64,2.64,0,0,1-1-1.17,1.59,1.59,0,0,1-.78-1.77,1.5,1.5,0,0,1,1.44-1.11c1.65.15,3.27.27,4.92.27,0,0,0-.06,0-.09a44.59,44.59,0,0,1-4.86-.54c-.09,0-.06-.18,0-.15A87.86,87.86,0,0,0,81.2,9.92c.33-.06.63-.09.93-.12a2.89,2.89,0,0,1,.51,0c.45-.06.9-.09,1.35-.15.27,0,.36.48.06.54a.51.51,0,0,0-.21,0,.63.63,0,0,1,.18.12A1.06,1.06,0,0,1,84,12.17.9.9,0,0,1,83.84,12.47Zm-11.61,2a18.31,18.31,0,0,1-3.57-.69,3.17,3.17,0,0,0,2,.69A14.05,14.05,0,0,0,72.23,14.48Z"/><path class="cls-3" d="M104.84,20.42a.78.78,0,0,1-.54,1c-1.47.36-2-1.62-2.16-3,0,0,0,0-.06,0a8.6,8.6,0,0,0-3.63-2.88,13.39,13.39,0,0,0-2.34-.78l1.23,1.17c1,.93,1.92,1.89,2.82,2.88s1.77,1.86,2.55,2.85a5.72,5.72,0,0,1,1.14,2.25,4.26,4.26,0,0,1,.39,2.34c-.06,2-2.1,3.36-4,3.45h-.09A7.79,7.79,0,0,1,97,29.36a6,6,0,0,1-1.86-.78,2.39,2.39,0,0,1-.72,1.32.76.76,0,0,1-1.08,0,2.66,2.66,0,0,1-.72-1.38,1.67,1.67,0,0,1-.33-.78,32.08,32.08,0,0,0-1-5,22.6,22.6,0,0,1-.48-2.85,7.79,7.79,0,0,1-.12-2.64A1.55,1.55,0,0,1,91.94,16a1.32,1.32,0,0,1,1.56.9c.63,2,.72,4.11,1.41,6.09a6,6,0,0,0,1.17,2,9.55,9.55,0,0,0,1,.9,4.58,4.58,0,0,0,1.08.21,10.26,10.26,0,0,0,1.92,0c.39,0,1-.09,1.23-.45a.33.33,0,0,0,.09-.27c.15-.33-.12-.9-.24-1.14s-.15-.3-.21-.48c-.27-.36-.57-.72-.87-1.08-.93-1.11-1.89-2.19-2.91-3.24-.39-.45-.81-.87-1.23-1.29l-.45-.36A23.07,23.07,0,0,1,91.67,14a3.22,3.22,0,0,1-.84-2.61A2,2,0,0,1,93,9.89a8.76,8.76,0,0,1,2,.45.8.8,0,0,1,.45,0,16.56,16.56,0,0,1,4.5,2.07,14.33,14.33,0,0,1,1.92,1.41l.15.15c0-.51,0-1,0-1.53a1.47,1.47,0,1,1,2.94,0,20.6,20.6,0,0,1-.24,4.29c0,.75,0,1.47,0,2.19A12.5,12.5,0,0,0,104.84,20.42Z"/><path class="cls-3" d="M122.54,12.47a1.69,1.69,0,0,1-.63,1.41,1.18,1.18,0,0,1-.45.18.3.3,0,0,1-.21.12c-1.53.3-3,.57-4.56.78,0,1.32,0,2.64,0,4,0,1.83,0,3.66,0,5.49,0,1.05.09,2.1.12,3.15a2.49,2.49,0,0,1-.72,1.86v-.06c0-.42,0-.84.06-1.26V27a17.35,17.35,0,0,1-.36,2,1.32,1.32,0,0,1-1.59.84c-1.26-.39-1.53-1.77-1.59-2.94-.09-1.53-.06-3.09,0-4.62s.18-3.09.24-4.65l.06-1.32v-1h-1.17c-.81,0-1.62,0-2.4-.09a4.76,4.76,0,0,1-1.83-.51,2.64,2.64,0,0,1-1-1.17,1.59,1.59,0,0,1-.78-1.77,1.5,1.5,0,0,1,1.44-1.11c1.65.15,3.27.27,4.92.27,0,0,0-.06,0-.09a44.59,44.59,0,0,1-4.86-.54c-.09,0-.06-.18,0-.15a87.86,87.86,0,0,0,12.57-.21c.33-.06.63-.09.93-.12a2.89,2.89,0,0,1,.51,0l1.35-.15c.27,0,.36.48.06.54a.51.51,0,0,0-.21,0,.63.63,0,0,1,.18.12,1.06,1.06,0,0,1-.06,1.83A.9.9,0,0,1,122.54,12.47Zm-11.61,2a18.31,18.31,0,0,1-3.57-.69,3.17,3.17,0,0,0,2,.69A14.05,14.05,0,0,0,110.93,14.48Z"/><path class="cls-3" d="M128.9,22.49l-2.34,0a33.34,33.34,0,0,0-.93,5.4.24.24,0,1,1-.48,0,24.08,24.08,0,0,1,1-5.4h-.27c-.39,1.47-.9,4.53-.9,4.53l-.18,1.35c-.24,2.73-4,2.31-3.57-.51a44.93,44.93,0,0,1,1-5.25,7.94,7.94,0,0,1-.81.06.4.4,0,0,0,0-.27c-1.92-.48-1.92-3.75,1.65-4.29a32,32,0,0,1,1.68-5.79c.54-1.17,1.14-3,2.67-3.06a1.54,1.54,0,0,1,1.35.81,1.67,1.67,0,0,1,1.59,1.62c.09,1.2.21,2.43.33,3.6,0,0,0,0,.06,0,0-1,.09-2.07.21-3.06,0-.3.21,4.23.42,6a2.17,2.17,0,0,1,1,4c.39,1.77.9,4.2,1.14,6,.33,2.7-1.89,2.76-2.58.6C130.34,28.73,129.14,23.57,128.9,22.49Zm-.75-4c-.12-.75-.27-2.79-.57-4.17-.48,1.68-.84,2.88-1.11,4.29C126.89,18.56,127.73,18.53,128.15,18.5Z"/><path class="cls-3" d="M151.34,19a1.15,1.15,0,0,1-1.11,1c-1.41-.09-2.82-.21-4.23-.33a30.75,30.75,0,0,1,2.16,3.72c.81,1.71,1.86,3.6,1.62,5.55a.88.88,0,0,1-1.29.6,1.51,1.51,0,0,1-.81-.09s-.06,0-.06,0a.38.38,0,0,1-.39.09c-.54-1.41-1.14-2.82-1.74-4.2-.33-.78-1.14-2.76-1.71-3.87a9,9,0,0,0-.48-.93v0c-.18-.27-.36-.57-.51-.84l-2.37-.12c.15,1.35.27,2.73.33,4.11a37.1,37.1,0,0,1,.15,4.47,3.09,3.09,0,0,1,0,.51,2.58,2.58,0,0,1-.69.9,1,1,0,0,1-1.35-.06,1.33,1.33,0,0,1-.18-.48.47.47,0,0,1-.54-.48,14.74,14.74,0,0,1-.15-2l-.27-2L137,20.33l-.18-1h-.18a.22.22,0,0,0-.18-.21c-.33-.09-.66-.21-1-.33l.69-.09a5.18,5.18,0,0,1-.9-.48c-.84-.54-.48-2,.42-2a3.26,3.26,0,0,1,.54,0c-.21-1-.42-2.07-.66-3.09a2.65,2.65,0,0,0,.63-.66,1.75,1.75,0,0,1-.57-2c.57-1.11,2.37-.72,3.36-.54a.38.38,0,0,1,.27.12l.63.24.09,0c3.3,1.05,6.27,3.09,9.21,5.07a1.14,1.14,0,0,1,.42.66c.42.3.84.63,1.23.93a1.56,1.56,0,0,1,.57,1.56Zm-12-5c.15-.15.45-.15.48.12.15.63.3,1.26.42,1.89.15,0,.33,0,.48.06a.8.8,0,0,1,.27-.45c.9-.57,1.89.24,2.58.81l2.91.36a21.72,21.72,0,0,0-7.29-3.48l.09.48C139.28,13.88,139.28,14,139.31,14Zm1.5,5.85h.24c.3,1.74.45,3.54.6,5.34a5.85,5.85,0,0,1-.27,2.1C141.26,24.83,141.17,22.34,140.81,19.88Z"/><path class="cls-3" d="M166,12.47a1.69,1.69,0,0,1-.63,1.41,1.18,1.18,0,0,1-.45.18.3.3,0,0,1-.21.12c-1.53.3-3,.57-4.56.78,0,1.32,0,2.64,0,4,0,1.83,0,3.66,0,5.49,0,1.05.09,2.1.12,3.15a2.49,2.49,0,0,1-.72,1.86v-.06c0-.42,0-.84.06-1.26V27a17.35,17.35,0,0,1-.36,2,1.32,1.32,0,0,1-1.59.84c-1.26-.39-1.53-1.77-1.59-2.94-.09-1.53-.06-3.09,0-4.62s.18-3.09.24-4.65l.06-1.32v-1h-1.17c-.81,0-1.62,0-2.4-.09a4.76,4.76,0,0,1-1.83-.51,2.64,2.64,0,0,1-1-1.17,1.59,1.59,0,0,1-.78-1.77,1.5,1.5,0,0,1,1.44-1.11c1.65.15,3.27.27,4.92.27,0,0,0-.06,0-.09a44.59,44.59,0,0,1-4.86-.54c-.09,0-.06-.18,0-.15a87.86,87.86,0,0,0,12.57-.21c.33-.06.63-.09.93-.12a2.89,2.89,0,0,1,.51,0c.45-.06.9-.09,1.35-.15.27,0,.36.48.06.54a.51.51,0,0,0-.21,0,.63.63,0,0,1,.18.12,1.06,1.06,0,0,1-.06,1.83A.9.9,0,0,1,166,12.47Zm-11.61,2a18.31,18.31,0,0,1-3.57-.69,3.17,3.17,0,0,0,2,.69A14.05,14.05,0,0,0,154.43,14.48Z"/><path class="cls-3" d="M183.65,26.51a45.08,45.08,0,0,0-6.57,1.74c-1,.36-2,.72-3,1.14h0l-.21.09-1,.42,0,0a12.21,12.21,0,0,1-2,.72,2.32,2.32,0,0,1-.3,0,1,1,0,0,1-1.26-.45.68.68,0,0,1,0-.42,1.66,1.66,0,0,1-1-2c-.18-1-.24-2.1-.33-3.15l-.36-3.6-.36-3.42a1.91,1.91,0,0,1-.48-1.47,2.05,2.05,0,0,1,.75-1.41,1.78,1.78,0,0,0,.12-.24c.63-.27,1.29-.51,1.92-.72a47.27,47.27,0,0,1,6.06-1.56c1.59-.36,3.15-.78,4.71-1.2a3.54,3.54,0,0,1,.6.12l.48.18.48.39a3.63,3.63,0,0,1,.18,1.86l-1.5.45c-.66.21-1.35.42-2,.6a.43.43,0,0,1-.18.06c-1.53.42-4.5,1.32-4.83,1.47-1,.33-1.92.69-2.85,1.08l-.06.06c0,.3.21,1.38.21,1.53,1.68-.72,3.33-1.44,5-2.07,1-.24,2-.51,2.91-.78l.39-.09c.36-.06.69-.09,1.05-.12.75,0,1.47,0,1.89.72a1.77,1.77,0,0,1,.12.24,1.84,1.84,0,0,1,.15.36s0,0,.06,0a1.11,1.11,0,0,1,.51.75,1.45,1.45,0,0,1-.78,1.5,8.61,8.61,0,0,1-2,.42c-.72.12-1.47.27-2.19.45a32.36,32.36,0,0,0-4.26,1.44c-.87.36-1.68.78-2.52,1.2l.18,1.95V25l.09-.06c.66-.3,1.32-.57,2-.84l2.55-1c.45-.18.9-.36,1.35-.51.72-.27,1.44-.54,2.16-.78l1.17-.36c.33-.09.63-.24,1-.33,2.31-.48,2.88,2.16,3,3.87a1.4,1.4,0,0,1-.57,1.23A.35.35,0,0,1,183.65,26.51ZM173.48,11.72l.69-.18a30.51,30.51,0,0,1,3.75-.57,7.31,7.31,0,0,1,.81,0c-1.17.3-2.37.6-3.54.87a52.94,52.94,0,0,0-6.06,1.59,16.37,16.37,0,0,0-2,.78c-.06,0-.06-.12,0-.18A29.78,29.78,0,0,1,173.48,11.72ZM171.29,30.2a.11.11,0,0,0,.09,0c.24-.12.48-.24.69-.36.48-.24.93-.48,1.38-.72V29c-.54.21-1.08.42-1.65.6a17,17,0,0,1-1.74.6A4.89,4.89,0,0,0,171.29,30.2Zm2.61-9.48c-.6.18-1.17.36-1.74.51a1.49,1.49,0,0,1-.48.84c1.47-.75,3-1.32,4.53-1.92a3.66,3.66,0,0,1,.51-.21l0-.09Z"/><path class="cls-3" d="M199.46,29.6a12.43,12.43,0,0,1-4.71.06c-.75-.12-1.5-.27-2.22-.45a.92.92,0,0,1-.57.54.66.66,0,0,1-.42-.06.65.65,0,0,1-.48.21,1.74,1.74,0,0,1-1.11-.24,2.29,2.29,0,0,1-1-1.65c-1-.39-1.89-.81-2.82-1.29a1.81,1.81,0,0,1-.63-2.49,1.84,1.84,0,0,1,2.46-.66l.12.09c-.06-.36-.12-.69-.21-1.05-.66-3.36-1.35-6.69-2-10,0-.12-.09-.24-.12-.33a1,1,0,0,1,.81-1.2,2.35,2.35,0,0,1,.42-.06c.27-.78,1.65-1,2.34-1,2,.15,3.45,1.47,4.86,2.82,1.56,1.5,3.12,3,4.56,4.68a20,20,0,0,1,1.47,1.71,20.51,20.51,0,0,1,2,3.18c.72,1.41,1.38,3.12.72,4.68A5,5,0,0,1,199.46,29.6Zm-13-15c.51,2.07.93,4.14,1.47,6.21l.81,3.21c.18.09.36.21.54.3a15,15,0,0,1-.48-1.53c-.39-1.41-1.68-6.75-2.07-8C186.71,14.66,186.38,14.21,186.47,14.63Zm11.61,7.26A21.44,21.44,0,0,0,195,18.56a20.38,20.38,0,0,0-3.75-2.73l-.57-.3c.51,2.49,1,5,1.38,7.5.15.9.33,1.8.48,2.7a22.75,22.75,0,0,0,2.88.84,8.72,8.72,0,0,0,1.95.27,5.83,5.83,0,0,0,1.8-.18,2.71,2.71,0,0,0,1.26-.57A3.67,3.67,0,0,0,200,25c-.18-.36-.36-.75-.57-1.08C199,23.24,198.56,22.55,198.08,21.89Z"/><path class="cls-3" d="M54.15,79.66a1.25,1.25,0,0,1-1.44,1c-.06,1.47-.15,3-.24,4.44-.06.75-.12,1.47-.21,2.19s-.21,1.68-.84,2c0,0,0,0,0,0a1.42,1.42,0,0,1-.39.33,1,1,0,0,1-1.41-.27,2.09,2.09,0,0,1-.36-1.2c-.09-1.17-.15-2.31-.18-3.48S49,82.48,49,81.34V80.23h-.6c-1.14,0-2.31,0-3.45.09,0,.87.06,1.74.06,2.61a16.29,16.29,0,0,1-.15,3V86c0,.24,0,.51-.06.75a2.94,2.94,0,0,1-.51,1.59,1.42,1.42,0,0,1-2.43-.15,3,3,0,0,1-.21-.45.37.37,0,0,1-.39-.33c-.18-2.22-.21-4.47-.3-6.69l-.3.12A1.17,1.17,0,0,1,39.27,79a2.56,2.56,0,0,1,.48-.51,1.92,1.92,0,0,1,1.08-.78c0-1.2-.06-2.43-.12-3.66,0-1.41-.15-2.85-.09-4.26a0,0,0,0,1,.09,0,43.17,43.17,0,0,1,.54,4.41c.12,1.11.24,2.28.33,3.39,0,0,.06-.09.09-.09h.06a59.25,59.25,0,0,0-.39-6.93,1.28,1.28,0,0,1,1.08-1.41,1.25,1.25,0,0,1,1.41,1.08v.06a.68.68,0,0,1,.33.09c.3.12.42.69.45,1l.09,1.44c.09,1.38.18,2.76.27,4.11H45c1-.15,2.1-.24,3.15-.33.33,0,.63-.09,1-.12-.06-1.23-.15-2.49-.21-3.72-.18-1.05-.36-2.25.66-2.94a1.89,1.89,0,0,1,2.76.45,7.21,7.21,0,0,1,.51,3.3.82.82,0,0,1,0,.27c0,.69,0,1.41,0,2.13v.66c.24,0,.48.12.75.18a1.71,1.71,0,0,1,.54,2.76ZM45,79.45a.3.3,0,0,1-.12.15v.12a34.24,34.24,0,0,1,3.48-.18,4.23,4.23,0,0,0,.6,0v-.15c-1,0-2-.06-3,0C45.66,79.42,45.33,79.45,45,79.45Z"/><path class="cls-3" d="M66.27,81.73a10,10,0,0,1-1.41,4.89,7.22,7.22,0,0,1-1.11,1.23,3.65,3.65,0,0,1-2.1,1.08,5.46,5.46,0,0,1-1,0,3.73,3.73,0,0,1-2.91-.84,7.74,7.74,0,0,1-2.31-4.77,16.62,16.62,0,0,1,2-11.16s0,0,.06-.06a8.46,8.46,0,0,1,1.2-2.16c0-.06.09,0,.06,0a6.56,6.56,0,0,0-.48.9c-.15.33-.27.66-.39,1a.64.64,0,0,1,.24,0,3.62,3.62,0,0,1,2.19-2.25,2.73,2.73,0,0,1,1.17-.24,1.9,1.9,0,0,1,1.29.12,3,3,0,0,1,.9,1.14.55.55,0,0,1,.69.24,19,19,0,0,1,1.14,2.52,22.24,22.24,0,0,1,.6,2.73A20.66,20.66,0,0,1,66.27,81.73ZM63,80.47c-.12-1.5-.21-3-.45-4.5-.09-.45-.15-.9-.24-1.32s-.36-1.08-.57-1.59a6.42,6.42,0,0,0-.3-.66.23.23,0,0,0-.12-.06h-.15a5.42,5.42,0,0,0-.39,1A20.61,20.61,0,0,0,60,76.69a24.24,24.24,0,0,0,.12,6.75,1.31,1.31,0,0,1-.12.9c-.84-3.9-.78-8.31.93-11.91a1.66,1.66,0,0,0-.42.57,13.54,13.54,0,0,0-1.2,3.57c0,.06,0,.09-.06.12-.12.69-.18,1.38-.24,2.07a22.51,22.51,0,0,0,.6,6,1.11,1.11,0,0,1-.33.15,1.42,1.42,0,0,1-1.05-.18c.48,1,1.53,2.22,2.82,1.83a1.47,1.47,0,0,0,.81-.72,4.3,4.3,0,0,0,.42-1A12.87,12.87,0,0,0,63,80.47Z"/><path class="cls-3" d="M85.5,87.07V87c0,.12,0,.24-.06.36a1.19,1.19,0,0,1-.93.93,1.31,1.31,0,0,1-2-.66,37.84,37.84,0,0,0-2.91-6c-.57-1-1.2-1.92-1.86-2.85-.24-.33-.48-.66-.75-1-.18,1.08-.36,2.16-.6,3.21a30,30,0,0,1-1,3.9,14.09,14.09,0,0,1-1.68,3.36.11.11,0,0,1-.15.06.86.86,0,0,1-.42-.75c-.06.18-.15.36-.21.54a1.14,1.14,0,0,1-2.22,0,.71.71,0,0,1-.27-.48c-.48-2.76-.78-5.58-1.11-8.37s-.75-5.46-1.11-8.22a.94.94,0,0,1,1.38-1A4.15,4.15,0,0,1,71,71.26.89.89,0,0,1,71,71a3.08,3.08,0,0,0-.15-.72c-.12-.3-.75-.84-.93-.24,0,.06-.06,0-.06,0,0-.69,1.11-.63,1.5.33A18.75,18.75,0,0,1,72,72.55c.18.66.33,1.32.48,2,.21,2.4.42,4.77.78,7.14a.72.72,0,0,0,.18.33c.15-.69.24-1.38.33-2.07a27,27,0,0,0,0-4.92,25.43,25.43,0,0,1-.18-2.61c0-.84-.09-1.62.84-2a1,1,0,0,1,.81.12,1.58,1.58,0,0,1,.36-.42,7.49,7.49,0,0,1,2.49,3.18,49.22,49.22,0,0,1,4.26,7.29l-.18-1.65c-.24-2.76-.57-5.52-.78-8.28a1.61,1.61,0,0,1,3.21,0L85,75l.12,0c-.06-1.77-.15-3.54-.3-5.28,0-.06.06-.06.09,0a74.16,74.16,0,0,1,1.5,17.46A.47.47,0,0,1,85.5,87.07Zm-12.33.48a.47.47,0,0,0,.33.54c.36-1.17.75-2.34,1-3.54a15.34,15.34,0,0,1-1.29,2.64,1.07,1.07,0,0,0-.12.33S73.17,87.52,73.17,87.55Z"/><path class="cls-3" d="M110.43,71.62A1.69,1.69,0,0,1,109.8,73a1.18,1.18,0,0,1-.45.18.3.3,0,0,1-.21.12c-1.53.3-3,.57-4.56.78,0,1.32,0,2.64,0,4,0,1.83,0,3.66,0,5.49,0,1,.09,2.1.12,3.15a2.49,2.49,0,0,1-.72,1.86v-.06c0-.42,0-.84.06-1.26V86.11a17.35,17.35,0,0,1-.36,2,1.32,1.32,0,0,1-1.59.84c-1.26-.39-1.53-1.77-1.59-2.94-.09-1.53-.06-3.09,0-4.62s.18-3.09.24-4.65l.06-1.32v-1H99.63c-.81,0-1.62,0-2.4-.09a4.76,4.76,0,0,1-1.83-.51,2.64,2.64,0,0,1-1-1.17,1.59,1.59,0,0,1-.78-1.77,1.5,1.5,0,0,1,1.44-1.11c1.65.15,3.27.27,4.92.27,0,0,0-.06,0-.09a44.59,44.59,0,0,1-4.86-.54c-.09,0-.06-.18,0-.15a87.86,87.86,0,0,0,12.57-.21c.33-.06.63-.09.93-.12a2.89,2.89,0,0,1,.51,0c.45-.06.9-.09,1.35-.15.27,0,.36.48.06.54a.51.51,0,0,0-.21,0,.63.63,0,0,1,.18.12,1.06,1.06,0,0,1-.06,1.83A.9.9,0,0,1,110.43,71.62Zm-11.61,2a18.31,18.31,0,0,1-3.57-.69,3.17,3.17,0,0,0,2,.69A14.05,14.05,0,0,0,98.82,73.63Z"/><path class="cls-3" d="M120.87,81.73a10,10,0,0,1-1.41,4.89,7.22,7.22,0,0,1-1.11,1.23,3.65,3.65,0,0,1-2.1,1.08,5.46,5.46,0,0,1-1,0,3.73,3.73,0,0,1-2.91-.84A7.74,7.74,0,0,1,110,83.32,16.62,16.62,0,0,1,112,72.16s0,0,.06-.06a8.46,8.46,0,0,1,1.2-2.16c0-.06.09,0,.06,0a6.56,6.56,0,0,0-.48.9c-.15.33-.27.66-.39,1a.64.64,0,0,1,.24,0,3.62,3.62,0,0,1,2.19-2.25,2.73,2.73,0,0,1,1.17-.24,1.9,1.9,0,0,1,1.29.12,3,3,0,0,1,.9,1.14.55.55,0,0,1,.69.24,19,19,0,0,1,1.14,2.52,22.24,22.24,0,0,1,.6,2.73A20.66,20.66,0,0,1,120.87,81.73Zm-3.27-1.26c-.12-1.5-.21-3-.45-4.5-.09-.45-.15-.9-.24-1.32s-.36-1.08-.57-1.59a6.42,6.42,0,0,0-.3-.66.23.23,0,0,0-.12-.06h-.15a5.42,5.42,0,0,0-.39,1,20.61,20.61,0,0,0-.75,3.33,24.24,24.24,0,0,0,.12,6.75,1.31,1.31,0,0,1-.12.9c-.84-3.9-.78-8.31.93-11.91a1.66,1.66,0,0,0-.42.57,13.54,13.54,0,0,0-1.2,3.57c0,.06,0,.09-.06.12-.12.69-.18,1.38-.24,2.07a22.51,22.51,0,0,0,.6,6,1.11,1.11,0,0,1-.33.15,1.42,1.42,0,0,1-1-.18c.48,1,1.53,2.22,2.82,1.83a1.47,1.47,0,0,0,.81-.72,4.3,4.3,0,0,0,.42-1A12.87,12.87,0,0,0,117.6,80.47Z"/><path class="cls-3" d="M135.66,80c-.27-.06-.54-.09-.81-.15.06.36.15.72.21,1,.27,1.47.57,3,.72,4.44a5.81,5.81,0,0,1-.15,2.16,3.16,3.16,0,0,1-.9,1.38c-.33.27-1,.6-1.32.15a2.91,2.91,0,0,1-.39-1.53c-.06-.36-.12-.75-.15-1.14a11.42,11.42,0,0,1-.36-1.53,8.73,8.73,0,0,0,.12.93c.06.54.12,1,.21,1.56a3.25,3.25,0,0,1,0,1.2s0,0,0,0a3.27,3.27,0,0,1-.3-1.32l-.27-1.56c-.15-1-.33-2-.48-3.09-.21-1.23-.39-2.49-.57-3.72a25.25,25.25,0,0,1-2.76-1.26s0-.09.06-.06c.87.42,1.77.78,2.67,1.11,0-.18-.09-.33-.12-.51-.69-.27-1.35-.57-2-.87a1.32,1.32,0,0,1-.48-1.8,1.35,1.35,0,0,1,1.5-.6l.18.09c-.36-1.32-.75-2.64-1.2-3.93a.92.92,0,0,1,.63-1.14.72.72,0,0,1,.3-.63,3.22,3.22,0,0,1,3.24.18c1,.51,1.92,1.11,2.85,1.71a47.94,47.94,0,0,1,5.37,4.2.77.77,0,0,1,.3.69,2.83,2.83,0,0,1,.36.9,2,2,0,0,1-.57,1.86C140.46,80.74,137.52,80.32,135.66,80Zm-.33-5.94c-.66-.33-1.32-.66-2-1,.3,1.14.6,2.28.84,3.45.63.21,1.26.39,1.92.54a10.27,10.27,0,0,0,3,.24,3.69,3.69,0,0,0,.6-.06l.24-.06a.63.63,0,0,0-.12-.18,5.82,5.82,0,0,0-1.89-1.47C137.07,75.07,136.2,74.56,135.33,74.08Zm-.78,13.8.06.09a1.08,1.08,0,0,0,.3-.21,4.68,4.68,0,0,0,.09-2.94l-.18-.93s0,.39,0,.39l.06.6A5.38,5.38,0,0,1,134.55,87.88Zm.18-8.58c0,.09,0,.18.06.24a1.28,1.28,0,0,0,.33.06,14.31,14.31,0,0,0,3.57.24l1.14-.18s-.63,0-.63,0a10.79,10.79,0,0,1-2.82-.06C135.84,79.54,135.3,79.42,134.73,79.3Z"/><path class="cls-3" d="M145.14,89.08a1.21,1.21,0,0,1-1.5-1.17c0-.3,0-.57,0-.87.06-1.17.06-2.34.09-3.51-.18-1.41-.33-2.85-.48-4.26-.27-2.85-.57-5.67-.75-8.49a1.34,1.34,0,0,1,1.71-1.38,2.51,2.51,0,0,1,.84.27,2,2,0,0,1,.78.33q.31,1.62.54,3.24l.15.87c0-.72,0-1.83-.06-2.34a4.3,4.3,0,0,0-.45-1.92c0-.09.09-.15.12-.06.81,1,.84,2.49,1,3.75.15,1.53.27,3.06.39,4.56s.21,3.18.27,4.77l.09,1.53a.09.09,0,0,0,.06,0v.06c0,.09,0,.12,0,.18a19.48,19.48,0,0,1,4.38-.57c.6,0,1.2,0,1.77,0a2.49,2.49,0,0,1,1.32.36,1.33,1.33,0,0,1,.66,1,2.63,2.63,0,0,1-.06.48c.12.15.24.3.36.48a1.18,1.18,0,0,1-1,1.74A30.81,30.81,0,0,0,145.14,89.08Zm-1.83-15.63c.18,2.16.3,4.29.45,6.42V78.22l-.09-4.41a8.12,8.12,0,0,1,.06-2.55l.09-1a1.4,1.4,0,0,1,.15-.3,1.33,1.33,0,0,0-.45.09c-.69.27-.39,1.2-.36,1.77S143.25,72.91,143.31,73.45Zm6.6,15.84q-1.22,0-2.43.18a13.3,13.3,0,0,1-2.43.21s0,0,0-.06a8.78,8.78,0,0,1,2.37-.51c.78-.09,1.53-.18,2.28-.24a48.86,48.86,0,0,1,5.13-.18c.39,0,.39.69,0,.66A38.47,38.47,0,0,0,149.91,89.29Z"/><path class="cls-3" d="M164.79,81.64l-2.34,0a33.34,33.34,0,0,0-.93,5.4.24.24,0,1,1-.48,0,24.08,24.08,0,0,1,1-5.4h-.27c-.39,1.47-.9,4.53-.9,4.53l-.18,1.35c-.24,2.73-4,2.31-3.57-.51a44.93,44.93,0,0,1,1-5.25,7.94,7.94,0,0,1-.81.06.4.4,0,0,0,0-.27c-1.92-.48-1.92-3.75,1.65-4.29a32,32,0,0,1,1.68-5.79c.54-1.17,1.14-3,2.67-3.06a1.54,1.54,0,0,1,1.35.81,1.67,1.67,0,0,1,1.59,1.62c.09,1.2.21,2.43.33,3.6,0,0,0,0,.06,0,0-1,.09-2.07.21-3.06,0-.3.21,4.23.42,6a2.17,2.17,0,0,1,1,4c.39,1.77.9,4.2,1.14,6,.33,2.7-1.89,2.76-2.58.6C166.23,87.88,165,82.72,164.79,81.64Zm-.75-4c-.12-.75-.27-2.79-.57-4.17-.48,1.68-.84,2.88-1.11,4.29C162.78,77.71,163.62,77.68,164,77.65Z"/><path class="cls-3" d="M183,76.39a2.5,2.5,0,0,0-.24.36,1.62,1.62,0,0,1-.18,2s-.09,0-.12.06a.79.79,0,0,1-.21.45,1.59,1.59,0,0,1-1.23.36L180.27,81c-.87,1.53-1.71,3.12-2.49,4.71A24.42,24.42,0,0,1,176.55,88a1.72,1.72,0,0,1-1.26,1,.14.14,0,0,1-.15-.12,1.41,1.41,0,0,1-2-1.59,25.75,25.75,0,0,1,1.05-2.49c.27-.54.51-1.11.78-1.65a1.05,1.05,0,0,1-.15-.24c-.27.51-.54,1-.78,1.59q-.63,1.31-1.17,2.61c0-.42.06-.84.09-1.26.54-1.26,1.08-2.49,1.65-3.72a1.32,1.32,0,0,1,.21-.81l.69-1c0-.06.06-.09.06-.12.42-.81.84-1.59,1.29-2.4-.48-.24-.93-.51-1.08-.6-1.14-.66-2.22-1.41-3.36-2a1.22,1.22,0,0,0-.27-.15,7.31,7.31,0,0,1-.84-.42,6.3,6.3,0,0,0-.78-.39l-.09-.18a.23.23,0,0,1-.12-.06c-.66-.45-1.74-1.08-1.59-2a1,1,0,0,1,.12-.36c-.48-.39-.09-1.56.48-1.71a1.55,1.55,0,0,1,.33-.06h.21a3.64,3.64,0,0,1,1.53.48c1,.42,2,.84,3,1.32A40.09,40.09,0,0,1,178.83,74l.72-1.17,1.32-2A9.93,9.93,0,0,1,182.22,69a.22.22,0,0,1,.33.09c.24,0,.45.27.27.48-1,1.38-1.95,2.76-2.85,4.2a5.13,5.13,0,0,0-.39.69,0,0,0,0,0,0,0s.24.15.24.15,1.32-2.07,1.38-2.13a14.6,14.6,0,0,1,2.58-3.3.36.36,0,0,1,.36-.12,1.68,1.68,0,0,1,1.74.36,1.59,1.59,0,0,1,.21,2,.46.46,0,0,1-.06.39C185.1,73.36,184,74.83,183,76.39Z"/></g></svg>