<svg xmlns="http://www.w3.org/2000/svg" viewBox="0 0 604.86 1613.43"><defs><style>.cls-1{fill:#52564e;}.cls-1,.cls-11,.cls-13,.cls-2,.cls-8{stroke:#fff;}.cls-1,.cls-10,.cls-11,.cls-12,.cls-13,.cls-2,.cls-3,.cls-8,.cls-9{stroke-miterlimit:10;}.cls-1,.cls-11,.cls-13{stroke-width:0.25px;}.cls-11,.cls-12,.cls-2,.cls-7,.cls-9{fill:#fff;}.cls-3{fill:#f7bbae;}.cls-10,.cls-3,.cls-9{stroke:#1d1d1b;}.cls-10,.cls-13,.cls-4,.cls-8{fill:#1d1d1b;}.cls-5{opacity:0.69;}.cls-6{fill:#df0833;}.cls-12{stroke:#f0f0f0;}</style></defs><g id="Layer_2" data-name="Layer 2"><rect class="cls-1" x="-6.23" y="-0.92" width="611.23" height="1613.92"/></g><g id="Layer_1" data-name="Layer 1"><ellipse class="cls-2" cx="302.33" cy="1006.5" rx="138.63" ry="134.37"/><ellipse class="cls-3" cx="263.12" cy="1000.09" rx="43.52" ry="32.04" transform="translate(-766.32 1098.37) rotate(-80.71)"/><ellipse class="cls-3" cx="332.36" cy="1006.03" rx="32.04" ry="43.52" transform="translate(-152.61 64.03) rotate(-8.96)"/><path class="cls-4" d="M350.54,1011.36c9.66,0,9.67-15,0-15s-9.66,15,0,15Z"/><g class="cls-5"><path class="cls-6" d="M237.57,1026.14a10.26,10.26,0,0,0,1.23-4.53c0-1-.33-2.27,1-2.34,1,0,1.95.14,2.92.09a4.35,4.35,0,0,0,3.2-1.3c.88-1,.8-2.5.82-3.77a17,17,0,0,0-.63-5c-.3-1.08-.75-2.72.83-3.07a9.45,9.45,0,0,0,1.74-.19c3-1.2,2.34-4.93,1.56-7.32-.24-.76-1.45-.44-1.2.33.54,1.68,1.31,3.93-.15,5.38-1,1-2.46.18-3.49,1.15a3.34,3.34,0,0,0-.73,3.18,24.06,24.06,0,0,1,.82,5.07c0,1.73.14,3.64-1.91,4.15-1.54.39-3.19-.29-4.73.13a1.91,1.91,0,0,0-1.39,2,11.26,11.26,0,0,1-1,5.42c-.38.71.7,1.34,1.08.63Z"/></g><path class="cls-4" d="M247.43,1023.49c9.65,0,9.67-15,0-15s-9.67,15,0,15Z"/><path class="cls-7" d="M209.11,924.78c-.12-2.09-2.37-3.29-4.31-4.07l-62.21-25.27c-1.41-.57-3.18-1.09-4.31-.08s-.78,3-.24,4.55a440.59,440.59,0,0,0,34,73.73"/><path class="cls-7" d="M211.61,924.78a7,7,0,0,0-4-5.52,78.07,78.07,0,0,0-7.67-3.21l-16.59-6.74-33.18-13.47c-2.61-1.06-5.24-2.36-7.93-3.18-2.51-.76-5.4-.3-6.69,2.23s-.14,5.1.7,7.44q1.42,4,2.91,7.9,6,15.79,13.2,31.13,8,17.14,17.53,33.54c1.61,2.78,5.93.27,4.31-2.53a437.36,437.36,0,0,1-27.15-55.64q-2.93-7.26-5.58-14.63c-.38-1.06-.79-2.11-1.14-3.19a6.9,6.9,0,0,1-.31-1.1c-.11-.73.22-.6-.21-.5a3.72,3.72,0,0,1,1.79.41c1.27.48,2.52,1,3.78,1.54L176,911.7l17.05,6.93,8.75,3.55a34.76,34.76,0,0,1,3.26,1.4c.44.24,1.48.86,1.52,1.2a2.58,2.58,0,0,0,2.5,2.5,2.51,2.51,0,0,0,2.5-2.5Z"/><ellipse class="cls-8" cx="296.95" cy="1054.87" rx="14.44" ry="4.65"/><path class="cls-4" d="M296.24,1072.47a27.87,27.87,0,0,1-9.56,2.92,21.29,21.29,0,0,1-10.42-.9,2.52,2.52,0,0,0-3.07,1.75,2.54,2.54,0,0,0,1.74,3.07c3.79,1.5,8.16,1.53,12.15,1a34,34,0,0,0,11.69-3.55c2.85-1.5.32-5.82-2.53-4.32Z"/><path class="cls-4" d="M296.87,1076.86a53.44,53.44,0,0,0,11.49,2.88c4,.56,8.51.72,11.71-2.17a2.5,2.5,0,0,0-3.54-3.54,5.85,5.85,0,0,1-3.38,1,23.74,23.74,0,0,1-5-.39,52.73,52.73,0,0,1-10-2.65,2.5,2.5,0,1,0-1.33,4.82Z"/><path class="cls-7" d="M424.3,964.92c2.09,0,3.4-2.2,4.28-4.1Q442.79,930.4,457,900c.65-1.38,1.26-3.12.31-4.31s-3-.93-4.53-.47a440.58,440.58,0,0,0-75.37,30.21"/><path class="cls-7" d="M424.3,967.42a7.07,7.07,0,0,0,5.65-3.83,75.52,75.52,0,0,0,3.53-7.37L441.05,940l15.15-32.45c1.2-2.58,2.58-5.14,3.58-7.81s.49-5.52-2.08-6.87c-2.27-1.19-4.91-.3-7.18.39-2.7.81-5.4,1.65-8.08,2.52q-16,5.16-31.56,11.52-17.7,7.25-34.75,16c-2.86,1.47-.34,5.78,2.52,4.32A437,437,0,0,1,436,903.2q7.34-2.52,14.76-4.78c1.11-.33,2.21-.71,3.34-1a6.9,6.9,0,0,1,1-.15c.14,0,.41,0,.26-.07s.09-.42-.05,0c0,.09,0,.37-.07.47a6.59,6.59,0,0,1-.48,1.28c-.58,1.28-1.19,2.56-1.79,3.83l-13.88,29.75-7.89,16.9-3.89,8.34c-.51,1.08-1.68,4.58-3,4.66a2.5,2.5,0,0,0,0,5Z"/><path class="cls-4" d="M269.24,1053.56a127.07,127.07,0,0,0-35.46,2c-.79.15-.45,1.36.33,1.2a125.84,125.84,0,0,1,35.13-1.92c.8.06.8-1.19,0-1.25Z"/><path class="cls-4" d="M324.59,1056.29a210.65,210.65,0,0,1,42,5.85c.78.19,1.11-1,.33-1.21a212.39,212.39,0,0,0-42.35-5.89c-.81,0-.81,1.22,0,1.25Z"/><path class="cls-4" d="M324,1066.11a41.61,41.61,0,0,1,26.19,7.37c.66.46,1.29-.63.63-1.08a42.67,42.67,0,0,0-26.82-7.54c-.8.05-.8,1.3,0,1.25Z"/><path class="cls-4" d="M265.81,1063.2q-16.53,3.27-32.74,7.89a.63.63,0,0,0,.33,1.21q16.2-4.62,32.74-7.89c.79-.16.45-1.36-.33-1.21Z"/><path class="cls-7" d="M395.49,913.77a37.86,37.86,0,0,0-6.37-23.31,5,5,0,0,0-2.32-2.14,5.24,5.24,0,0,0-3,.22l-29.39,8a141.64,141.64,0,0,0-7.59-37.15A206,206,0,0,1,332.44,895a238.86,238.86,0,0,0-19.63-39.24,86.44,86.44,0,0,0-16.77,31,45.78,45.78,0,0,0-14.11-33.69,49.57,49.57,0,0,0-8.63,30.48,4.32,4.32,0,0,1-.63,3.14c-1.09,1.22-3.08.7-4.59.06a169.66,169.66,0,0,1-27.2-14.49c-2,4.72,0,10.41,3.5,14.14s8.36,5.92,13.05,8c-5.09,1.76-10.67.37-15.85-1.1q-18.39-5.22-36.38-11.66c4.27,3.61,9.6,5.66,14.37,8.55s9.3,7.15,10.1,12.68c-11.3.87-22.58-1.34-33.7-3.54l12.86,14.74-21.28-9.29a141.71,141.71,0,0,1,17.35,14"/><path class="cls-7" d="M398,913.77a40.53,40.53,0,0,0-5.68-23,12.36,12.36,0,0,0-3.61-4.34c-2.06-1.27-4.36-.66-6.52-.07L368.93,890l-15.18,4.14,3.16,2.41a146.2,146.2,0,0,0-7.67-37.81,2.53,2.53,0,0,0-4.83,0,205.62,205.62,0,0,1-14.13,35l4.57.6A243.94,243.94,0,0,0,315,854.51c-.79-1.27-2.86-1.79-3.93-.51a90.41,90.41,0,0,0-17.42,32.13l4.92.66a48.45,48.45,0,0,0-14.84-35.45,2.54,2.54,0,0,0-3.93.5,51.85,51.85,0,0,0-9,31.93,4.36,4.36,0,0,1,0,1.3c-.08.25,0-.1.08-.1a5.25,5.25,0,0,1-2-.53,133.37,133.37,0,0,1-12.9-6.12q-7.12-3.77-13.88-8.19c-1.49-1-3.1.09-3.67,1.49-2.17,5.32-.19,11.31,3.27,15.58,3.68,4.54,9.22,7.08,14.43,9.42l.6-4.57c-3.94,1.29-8,.62-11.91-.39-4.35-1.11-8.66-2.44-13-3.75q-13.11-4-26-8.62c-2.3-.82-4.34,2.59-2.43,4.18,4.56,3.79,10,6,15,9,4.14,2.54,8,6.09,8.79,11.08l2.41-3.16c-11.16.81-22.15-1.3-33-3.46a2.53,2.53,0,0,0-2.44,4.18l12.86,14.75,3-3.93-21.28-9.29a2.5,2.5,0,0,0-2.53,4.32,142.5,142.5,0,0,1,16.86,13.63c2.34,2.21,5.88-1.32,3.53-3.53a150,150,0,0,0-17.86-14.42L186.28,907l21.29,9.29c2.56,1.12,5-1.68,3-3.92l-12.86-14.75-2.43,4.18c11.3,2.23,22.78,4.47,34.36,3.63a2.56,2.56,0,0,0,2.41-3.17c-.92-5.7-5.18-10.11-9.79-13.23-4.92-3.33-10.72-5.28-15.32-9.1l-2.43,4.18q13.36,4.78,27,8.91c4.42,1.33,8.85,2.75,13.35,3.79,4.35,1,8.92,1.48,13.24.06,1.84-.6,2.69-3.62.59-4.57-4.5-2-9.26-4.09-12.67-7.78-2.87-3.09-4.37-7.54-2.73-11.57l-3.67,1.5a171.27,171.27,0,0,0,27.2,14.49c2.13.9,4.6,1.58,6.73.27,2.32-1.43,2.29-4.09,2.21-6.49a46.89,46.89,0,0,1,1.59-13.8,47.65,47.65,0,0,1,6.74-14.55l-3.93.5a43.46,43.46,0,0,1,13.38,31.92c-.05,2.86,4.1,3.34,4.91.66a84.31,84.31,0,0,1,16.13-29.91l-3.93-.51A237.46,237.46,0,0,1,330,895.68c.72,1.83,3.5,2.68,4.57.6a214.21,214.21,0,0,0,14.64-36.21h-4.83a140.86,140.86,0,0,1,7.5,36.48,2.53,2.53,0,0,0,3.17,2.41l15.42-4.2,7.7-2.1,3.86-1.06a21.26,21.26,0,0,1,3.46-.91c.77-.06,1,.44,1.44,1a27.59,27.59,0,0,1,1.77,2.89,34,34,0,0,1,2.59,6A36.13,36.13,0,0,1,393,913.77c-.18,3.22,4.82,3.21,5,0Z"/><path class="cls-7" d="M437.38,999.11a74.57,74.57,0,0,1,14.1,2,53.24,53.24,0,0,0-15.66,1.41c-2.92.71-6.5,3.39-4.86,5.92a5,5,0,0,0,2.84,1.7l13.86,4.47-11.77,4.8q9.56,3.43,19.13,6.77l-28.12,7.87a70.28,70.28,0,0,0,23.27,7c.08,3-3.5,4.43-6.39,5.08l-29.15,6.51c5.39,6.13,14.17,7.7,22.24,8.9l-19.23,1.76L435,1073a79.92,79.92,0,0,1-25,4.6l18.22,14c-7.64,3.27-16.35,2.09-24.56.85a31.4,31.4,0,0,0,10.51,9.47,17,17,0,0,1-17.82-1.45"/><path class="cls-7" d="M437.38,1001.61a73.36,73.36,0,0,1,13.43,1.95l.67-4.91a56.75,56.75,0,0,0-13.52.9c-3.48.64-7.49,1.77-9.28,5.17a5,5,0,0,0,.23,5.17c1.21,1.77,3.2,2.37,5.15,3l12.93,4.17v-4.82l-11.76,4.8a2.53,2.53,0,0,0,0,4.83q9.54,3.42,19.12,6.76v-4.82l-28.12,7.86c-2,.55-2.57,3.59-.59,4.57a74.77,74.77,0,0,0,24.53,7.35l-2.5-2.5a.83.83,0,0,1-.22.69,4.18,4.18,0,0,1-.76.64,9.81,9.81,0,0,1-2.95,1.18c-3.17.83-6.41,1.45-9.61,2.16L414,1050.27c-1.94.43-2.3,2.85-1.11,4.18,5.92,6.58,15,8.29,23.35,9.54l.66-4.91-19.23,1.76c-2.32.22-3.59,3.37-1.26,4.66l17.31,9.63.6-4.57a79,79,0,0,1-24.36,4.51,2.57,2.57,0,0,0-2.41,1.83,2.64,2.64,0,0,0,1.15,2.83l18.21,14,.6-4.57c-7.41,3.09-15.52,2-23.23.85a2.57,2.57,0,0,0-2.63.9,2.48,2.48,0,0,0-.19,2.77,34.77,34.77,0,0,0,11.41,10.37v-4.32a14.64,14.64,0,0,1-15.29-1.45,2.51,2.51,0,0,0-3.42.9,2.55,2.55,0,0,0,.89,3.42,19.6,19.6,0,0,0,20.34,1.45,2.52,2.52,0,0,0,0-4.32,29,29,0,0,1-9.61-8.57l-2.83,3.67c8.54,1.29,17.66,2.59,25.89-.85a2.55,2.55,0,0,0,.6-4.57l-18.22-14-1.26,4.66a83.88,83.88,0,0,0,25.69-4.68c1.94-.69,2.58-3.47.6-4.57l-17.32-9.63-1.26,4.65,19.23-1.76a2.52,2.52,0,0,0,2.46-2.17,2.47,2.47,0,0,0-1.8-2.74c-7.44-1.11-15.83-2.36-21.13-8.26l-1.1,4.18,22.58-5c5.09-1.13,14.67-1.9,14.79-9a2.57,2.57,0,0,0-2.5-2.5,68,68,0,0,1-22-6.66l-.6,4.57,28.12-7.87c2.49-.69,2.26-4,0-4.82q-9.57-3.33-19.12-6.77v4.83l11.76-4.81c2.22-.91,2.51-4,0-4.82L438.16,1009c-1.49-.48-3.09-.86-4.52-1.48a2.16,2.16,0,0,1-.48-.24c-.19-.12-.19-.46-.14-.22.09.42.11,0,.31-.29,1.7-2.09,5.41-2.32,7.85-2.68a52.13,52.13,0,0,1,10.3-.4c2.81.15,3.39-4.25.66-4.91a80,80,0,0,0-14.76-2.13c-3.22-.17-3.21,4.83,0,5Z"/><path class="cls-7" d="M212.48,1103.75a77.93,77.93,0,0,1-18.76,15.76l3.16-29.5a30.45,30.45,0,0,1-11.15,11.71c-6-7.78-3.84-20.53,4.41-25.88a66.8,66.8,0,0,1-23.5,4.13c4.77-6.17,15.5-4.32,20.55-10.27-12.26-2.07-24.62-4.17-36.21-8.69l24.63-8a261.5,261.5,0,0,1-31.12-7.37l30.86-9.21c-8.94-1.5-18.42-3.26-25.11-9.38a88,88,0,0,0,21.56-7.81c-5.5-5.93-17.06-5.12-19.94-12.67q12.85-3.17,25.88-5.61"/><path class="cls-7" d="M210.71,1102a77.06,77.06,0,0,1-18.25,15.37l3.76,2.16,3.16-29.5c.27-2.52-3.53-3.33-4.65-1.26a28.51,28.51,0,0,1-10.27,10.81l3.43.9c-5.12-6.76-3.77-17.63,3.51-22.46a2.53,2.53,0,0,0,1-3.13,2.47,2.47,0,0,0-3-1.44,65.91,65.91,0,0,1-22.84,4l1.77,4.27c2.37-3,6.09-3.77,9.69-4.74,3.94-1.07,8.07-2.35,10.85-5.53,1.12-1.27.9-3.84-1.1-4.18-12.24-2.07-24.57-4.19-36.2-8.69v4.82l24.62-8c2.16-.69,2.6-4.37,0-4.82a265.29,265.29,0,0,1-31.11-7.37v4.82l30.85-9.21c2.19-.65,2.57-4.39,0-4.82-8.33-1.4-17.49-2.88-24-8.74l-1.11,4.18a92.5,92.5,0,0,0,22.16-8.06,2.53,2.53,0,0,0,.51-3.93c-3-3.16-7.21-4.58-11.2-6a27.16,27.16,0,0,1-5.05-2.26,7.29,7.29,0,0,1-3-3.26l-1.75,3.08q12.85-3.16,25.88-5.61a2.53,2.53,0,0,0,1.75-3.07,2.56,2.56,0,0,0-3.08-1.75q-13,2.45-25.88,5.61a2.51,2.51,0,0,0-1.75,3.07c1.8,4.47,5.6,6.68,9.89,8.37,3.77,1.48,7.93,2.5,10.7,5.41l.51-3.93a87.41,87.41,0,0,1-21,7.56,2.52,2.52,0,0,0-1.11,4.18c7.24,6.52,16.9,8.45,26.21,10v-4.82l-30.85,9.21a2.52,2.52,0,0,0,0,4.82,265.29,265.29,0,0,0,31.11,7.37v-4.82l-24.62,7.95a2.52,2.52,0,0,0,0,4.82c11.63,4.5,24,6.62,36.2,8.69l-1.1-4.17c-2.49,2.83-6.31,3.59-9.9,4.57-3.9,1.07-8,2.42-10.65,5.69-1.29,1.62-.57,4.27,1.77,4.27a70.13,70.13,0,0,0,24.17-4.22l-1.93-4.57c-9.3,6.16-12.15,20.26-5.31,29.3a2.56,2.56,0,0,0,3.42.9,33.46,33.46,0,0,0,12-12.61l-4.66-1.26-3.16,29.5c-.21,1.92,2.26,3.06,3.76,2.16a81.11,81.11,0,0,0,19.26-16.15,2.56,2.56,0,0,0,0-3.54,2.52,2.52,0,0,0-3.53,0Z"/><g class="cls-5"><path class="cls-6" d="M281,1030.41A7.47,7.47,0,0,0,279,1028c-.31-.26-1-.54-1-1s.82-1,1.05-1.29a3,3,0,0,0,.76-2.57c-.26-1-1.24-1.63-2-2.23a13.26,13.26,0,0,0-2.85-1.64c-.49-.21-1.27-.55-1.09-1.18.12-.43.5-.7.59-1.17.46-2.16-1.88-3.32-3.51-3.95-.75-.29-1.08.92-.33,1.21,1,.37,2.4.89,2.61,2.09.1.58-.31.79-.54,1.25a1.47,1.47,0,0,0-.12,1,2.6,2.6,0,0,0,1.6,1.77,15.84,15.84,0,0,1,2.71,1.48c.9.68,2.24,1.48,1.49,2.76-.45.78-1.36,1.35-1.62,2.25s.29,1.33.87,1.76a6.77,6.77,0,0,1,2.25,2.53c.36.72,1.44.09,1.08-.63Z"/></g><path class="cls-4" d="M237.13,978.7a191.53,191.53,0,0,0,28.33,6.08c9.72,1.46,19.47,2.74,29.2,4.09.79.11,1.13-1.1.33-1.21-9.73-1.35-19.48-2.63-29.2-4.09a191.81,191.81,0,0,1-28.33-6.08c-.77-.23-1.09,1-.33,1.21Z"/><path class="cls-9" d="M264.39,991.63l30.39,5v0c3.06-18.7-8.15-36.34-24.82-39.06-16.41-2.69-32.45,10-35.84,28.33Z"/><path class="cls-9" d="M330.62,995.53l29.79-4.18c-2.47-17.76-17.81-30.55-34.09-28.4-16.13,2.13-27.6,18.19-25.61,35.85Z"/><g class="cls-5"><path class="cls-6" d="M318.44,1041a10.27,10.27,0,0,0,1.24-4.53c0-1-.33-2.27,1-2.34,1-.05,1.94.14,2.92.09a4.35,4.35,0,0,0,3.2-1.31c.87-1,.8-2.49.81-3.76a17.45,17.45,0,0,0-.62-5c-.31-1.07-.75-2.72.82-3.06a9.56,9.56,0,0,0,1.75-.19c3-1.2,2.34-4.93,1.56-7.32-.25-.76-1.45-.44-1.2.33.54,1.67,1.3,3.93-.16,5.37-1,1-2.45.19-3.48,1.16a3.33,3.33,0,0,0-.73,3.18,24,24,0,0,1,.82,5.06c0,1.73.14,3.65-1.91,4.16-1.55.38-3.19-.3-4.73.13a1.88,1.88,0,0,0-1.39,2,11.4,11.4,0,0,1-1,5.42c-.37.71.71,1.34,1.08.63Z"/></g><g class="cls-5"><path class="cls-6" d="M360.71,1026.92a7.34,7.34,0,0,0-1.95-2.44c-.31-.26-1-.54-1-1s.82-1,1.05-1.29a3,3,0,0,0,.76-2.57c-.26-1-1.24-1.63-2-2.23a13,13,0,0,0-2.85-1.64c-.49-.21-1.27-.55-1.09-1.18.12-.43.5-.7.6-1.17.45-2.16-1.89-3.32-3.52-3.95-.75-.29-1.08.92-.33,1.21,1,.37,2.41.89,2.61,2.09.1.58-.3.79-.54,1.25a1.6,1.6,0,0,0-.12,1,2.6,2.6,0,0,0,1.6,1.77,15.47,15.47,0,0,1,2.71,1.48c.91.68,2.25,1.48,1.5,2.76-.46.78-1.37,1.35-1.63,2.25s.29,1.33.88,1.76a6.83,6.83,0,0,1,2.24,2.53c.37.72,1.44.09,1.08-.63Z"/></g><g class="cls-5"><path class="cls-6" d="M340,1005.85a4.42,4.42,0,0,0-.48-1.69c0-.09-.12-.3-.21-.34s-.07-.09-.08.06l.14-.08a2.46,2.46,0,0,0,.76-.42,1.54,1.54,0,0,0,.65-1.25,3.55,3.55,0,0,0-.65-1.58,10.89,10.89,0,0,0-1-1.3c-.07-.09-.1-.18-.16-.27s-.22.1,0,0a1,1,0,0,0,.49-.44c.64-1-.18-2.13-.9-2.84s-1.46.32-.88.88c.25.26.84.75.75,1.17,0,.16-.1.15-.24.24a1,1,0,0,0-.42.54c-.34,1.05.73,1.71,1.21,2.48.16.26.68.91.54,1.22s-.88.48-1.16.73a1.07,1.07,0,0,0-.15,1.39,3.57,3.57,0,0,1,.56,1.47c.08.8,1.33.8,1.25,0Z"/></g><ellipse class="cls-10" cx="307.03" cy="1393.04" rx="138.63" ry="134.37"/><path class="cls-4" d="M213.81,1311.31c-.13-2.09-2.37-3.28-4.31-4.07L147.29,1282c-1.41-.57-3.18-1.09-4.32-.08s-.78,3-.24,4.55a441.43,441.43,0,0,0,34,73.73"/><path class="cls-4" d="M216.31,1311.31a7,7,0,0,0-4-5.51,77.3,77.3,0,0,0-7.68-3.22L188,1295.85l-33.18-13.48c-2.61-1.06-5.23-2.36-7.93-3.18-2.51-.76-5.4-.3-6.68,2.23s-.14,5.11.7,7.45q1.41,4,2.91,7.89,6,15.81,13.2,31.13,8,17.14,17.52,33.54c1.61,2.78,5.93.27,4.32-2.52a436.15,436.15,0,0,1-27.15-55.65q-2.92-7.26-5.59-14.62c-.38-1.06-.79-2.12-1.13-3.2a7.09,7.09,0,0,1-.31-1.09c-.11-.74.21-.61-.21-.51a3.71,3.71,0,0,1,1.78.41c1.28.48,2.53,1,3.79,1.54l30.64,12.44,17.05,6.93,8.76,3.55a34.76,34.76,0,0,1,3.26,1.4c.44.24,1.48.86,1.52,1.2a2.57,2.57,0,0,0,2.5,2.5,2.52,2.52,0,0,0,2.5-2.5Z"/><ellipse class="cls-11" cx="301.65" cy="1441.4" rx="14.44" ry="4.65"/><path class="cls-7" d="M301.89,1460.62a30.29,30.29,0,0,1-10.51,3.18,22.71,22.71,0,0,1-10.92-1c-.75-.3-1.07.91-.33,1.21,3.65,1.44,7.8,1.44,11.65,1a31.48,31.48,0,0,0,10.74-3.3c.71-.38.08-1.46-.63-1.08Z"/><path class="cls-7" d="M302.06,1461.59a53.56,53.56,0,0,0,11.49,2.87c3.27.45,7.26.69,9.89-1.69.6-.54-.29-1.42-.88-.88-2.63,2.37-7,1.66-10.2,1.14a53.7,53.7,0,0,1-10-2.65c-.75-.28-1.08.93-.33,1.21Z"/><path class="cls-4" d="M429,1351.45c2.09,0,3.4-2.2,4.28-4.1l28.4-60.84c.64-1.38,1.25-3.12.31-4.31s-3-.93-4.54-.47a440.48,440.48,0,0,0-75.36,30.21"/><path class="cls-4" d="M429,1354a7.11,7.11,0,0,0,5.65-3.82,78,78,0,0,0,3.52-7.38l7.58-16.22,15.14-32.45c1.21-2.58,2.59-5.14,3.58-7.81s.5-5.52-2.07-6.86c-2.28-1.2-4.91-.3-7.19.38-2.7.82-5.39,1.65-8.07,2.52q-16,5.16-31.56,11.52-17.71,7.25-34.75,16c-2.87,1.47-.34,5.79,2.52,4.32a437.74,437.74,0,0,1,57.31-24.37q7.33-2.52,14.76-4.78c1.1-.33,2.21-.71,3.34-1,.34-.08.66-.1,1-.15.13,0,.4,0,.26-.06s.08-.43,0,0c0,.08-.05.36-.07.46a6.35,6.35,0,0,1-.48,1.28c-.58,1.29-1.2,2.56-1.79,3.83l-13.89,29.75-7.88,16.9-3.9,8.34c-.5,1.09-1.68,4.58-3,4.66a2.55,2.55,0,0,0-2.5,2.5,2.51,2.51,0,0,0,2.5,2.5Z"/><path class="cls-7" d="M273.94,1440.09a127.05,127.05,0,0,0-35.46,2c-.79.15-.46,1.36.33,1.2a126.22,126.22,0,0,1,35.13-1.92c.8.07.79-1.19,0-1.25Z"/><path class="cls-7" d="M329.28,1442.82a210.45,210.45,0,0,1,42,5.85.63.63,0,0,0,.33-1.21,212.19,212.19,0,0,0-42.35-5.89c-.8,0-.8,1.22,0,1.25Z"/><path class="cls-7" d="M328.74,1452.64a41.61,41.61,0,0,1,26.19,7.37c.66.46,1.28-.62.63-1.08a42.75,42.75,0,0,0-26.82-7.54c-.8,0-.81,1.3,0,1.25Z"/><path class="cls-7" d="M270.5,1449.73q-16.51,3.27-32.74,7.89a.63.63,0,0,0,.34,1.21q16.2-4.62,32.73-7.89c.79-.16.46-1.36-.33-1.21Z"/><path class="cls-4" d="M399.21,1296.22a37.9,37.9,0,0,0-6.36-23.32,4.9,4.9,0,0,0-2.33-2.13,5.3,5.3,0,0,0-3,.21l-29.39,8a141.64,141.64,0,0,0-7.59-37.15,207.6,207.6,0,0,1-14.38,35.61,238.51,238.51,0,0,0-19.64-39.24,86.44,86.44,0,0,0-16.77,31,45.73,45.73,0,0,0-14.11-33.69A49.62,49.62,0,0,0,277,1266a4.28,4.28,0,0,1-.62,3.14c-1.1,1.22-3.09.69-4.6.06a169.56,169.56,0,0,1-27.19-14.49c-2,4.72-.05,10.4,3.49,14.13s8.36,5.93,13.06,8c-5.09,1.76-10.68.37-15.86-1.1q-18.37-5.22-36.37-11.66c4.26,3.6,9.59,5.66,14.37,8.55s9.29,7.15,10.09,12.68c-11.3.86-22.58-1.35-33.69-3.55l12.86,14.75-21.29-9.29a142.49,142.49,0,0,1,17.36,14"/><path class="cls-4" d="M401.71,1296.22a40.45,40.45,0,0,0-5.68-23,12.17,12.17,0,0,0-3.61-4.34c-2.05-1.27-4.36-.66-6.52-.07l-13.25,3.61-15.18,4.14,3.17,2.41a146.21,146.21,0,0,0-7.68-37.81,2.52,2.52,0,0,0-4.82,0,205.62,205.62,0,0,1-14.13,35l4.57.6A244.89,244.89,0,0,0,318.69,1237c-.78-1.26-2.85-1.78-3.92-.5a90.3,90.3,0,0,0-17.42,32.12l4.91.67a48.49,48.49,0,0,0-14.84-35.46,2.54,2.54,0,0,0-3.93.51,52.44,52.44,0,0,0-8.87,25.29,54.33,54.33,0,0,0-.09,6.63,4.42,4.42,0,0,1,0,1.31c-.09.25,0-.1.08-.11a5.29,5.29,0,0,1-2-.52,133.2,133.2,0,0,1-12.89-6.12q-7.14-3.76-13.88-8.19c-1.49-1-3.1.09-3.67,1.49-2.18,5.32-.19,11.31,3.27,15.57,3.68,4.54,9.22,7.08,14.42,9.42l.6-4.56c-3.93,1.29-8,.61-11.91-.39-4.35-1.11-8.66-2.45-13-3.75q-13.12-4-26-8.62c-2.3-.83-4.33,2.59-2.43,4.17,4.56,3.8,10,6,15,9,4.13,2.54,8,6.08,8.78,11.08l2.41-3.16c-11.15.81-22.14-1.3-33-3.46a2.52,2.52,0,0,0-2.43,4.18l12.86,14.75,3-3.93-21.29-9.29a2.5,2.5,0,0,0-2.52,4.32,141.21,141.21,0,0,1,16.85,13.63c2.34,2.21,5.88-1.32,3.54-3.53a149.88,149.88,0,0,0-17.87-14.42l-2.52,4.32,21.28,9.29c2.56,1.11,5-1.69,3-3.93l-12.86-14.75-2.43,4.18c11.3,2.24,22.79,4.48,34.36,3.64a2.55,2.55,0,0,0,2.41-3.17c-.91-5.71-5.17-10.12-9.79-13.24-4.91-3.33-10.72-5.27-15.31-9.09l-2.44,4.18q13.38,4.79,27,8.9c4.41,1.34,8.84,2.76,13.34,3.8,4.35,1,8.92,1.47,13.24.06,1.84-.61,2.7-3.63.6-4.57-4.5-2-9.26-4.1-12.68-7.78-2.86-3.1-4.37-7.54-2.72-11.57l-3.68,1.49a172.19,172.19,0,0,0,27.2,14.5c2.13.9,4.61,1.57,6.73.26,2.33-1.43,2.3-4.08,2.21-6.48a46.57,46.57,0,0,1,1.6-13.8,47.55,47.55,0,0,1,6.73-14.56l-3.92.51a43.48,43.48,0,0,1,13.37,31.92c0,2.86,4.11,3.34,4.91.66A84.44,84.44,0,0,1,318.3,1240l-3.92-.5a238.17,238.17,0,0,1,19.38,38.64c.71,1.84,3.49,2.69,4.57.6A212.68,212.68,0,0,0,353,1242.51h-4.82a140.94,140.94,0,0,1,7.5,36.49,2.53,2.53,0,0,0,3.16,2.41l15.42-4.2,7.71-2.11,3.85-1a20.19,20.19,0,0,1,3.47-.92c.76-.05,1,.45,1.44,1a29.45,29.45,0,0,1,1.76,2.9,34.51,34.51,0,0,1,2.6,6,36.1,36.1,0,0,1,1.66,13.14c-.17,3.21,4.83,3.2,5,0Z"/><path class="cls-4" d="M441.1,1381.55a74.59,74.59,0,0,1,14.1,2,53.17,53.17,0,0,0-15.65,1.4c-2.93.71-6.51,3.4-4.87,5.93a5.06,5.06,0,0,0,2.84,1.7l13.86,4.46-11.76,4.81q9.54,3.43,19.12,6.77l-28.12,7.86a70.12,70.12,0,0,0,23.27,7c.08,3-3.5,4.44-6.39,5.08l-29.15,6.52c5.4,6.12,14.17,7.69,22.24,8.9l-19.22,1.76,17.31,9.63a80.32,80.32,0,0,1-25,4.6l18.21,14c-7.63,3.27-16.35,2.09-24.56.85a31.33,31.33,0,0,0,10.52,9.47,17,17,0,0,1-17.82-1.45"/><path class="cls-4" d="M441.1,1384.05a73.48,73.48,0,0,1,13.44,2l.66-4.91a56.63,56.63,0,0,0-13.51.89c-3.48.65-7.49,1.78-9.29,5.17a5,5,0,0,0,.23,5.18c1.22,1.77,3.21,2.37,5.15,3l12.94,4.17v-4.82L439,1399.49a2.53,2.53,0,0,0,0,4.82q9.56,3.43,19.13,6.77v-4.82L430,1414.12c-2,.55-2.58,3.58-.6,4.57a74.82,74.82,0,0,0,24.53,7.34l-2.5-2.5a.82.82,0,0,1-.21.69,4.29,4.29,0,0,1-.77.65,10,10,0,0,1-2.94,1.18c-3.18.82-6.42,1.44-9.62,2.16l-20.16,4.5a2.53,2.53,0,0,0-1.1,4.18c5.91,6.58,15,8.3,23.34,9.55l.66-4.91-19.22,1.76c-2.32.21-3.6,3.36-1.27,4.66l17.32,9.63L438,1453a79.32,79.32,0,0,1-24.35,4.51,2.54,2.54,0,0,0-2.41,1.83,2.6,2.6,0,0,0,1.15,2.82l18.21,14,.6-4.57c-7.41,3.09-15.52,2-23.23.85a2.57,2.57,0,0,0-2.63.89,2.48,2.48,0,0,0-.2,2.78,35,35,0,0,0,11.41,10.37v-4.32a14.68,14.68,0,0,1-15.29-1.45,2.51,2.51,0,0,0-3.42.89,2.56,2.56,0,0,0,.9,3.42,19.6,19.6,0,0,0,20.34,1.46,2.52,2.52,0,0,0,0-4.32,29.4,29.4,0,0,1-9.62-8.57l-2.82,3.67c8.54,1.29,17.66,2.58,25.89-.85a2.54,2.54,0,0,0,.59-4.57l-18.21-14-1.26,4.66a83.59,83.59,0,0,0,25.68-4.69c1.94-.68,2.59-3.46.6-4.57l-17.31-9.63-1.26,4.66,19.22-1.76a2.54,2.54,0,0,0,2.46-2.17,2.47,2.47,0,0,0-1.79-2.74c-7.45-1.12-15.83-2.36-21.14-8.26l-1.1,4.18,22.59-5c5.08-1.14,14.67-1.9,14.78-9a2.56,2.56,0,0,0-2.5-2.5,67.7,67.7,0,0,1-22-6.66l-.59,4.57,28.12-7.86c2.48-.69,2.26-4,0-4.82q-9.59-3.35-19.13-6.77v4.82l11.77-4.81c2.22-.9,2.51-4,0-4.82l-10.17-3.27c-1.49-.48-3.08-.86-4.52-1.48a4.3,4.3,0,0,1-.48-.24c-.18-.13-.18-.47-.13-.22.09.42.11-.06.3-.3,1.71-2.09,5.41-2.32,7.85-2.67a51.44,51.44,0,0,1,10.3-.4c2.82.15,3.4-4.25.66-4.91a80.71,80.71,0,0,0-14.76-2.14c-3.21-.16-3.2,4.84,0,5Z"/><path class="cls-4" d="M216.2,1486.19A77.7,77.7,0,0,1,197.44,1502l3.17-29.49a30.38,30.38,0,0,1-11.16,11.7c-6-7.78-3.84-20.53,4.42-25.88a67.13,67.13,0,0,1-23.51,4.14c4.77-6.17,15.5-4.33,20.55-10.27-12.26-2.08-24.62-4.18-36.2-8.69l24.62-8a263.3,263.3,0,0,1-31.11-7.37l30.85-9.21c-8.94-1.51-18.42-3.26-25.11-9.38a88.31,88.31,0,0,0,21.56-7.81c-5.5-5.93-17.06-5.12-19.94-12.67q12.85-3.18,25.88-5.61"/><path class="cls-4" d="M214.43,1484.43a76.63,76.63,0,0,1-18.25,15.36l3.76,2.16,3.17-29.49c.27-2.52-3.54-3.34-4.66-1.27A28.36,28.36,0,0,1,188.19,1482l3.42.89c-5.11-6.76-3.77-17.63,3.52-22.46a2.51,2.51,0,0,0,1-3.12,2.48,2.48,0,0,0-3-1.45,66.15,66.15,0,0,1-22.84,4.05l1.77,4.27c2.37-3,6.09-3.77,9.69-4.75,4-1.07,8.07-2.35,10.86-5.52,1.11-1.28.89-3.84-1.11-4.18-12.24-2.07-24.56-4.19-36.2-8.69v4.82l24.63-7.95c2.15-.7,2.59-4.37,0-4.82a268,268,0,0,1-31.12-7.37v4.82l30.86-9.21c2.19-.65,2.56-4.39,0-4.82-8.33-1.41-17.5-2.88-24-8.74l-1.1,4.18a92,92,0,0,0,22.15-8.07,2.52,2.52,0,0,0,.51-3.92c-3-3.16-7.21-4.58-11.2-6a26.56,26.56,0,0,1-5.05-2.27,7.27,7.27,0,0,1-3-3.25l-1.75,3.08q12.87-3.17,25.89-5.61a2.5,2.5,0,0,0-1.33-4.82q-13,2.45-25.88,5.61a2.5,2.5,0,0,0-1.75,3.07c1.79,4.47,5.59,6.68,9.89,8.37,3.77,1.48,7.92,2.49,10.69,5.4l.51-3.92a87.26,87.26,0,0,1-21,7.56,2.52,2.52,0,0,0-1.1,4.18c7.24,6.51,16.9,8.45,26.21,10v-4.82l-30.86,9.21a2.52,2.52,0,0,0,0,4.82,268,268,0,0,0,31.12,7.37v-4.82l-24.63,8a2.52,2.52,0,0,0,0,4.82c11.64,4.5,24,6.62,36.21,8.69l-1.11-4.18c-2.48,2.84-6.31,3.6-9.9,4.58-3.9,1.06-8,2.41-10.64,5.69-1.3,1.62-.57,4.26,1.76,4.27a70.14,70.14,0,0,0,24.17-4.23l-1.93-4.57c-9.3,6.17-12.15,20.26-5.31,29.31a2.56,2.56,0,0,0,3.42.89,33.46,33.46,0,0,0,12.06-12.6l-4.66-1.26L194.94,1502c-.2,1.93,2.27,3.07,3.76,2.16A81.16,81.16,0,0,0,218,1488a2.56,2.56,0,0,0,0-3.53,2.52,2.52,0,0,0-3.54,0Z"/><ellipse class="cls-3" cx="267.7" cy="1386.5" rx="43.52" ry="32.04" transform="translate(-1143.83 1426.94) rotate(-80.71)"/><ellipse class="cls-3" cx="336.93" cy="1392.44" rx="32.04" ry="43.52" transform="translate(-212.73 69.46) rotate(-8.96)"/><g class="cls-5"><path class="cls-6" d="M242.14,1412.55a10.14,10.14,0,0,0,1.24-4.53c0-1-.33-2.27,1-2.34,1,0,1.94.14,2.92.09a4.35,4.35,0,0,0,3.2-1.31c.87-1,.8-2.49.81-3.76a16.66,16.66,0,0,0-.62-5c-.3-1.08-.75-2.73.82-3.07a9.56,9.56,0,0,0,1.75-.19c3-1.2,2.34-4.93,1.56-7.32-.25-.76-1.45-.44-1.2.33.54,1.68,1.31,3.93-.16,5.38-1,1-2.45.18-3.48,1.15a3.33,3.33,0,0,0-.73,3.18,24.07,24.07,0,0,1,.82,5.06c0,1.74.14,3.65-1.91,4.16-1.54.39-3.19-.29-4.73.13a1.88,1.88,0,0,0-1.39,2,11.37,11.37,0,0,1-1,5.42c-.38.71.7,1.34,1.07.63Z"/></g><path class="cls-4" d="M282.79,1399.94c9.65,0,9.67-15,0-15s-9.66,15,0,15Z"/><g class="cls-5"><path class="cls-6" d="M285.53,1416.82a7.47,7.47,0,0,0-1.95-2.44c-.32-.26-1-.54-1-1s.82-1,1-1.29a3,3,0,0,0,.76-2.57c-.26-1-1.23-1.63-2-2.23a13.26,13.26,0,0,0-2.85-1.64c-.49-.21-1.27-.55-1.09-1.18.12-.43.49-.7.59-1.17.45-2.16-1.88-3.32-3.51-4-.76-.29-1.08.92-.34,1.21,1,.37,2.41.89,2.62,2.09.1.58-.31.79-.54,1.25a1.54,1.54,0,0,0-.13,1,2.62,2.62,0,0,0,1.6,1.77,14.93,14.93,0,0,1,2.72,1.48c.9.68,2.24,1.48,1.49,2.76-.45.78-1.36,1.35-1.62,2.25s.28,1.33.87,1.76a6.77,6.77,0,0,1,2.25,2.53c.36.72,1.44.09,1.08-.63Z"/></g><path class="cls-10" d="M269.11,1377.73l34.82,5.73v0c3.44-21-9.46-40.9-28.56-44-18.8-3.07-37.12,11.13-40.94,31.75Z"/><path class="cls-10" d="M335.11,1380.07l29.79-4.2c-2.61-18.85-18.08-32.52-34.36-30.37s-27.48,19.06-25.35,37.79Z"/><g class="cls-5"><path class="cls-6" d="M323,1427.42a10.41,10.41,0,0,0,1.24-4.53c0-1-.33-2.27,1-2.34,1,0,1.95.13,2.92.09a4.32,4.32,0,0,0,3.2-1.31c.88-1,.8-2.49.82-3.77a17.38,17.38,0,0,0-.62-5c-.31-1.07-.76-2.72.82-3.06a9.36,9.36,0,0,0,1.74-.19c3-1.2,2.35-4.93,1.57-7.32-.25-.76-1.46-.44-1.21.33.55,1.67,1.31,3.93-.15,5.37-1,1-2.45.19-3.48,1.16a3.31,3.31,0,0,0-.73,3.18,24,24,0,0,1,.81,5.06c0,1.73.14,3.65-1.9,4.16-1.55.38-3.19-.3-4.73.13a1.88,1.88,0,0,0-1.39,2,11.4,11.4,0,0,1-1,5.42c-.37.71.71,1.34,1.08.63Z"/></g><g class="cls-5"><path class="cls-6" d="M365.29,1413.33a7.47,7.47,0,0,0-2-2.44c-.31-.26-1-.54-1-1s.82-1,1-1.29a3,3,0,0,0,.76-2.57c-.26-1-1.24-1.63-2-2.23a13,13,0,0,0-2.85-1.64c-.49-.21-1.27-.55-1.09-1.18.12-.43.5-.7.59-1.17.46-2.16-1.88-3.32-3.51-4-.75-.29-1.08.92-.33,1.2,1,.38,2.41.9,2.61,2.1.1.58-.31.79-.54,1.25a1.45,1.45,0,0,0-.12,1,2.6,2.6,0,0,0,1.6,1.78,15.18,15.18,0,0,1,2.71,1.48c.9.68,2.24,1.48,1.5,2.76-.46.78-1.37,1.35-1.63,2.25s.29,1.33.87,1.76a6.77,6.77,0,0,1,2.25,2.53c.36.72,1.44.08,1.08-.63Z"/></g><g class="cls-5"><path class="cls-6" d="M344.58,1392.26a4.42,4.42,0,0,0-.48-1.69c-.05-.09-.12-.3-.21-.34s-.07-.09-.08.06l.14-.08a2.69,2.69,0,0,0,.76-.42,1.56,1.56,0,0,0,.65-1.25,3.56,3.56,0,0,0-.66-1.58,9.9,9.9,0,0,0-1-1.3,1.91,1.91,0,0,1-.16-.27s-.22.1,0,0a1.09,1.09,0,0,0,.49-.44c.64-1-.18-2.13-.9-2.84s-1.46.32-.89.88c.26.26.85.75.75,1.17,0,.16-.1.15-.23.24a1,1,0,0,0-.42.54c-.35,1,.73,1.71,1.21,2.48.16.26.68.91.54,1.22s-.88.47-1.16.73a1.05,1.05,0,0,0-.15,1.39,3.57,3.57,0,0,1,.56,1.47c.08.8,1.33.8,1.25,0Z"/></g><path class="cls-4" d="M318.3,1400.54c9.65,0,9.67-15,0-15s-9.67,15,0,15Z"/><ellipse class="cls-12" cx="295.94" cy="587.98" rx="138.63" ry="134.37"/><ellipse class="cls-9" cx="256.73" cy="581.57" rx="43.52" ry="32.04" transform="translate(-358.65 741.09) rotate(-80.71)"/><ellipse class="cls-9" cx="325.96" cy="587.51" rx="32.04" ry="43.52" transform="translate(-87.51 57.93) rotate(-8.96)"/><path class="cls-4" d="M313.83,592.84c9.65,0,9.67-15,0-15s-9.67,15,0,15Z"/><path class="cls-4" d="M273.74,591.26c9.66,0,9.67-15,0-15s-9.66,15,0,15Z"/><path class="cls-7" d="M202.72,506.26c-.12-2.09-2.37-3.29-4.31-4.07L136.2,476.92c-1.41-.57-3.18-1.09-4.32-.08s-.78,3-.24,4.55a441.43,441.43,0,0,0,34,73.73"/><path class="cls-7" d="M205.22,506.26a7,7,0,0,0-4-5.52,78.07,78.07,0,0,0-7.67-3.21L177,490.79l-33.18-13.47c-2.62-1.06-5.24-2.36-7.94-3.18-2.5-.76-5.4-.3-6.68,2.23s-.14,5.1.7,7.44q1.42,4,2.91,7.89,6,15.81,13.2,31.14,8,17.14,17.52,33.54c1.61,2.78,5.94.27,4.32-2.53a437.36,437.36,0,0,1-27.15-55.64q-2.92-7.26-5.58-14.63c-.39-1.06-.8-2.11-1.14-3.19a6.9,6.9,0,0,1-.31-1.1c-.11-.73.21-.6-.21-.5a3.66,3.66,0,0,1,1.78.41c1.28.48,2.53,1,3.79,1.54l30.65,12.44,17.05,6.93,8.75,3.55a34.76,34.76,0,0,1,3.26,1.4c.44.24,1.48.85,1.52,1.2a2.57,2.57,0,0,0,2.5,2.5,2.51,2.51,0,0,0,2.5-2.5Z"/><ellipse class="cls-13" cx="290.56" cy="636.35" rx="14.44" ry="4.65"/><path class="cls-4" d="M290.8,655.57a30,30,0,0,1-10.51,3.17,22.73,22.73,0,0,1-10.92-1c-.75-.3-1.07.91-.33,1.2,3.65,1.45,7.81,1.45,11.65,1a31.41,31.41,0,0,0,10.74-3.3c.71-.38.08-1.46-.63-1.08Z"/><path class="cls-4" d="M291,656.54a54.25,54.25,0,0,0,11.5,2.87c3.26.45,7.25.69,9.88-1.69.6-.54-.29-1.42-.88-.88-2.63,2.37-7,1.66-10.19,1.14a53.49,53.49,0,0,1-10-2.65c-.76-.28-1.09.93-.34,1.21Z"/><path class="cls-7" d="M417.91,546.4c2.09,0,3.4-2.21,4.28-4.1q14.21-30.42,28.4-60.84c.65-1.38,1.26-3.12.31-4.31s-3-.93-4.54-.47A440.48,440.48,0,0,0,371,506.89"/><path class="cls-7" d="M417.91,548.9a7.08,7.08,0,0,0,5.65-3.83,75.52,75.52,0,0,0,3.53-7.37l7.57-16.22L449.81,489c1.2-2.58,2.58-5.14,3.58-7.81s.49-5.52-2.08-6.87c-2.27-1.19-4.91-.3-7.19.39q-4,1.22-8.07,2.52-16,5.16-31.56,11.52-17.7,7.25-34.75,16c-2.87,1.47-.34,5.78,2.52,4.32a437,437,0,0,1,57.31-24.37q7.33-2.52,14.76-4.78c1.11-.33,2.21-.71,3.34-1a6.9,6.9,0,0,1,1-.15c.14,0,.4,0,.26-.07s.09-.42-.05,0c0,.09-.05.37-.07.47a6.59,6.59,0,0,1-.48,1.28c-.58,1.28-1.19,2.55-1.79,3.83L432.66,514l-7.89,16.9-3.89,8.34c-.51,1.08-1.69,4.58-3,4.66a2.5,2.5,0,1,0,0,5Z"/><path class="cls-4" d="M262.85,635a127.45,127.45,0,0,0-35.46,2c-.79.16-.45,1.37.33,1.21a125.85,125.85,0,0,1,35.13-1.93c.8.07.8-1.18,0-1.25Z"/><path class="cls-4" d="M318.19,637.77a210.65,210.65,0,0,1,42,5.85c.78.19,1.11-1,.33-1.21a212.39,212.39,0,0,0-42.36-5.89c-.8,0-.8,1.22,0,1.25Z"/><path class="cls-4" d="M317.65,647.59A41.55,41.55,0,0,1,343.84,655c.66.46,1.29-.63.63-1.08a42.69,42.69,0,0,0-26.82-7.54c-.8,0-.8,1.3,0,1.25Z"/><path class="cls-4" d="M259.41,644.68q-16.52,3.27-32.73,7.89a.63.63,0,0,0,.33,1.21q16.2-4.62,32.74-7.89c.79-.16.45-1.36-.34-1.21Z"/><path class="cls-7" d="M387.47,488.65a37.91,37.91,0,0,0-6.37-23.32,4.92,4.92,0,0,0-2.32-2.13,5.32,5.32,0,0,0-3,.21l-29.39,8a141.64,141.64,0,0,0-7.59-37.15,207.6,207.6,0,0,1-14.38,35.61,238.47,238.47,0,0,0-19.63-39.24,86.62,86.62,0,0,0-16.78,31A45.75,45.75,0,0,0,273.91,428a49.56,49.56,0,0,0-8.64,30.48,4.28,4.28,0,0,1-.62,3.14c-1.1,1.22-3.08.69-4.59.06a169.23,169.23,0,0,1-27.2-14.49c-2,4.72-.05,10.4,3.5,14.13s8.36,5.93,13,8c-5.09,1.76-10.68.37-15.86-1.1q-18.37-5.22-36.37-11.66c4.26,3.6,9.6,5.66,14.37,8.55s9.3,7.15,10.09,12.68c-11.29.86-22.58-1.35-33.69-3.55L200.81,489l-21.29-9.29a142.49,142.49,0,0,1,17.36,14"/><path class="cls-7" d="M390,488.65a40.53,40.53,0,0,0-5.69-23,12.26,12.26,0,0,0-3.61-4.34c-2.05-1.27-4.36-.66-6.52-.07l-13.25,3.61L345.72,469l3.17,2.41a145.8,145.8,0,0,0-7.68-37.81,2.52,2.52,0,0,0-4.82,0,205.62,205.62,0,0,1-14.13,35l4.57.6a244.89,244.89,0,0,0-19.89-39.85c-.78-1.26-2.85-1.78-3.92-.5A90.46,90.46,0,0,0,285.6,461l4.91.67a48.45,48.45,0,0,0-14.84-35.46,2.53,2.53,0,0,0-3.92.51,52.45,52.45,0,0,0-8.88,25.3,54.17,54.17,0,0,0-.09,6.62,4.11,4.11,0,0,1,0,1.31c-.08.25,0-.1.08-.11a5.29,5.29,0,0,1-2-.52A133.2,133.2,0,0,1,248,453.2q-7.14-3.76-13.88-8.19c-1.49-1-3.1.09-3.67,1.49-2.17,5.32-.19,11.31,3.27,15.57,3.68,4.54,9.22,7.08,14.43,9.43l.59-4.57c-3.93,1.29-8,.61-11.9-.39-4.36-1.11-8.66-2.45-13-3.75q-13.12-4-26-8.62c-2.3-.83-4.34,2.59-2.44,4.17,4.56,3.8,10,6,15,9.05,4.14,2.54,8,6.08,8.78,11.08l2.41-3.16c-11.15.81-22.14-1.3-33-3.46a2.52,2.52,0,0,0-2.43,4.18L199,490.78l3-3.93-21.29-9.29a2.5,2.5,0,0,0-2.52,4.32,139.64,139.64,0,0,1,16.85,13.63c2.34,2.21,5.89-1.32,3.54-3.53a149.08,149.08,0,0,0-17.87-14.42l-2.52,4.32,21.29,9.29a2.52,2.52,0,0,0,3-3.93l-12.86-14.75-2.44,4.18c11.3,2.24,22.79,4.48,34.36,3.64a2.55,2.55,0,0,0,2.41-3.17c-.91-5.71-5.17-10.12-9.78-13.24-4.92-3.33-10.73-5.27-15.32-9.09L196.52,459q13.36,4.78,27,8.9c4.42,1.34,8.85,2.76,13.35,3.8,4.35,1,8.92,1.47,13.23.06,1.84-.61,2.7-3.63.6-4.57-4.5-2-9.26-4.1-12.67-7.78-2.87-3.1-4.38-7.54-2.73-11.57l-3.67,1.49a171.65,171.65,0,0,0,27.19,14.5c2.14.9,4.61,1.57,6.74.26,2.32-1.43,2.29-4.08,2.21-6.48a46.56,46.56,0,0,1,1.59-13.8,47.79,47.79,0,0,1,6.73-14.56l-3.92.51a43.44,43.44,0,0,1,13.37,31.92c0,2.86,4.11,3.34,4.91.66a84.44,84.44,0,0,1,16.13-29.92l-3.92-.5A238.17,238.17,0,0,1,322,470.55c.72,1.84,3.49,2.69,4.57.6a212.68,212.68,0,0,0,14.63-36.21h-4.82a140.94,140.94,0,0,1,7.5,36.49,2.53,2.53,0,0,0,3.16,2.41l15.42-4.2,7.71-2.11,3.86-1a19.18,19.18,0,0,1,3.46-.91c.76-.06,1,.44,1.44,1a31.61,31.61,0,0,1,1.77,2.9,34.47,34.47,0,0,1,2.59,6A36.32,36.32,0,0,1,385,488.65c-.18,3.21,4.82,3.2,5,0Z"/><path class="cls-7" d="M429.36,574a74.48,74.48,0,0,1,14.09,2,53.17,53.17,0,0,0-15.65,1.4c-2.93.71-6.51,3.4-4.87,5.93a5.08,5.08,0,0,0,2.85,1.7l13.85,4.46-11.76,4.81q9.54,3.43,19.12,6.77L418.87,609a70.19,70.19,0,0,0,23.27,7c.09,3-3.49,4.44-6.39,5.08l-29.14,6.52c5.39,6.12,14.16,7.69,22.24,8.9l-19.23,1.76,17.31,9.63a80.26,80.26,0,0,1-25,4.6l18.21,14c-7.63,3.27-16.34,2.09-24.56.85a31.43,31.43,0,0,0,10.52,9.47,17,17,0,0,1-17.82-1.45"/><path class="cls-7" d="M429.36,576.48a73.37,73.37,0,0,1,13.43,2l.66-4.91a56.7,56.7,0,0,0-13.51.89c-3.48.65-7.49,1.78-9.28,5.17a5,5,0,0,0,.23,5.18c1.21,1.77,3.2,2.37,5.15,3L439,591.93v-4.82l-11.76,4.81a2.52,2.52,0,0,0,0,4.82q9.54,3.43,19.12,6.77v-4.82l-28.12,7.86c-2,.55-2.57,3.58-.6,4.57a74.82,74.82,0,0,0,24.53,7.34l-2.5-2.5a.82.82,0,0,1-.21.69,4.54,4.54,0,0,1-.76.65,10.19,10.19,0,0,1-2.95,1.18c-3.18.82-6.42,1.44-9.62,2.16l-20.16,4.5a2.53,2.53,0,0,0-1.1,4.18c5.91,6.58,15,8.3,23.34,9.55l.67-4.91-19.23,1.76c-2.32.21-3.59,3.36-1.26,4.66L425.67,650l.6-4.57A79.44,79.44,0,0,1,401.91,650a2.54,2.54,0,0,0-2.41,1.83,2.62,2.62,0,0,0,1.15,2.82l18.21,14,.6-4.57c-7.41,3.09-15.52,2-23.23.85a2.58,2.58,0,0,0-2.63.89,2.46,2.46,0,0,0-.19,2.78,34.78,34.78,0,0,0,11.41,10.37v-4.32a14.7,14.7,0,0,1-15.3-1.45,2.52,2.52,0,0,0-3.42.89,2.56,2.56,0,0,0,.9,3.42,19.6,19.6,0,0,0,20.34,1.46,2.52,2.52,0,0,0,0-4.32,29.4,29.4,0,0,1-9.62-8.57l-2.82,3.67c8.54,1.29,17.66,2.58,25.89-.85a2.55,2.55,0,0,0,.6-4.57l-18.22-14L401.91,655a83.71,83.71,0,0,0,25.69-4.69c1.93-.68,2.58-3.46.59-4.57l-17.31-9.63-1.26,4.66L428.85,639a2.53,2.53,0,0,0,2.45-2.17,2.46,2.46,0,0,0-1.79-2.74c-7.45-1.12-15.83-2.36-21.13-8.26L407.27,630l22.59-5.05c5.08-1.14,14.67-1.9,14.78-9a2.56,2.56,0,0,0-2.5-2.5,67.65,67.65,0,0,1-22-6.66l-.6,4.57,28.12-7.86c2.48-.69,2.26-4,0-4.82q-9.59-3.35-19.12-6.77v4.82l11.76-4.81c2.22-.9,2.51-4,0-4.82l-10.16-3.27c-1.5-.48-3.09-.86-4.53-1.48a3.45,3.45,0,0,1-.47-.24c-.19-.13-.19-.47-.14-.22.09.42.11-.06.31-.3,1.7-2.09,5.41-2.32,7.84-2.67a51.44,51.44,0,0,1,10.3-.4c2.82.15,3.4-4.25.67-4.91a80.83,80.83,0,0,0-14.76-2.14c-3.22-.16-3.21,4.84,0,5Z"/><path class="cls-7" d="M204.45,678.63a77.7,77.7,0,0,1-18.76,15.75l3.17-29.49a30.38,30.38,0,0,1-11.16,11.7c-6-7.78-3.83-20.53,4.42-25.88a67.07,67.07,0,0,1-23.5,4.14c4.77-6.17,15.5-4.32,20.54-10.27-12.26-2.08-24.61-4.18-36.2-8.69l24.63-7.95a263.46,263.46,0,0,1-31.12-7.37l30.86-9.21c-9-1.51-18.42-3.26-25.11-9.38a88.39,88.39,0,0,0,21.55-7.81c-5.49-5.93-17.05-5.12-19.94-12.67q12.85-3.18,25.88-5.61"/><path class="cls-7" d="M202.68,676.86a76.63,76.63,0,0,1-18.25,15.36l3.76,2.16,3.17-29.49c.27-2.52-3.53-3.34-4.66-1.27a28.36,28.36,0,0,1-10.26,10.82l3.42.89c-5.11-6.76-3.76-17.63,3.52-22.46a2.51,2.51,0,0,0,1-3.12,2.48,2.48,0,0,0-3-1.45,66.14,66.14,0,0,1-22.83,4.05l1.76,4.27c2.38-3,6.09-3.77,9.7-4.75,3.94-1.06,8.07-2.35,10.85-5.52,1.12-1.28.89-3.84-1.1-4.18-12.25-2.07-24.57-4.19-36.2-8.69v4.82l24.62-7.95c2.16-.7,2.59-4.37,0-4.82a268,268,0,0,1-31.12-7.37V623L168,613.77c2.19-.65,2.56-4.39,0-4.82-8.33-1.41-17.5-2.88-24-8.74l-1.1,4.18A92.25,92.25,0,0,0,165,596.32a2.52,2.52,0,0,0,.5-3.92c-3-3.16-7.21-4.58-11.19-6a26.56,26.56,0,0,1-5-2.27,7.24,7.24,0,0,1-3.06-3.25l-1.74,3.08q12.85-3.17,25.88-5.61a2.53,2.53,0,0,0,1.75-3.08,2.56,2.56,0,0,0-3.08-1.74q-13,2.44-25.88,5.61a2.51,2.51,0,0,0-1.75,3.07c1.79,4.47,5.59,6.68,9.89,8.37,3.77,1.48,7.92,2.49,10.7,5.4l.5-3.92a87.26,87.26,0,0,1-21,7.56,2.52,2.52,0,0,0-1.1,4.18c7.24,6.51,16.9,8.45,26.21,10V609l-30.85,9.21a2.52,2.52,0,0,0,0,4.82,267.31,267.31,0,0,0,31.11,7.37v-4.82l-24.62,8a2.52,2.52,0,0,0,0,4.82c11.63,4.5,23.95,6.62,36.2,8.69l-1.11-4.18c-2.48,2.84-6.31,3.6-9.89,4.58-3.91,1.06-8,2.41-10.65,5.69-1.29,1.62-.57,4.26,1.77,4.27a70.12,70.12,0,0,0,24.16-4.23l-1.92-4.57c-9.3,6.17-12.15,20.26-5.32,29.31a2.57,2.57,0,0,0,3.43.89A33.43,33.43,0,0,0,191,666.15l-4.66-1.26-3.17,29.49c-.2,1.93,2.27,3.07,3.77,2.16a81.31,81.31,0,0,0,19.26-16.15,2.55,2.55,0,0,0,0-3.53,2.52,2.52,0,0,0-3.54,0Z"/><path class="cls-4" d="M424.85,182.34c2.1,0,3.4-2.2,4.29-4.1q14.19-30.42,28.4-60.84c.64-1.38,1.25-3.12.3-4.31s-3-.93-4.53-.47A440.16,440.16,0,0,0,378,142.83"/><path class="cls-4" d="M424.85,184.84A7.07,7.07,0,0,0,430.5,181a75.52,75.52,0,0,0,3.53-7.37l7.57-16.22L456.75,125c1.2-2.58,2.58-5.14,3.58-7.81s.49-5.52-2.07-6.87c-2.28-1.19-4.91-.3-7.19.39Q447,111.89,443,113.2q-16,5.16-31.56,11.52-17.7,7.25-34.75,15.95c-2.86,1.47-.33,5.78,2.53,4.32a436.39,436.39,0,0,1,57.31-24.37q7.34-2.52,14.75-4.78c1.11-.33,2.22-.71,3.34-1a7,7,0,0,1,1-.15c.13,0,.4,0,.26-.07s.08-.42-.05,0c0,.09-.06.37-.08.47a6,6,0,0,1-.48,1.28c-.58,1.28-1.19,2.56-1.78,3.83L439.6,149.94l-7.89,16.9-3.89,8.34c-.51,1.08-1.68,4.58-3,4.66a2.56,2.56,0,0,0-2.5,2.5,2.53,2.53,0,0,0,2.5,2.5Z"/><ellipse class="cls-10" cx="296.25" cy="223.45" rx="138.63" ry="134.37"/><ellipse class="cls-9" cx="257.04" cy="217.04" rx="43.52" ry="32.04" transform="translate(1.36 435.68) rotate(-80.71)"/><ellipse class="cls-9" cx="326.27" cy="222.97" rx="32.04" ry="43.52" transform="translate(-30.74 53.53) rotate(-8.96)"/><path class="cls-4" d="M314.14,228.31c9.65,0,9.67-15,0-15s-9.67,15,0,15Z"/><path class="cls-4" d="M274.05,226.72c9.65,0,9.67-15,0-15s-9.67,15,0,15Z"/><path class="cls-4" d="M203,141.72c-.13-2.08-2.38-3.28-4.31-4.07l-62.21-25.26c-1.41-.57-3.18-1.09-4.32-.09s-.78,3-.24,4.56a439.74,439.74,0,0,0,34,73.72"/><path class="cls-4" d="M205.53,141.72a7,7,0,0,0-4-5.51,78.24,78.24,0,0,0-7.68-3.21l-16.59-6.74-33.18-13.47c-2.61-1.07-5.23-2.36-7.93-3.18-2.51-.76-5.4-.31-6.69,2.23s-.13,5.1.71,7.44q1.41,4,2.91,7.89,6,15.81,13.19,31.14,8,17.13,17.53,33.53c1.61,2.79,5.93.27,4.32-2.52A437.42,437.42,0,0,1,141,133.68q-2.91-7.27-5.58-14.63c-.38-1.06-.79-2.12-1.13-3.19a7.21,7.21,0,0,1-.31-1.1c-.11-.73.21-.6-.22-.5a3.61,3.61,0,0,1,1.79.41c1.27.47,2.53,1,3.79,1.53l30.64,12.45L187,135.57l8.76,3.56a32.14,32.14,0,0,1,3.25,1.4c.44.24,1.49.85,1.53,1.19a2.57,2.57,0,0,0,2.5,2.5,2.52,2.52,0,0,0,2.5-2.5Z"/><ellipse class="cls-11" cx="290.86" cy="271.82" rx="14.44" ry="4.65"/><path class="cls-7" d="M291.1,291a29.82,29.82,0,0,1-10.5,3.18,22.7,22.7,0,0,1-10.92-1c-.75-.3-1.08.91-.34,1.2,3.65,1.45,7.81,1.45,11.65,1a31.34,31.34,0,0,0,10.74-3.3c.72-.37.09-1.45-.63-1.08Z"/><path class="cls-7" d="M291.28,292a54.18,54.18,0,0,0,11.49,2.88c3.27.45,7.25.69,9.89-1.69.6-.54-.29-1.42-.89-.89-2.62,2.38-7,1.67-10.19,1.14a53.67,53.67,0,0,1-10-2.64c-.75-.28-1.08.92-.33,1.2Z"/><path class="cls-7" d="M263.15,270.5a127.07,127.07,0,0,0-35.46,2c-.78.16-.45,1.36.34,1.21a125.77,125.77,0,0,1,35.12-1.93c.81.07.8-1.18,0-1.25Z"/><path class="cls-7" d="M318.5,273.24a209.73,209.73,0,0,1,42,5.85c.78.19,1.11-1,.33-1.21A211.57,211.57,0,0,0,318.5,272c-.8,0-.8,1.22,0,1.25Z"/><path class="cls-7" d="M318,283.06a41.57,41.57,0,0,1,26.18,7.36c.66.46,1.29-.62.63-1.08A42.64,42.64,0,0,0,318,281.81c-.8,0-.81,1.29,0,1.25Z"/><path class="cls-7" d="M259.72,280.15Q243.19,283.42,227,288a.62.62,0,0,0,.33,1.2q16.2-4.61,32.74-7.88c.79-.16.46-1.37-.33-1.21Z"/><path class="cls-4" d="M388.43,126.63a37.81,37.81,0,0,0-6.37-23.31,5,5,0,0,0-2.32-2.14,5.21,5.21,0,0,0-3,.22l-29.4,8a142.12,142.12,0,0,0-7.58-37.15,206.51,206.51,0,0,1-14.39,35.61,238.86,238.86,0,0,0-19.63-39.24,86.52,86.52,0,0,0-16.77,31A45.7,45.7,0,0,0,274.87,66a49.52,49.52,0,0,0-8.63,30.47,4.22,4.22,0,0,1-.63,3.14c-1.09,1.22-3.08.7-4.59.06a168.86,168.86,0,0,1-27.2-14.49c-2,4.72,0,10.41,3.5,14.14s8.36,5.92,13.05,8c-5.09,1.76-10.67.37-15.85-1.1q-18.37-5.2-36.37-11.66c4.26,3.61,9.59,5.66,14.37,8.56s9.29,7.14,10.09,12.67c-11.3.87-22.58-1.34-33.7-3.54L201.77,127l-21.28-9.29a143.53,143.53,0,0,1,17.36,14"/><path class="cls-4" d="M390.93,126.63a40.55,40.55,0,0,0-5.68-23,12.24,12.24,0,0,0-3.61-4.33c-2.06-1.27-4.36-.67-6.52-.08l-13.25,3.61L346.69,107l3.16,2.41a145.78,145.78,0,0,0-7.67-37.81,2.52,2.52,0,0,0-4.82,0,206.93,206.93,0,0,1-14.13,35l4.56.6a243.94,243.94,0,0,0-19.88-39.84,2.53,2.53,0,0,0-3.93-.51A90.48,90.48,0,0,0,286.57,99l4.91.66A48.45,48.45,0,0,0,276.64,64.2a2.54,2.54,0,0,0-3.93.5A52.49,52.49,0,0,0,263.83,90a54.31,54.31,0,0,0-.08,6.63,4.36,4.36,0,0,1,0,1.3c-.08.25,0-.1.08-.1a5.29,5.29,0,0,1-2-.52A137,137,0,0,1,249,91.18q-7.12-3.77-13.87-8.19c-1.49-1-3.11.1-3.68,1.5-2.17,5.31-.19,11.3,3.27,15.57,3.68,4.54,9.23,7.08,14.43,9.42l.6-4.57c-3.94,1.29-8,.62-11.91-.38-4.35-1.12-8.66-2.45-13-3.76q-13.11-4-26-8.62c-2.3-.82-4.34,2.6-2.43,4.18,4.56,3.79,10,6,15,9,4.13,2.54,8,6.09,8.78,11.09l2.41-3.17c-11.15.81-22.14-1.3-33-3.45a2.52,2.52,0,0,0-2.43,4.17L200,128.76l3-3.92-21.28-9.3a2.5,2.5,0,0,0-2.52,4.32,142.29,142.29,0,0,1,16.85,13.64c2.34,2.2,5.88-1.33,3.53-3.54a150,150,0,0,0-17.86-14.42l-2.52,4.32,21.28,9.29c2.56,1.12,5-1.68,3-3.92l-12.86-14.75-2.43,4.18c11.3,2.23,22.79,4.47,34.36,3.63a2.55,2.55,0,0,0,2.41-3.16c-.92-5.71-5.18-10.12-9.79-13.24-4.92-3.33-10.72-5.28-15.32-9.1L197.48,97q13.38,4.78,27,8.91c4.42,1.33,8.85,2.75,13.35,3.79,4.35,1,8.92,1.48,13.24.06,1.84-.6,2.69-3.62.6-4.57-4.51-2-9.26-4.09-12.68-7.78-2.87-3.09-4.37-7.53-2.73-11.56l-3.67,1.49a172.14,172.14,0,0,0,27.2,14.49c2.13.9,4.6,1.58,6.73.27,2.32-1.43,2.29-4.08,2.21-6.49a46.89,46.89,0,0,1,1.59-13.8A47.87,47.87,0,0,1,277,67.23l-3.93.5a43.46,43.46,0,0,1,13.38,31.92c-.05,2.86,4.1,3.34,4.91.67A84.27,84.27,0,0,1,307.52,70.4l-3.93-.51A236.66,236.66,0,0,1,323,108.54c.72,1.83,3.5,2.68,4.57.6a213.54,213.54,0,0,0,14.64-36.21h-4.82a140.85,140.85,0,0,1,7.49,36.48,2.54,2.54,0,0,0,3.17,2.42l15.42-4.21,7.71-2.1,3.85-1a20.19,20.19,0,0,1,3.47-.92c.76-.06,1,.45,1.43,1a28.67,28.67,0,0,1,1.77,2.89,34,34,0,0,1,2.59,6,36.13,36.13,0,0,1,1.67,13.14c-.18,3.22,4.83,3.21,5,0Z"/><path class="cls-4" d="M430.32,212a74.57,74.57,0,0,1,14.1,2,53.24,53.24,0,0,0-15.66,1.41c-2.92.71-6.5,3.4-4.86,5.92a5,5,0,0,0,2.84,1.7l13.86,4.47-11.76,4.81q9.54,3.42,19.12,6.76L419.84,247a70.28,70.28,0,0,0,23.27,7c.08,3-3.5,4.43-6.39,5.08l-29.15,6.51c5.39,6.13,14.17,7.7,22.24,8.9l-19.23,1.77,17.32,9.63a80,80,0,0,1-25,4.59l18.22,14c-7.63,3.27-16.35,2.09-24.56.85A31.29,31.29,0,0,0,407,314.75a17,17,0,0,1-17.81-1.45"/><path class="cls-4" d="M430.32,214.47a73.36,73.36,0,0,1,13.43,1.95l.67-4.91a57.28,57.28,0,0,0-13.52.9c-3.47.64-7.49,1.77-9.28,5.17a5,5,0,0,0,.23,5.17c1.22,1.78,3.2,2.37,5.15,3l12.93,4.17V225.1l-11.76,4.81a2.52,2.52,0,0,0,0,4.82q9.56,3.42,19.13,6.77v-4.83l-28.12,7.87c-2,.55-2.58,3.58-.6,4.57a75.06,75.06,0,0,0,24.53,7.34l-2.5-2.5a.83.83,0,0,1-.22.69,4.18,4.18,0,0,1-.76.64,10,10,0,0,1-2.95,1.19c-3.17.82-6.41,1.44-9.61,2.15l-20.16,4.51c-1.94.43-2.29,2.86-1.11,4.18,5.92,6.58,15,8.29,23.35,9.54l.66-4.91-19.23,1.77c-2.31.21-3.59,3.36-1.26,4.65L426.64,288l.59-4.57a79.32,79.32,0,0,1-24.36,4.5,2.57,2.57,0,0,0-2.41,1.84,2.64,2.64,0,0,0,1.15,2.82l18.22,14,.59-4.57c-7.41,3.09-15.52,2-23.23.85a2.55,2.55,0,0,0-2.62.9,2.48,2.48,0,0,0-.2,2.78,35,35,0,0,0,11.41,10.36v-4.32a14.64,14.64,0,0,1-15.29-1.45,2.52,2.52,0,0,0-3.42.9,2.55,2.55,0,0,0,.89,3.42,19.6,19.6,0,0,0,20.34,1.45,2.52,2.52,0,0,0,0-4.32,29,29,0,0,1-9.61-8.57l-2.83,3.67c8.55,1.29,17.66,2.59,25.89-.85a2.54,2.54,0,0,0,.6-4.57l-18.21-14-1.27,4.66a83.88,83.88,0,0,0,25.69-4.68c1.94-.69,2.59-3.47.6-4.57l-17.31-9.63-1.27,4.66,19.23-1.77a2.52,2.52,0,0,0,2.46-2.16,2.48,2.48,0,0,0-1.79-2.75c-7.45-1.11-15.84-2.36-21.14-8.26l-1.1,4.18,22.59-5.05c5.08-1.13,14.67-1.9,14.78-8.95a2.57,2.57,0,0,0-2.5-2.5,67.7,67.7,0,0,1-22-6.66l-.6,4.57,28.12-7.86a2.53,2.53,0,0,0,0-4.83q-9.57-3.33-19.12-6.76v4.82l11.76-4.81c2.22-.91,2.51-4,0-4.82l-10.16-3.28c-1.49-.48-3.08-.85-4.52-1.48a2.39,2.39,0,0,1-.48-.24c-.18-.12-.19-.46-.13-.22.08.42.1,0,.3-.29,1.71-2.09,5.41-2.32,7.85-2.68a52.93,52.93,0,0,1,10.3-.4c2.81.16,3.39-4.25.66-4.91a80.82,80.82,0,0,0-14.76-2.13c-3.21-.17-3.21,4.84,0,5Z"/><path class="cls-4" d="M205.42,316.61a77.93,77.93,0,0,1-18.76,15.76l3.17-29.5a30.41,30.41,0,0,1-11.16,11.71c-6-7.78-3.84-20.53,4.41-25.88a66.8,66.8,0,0,1-23.5,4.13c4.77-6.16,15.5-4.32,20.55-10.26-12.26-2.08-24.62-4.18-36.2-8.7l24.62-7.95a260.88,260.88,0,0,1-31.11-7.37l30.85-9.21c-8.94-1.5-18.42-3.26-25.11-9.38a88,88,0,0,0,21.56-7.81c-5.5-5.92-17.06-5.12-19.94-12.67q12.85-3.16,25.88-5.61"/><path class="cls-4" d="M203.65,314.84a76.83,76.83,0,0,1-18.25,15.37l3.76,2.16,3.17-29.5c.27-2.51-3.54-3.33-4.66-1.26a28.49,28.49,0,0,1-10.26,10.81l3.42.9c-5.11-6.76-3.77-17.63,3.52-22.46a2.54,2.54,0,0,0,1-3.13,2.48,2.48,0,0,0-3-1.44,65.91,65.91,0,0,1-22.84,4l1.77,4.27c2.37-3,6.09-3.77,9.69-4.74,3.94-1.07,8.07-2.35,10.86-5.53,1.11-1.27.89-3.84-1.11-4.18-12.24-2.07-24.57-4.19-36.2-8.69v4.82l24.63-7.94c2.15-.7,2.59-4.37,0-4.83a265.93,265.93,0,0,1-31.12-7.37V261L169,251.75c2.2-.65,2.57-4.38,0-4.82-8.33-1.4-17.49-2.88-24-8.74l-1.1,4.18A92,92,0,0,0,166,234.31a2.53,2.53,0,0,0,.51-3.93c-3-3.15-7.21-4.57-11.2-6a27.16,27.16,0,0,1-5.05-2.26,7.27,7.27,0,0,1-3-3.25l-1.75,3.07q12.87-3.16,25.88-5.61a2.51,2.51,0,0,0,1.75-3.07,2.55,2.55,0,0,0-3.07-1.75q-13,2.44-25.89,5.61a2.51,2.51,0,0,0-1.74,3.08c1.79,4.47,5.59,6.67,9.88,8.36,3.78,1.48,7.93,2.5,10.7,5.41l.51-3.93a87,87,0,0,1-21,7.56,2.52,2.52,0,0,0-1.11,4.18c7.24,6.52,16.9,8.46,26.22,10v-4.82l-30.86,9.21a2.52,2.52,0,0,0,0,4.82,268,268,0,0,0,31.12,7.38v-4.83l-24.63,7.95a2.52,2.52,0,0,0,0,4.82c11.63,4.5,24,6.62,36.2,8.7l-1.1-4.18c-2.49,2.83-6.31,3.6-9.9,4.57-3.9,1.07-8,2.42-10.65,5.7-1.29,1.61-.56,4.26,1.77,4.26a70.13,70.13,0,0,0,24.17-4.22l-1.93-4.57c-9.3,6.17-12.15,20.26-5.31,29.3a2.55,2.55,0,0,0,3.42.9A33.56,33.56,0,0,0,192,304.13l-4.66-1.26-3.17,29.5c-.21,1.92,2.26,3.06,3.76,2.16a81.16,81.16,0,0,0,19.27-16.15,2.57,2.57,0,0,0,0-3.54,2.54,2.54,0,0,0-3.54,0Z"/></g></svg>