<svg xmlns="http://www.w3.org/2000/svg" viewBox="0 0 410.62 452.17"><defs><style>.cls-1,.cls-2{fill:#1d1d1b;}.cls-1,.cls-6,.cls-7{stroke:#1d1d1b;}.cls-1,.cls-3,.cls-6,.cls-7{stroke-miterlimit:10;}.cls-3,.cls-4,.cls-6{fill:#fff;}.cls-3{stroke:#fff;stroke-width:0.25px;}.cls-5{fill:#242422;}.cls-7{fill:#fffefe;}</style></defs><g id="sortondkat"><ellipse class="cls-1" cx="169.54" cy="159.97" rx="138.63" ry="134.37"/><path class="cls-2" d="M76.32,78.24C76.19,76.15,73.94,75,72,74.17L9.8,48.91c-1.41-.57-3.18-1.1-4.32-.09s-.78,3-.24,4.55a439.47,439.47,0,0,0,34,73.73"/><path class="cls-2" d="M78.82,78.24a7,7,0,0,0-4-5.51,74.93,74.93,0,0,0-7.68-3.21L50.55,62.78,17.37,49.3c-2.61-1.06-5.23-2.35-7.93-3.17-2.51-.77-5.4-.31-6.69,2.23s-.13,5.1.71,7.44q1.41,4,2.91,7.89,6,15.81,13.2,31.14,8,17.13,17.52,33.53c1.61,2.79,5.93.27,4.32-2.52A436.89,436.89,0,0,1,14.25,70.19q-2.91-7.26-5.58-14.62c-.38-1.06-.79-2.12-1.13-3.19a7.55,7.55,0,0,1-.31-1.1c-.11-.74.21-.6-.21-.51a3.61,3.61,0,0,1,1.78.42c1.28.47,2.53,1,3.79,1.53L43.23,65.17l17.05,6.92L69,75.65a29.19,29.19,0,0,1,3.25,1.4c.45.23,1.49.85,1.53,1.19a2.57,2.57,0,0,0,2.5,2.5,2.52,2.52,0,0,0,2.5-2.5Z"/><ellipse class="cls-3" cx="164.15" cy="208.33" rx="14.44" ry="4.65"/><path class="cls-4" d="M164.39,227.55a29.75,29.75,0,0,1-10.5,3.18,22.59,22.59,0,0,1-10.92-1c-.75-.29-1.08.92-.33,1.21,3.64,1.45,7.8,1.45,11.65,1a31.48,31.48,0,0,0,10.74-3.3c.71-.37.08-1.45-.64-1.08Z"/><path class="cls-4" d="M164.57,228.52a54.18,54.18,0,0,0,11.49,2.88c3.27.44,7.26.69,9.89-1.69.6-.54-.29-1.43-.88-.89-2.63,2.38-7,1.66-10.2,1.14a53.67,53.67,0,0,1-10-2.64c-.75-.29-1.08.92-.33,1.2Z"/><path class="cls-2" d="M291.51,118.38c2.09,0,3.4-2.2,4.28-4.09q14.2-30.44,28.4-60.85c.64-1.38,1.25-3.12.31-4.3s-3-.94-4.54-.48A439.71,439.71,0,0,0,244.6,78.88"/><path class="cls-2" d="M291.51,120.88a7.11,7.11,0,0,0,5.65-3.82,79,79,0,0,0,3.52-7.37l7.58-16.23L323.4,61c1.21-2.58,2.58-5.14,3.58-7.8s.5-5.52-2.07-6.87c-2.28-1.2-4.91-.3-7.19.39q-4.05,1.22-8.08,2.51-16,5.16-31.55,11.52-17.71,7.25-34.75,16c-2.87,1.46-.34,5.78,2.52,4.31a437.74,437.74,0,0,1,57.31-24.37q7.33-2.52,14.76-4.77c1.1-.34,2.21-.72,3.34-1,.34-.08.66-.1,1-.15.13,0,.4,0,.26-.06s.08-.43,0,0c0,.09-.05.37-.07.46a7.41,7.41,0,0,1-.48,1.29c-.59,1.28-1.2,2.55-1.79,3.83L306.25,86l-7.89,16.9-3.89,8.34c-.5,1.09-1.68,4.58-3,4.66a2.56,2.56,0,0,0-2.5,2.5,2.51,2.51,0,0,0,2.5,2.5Z"/><path class="cls-4" d="M136.45,207A127,127,0,0,0,101,209c-.79.16-.46,1.36.33,1.2a126.22,126.22,0,0,1,35.13-1.92c.8.07.79-1.18,0-1.25Z"/><path class="cls-4" d="M191.79,209.76a209.72,209.72,0,0,1,42,5.84c.78.19,1.12-1,.33-1.2a211.47,211.47,0,0,0-42.35-5.89c-.8,0-.8,1.22,0,1.25Z"/><path class="cls-4" d="M191.25,219.57a41.58,41.58,0,0,1,26.18,7.37c.67.46,1.29-.62.64-1.08a42.75,42.75,0,0,0-26.82-7.54c-.8.05-.81,1.3,0,1.25Z"/><path class="cls-4" d="M133,216.67q-16.53,3.27-32.74,7.89a.62.62,0,0,0,.33,1.2q16.2-4.62,32.74-7.89c.79-.15.46-1.36-.33-1.2Z"/><ellipse class="cls-1" cx="169.54" cy="349.58" rx="84.51" ry="93.37"/><ellipse class="cls-1" cx="164.71" cy="373.21" rx="127.23" ry="69.29"/><path class="cls-2" d="M243.87,316.37a252.25,252.25,0,0,1,78-54c4.17-1.84,10.09-3.06,12.38.87,2.18,3.76-1.37,8.19-4.68,11q-6,5.13-12.34,9.92c-18.25,13.87-38.08,25.52-57.85,37.13-7.56,4.44-15.15,8.9-23.24,12.29"/><path class="cls-2" d="M249.17,321.68a246.2,246.2,0,0,1,40.56-33.35,252.82,252.82,0,0,1,22.06-12.88c4-2.08,8.09-4.19,12.27-5.93,1.09-.46,3.16-.68,4-1.37,2.23.32,2-.69-.62-3a3.49,3.49,0,0,1-.73,1.25c-6.94,5.61-13.5,11.58-20.82,16.8-7.56,5.4-15.35,10.48-23.24,15.39-16.23,10.09-32.78,20.95-50.37,28.52-3.75,1.62-4.51,7.06-2.69,10.27,2.21,3.87,6.57,4.28,10.26,2.69,16.49-7.1,31.94-17.2,47.21-26.58a393.07,393.07,0,0,0,43.69-30.56c5.79-4.74,13-11,11.32-19.41-1.68-8.28-9.59-11.33-17.28-9.93-7.4,1.35-14.75,5.88-21.35,9.32q-11,5.72-21.31,12.49a264.8,264.8,0,0,0-43.6,35.69c-6.78,6.88,3.82,17.49,10.61,10.61Z"/><path class="cls-2" d="M109.13,311.46c1.35-2-1-4.36-3-5.6a739.59,739.59,0,0,0-85.58-44.44c-2.25-1-4.6-2-7.07-1.95s-5.09,1.43-5.76,3.81.8,4.92,2.54,6.73c5,5.17,12.16,7.43,18.82,10.13,27.38,11.11,50.18,32.45,78.65,40.34"/><path class="cls-2" d="M116.36,313.45c3.6-9.34-7.39-14.67-13.77-18.43Q90,287.58,77,280.63C60.1,271.53,42.81,263,25.19,255.32c-7.75-3.38-18.19-5.8-23.48,3.07-5.06,8.49,2.05,16.93,8.86,21.47s14.92,6.59,22.2,10.09,14.53,7.75,21.56,12c16.43,10,32.74,20.39,51.39,25.75,9.29,2.67,13.26-11.8,4-14.47-17.91-5.14-33.43-15.55-49.22-25.09a217,217,0,0,0-23.87-12.89c-3.86-1.71-22-6.83-21.42-12l-1,3.78a3,3,0,0,0-.72-.09,11.15,11.15,0,0,1,3.29.93c1.77.62,3.47,1.53,5.19,2.3,4,1.8,8,3.65,12,5.52q12.42,5.83,24.61,12.13,11.78,6.07,23.32,12.57,5.77,3.24,11.48,6.59c2.54,1.49,8.25,3.58,9.55,6.18l-1-3.78v0c-1.47,3.81,1.63,8.2,5.24,9.23,4.22,1.21,7.77-1.48,9.23-5.24Z"/><path class="cls-2" d="M251.92,320.65c16.94-4.16,35.53-6.45,46.14-21.87,3.8-5.52,6.77-14.93,13.56-17.64,3.1-1.24,6.68-.89,9.88-1.78a16.72,16.72,0,0,0,9.3-6.63c3.65-4.81-1.39-11.11-6.48-11.29-9.63-.33-14.57,6.78-21.78,11.66-7.73,5.22-17.59,6.18-25.48,11.31C269,289.65,262.7,297,255.54,303.28a111.87,111.87,0,0,1-25.06,16.4c-8.67,4.23-1.08,17.17,7.57,12.95a127.12,127.12,0,0,0,23.45-14.87c7.24-5.75,13.24-12.92,20.54-18.57,6.93-5.36,15.38-7,23.22-10.56a42.92,42.92,0,0,0,10.48-7c2.48-2.15,5.06-5.34,8.58-5.22l-6.48-11.28s-5.56.56-6.72.75a23.75,23.75,0,0,0-9.58,3.79c-6.33,4.3-10,10.93-13.84,17.36-4,6.82-8.66,10.8-16.31,13.18s-15.65,4-23.46,5.94c-9.37,2.3-5.4,16.77,4,14.47Z"/><ellipse class="cls-1" cx="96.74" cy="436.64" rx="31.5" ry="15.03"/><ellipse class="cls-1" cx="223.29" cy="436.64" rx="31.5" ry="15.03"/><path class="cls-2" d="M219,391.53q31.38,1.16,62.78-.15,16.19-.7,32.32-2.07c9-.77,19-.85,24.09-9.64,4.71-8.09,2.53-17.14-1.2-25.1a172.88,172.88,0,0,0-14.26-24.43,219.56,219.56,0,0,0-18.17-22.84c-5.12-5.66-12.08-12.29-13.51-20.16.12.66-1.4,1.32,0,.78.45-.17.92-.28,1.38-.42,2.21-.67,4.56-1,6.82-1.52l16.53-3.55,31.11-6.67c15.39-3.31,36.56-4.65,47.34-17.8,11.25-13.72,7.09-37,1.92-52.48-5.86-17.53-16.61-31.61-29.68-44.41-6.83-6.69-13.92-13.16-20-20.53a66.81,66.81,0,0,1-4.05-5.41c-.58-.87-1.15-1.76-1.7-2.66-.21-.33-2-3.63-1.82-2.32.14,1,.82-.61,1.45-1.21,1-1,2.08-1.91,3.14-2.84q2.82-2.49,5.78-4.82a142,142,0,0,1,25.84-15.94,109.17,109.17,0,0,1,13.72-5.63c2.87-.94,7-2.52,9.2.17l3.31-12.53a129.64,129.64,0,0,0-44.55,17c-11.37,7-30.31,19.94-20.68,35.56,3.66,5.94,10.4,9.11,15.64,13.44A101.62,101.62,0,0,1,367.08,169a95.58,95.58,0,0,1,18.77,41.68c2.7,15.14.53,31.25-8.37,44S354.6,271.88,339.86,274c-15,2.17-32.51,4.25-39,20.27s7,27.71,15.21,39.58a66.86,66.86,0,0,1,10.21,23.22c1.52,6.68,3.3,16.45,0,22.88-1.77,3.45-5.93,3.59-9.37,4.15-4.92.79-9.88,1.29-14.85,1.6a179.18,179.18,0,0,1-30.11-.78c-4-.43-7.5,3.76-7.5,7.5,0,4.42,3.46,7.07,7.5,7.5,17.43,1.89,36,1.81,53.17-2.13,16.85-3.87,18.87-21.67,17.07-36.16-2-16-8.62-30.16-18.74-42.64-3.76-4.64-10.37-11.1-9.16-17.68s9-9.34,14.66-10.59c15.93-3.55,32.3-3.27,46.27-13a62.61,62.61,0,0,0,24.18-34.95c8.55-31.52-4.91-66.25-26.18-89.67a116.14,116.14,0,0,0-19.27-16.76c-1.73-1.22-5.33-3-5.33-5.38,0-3,5.19-6.35,7.3-7.93a117.68,117.68,0,0,1,49.43-21.21c6.07-1.1,6.55-8.62,3.31-12.53-5.49-6.65-14.84-6.65-22.49-4.44-8.77,2.53-17.4,6.67-25.39,11a157.15,157.15,0,0,0-22.67,15.25c-6.81,5.46-16.55,12.18-13.63,22.2,2.38,8.15,9.45,15.85,15.05,22,5.94,6.49,12.47,12.4,18.68,18.61,12.83,12.81,22.4,27.31,26.2,45.27,1.67,7.92,3.54,19.15-.06,26.76-3.1,6.54-11.4,8.66-17.81,10.23-20.35,5-41,8.85-61.49,13.24-8.23,1.76-20.08,2.18-25.88,9.15-6.17,7.42-1.52,17.85,3,24.86,5,7.62,11.6,14,17.43,20.88a178.26,178.26,0,0,1,16.48,23.15c2.72,4.53,5.36,9.16,7.63,13.94,1.3,2.75,4,8.52,1.17,11.19-1.35,1.27-4.16,1.12-5.89,1.28-2.93.26-5.86.52-8.8.75q-9.29.75-18.6,1.26-36.26,2-72.58.64c-9.66-.36-9.64,14.64,0,15Z"/><path class="cls-5" d="M263.45,328.51c6.93-5.59,14.89-9.55,22.26-14.49,6.77-4.52,12.33-10.17,17.85-16.11s12.33-11,17.07-17.35c5.54-7.45,12.66-13,20.12-18.41.78-.56,0-1.86-.75-1.29-6.64,4.83-13.37,9.74-18.57,16.16a64,64,0,0,1-8,8.85,126.07,126.07,0,0,0-9.77,9.71c-6.24,6.71-12.37,13.06-20.11,18.06-7.1,4.59-14.57,8.48-21.17,13.81-.75.6.31,1.66,1.06,1.06Z"/><path class="cls-5" d="M110.92,284.89a162.38,162.38,0,0,0,59.4,10.87c20.35-.26,39.32-5.5,58.69-11.25,2.31-.68,1.32-4.3-1-3.61-19,5.65-37.66,10.85-57.69,11.11a159.38,159.38,0,0,1-58.41-10.74c-2.26-.85-3.23,2.77-1,3.62Z"/><path class="cls-5" d="M128,437.81a41.89,41.89,0,0,0-24.56-14.12c-10.16-1.73-21.43-2-31,2.22-2.2,1-.3,4.2,1.89,3.23,8.82-3.9,20.25-3.49,29.58-1.56a38.66,38.66,0,0,1,21.42,12.88c1.57,1.83,4.22-.83,2.65-2.65Z"/><path class="cls-5" d="M248.47,426.59a42.33,42.33,0,0,0-30.19-2.49c-9.23,2.76-18.9,6.67-25.43,14-1.61,1.8,1,4.46,2.65,2.65,5.84-6.55,14.08-9.84,22.24-12.55a38.72,38.72,0,0,1,28.84,1.62c2.17,1,4.08-2.22,1.89-3.23Z"/><path class="cls-2" d="M261.72,63.15a37.84,37.84,0,0,0-6.37-23.32A5,5,0,0,0,253,37.7a5.21,5.21,0,0,0-3,.22l-29.39,8a142.46,142.46,0,0,0-7.59-37.15,207.6,207.6,0,0,1-14.38,35.61A238.91,238.91,0,0,0,179,5.15a86.44,86.44,0,0,0-16.77,31A45.73,45.73,0,0,0,148.16,2.48,49.62,49.62,0,0,0,139.53,33a4.27,4.27,0,0,1-.62,3.14c-1.1,1.22-3.09.7-4.6.06a169.13,169.13,0,0,1-27.19-14.49c-2,4.72-.05,10.41,3.49,14.14s8.36,5.92,13,8c-5.09,1.76-10.67.37-15.85-1.1Q89.44,37.52,71.44,31.08c4.26,3.61,9.59,5.66,14.37,8.55S95.1,46.78,95.9,52.31c-11.3.87-22.58-1.35-33.69-3.55L75.06,63.51,53.78,54.22a142.57,142.57,0,0,1,17.36,14"/><path class="cls-2" d="M264.22,63.15a40.53,40.53,0,0,0-5.68-23,12.26,12.26,0,0,0-3.61-4.34c-2.06-1.27-4.36-.66-6.52-.07l-13.25,3.61L220,43.52l3.17,2.41a146.21,146.21,0,0,0-7.68-37.81,2.52,2.52,0,0,0-4.82,0,207.27,207.27,0,0,1-14.13,35l4.57.6A244.79,244.79,0,0,0,181.2,3.89c-.78-1.27-2.85-1.79-3.92-.51A90.3,90.3,0,0,0,159.86,35.5l4.91.67A48.45,48.45,0,0,0,149.93.72a2.54,2.54,0,0,0-3.93.5,52.47,52.47,0,0,0-8.87,25.3,54.31,54.31,0,0,0-.09,6.63,4.36,4.36,0,0,1,0,1.3c-.08.25,0-.1.09-.1a5.3,5.3,0,0,1-2-.53,133.2,133.2,0,0,1-12.89-6.12q-7.14-3.76-13.88-8.19c-1.49-1-3.1.09-3.68,1.49-2.17,5.32-.18,11.31,3.27,15.58,3.69,4.54,9.23,7.08,14.43,9.42l.6-4.57c-3.94,1.29-8,.62-11.91-.39-4.35-1.11-8.66-2.44-13-3.75q-13.12-4-26-8.62c-2.3-.82-4.33,2.59-2.43,4.18,4.56,3.79,10,6,15,9,4.13,2.54,8,6.09,8.78,11.08l2.41-3.16c-11.15.81-22.14-1.3-33-3.46a2.52,2.52,0,0,0-2.43,4.18L73.3,65.28l3-3.93L55,52.06a2.5,2.5,0,0,0-2.52,4.32A142.21,142.21,0,0,1,69.37,70c2.34,2.21,5.88-1.32,3.54-3.53A150.88,150.88,0,0,0,55,52.06l-2.52,4.32L73.8,65.67c2.56,1.12,5-1.68,3-3.93L64,47l-2.43,4.18c11.3,2.23,22.79,4.47,34.36,3.63a2.55,2.55,0,0,0,2.41-3.17c-.92-5.7-5.18-10.11-9.79-13.23-4.92-3.33-10.72-5.28-15.31-9.1l-2.44,4.18q13.38,4.78,27,8.91c4.42,1.33,8.85,2.75,13.35,3.79,4.35,1,8.92,1.47,13.24.06,1.84-.6,2.7-3.63.6-4.57-4.51-2-9.26-4.09-12.68-7.78-2.86-3.09-4.37-7.54-2.72-11.57l-3.68,1.5a173,173,0,0,0,27.2,14.49c2.13.9,4.61,1.58,6.73.27,2.32-1.43,2.3-4.09,2.21-6.49a46.89,46.89,0,0,1,1.59-13.8,47.81,47.81,0,0,1,6.74-14.56l-3.93.51a43.45,43.45,0,0,1,13.38,31.92c-.05,2.86,4.1,3.34,4.91.66A84.31,84.31,0,0,1,180.81,6.92l-3.93-.51a236.66,236.66,0,0,1,19.38,38.65c.72,1.83,3.5,2.68,4.57.59a213.78,213.78,0,0,0,14.64-36.2h-4.82a140.86,140.86,0,0,1,7.5,36.48,2.53,2.53,0,0,0,3.16,2.41l15.42-4.2,7.71-2.1L248.29,41a19.28,19.28,0,0,1,3.47-.91c.76-.06,1,.44,1.44,1A29.3,29.3,0,0,1,255,44a34.84,34.84,0,0,1,2.6,6,36.1,36.1,0,0,1,1.66,13.14c-.17,3.22,4.83,3.21,5,0Z"/><path class="cls-2" d="M303.61,148.49a74.57,74.57,0,0,1,14.1,2,53.18,53.18,0,0,0-15.65,1.41c-2.93.71-6.51,3.39-4.87,5.92a5.06,5.06,0,0,0,2.84,1.7L313.89,164l-11.76,4.8q9.54,3.43,19.12,6.77l-28.12,7.86a69.89,69.89,0,0,0,23.27,7c.08,3-3.5,4.44-6.39,5.08l-29.15,6.52c5.4,6.13,14.17,7.7,22.24,8.9l-19.22,1.76,17.31,9.63a80,80,0,0,1-25,4.6l18.21,14c-7.63,3.27-16.35,2.09-24.56.85a31.4,31.4,0,0,0,10.51,9.47,17,17,0,0,1-17.81-1.45"/><path class="cls-2" d="M303.61,151A73.23,73.23,0,0,1,317,152.94l.67-4.91a57.15,57.15,0,0,0-13.51.89c-3.48.65-7.49,1.78-9.29,5.18a5,5,0,0,0,.23,5.17c1.22,1.77,3.21,2.37,5.15,3l12.93,4.17v-4.83l-11.76,4.81a2.53,2.53,0,0,0,0,4.82q9.56,3.44,19.13,6.77v-4.82l-28.12,7.86c-2,.55-2.58,3.59-.6,4.57A74.58,74.58,0,0,0,316.4,193l-2.5-2.5a.84.84,0,0,1-.21.7,4.78,4.78,0,0,1-.77.64A10,10,0,0,1,310,193c-3.17.83-6.41,1.45-9.61,2.16l-20.16,4.51c-1.93.43-2.29,2.85-1.1,4.18,5.91,6.58,15,8.29,23.34,9.54l.66-4.91-19.22,1.76c-2.32.22-3.6,3.37-1.27,4.66l17.32,9.63.59-4.57a79,79,0,0,1-24.35,4.51,2.55,2.55,0,0,0-2.41,1.83,2.63,2.63,0,0,0,1.14,2.83l18.22,14,.6-4.57c-7.41,3.09-15.52,2-23.23.85a2.56,2.56,0,0,0-2.63.9,2.46,2.46,0,0,0-.2,2.77,34.87,34.87,0,0,0,11.41,10.37v-4.32a14.64,14.64,0,0,1-15.29-1.45,2.52,2.52,0,0,0-3.42.9,2.55,2.55,0,0,0,.9,3.42,19.59,19.59,0,0,0,20.34,1.45,2.53,2.53,0,0,0,0-4.32,29.18,29.18,0,0,1-9.62-8.57l-2.82,3.67c8.54,1.29,17.66,2.58,25.88-.85a2.54,2.54,0,0,0,.6-4.57l-18.21-14-1.26,4.66a83.59,83.59,0,0,0,25.68-4.69c1.94-.68,2.59-3.46.6-4.56l-17.31-9.64-1.26,4.66,19.22-1.76a2.52,2.52,0,0,0,2.46-2.17,2.47,2.47,0,0,0-1.79-2.74c-7.45-1.11-15.84-2.36-21.14-8.26l-1.1,4.18,22.59-5.05c5.08-1.13,14.67-1.9,14.78-9a2.57,2.57,0,0,0-2.5-2.5,67.69,67.69,0,0,1-22-6.65l-.59,4.57L321.92,178c2.48-.69,2.26-4,0-4.82q-9.59-3.33-19.13-6.77v4.82l11.76-4.8c2.22-.91,2.52-4,0-4.83l-10.16-3.27c-1.49-.48-3.08-.86-4.52-1.48a3.07,3.07,0,0,1-.48-.24c-.18-.12-.18-.47-.13-.22.08.42.11-.05.3-.3,1.71-2.08,5.41-2.31,7.85-2.67a52.16,52.16,0,0,1,10.3-.4c2.81.15,3.4-4.25.66-4.91A79.84,79.84,0,0,0,303.61,146c-3.21-.17-3.2,4.83,0,5Z"/><path class="cls-2" d="M78.71,253.13A77.93,77.93,0,0,1,60,268.89l3.17-29.5A30.48,30.48,0,0,1,52,251.1c-6-7.78-3.84-20.54,4.42-25.88a66.89,66.89,0,0,1-23.51,4.13c4.77-6.17,15.5-4.32,20.55-10.27-12.26-2.07-24.62-4.18-36.2-8.69l24.62-7.95a261.34,261.34,0,0,1-31.11-7.37l30.85-9.21c-8.94-1.5-18.42-3.26-25.11-9.38A87.9,87.9,0,0,0,38,168.67C32.53,162.74,21,163.55,18.09,156q12.86-3.17,25.88-5.61"/><path class="cls-2" d="M76.94,251.36a76.86,76.86,0,0,1-18.25,15.37l3.76,2.16,3.17-29.5c.27-2.52-3.54-3.33-4.66-1.26A28.41,28.41,0,0,1,50.7,248.94l3.42.9c-5.11-6.76-3.77-17.64,3.52-22.47a2.51,2.51,0,0,0-1.93-4.57,65.68,65.68,0,0,1-22.84,4l1.77,4.27c2.37-3,6.09-3.77,9.69-4.74,4-1.07,8.07-2.35,10.86-5.53,1.11-1.27.89-3.84-1.11-4.18-12.24-2.07-24.57-4.19-36.2-8.69v4.82l24.63-8c2.15-.69,2.59-4.37,0-4.82a265.93,265.93,0,0,1-31.12-7.37v4.82l30.86-9.21c2.19-.65,2.56-4.39,0-4.82-8.33-1.4-17.5-2.88-24-8.74l-1.1,4.18a92.42,92.42,0,0,0,22.15-8.06,2.53,2.53,0,0,0,.51-3.93c-3-3.16-7.21-4.58-11.2-6.05a27.16,27.16,0,0,1-5.05-2.26,7.34,7.34,0,0,1-3.05-3.26l-1.75,3.08q12.87-3.16,25.89-5.61A2.5,2.5,0,0,0,43.31,148q-13,2.45-25.89,5.61a2.5,2.5,0,0,0-1.74,3.07c1.79,4.47,5.59,6.68,9.89,8.37,3.77,1.48,7.92,2.5,10.69,5.41l.51-3.93a87.26,87.26,0,0,1-21,7.56,2.52,2.52,0,0,0-1.1,4.18c7.24,6.51,16.89,8.45,26.21,10v-4.82l-30.86,9.21a2.52,2.52,0,0,0,0,4.82,265.93,265.93,0,0,0,31.12,7.37V200L16.55,208a2.52,2.52,0,0,0,0,4.82c11.64,4.5,24,6.62,36.2,8.69l-1.1-4.17c-2.49,2.83-6.31,3.59-9.9,4.57-3.9,1.07-8,2.42-10.64,5.69-1.3,1.62-.57,4.27,1.76,4.27A70.13,70.13,0,0,0,57,227.63l-1.93-4.57c-9.3,6.16-12.15,20.25-5.31,29.3a2.57,2.57,0,0,0,3.42.9,33.49,33.49,0,0,0,12.06-12.61l-4.66-1.26-3.17,29.5c-.21,1.92,2.26,3.06,3.76,2.16A81.4,81.4,0,0,0,80.48,254.9a2.57,2.57,0,0,0,0-3.54,2.53,2.53,0,0,0-3.54,0Z"/><ellipse class="cls-6" cx="130.21" cy="153.44" rx="43.52" ry="32.04" transform="translate(-42.23 257.18) rotate(-80.71)"/><ellipse class="cls-7" cx="199.44" cy="159.37" rx="32.04" ry="43.52" transform="translate(-22.39 33) rotate(-8.96)"/><path class="cls-2" d="M182.8,167.47c9.65,0,9.66-15,0-15s-9.67,15,0,15Z"/><path class="cls-2" d="M145.3,166.87c9.65,0,9.67-15,0-15s-9.67,15,0,15Z"/></g></svg>