<svg xmlns="http://www.w3.org/2000/svg" viewBox="0 0 447.94 452.17"><defs><style>.cls-1,.cls-2{fill:#1d1d1b;}.cls-1,.cls-6{stroke:#1d1d1b;}.cls-1,.cls-3,.cls-6{stroke-miterlimit:10;}.cls-3,.cls-4{fill:#fff;}.cls-3{stroke:#fff;stroke-width:0.25px;}.cls-5{fill:#242422;}.cls-6{fill:#f7bbae;}.cls-7{opacity:0.69;}.cls-8{fill:#df0833;}.cls-9{fill:#d0d0d0;}.cls-10{fill:#ed6b1f;}</style></defs><g id="sortondkat"><ellipse class="cls-1" cx="206.86" cy="159.97" rx="138.63" ry="134.37"/><path class="cls-2" d="M113.63,78.24c-.12-2.09-2.37-3.28-4.31-4.07L47.11,48.91c-1.41-.57-3.17-1.1-4.31-.09s-.78,3-.24,4.55a439.47,439.47,0,0,0,34,73.73"/><path class="cls-2" d="M116.13,78.24a7,7,0,0,0-4-5.51,74.76,74.76,0,0,0-7.67-3.21L87.87,62.78,54.69,49.3c-2.61-1.06-5.23-2.35-7.93-3.17-2.51-.77-5.4-.31-6.69,2.23s-.14,5.1.7,7.44q1.42,4,2.92,7.89,6,15.81,13.19,31.14,8,17.13,17.53,33.53c1.61,2.79,5.93.27,4.31-2.52A438.17,438.17,0,0,1,51.57,70.19Q48.65,62.93,46,55.57c-.38-1.06-.79-2.12-1.14-3.19a9.05,9.05,0,0,1-.31-1.1c-.11-.74.22-.6-.21-.51a3.62,3.62,0,0,1,1.79.42c1.27.47,2.52,1,3.78,1.53L80.55,65.17l17,6.92,8.75,3.56a29.34,29.34,0,0,1,3.26,1.4c.44.23,1.48.85,1.52,1.19a2.58,2.58,0,0,0,2.5,2.5,2.51,2.51,0,0,0,2.5-2.5Z"/><ellipse class="cls-3" cx="201.47" cy="208.33" rx="14.44" ry="4.65"/><path class="cls-4" d="M201.71,227.55a29.8,29.8,0,0,1-10.51,3.18,22.61,22.61,0,0,1-10.92-1c-.74-.29-1.07.92-.33,1.21,3.65,1.45,7.81,1.45,11.65,1a31.34,31.34,0,0,0,10.74-3.3c.71-.37.08-1.45-.63-1.08Z"/><path class="cls-4" d="M201.89,228.52a54,54,0,0,0,11.49,2.88c3.26.44,7.25.69,9.89-1.69.59-.54-.29-1.43-.89-.89-2.63,2.38-7,1.66-10.19,1.14a53.67,53.67,0,0,1-10-2.64c-.76-.29-1.08.92-.33,1.2Z"/><path class="cls-2" d="M328.82,118.38c2.09,0,3.4-2.2,4.29-4.09q14.19-30.44,28.4-60.85c.64-1.38,1.25-3.12.3-4.3s-3-.94-4.53-.48a439.81,439.81,0,0,0-75.37,30.22"/><path class="cls-2" d="M328.82,120.88a7.08,7.08,0,0,0,5.65-3.82,76.64,76.64,0,0,0,3.53-7.37l7.57-16.23L360.72,61c1.2-2.58,2.58-5.14,3.58-7.8s.49-5.52-2.08-6.87c-2.27-1.2-4.91-.3-7.18.39-2.7.81-5.4,1.65-8.08,2.51Q331,54.4,315.4,60.76q-17.7,7.25-34.75,16c-2.86,1.46-.34,5.78,2.53,4.31a437.74,437.74,0,0,1,57.31-24.37q7.33-2.52,14.75-4.77c1.11-.34,2.22-.72,3.34-1,.34-.08.66-.1,1-.15.14,0,.41,0,.26-.06s.09-.43,0,0c0,.09-.06.37-.08.46a6.68,6.68,0,0,1-.48,1.29c-.58,1.28-1.19,2.55-1.79,3.83L343.57,86l-7.89,16.9-3.89,8.34c-.51,1.09-1.68,4.58-3,4.66a2.57,2.57,0,0,0-2.5,2.5,2.52,2.52,0,0,0,2.5,2.5Z"/><path class="cls-4" d="M173.76,207a127.07,127.07,0,0,0-35.46,2c-.79.16-.45,1.36.33,1.2a126.22,126.22,0,0,1,35.13-1.92c.8.07.8-1.18,0-1.25Z"/><path class="cls-4" d="M229.11,209.76a209.82,209.82,0,0,1,42,5.84c.78.19,1.11-1,.33-1.2a211.67,211.67,0,0,0-42.35-5.89c-.81,0-.81,1.22,0,1.25Z"/><path class="cls-4" d="M228.56,219.57a41.59,41.59,0,0,1,26.19,7.37c.66.46,1.29-.62.63-1.08a42.74,42.74,0,0,0-26.82-7.54c-.8.05-.8,1.3,0,1.25Z"/><path class="cls-4" d="M170.33,216.67q-16.53,3.27-32.74,7.89a.62.62,0,0,0,.33,1.2q16.2-4.62,32.74-7.89c.79-.15.45-1.36-.33-1.2Z"/><ellipse class="cls-1" cx="206.86" cy="349.58" rx="84.51" ry="93.37"/><ellipse class="cls-1" cx="202.03" cy="373.21" rx="127.23" ry="69.29"/><path class="cls-2" d="M281.18,316.37a252.29,252.29,0,0,1,78-54c4.16-1.84,10.09-3.06,12.37.87,2.19,3.76-1.37,8.19-4.68,11q-6,5.13-12.33,9.92c-18.26,13.87-38.08,25.52-57.86,37.13-7.56,4.44-15.15,8.9-23.23,12.29"/><path class="cls-2" d="M286.49,321.68A246.13,246.13,0,0,1,327,288.33a253,253,0,0,1,22.07-12.88c4-2.08,8.09-4.19,12.27-5.93,1.09-.46,3.16-.68,4-1.37q3.34.48-.63-3a3.47,3.47,0,0,1-.72,1.25c-6.94,5.61-13.5,11.58-20.82,16.8-7.56,5.4-15.35,10.48-23.24,15.39-16.24,10.09-32.79,20.95-50.37,28.52-3.75,1.62-4.52,7.06-2.69,10.27,2.2,3.87,6.56,4.28,10.26,2.69,16.49-7.1,31.93-17.2,47.2-26.58a391.22,391.22,0,0,0,43.69-30.56c5.8-4.74,13-11,11.32-19.41-1.68-8.28-9.58-11.33-17.27-9.93-7.4,1.35-14.76,5.88-21.36,9.32q-10.95,5.72-21.31,12.49a264.73,264.73,0,0,0-43.59,35.69c-6.79,6.88,3.81,17.49,10.61,10.61Z"/><path class="cls-2" d="M146.44,311.46c1.36-2-1-4.36-3-5.6a740.4,740.4,0,0,0-85.58-44.44c-2.26-1-4.61-2-7.07-1.95s-5.09,1.43-5.76,3.81.79,4.92,2.54,6.73c5,5.17,12.16,7.43,18.82,10.13,27.37,11.11,50.18,32.45,78.65,40.34"/><path class="cls-2" d="M153.67,313.45c3.61-9.34-7.39-14.67-13.77-18.43q-12.63-7.44-25.55-14.39C97.41,271.53,80.12,263,62.5,255.32c-7.74-3.38-18.18-5.8-23.47,3.07-5.06,8.49,2,16.93,8.85,21.47S62.81,286.45,70.09,290s14.53,7.75,21.56,12c16.43,10,32.74,20.39,51.39,25.75,9.29,2.67,13.26-11.8,4-14.47-17.9-5.14-33.42-15.55-49.21-25.09a216.2,216.2,0,0,0-23.88-12.89c-3.86-1.71-22-6.83-21.41-12l-1,3.78a2.82,2.82,0,0,0-.71-.09,11.15,11.15,0,0,1,3.29.93c1.76.62,3.47,1.53,5.18,2.3,4,1.8,8,3.65,12,5.52q12.42,5.83,24.61,12.13,11.76,6.07,23.31,12.57Q125,303.66,130.7,307c2.54,1.49,8.25,3.58,9.54,6.18l-1-3.78v0c-1.47,3.81,1.62,8.2,5.24,9.23,4.22,1.21,7.77-1.48,9.22-5.24Z"/><path class="cls-2" d="M289.24,320.65c16.94-4.16,35.52-6.45,46.14-21.87,3.8-5.52,6.77-14.93,13.56-17.64,3.1-1.24,6.68-.89,9.88-1.78a16.7,16.7,0,0,0,9.29-6.63c3.65-4.81-1.38-11.11-6.47-11.29-9.64-.33-14.57,6.78-21.78,11.66-7.73,5.22-17.6,6.18-25.48,11.31-8.06,5.24-14.36,12.56-21.53,18.87a112,112,0,0,1-25.05,16.4c-8.68,4.23-1.08,17.17,7.57,12.95a127.12,127.12,0,0,0,23.45-14.87c7.24-5.75,13.24-12.92,20.54-18.57,6.93-5.36,15.37-7,23.21-10.56a43,43,0,0,0,10.49-7c2.48-2.15,5.06-5.34,8.58-5.22l-6.48-11.28s-5.56.56-6.73.75a23.7,23.7,0,0,0-9.57,3.79c-6.33,4.3-10,10.93-13.84,17.36-4,6.82-8.67,10.8-16.31,13.18s-15.65,4-23.46,5.94c-9.37,2.3-5.4,16.77,4,14.47Z"/><ellipse class="cls-1" cx="134.05" cy="436.64" rx="31.5" ry="15.03"/><ellipse class="cls-1" cx="260.6" cy="436.64" rx="31.5" ry="15.03"/><path class="cls-2" d="M256.34,391.53q31.4,1.16,62.79-.15,16.17-.7,32.31-2.07c9-.77,19-.85,24.1-9.64,4.7-8.09,2.53-17.14-1.2-25.1a172.88,172.88,0,0,0-14.26-24.43A218.33,218.33,0,0,0,341.9,307.3c-5.11-5.66-12.07-12.29-13.5-20.16.12.66-1.4,1.32,0,.78.45-.17.92-.28,1.37-.42,2.22-.67,4.57-1,6.82-1.52l16.53-3.55,31.11-6.67c15.39-3.31,36.56-4.65,47.34-17.8,11.26-13.72,7.1-37,1.92-52.48-5.86-17.53-16.61-31.61-29.67-44.41-6.83-6.69-13.93-13.16-20-20.53a64.55,64.55,0,0,1-4.05-5.41c-.59-.87-1.16-1.76-1.71-2.66-.2-.33-2-3.63-1.81-2.32.14,1,.81-.61,1.44-1.21,1-1,2.08-1.91,3.15-2.84q2.82-2.49,5.77-4.82a142.36,142.36,0,0,1,25.84-15.94,109.79,109.79,0,0,1,13.72-5.63c2.88-.94,7-2.52,9.2.17l3.31-12.53a129.59,129.59,0,0,0-44.54,17c-11.37,7-30.32,19.94-20.68,35.56,3.66,5.94,10.4,9.11,15.64,13.44A101.62,101.62,0,0,1,404.4,169a95.45,95.45,0,0,1,18.76,41.68c2.71,15.14.54,31.25-8.36,44S391.92,271.88,377.18,274c-15,2.17-32.51,4.25-39,20.27s7,27.71,15.2,39.58a66.5,66.5,0,0,1,10.21,23.22c1.52,6.68,3.31,16.45,0,22.88-1.77,3.45-5.94,3.59-9.37,4.15-4.92.79-9.89,1.29-14.86,1.6a179.09,179.09,0,0,1-30.1-.78c-4-.43-7.5,3.76-7.5,7.5,0,4.42,3.45,7.07,7.5,7.5,17.42,1.89,36,1.81,53.17-2.13,16.84-3.87,18.87-21.67,17.06-36.16-2-16-8.62-30.16-18.74-42.64-3.76-4.64-10.37-11.1-9.15-17.68s9-9.34,14.65-10.59c15.94-3.55,32.3-3.27,46.28-13a62.55,62.55,0,0,0,24.17-34.95c8.56-31.52-4.91-66.25-26.17-89.67a116.54,116.54,0,0,0-19.27-16.76c-1.73-1.22-5.33-3-5.34-5.38,0-3,5.19-6.35,7.31-7.93a117.68,117.68,0,0,1,49.43-21.21c6.07-1.1,6.55-8.62,3.31-12.53-5.5-6.65-14.84-6.65-22.49-4.44-8.78,2.53-17.4,6.67-25.39,11a156.05,156.05,0,0,0-22.67,15.25c-6.81,5.46-16.55,12.18-13.63,22.2,2.38,8.15,9.44,15.85,15.05,22,5.93,6.49,12.46,12.4,18.68,18.61,12.83,12.81,22.39,27.31,26.19,45.27,1.68,7.92,3.55,19.15-.06,26.76-3.1,6.54-11.39,8.66-17.81,10.23-20.34,5-41,8.85-61.48,13.24-8.23,1.76-20.09,2.18-25.88,9.15-6.18,7.42-1.53,17.85,3,24.86,5,7.62,11.59,14,17.43,20.88a178.19,178.19,0,0,1,16.47,23.15c2.73,4.53,5.36,9.16,7.63,13.94,1.31,2.75,4,8.52,1.18,11.19-1.36,1.27-4.16,1.12-5.89,1.28-2.93.26-5.87.52-8.8.75q-9.3.75-18.6,1.26-36.26,2-72.59.64c-9.65-.36-9.63,14.64,0,15Z"/><path class="cls-5" d="M300.76,328.51C307.7,322.92,315.65,319,323,314c6.77-4.52,12.33-10.17,17.84-16.11S353.2,287,358,280.56c5.53-7.45,12.66-13,20.12-18.41.77-.56,0-1.86-.76-1.29-6.63,4.83-13.37,9.74-18.56,16.16a64.6,64.6,0,0,1-8,8.85,126.07,126.07,0,0,0-9.77,9.71c-6.25,6.71-12.37,13.06-20.12,18.06-7.09,4.59-14.57,8.48-21.17,13.81-.75.6.32,1.66,1.06,1.06Z"/><path class="cls-5" d="M148.23,284.89a162.38,162.38,0,0,0,59.4,10.87c20.36-.26,39.33-5.5,58.69-11.25,2.31-.68,1.33-4.3-1-3.61-19,5.65-37.67,10.85-57.7,11.11a159.37,159.37,0,0,1-58.4-10.74c-2.26-.85-3.24,2.77-1,3.62Z"/><path class="cls-5" d="M165.3,437.81a41.83,41.83,0,0,0-24.56-14.12c-10.15-1.73-21.42-2-31,2.22-2.2,1-.29,4.2,1.9,3.23,8.82-3.9,20.24-3.49,29.57-1.56a38.6,38.6,0,0,1,21.42,12.88c1.58,1.83,4.22-.83,2.65-2.65Z"/><path class="cls-5" d="M285.79,426.59a42.33,42.33,0,0,0-30.19-2.49c-9.23,2.76-18.91,6.67-25.44,14-1.6,1.8,1,4.46,2.65,2.65,5.84-6.55,14.08-9.84,22.24-12.55a38.72,38.72,0,0,1,28.84,1.62c2.18,1,4.08-2.22,1.9-3.23Z"/><path class="cls-2" d="M299,63.15a37.91,37.91,0,0,0-6.37-23.32,5,5,0,0,0-2.32-2.13,5.24,5.24,0,0,0-3,.22l-29.39,8a141.64,141.64,0,0,0-7.59-37.15A206,206,0,0,1,236,44.39,238.86,238.86,0,0,0,216.36,5.15a86.44,86.44,0,0,0-16.77,31A45.76,45.76,0,0,0,185.48,2.48,49.55,49.55,0,0,0,176.85,33a4.32,4.32,0,0,1-.63,3.14c-1.09,1.22-3.08.7-4.59.06a169.66,169.66,0,0,1-27.2-14.49c-2,4.72,0,10.41,3.5,14.14s8.36,5.92,13,8c-5.09,1.76-10.67.37-15.85-1.1q-18.39-5.22-36.38-11.66c4.27,3.61,9.6,5.66,14.37,8.55s9.3,7.15,10.1,12.68c-11.3.87-22.58-1.35-33.7-3.55l12.86,14.75L91.09,54.22a141.06,141.06,0,0,1,17.36,14"/><path class="cls-2" d="M301.54,63.15a40.53,40.53,0,0,0-5.68-23,12.36,12.36,0,0,0-3.61-4.34c-2.06-1.27-4.36-.66-6.52-.07l-13.25,3.61L257.3,43.52l3.16,2.41a145.8,145.8,0,0,0-7.68-37.81,2.52,2.52,0,0,0-4.82,0,205.62,205.62,0,0,1-14.13,35l4.57.6A243.94,243.94,0,0,0,218.52,3.89c-.79-1.27-2.86-1.79-3.93-.51A90.46,90.46,0,0,0,197.17,35.5l4.92.67A48.45,48.45,0,0,0,187.25.72a2.54,2.54,0,0,0-3.93.5,51.85,51.85,0,0,0-9,31.93,4.36,4.36,0,0,1,0,1.3c-.08.25,0-.1.08-.1a5.25,5.25,0,0,1-2-.53,133.37,133.37,0,0,1-12.9-6.12q-7.12-3.76-13.88-8.19c-1.49-1-3.1.09-3.67,1.49-2.17,5.32-.19,11.31,3.27,15.58,3.68,4.54,9.22,7.08,14.43,9.42l.6-4.57c-3.94,1.29-8,.62-11.91-.39-4.35-1.11-8.66-2.44-13-3.75q-13.11-4-26-8.62c-2.3-.82-4.34,2.59-2.43,4.18,4.56,3.79,10,6,15,9,4.14,2.54,8,6.09,8.79,11.08l2.41-3.16c-11.16.81-22.15-1.3-33-3.46a2.53,2.53,0,0,0-2.44,4.18l12.86,14.75,3-3.93L92.36,52.06a2.5,2.5,0,0,0-2.53,4.32A141.5,141.5,0,0,1,106.69,70c2.34,2.21,5.88-1.32,3.53-3.53A150,150,0,0,0,92.36,52.06l-2.53,4.32,21.29,9.29a2.51,2.51,0,0,0,3-3.93L101.29,47l-2.43,4.18c11.3,2.23,22.78,4.47,34.36,3.63a2.56,2.56,0,0,0,2.41-3.17c-.92-5.7-5.18-10.11-9.79-13.23-4.92-3.33-10.72-5.28-15.32-9.1l-2.43,4.18q13.36,4.78,27,8.91c4.42,1.33,8.85,2.75,13.35,3.79,4.35,1,8.92,1.47,13.24.06,1.84-.6,2.69-3.63.59-4.57-4.5-2-9.26-4.09-12.67-7.78-2.87-3.09-4.37-7.54-2.73-11.57l-3.67,1.5a172.08,172.08,0,0,0,27.2,14.49c2.13.9,4.6,1.58,6.73.27,2.32-1.43,2.29-4.09,2.21-6.49a46.89,46.89,0,0,1,1.59-13.8,47.81,47.81,0,0,1,6.74-14.56l-3.93.51a43.45,43.45,0,0,1,13.38,31.92c-.05,2.86,4.1,3.34,4.91.66A84.31,84.31,0,0,1,218.13,6.92l-3.93-.51a237.46,237.46,0,0,1,19.38,38.65c.72,1.83,3.49,2.68,4.57.59a212.91,212.91,0,0,0,14.63-36.2H248a140.86,140.86,0,0,1,7.5,36.48,2.53,2.53,0,0,0,3.17,2.41l15.42-4.2,7.7-2.1L285.61,41a19.4,19.4,0,0,1,3.46-.91c.77-.06,1,.44,1.44,1A27.59,27.59,0,0,1,292.28,44a34,34,0,0,1,2.59,6,36.11,36.11,0,0,1,1.67,13.14c-.18,3.22,4.82,3.21,5,0Z"/><path class="cls-2" d="M340.93,148.49a74.57,74.57,0,0,1,14.1,2,53.24,53.24,0,0,0-15.66,1.41c-2.92.71-6.51,3.39-4.87,5.92a5.12,5.12,0,0,0,2.85,1.7L351.21,164l-11.77,4.8q9.56,3.43,19.13,6.77l-28.12,7.86a69.82,69.82,0,0,0,23.27,7c.08,3-3.5,4.44-6.39,5.08l-29.15,6.52c5.39,6.13,14.17,7.7,22.24,8.9l-19.23,1.76,17.31,9.63a79.92,79.92,0,0,1-25,4.6l18.22,14c-7.64,3.27-16.35,2.09-24.56.85a31.4,31.4,0,0,0,10.51,9.47,17,17,0,0,1-17.82-1.45"/><path class="cls-2" d="M340.93,151a73.36,73.36,0,0,1,13.43,1.95L355,148a57.27,57.27,0,0,0-13.52.89c-3.48.65-7.49,1.78-9.28,5.18a5,5,0,0,0,.23,5.17c1.21,1.77,3.2,2.37,5.15,3l12.93,4.17v-4.83l-11.76,4.81a2.52,2.52,0,0,0,0,4.82q9.54,3.44,19.12,6.77v-4.82l-28.12,7.86c-2,.55-2.57,3.59-.59,4.57A74.51,74.51,0,0,0,353.72,193l-2.5-2.5a.84.84,0,0,1-.22.7,4.63,4.63,0,0,1-.76.64,10.07,10.07,0,0,1-2.95,1.18c-3.17.83-6.41,1.45-9.62,2.16l-20.15,4.51c-1.94.43-2.3,2.85-1.11,4.18,5.92,6.58,15,8.29,23.35,9.54l.66-4.91-19.23,1.76c-2.32.22-3.59,3.37-1.26,4.66l17.31,9.63.6-4.57a79,79,0,0,1-24.36,4.51,2.57,2.57,0,0,0-2.41,1.83,2.64,2.64,0,0,0,1.15,2.83l18.21,14,.6-4.57c-7.41,3.09-15.52,2-23.23.85a2.57,2.57,0,0,0-2.63.9,2.48,2.48,0,0,0-.19,2.77,34.77,34.77,0,0,0,11.41,10.37v-4.32a14.63,14.63,0,0,1-15.29-1.45,2.53,2.53,0,0,0-3.43.9,2.56,2.56,0,0,0,.9,3.42,19.6,19.6,0,0,0,20.34,1.45,2.52,2.52,0,0,0,0-4.32,29,29,0,0,1-9.61-8.57l-2.83,3.67c8.54,1.29,17.66,2.58,25.89-.85a2.55,2.55,0,0,0,.6-4.57l-18.22-14-1.26,4.66a83.6,83.6,0,0,0,25.69-4.69c1.94-.68,2.58-3.46.6-4.56l-17.32-9.64-1.26,4.66,19.23-1.76a2.52,2.52,0,0,0,2.46-2.17,2.47,2.47,0,0,0-1.8-2.74c-7.44-1.11-15.83-2.36-21.13-8.26l-1.11,4.18,22.59-5.05c5.09-1.13,14.67-1.9,14.79-9a2.58,2.58,0,0,0-2.5-2.5,67.69,67.69,0,0,1-22-6.65l-.6,4.57L359.23,178c2.49-.69,2.26-4,0-4.82q-9.57-3.33-19.12-6.77v4.82l11.76-4.8c2.22-.91,2.51-4,0-4.83l-10.16-3.27c-1.49-.48-3.09-.86-4.52-1.48a2.69,2.69,0,0,1-.48-.24c-.19-.12-.19-.47-.14-.22.09.42.11-.05.31-.3,1.7-2.08,5.41-2.31,7.85-2.67A52.13,52.13,0,0,1,355,153c2.81.15,3.39-4.25.66-4.91A80,80,0,0,0,340.93,146c-3.22-.17-3.21,4.83,0,5Z"/><path class="cls-2" d="M116,253.13a77.69,77.69,0,0,1-18.75,15.76l3.16-29.5A30.45,30.45,0,0,1,89.28,251.1c-6-7.78-3.84-20.54,4.41-25.88a66.8,66.8,0,0,1-23.5,4.13c4.77-6.17,15.5-4.32,20.54-10.27-12.25-2.07-24.61-4.18-36.2-8.69l24.63-7.95A261.5,261.5,0,0,1,48,195.07l30.86-9.21c-8.94-1.5-18.42-3.26-25.11-9.38a88.2,88.2,0,0,0,21.56-7.81c-5.5-5.93-17.06-5.12-19.95-12.67q12.87-3.17,25.89-5.61"/><path class="cls-2" d="M114.26,251.36A77.06,77.06,0,0,1,96,266.73l3.76,2.16,3.16-29.5c.27-2.52-3.53-3.33-4.65-1.26A28.51,28.51,0,0,1,88,248.94l3.43.9c-5.12-6.76-3.77-17.64,3.51-22.47a2.51,2.51,0,0,0,1-3.12,2.49,2.49,0,0,0-3-1.45,65.68,65.68,0,0,1-22.84,4L72,231.12c2.37-3,6.09-3.77,9.69-4.74,3.94-1.07,8.07-2.35,10.85-5.53,1.12-1.27.9-3.84-1.1-4.18-12.25-2.07-24.57-4.19-36.2-8.69v4.82l24.62-8c2.16-.69,2.6-4.37,0-4.82a265.29,265.29,0,0,1-31.11-7.37v4.82l30.85-9.21c2.19-.65,2.57-4.39,0-4.82-8.33-1.4-17.49-2.88-24-8.74l-1.11,4.18a92.5,92.5,0,0,0,22.16-8.06,2.53,2.53,0,0,0,.5-3.93c-3-3.16-7.2-4.58-11.19-6.05a27.16,27.16,0,0,1-5.05-2.26,7.23,7.23,0,0,1-3-3.26l-1.75,3.08Q68.93,155.25,82,152.8a2.53,2.53,0,0,0,1.75-3.07A2.55,2.55,0,0,0,80.62,148q-13,2.45-25.88,5.61A2.51,2.51,0,0,0,53,156.66c1.8,4.47,5.59,6.68,9.89,8.37,3.77,1.48,7.93,2.5,10.7,5.41l.51-3.93a87.33,87.33,0,0,1-21,7.56,2.52,2.52,0,0,0-1.1,4.18c7.24,6.51,16.9,8.45,26.21,10v-4.82l-30.85,9.21a2.52,2.52,0,0,0,0,4.82,265.29,265.29,0,0,0,31.11,7.37V200L53.87,208a2.52,2.52,0,0,0,0,4.82c11.63,4.5,24,6.62,36.2,8.69L89,217.32c-2.49,2.83-6.31,3.59-9.9,4.57-3.9,1.07-8,2.42-10.65,5.69-1.29,1.62-.57,4.27,1.77,4.27a70.13,70.13,0,0,0,24.17-4.22l-1.93-4.57c-9.3,6.16-12.15,20.25-5.31,29.3a2.56,2.56,0,0,0,3.42.9,33.46,33.46,0,0,0,12-12.61l-4.66-1.26-3.16,29.5c-.21,1.92,2.26,3.06,3.76,2.16a81.35,81.35,0,0,0,19.26-16.15,2.56,2.56,0,0,0,0-3.54,2.51,2.51,0,0,0-3.53,0Z"/><ellipse class="cls-6" cx="167.53" cy="153.44" rx="43.52" ry="32.04" transform="translate(-10.93 294.01) rotate(-80.71)"/><ellipse class="cls-6" cx="236.76" cy="159.37" rx="32.04" ry="43.52" transform="translate(-21.93 38.81) rotate(-8.96)"/><path class="cls-2" d="M220.11,167.47c9.65,0,9.67-15,0-15s-9.67,15,0,15Z"/><g class="cls-7"><path class="cls-8" d="M142,179.48a10.41,10.41,0,0,0,1.24-4.53c0-1-.33-2.26,1-2.33,1-.06,1.95.13,2.92.09a4.4,4.4,0,0,0,3.2-1.31c.88-1,.8-2.5.82-3.77a17,17,0,0,0-.63-5c-.3-1.08-.75-2.72.83-3.06a10.29,10.29,0,0,0,1.74-.19c3-1.21,2.35-4.93,1.57-7.33-.25-.76-1.46-.43-1.21.33.55,1.68,1.31,3.93-.15,5.38-1,1-2.46.18-3.48,1.15a3.34,3.34,0,0,0-.74,3.18,24.06,24.06,0,0,1,.82,5.07c0,1.73.14,3.64-1.9,4.15-1.55.39-3.2-.29-4.73.13a1.89,1.89,0,0,0-1.39,2c-.07,2-.06,3.6-1,5.42-.37.71.7,1.35,1.08.63Z"/></g><path class="cls-2" d="M182.62,166.87c9.65,0,9.67-15,0-15s-9.67,15,0,15Z"/><g class="cls-7"><path class="cls-8" d="M185.35,183.75a7.44,7.44,0,0,0-1.95-2.44c-.31-.25-1-.54-1-1s.82-1,1-1.3a3,3,0,0,0,.76-2.56c-.26-1-1.24-1.64-2-2.23a12.63,12.63,0,0,0-2.85-1.64c-.49-.22-1.27-.56-1.09-1.19.12-.43.5-.69.6-1.16.45-2.17-1.89-3.33-3.52-4-.75-.29-1.08.92-.33,1.21,1,.38,2.41.89,2.61,2.09.1.58-.3.8-.54,1.26a1.56,1.56,0,0,0-.12,1,2.64,2.64,0,0,0,1.6,1.78,14.84,14.84,0,0,1,2.71,1.48c.91.67,2.25,1.47,1.5,2.75-.46.79-1.37,1.35-1.62,2.25s.28,1.34.87,1.76a6.83,6.83,0,0,1,2.24,2.53c.37.72,1.44.09,1.08-.63Z"/></g><path class="cls-1" d="M168.94,144.66l34.82,5.73v0c3.44-21-9.45-40.9-28.56-44-18.79-3.08-37.11,11.13-40.93,31.74Z"/><path class="cls-1" d="M234.93,147l29.79-4.2c-2.61-18.84-18.07-32.52-34.35-30.37-16.13,2.13-27.49,19.06-25.35,37.8Z"/><g class="cls-7"><path class="cls-8" d="M222.85,194.35a10.26,10.26,0,0,0,1.23-4.53c0-1-.33-2.27,1-2.34,1,0,1.95.14,2.92.09a4.34,4.34,0,0,0,3.2-1.31c.88-1,.8-2.49.82-3.76a17,17,0,0,0-.63-5c-.3-1.08-.75-2.73.82-3.07a9.47,9.47,0,0,0,1.75-.19c3-1.2,2.34-4.93,1.56-7.32-.24-.76-1.45-.44-1.2.33.54,1.68,1.31,3.93-.16,5.38-1,1-2.45.18-3.48,1.15A3.33,3.33,0,0,0,230,177a24.07,24.07,0,0,1,.82,5.06c0,1.74.14,3.65-1.91,4.16-1.54.39-3.19-.29-4.73.13a1.9,1.9,0,0,0-1.39,2,11.37,11.37,0,0,1-1,5.42c-.38.71.7,1.34,1.08.63Z"/></g><g class="cls-7"><path class="cls-8" d="M265.11,180.26a7.41,7.41,0,0,0-1.94-2.44c-.32-.26-1-.54-1-1s.82-1,1-1.3A3,3,0,0,0,264,173c-.26-1-1.24-1.64-2-2.23a13,13,0,0,0-2.84-1.65c-.49-.21-1.27-.55-1.1-1.18.13-.43.5-.69.6-1.16.45-2.17-1.88-3.33-3.52-4-.75-.29-1.07.92-.33,1.21,1,.38,2.41.89,2.61,2.09.1.58-.3.8-.54,1.26a1.56,1.56,0,0,0-.12,1,2.66,2.66,0,0,0,1.6,1.78A14.52,14.52,0,0,1,261,171.6c.91.67,2.25,1.47,1.5,2.75-.46.79-1.36,1.35-1.62,2.25s.28,1.33.87,1.76a6.85,6.85,0,0,1,2.25,2.53c.36.72,1.44.09,1.07-.63Z"/></g><g class="cls-7"><path class="cls-8" d="M244.41,159.19a4.7,4.7,0,0,0-.48-1.68,1.09,1.09,0,0,0-.21-.35q-.08-.16-.09.06l.15-.08a2.53,2.53,0,0,0,.75-.42,1.56,1.56,0,0,0,.66-1.25,3.56,3.56,0,0,0-.66-1.58,10.69,10.69,0,0,0-1-1.3,2.4,2.4,0,0,1-.16-.27s-.22.11,0,0a1.1,1.1,0,0,0,.49-.44c.64-1-.18-2.13-.9-2.85a.63.63,0,0,0-.88.89c.26.25.85.74.75,1.16,0,.16-.1.15-.24.24a1,1,0,0,0-.42.54c-.34,1,.73,1.71,1.21,2.48.17.26.68.91.54,1.22s-.87.48-1.16.73a1.06,1.06,0,0,0-.14,1.39,3.87,3.87,0,0,1,.56,1.47c.07.8,1.32.81,1.25,0Z"/></g><path class="cls-9" d="M49.46,262.24c-2.13-3.67-5.2-6.69-8.23-9.67-10.14-10-20.59-20.13-33.62-25.8a1.86,1.86,0,0,0-.94-.22,1.89,1.89,0,0,0-1.19.9c-1.14,1.5-2.35,3.19-2.2,5.07.18,2.31,2.31,3.92,4.24,5.21L34,255.44c4.32,2.89,8.85,5.86,14,6.59"/><path class="cls-9" d="M51.62,261a49,49,0,0,0-8-9.55c-2.8-2.76-5.61-5.51-8.48-8.2A114.76,114.76,0,0,0,16.4,228.51c-1.7-1-3.43-2-5.21-2.83s-4-2.31-6.07-1.22c-1.57.85-2.83,2.9-3.56,4.48a7.19,7.19,0,0,0-.09,6.21,11.26,11.26,0,0,0,3.71,4c1.75,1.29,3.61,2.45,5.42,3.65l11.57,7.75c4.18,2.79,8.33,5.63,12.55,8.38,3.85,2.51,8,4.81,12.59,5.52a2.59,2.59,0,0,0,3.08-1.75,2.51,2.51,0,0,0-1.75-3.07,26.24,26.24,0,0,1-9.74-4c-3.35-2.07-6.59-4.34-9.86-6.53-6.85-4.59-13.77-9.1-20.57-13.77a6.65,6.65,0,0,1-2.56-2.46c-.64-1.6,1-2.56,1.49-3.87.12-.32.73-.44-.25-.13-.7.21-.57.13,0,.37.78.35,1.54.72,2.3,1.1q2.46,1.24,4.82,2.68a106,106,0,0,1,16.58,13c2.94,2.71,5.79,5.51,8.65,8.31s5.76,5.67,7.84,9.16c1.64,2.76,6,.25,4.31-2.53Z"/><path class="cls-10" d="M6.07,224c-3,.72-4.58,3.76-5.62,6.37A6.23,6.23,0,0,0,0,232.56a2.73,2.73,0,0,0,2,2.62,3.58,3.58,0,0,0,1.92,0,4.61,4.61,0,0,0,2.45-1.94c.32-.47.57-1,.92-1.44l-.39.5c.77-1,1.69-1.85,2.37-2.91a3.76,3.76,0,0,0,.63-2.94,2.91,2.91,0,0,0-1.31-1.79,3.63,3.63,0,0,0-1.8-.41l.66.09-.08,0,.6.25-.08,0,.51.39-.06-.05.39.5,0-.06.25.6,0-.07v1.33l0-.07a2.76,2.76,0,0,0-.26-1.93A2.53,2.53,0,0,0,7.15,224a2.6,2.6,0,0,0-1.93.25,2.5,2.5,0,0,0-1.15,1.5,3.18,3.18,0,0,0,0,1.47,2.81,2.81,0,0,0,1,1.41,2.7,2.7,0,0,0,1.34.55c.24,0,.47,0,.71,0l-.66-.09.09,0-.6-.25L6,229l-.5-.39a.26.26,0,0,1,.09.09l-.39-.5,0,.06-.25-.6a.74.74,0,0,1,0,.14L5,227.09a1.77,1.77,0,0,1,0,.23l.09-.66a1.86,1.86,0,0,1-.1.31l.25-.6a5.54,5.54,0,0,1-.59.92l.39-.5c-.45.58-1,1.1-1.44,1.67a11.07,11.07,0,0,0-1,1.29c-.22.34-.4.7-.64,1l.39-.51a2.63,2.63,0,0,1-.43.45l.5-.39a2.5,2.5,0,0,1-.35.21l.6-.25a1.57,1.57,0,0,1-.29.08l.66-.09a1,1,0,0,1-.3,0l.66.09-.09,0,.6.25-.08,0,.9.89,0-.07.26.6,0-.09.09.66a1.63,1.63,0,0,1,0-.31l-.09.66a5.39,5.39,0,0,1,.38-1.3l-.25.6a14.71,14.71,0,0,1,1.68-3l-.39.51a5.57,5.57,0,0,1,.87-.88l-.5.39a3.77,3.77,0,0,1,.78-.45l-.59.25a2.46,2.46,0,0,1,.48-.16,2.51,2.51,0,0,0,1.74-3.07A2.55,2.55,0,0,0,6.07,224Z"/></g></svg>