<svg xmlns="http://www.w3.org/2000/svg" viewBox="0 0 447.43 454.69"><defs><style>.cls-1,.cls-14,.cls-2,.cls-5{fill:#fff;}.cls-1{stroke:#f0f0f0;}.cls-1,.cls-11,.cls-14,.cls-3,.cls-5,.cls-8,.cls-9{stroke-miterlimit:10;}.cls-3,.cls-4{fill:#1d1d1b;}.cls-3,.cls-5,.cls-8{stroke:#fff;}.cls-3,.cls-8,.cls-9{stroke-width:0.25px;}.cls-6{fill:#ededed;}.cls-7{fill:#f0f0f0;}.cls-10,.cls-8,.cls-9{fill:#f4d3e7;}.cls-9{stroke:#f4d3e7;}.cls-11{fill:#f7bbae;}.cls-11,.cls-14{stroke:#1d1d1b;}.cls-12{opacity:0.69;}.cls-13{fill:#df0833;}.cls-15{fill:#d0d0d0;}.cls-16{fill:#ed6b1f;}</style></defs><g id="Layer_23" data-name="Layer 23"><ellipse class="cls-1" cx="206.35" cy="162.49" rx="138.63" ry="134.37"/><path class="cls-2" d="M113.12,80.76c-.12-2.09-2.37-3.28-4.31-4.07L46.6,51.43c-1.4-.58-3.17-1.1-4.31-.09s-.78,3-.24,4.55a439.84,439.84,0,0,0,34,73.73"/><path class="cls-2" d="M115.62,80.76a7,7,0,0,0-4-5.51A78.31,78.31,0,0,0,104,72L87.36,65.3,54.18,51.82c-2.61-1.06-5.23-2.35-7.93-3.18-2.51-.76-5.4-.3-6.69,2.24s-.13,5.1.7,7.44q1.43,4,2.92,7.89,6,15.81,13.19,31.13,8,17.14,17.53,33.54c1.61,2.79,5.93.27,4.32-2.52A437.55,437.55,0,0,1,51.06,72.71q-2.91-7.26-5.58-14.62c-.38-1.06-.79-2.12-1.13-3.2A8.48,8.48,0,0,1,44,53.8c-.1-.74.22-.61-.21-.51a3.62,3.62,0,0,1,1.79.42c1.27.47,2.53,1,3.79,1.53L80,67.68l17,6.93,8.76,3.55a34.58,34.58,0,0,1,3.25,1.4c.44.24,1.48.86,1.52,1.2a2.58,2.58,0,0,0,2.5,2.5,2.51,2.51,0,0,0,2.5-2.5Z"/><ellipse class="cls-3" cx="200.96" cy="210.85" rx="14.44" ry="4.65"/><path class="cls-4" d="M201.2,230.07a30.23,30.23,0,0,1-10.5,3.18,22.76,22.76,0,0,1-10.93-1c-.74-.29-1.07.91-.33,1.21,3.65,1.44,7.81,1.44,11.65,1a31.34,31.34,0,0,0,10.74-3.3c.72-.38.08-1.46-.63-1.08Z"/><path class="cls-4" d="M201.38,231a53.56,53.56,0,0,0,11.49,2.87c3.27.45,7.25.69,9.89-1.69.59-.54-.29-1.42-.89-.88-2.63,2.38-7,1.66-10.19,1.14a52.93,52.93,0,0,1-10-2.65c-.76-.28-1.08.93-.33,1.21Z"/><path class="cls-2" d="M328.31,120.9c2.1,0,3.4-2.2,4.29-4.1Q346.79,86.38,361,56c.64-1.38,1.25-3.12.3-4.31s-3-.93-4.53-.47a440.16,440.16,0,0,0-75.36,30.21"/><path class="cls-2" d="M328.31,123.4a7.08,7.08,0,0,0,5.65-3.82,76.64,76.64,0,0,0,3.53-7.37L345.06,96l15.15-32.45c1.2-2.58,2.58-5.14,3.58-7.81s.49-5.52-2.07-6.86c-2.28-1.2-4.91-.3-7.19.38q-4,1.23-8.08,2.52-16,5.16-31.56,11.52-17.7,7.25-34.75,16c-2.86,1.47-.33,5.79,2.53,4.32A437.74,437.74,0,0,1,340,59.18q7.33-2.52,14.75-4.78c1.11-.33,2.22-.71,3.34-1,.35-.08.66-.1,1-.15.13,0,.4,0,.25-.06s.09-.43,0,0c0,.08-.06.36-.08.46a5.81,5.81,0,0,1-.48,1.28c-.58,1.29-1.19,2.56-1.78,3.83L343.06,88.5l-7.89,16.9-3.89,8.34c-.51,1.09-1.68,4.58-3,4.66a2.57,2.57,0,0,0-2.5,2.5,2.52,2.52,0,0,0,2.5,2.5Z"/><path class="cls-4" d="M173.25,209.54a127.07,127.07,0,0,0-35.46,2c-.78.15-.45,1.36.34,1.2a126.15,126.15,0,0,1,35.12-1.92c.8.07.8-1.18,0-1.25Z"/><path class="cls-4" d="M228.6,212.27a210.45,210.45,0,0,1,42,5.85c.78.19,1.11-1,.33-1.2A211.68,211.68,0,0,0,228.6,211c-.81,0-.8,1.22,0,1.25Z"/><path class="cls-4" d="M228.06,222.09a41.58,41.58,0,0,1,26.18,7.37c.66.46,1.29-.62.63-1.08a42.71,42.71,0,0,0-26.81-7.54c-.8,0-.81,1.3,0,1.25Z"/><path class="cls-4" d="M169.82,219.19q-16.53,3.27-32.74,7.88a.63.63,0,0,0,.33,1.21q16.2-4.62,32.74-7.89c.79-.15.46-1.36-.33-1.2Z"/><ellipse class="cls-5" cx="206.35" cy="352.09" rx="84.51" ry="93.37"/><ellipse class="cls-5" cx="201.52" cy="375.73" rx="127.23" ry="69.29"/><path class="cls-2" d="M286,324.19a246.48,246.48,0,0,1,40.55-33.34A251.94,251.94,0,0,1,348.6,278c4-2.08,8.09-4.19,12.27-5.94,1.09-.45,3.16-.68,4-1.36,2.23.31,2-.69-.62-3a3.58,3.58,0,0,1-.73,1.25c-6.94,5.61-13.5,11.57-20.82,16.8-7.56,5.4-15.35,10.48-23.24,15.38-16.23,10.1-32.78,21-50.37,28.53-3.75,1.62-4.52,7.05-2.69,10.26,2.2,3.87,6.56,4.29,10.26,2.69,16.49-7.1,31.94-17.2,47.21-26.57a394.41,394.41,0,0,0,43.69-30.56c5.79-4.74,13-11,11.31-19.41-1.68-8.28-9.58-11.33-17.27-9.93-7.4,1.35-14.76,5.88-21.36,9.32Q329.32,271.13,319,277.9a264.23,264.23,0,0,0-43.59,35.69c-6.79,6.88,3.81,17.49,10.61,10.6Z"/><path class="cls-2" d="M153.16,316c3.61-9.34-7.39-14.67-13.77-18.43q-12.63-7.46-25.55-14.39c-16.93-9.1-34.22-17.61-51.85-25.31-7.74-3.38-18.18-5.8-23.47,3.07-5.06,8.48,2,16.93,8.86,21.47S62.3,289,69.58,292.47s14.53,7.74,21.56,12c16.43,10,32.74,20.39,51.39,25.74,9.29,2.67,13.26-11.8,4-14.46-17.9-5.14-33.42-15.55-49.21-25.09a217,217,0,0,0-23.87-12.89c-3.87-1.72-22-6.83-21.42-12l-1,3.79a2.13,2.13,0,0,0-.71-.09,11.13,11.13,0,0,1,3.29.92c1.76.63,3.47,1.54,5.19,2.31,4,1.8,8,3.64,12,5.52q12.42,5.83,24.61,12.13,11.77,6.08,23.32,12.57,5.76,3.24,11.48,6.59c2.54,1.49,8.25,3.58,9.54,6.18l-1-3.78V312c-1.47,3.81,1.62,8.19,5.24,9.23,4.22,1.21,7.77-1.48,9.22-5.24Z"/><path class="cls-2" d="M288.73,323.17c16.94-4.16,35.52-6.45,46.14-21.87,3.8-5.52,6.77-14.93,13.56-17.64,3.1-1.24,6.68-.9,9.88-1.78a16.75,16.75,0,0,0,9.29-6.63c3.66-4.81-1.38-11.11-6.47-11.29-9.64-.33-14.57,6.78-21.78,11.66-7.73,5.22-17.59,6.18-25.48,11.31-8.06,5.24-14.36,12.56-21.53,18.87a111.77,111.77,0,0,1-25,16.39c-8.67,4.23-1.08,17.17,7.57,13a127.12,127.12,0,0,0,23.45-14.87c7.24-5.75,13.24-12.93,20.54-18.57,6.93-5.36,15.38-7,23.21-10.56a43.26,43.26,0,0,0,10.49-7c2.48-2.15,5.06-5.34,8.58-5.22l-6.48-11.29s-5.56.57-6.73.76a23.76,23.76,0,0,0-9.57,3.79c-6.33,4.3-10,10.93-13.84,17.35-4.05,6.83-8.67,10.81-16.31,13.19s-15.65,4-23.46,5.94c-9.37,2.3-5.4,16.77,4,14.47Z"/><path class="cls-2" d="M128.56,301.47c-8.8-2.83-17.63-5.63-25.76-10.08-7.61-4.16-14.65-9.19-23.28-11-9.41-2-13.44,12.44-4,14.46,8.5,1.83,15.31,7.45,23,11.24,8.35,4.12,17.22,7,26.06,9.88,9.21,3,13.16-11.51,4-14.46Z"/><ellipse class="cls-5" cx="133.54" cy="439.16" rx="31.5" ry="15.03"/><ellipse class="cls-5" cx="260.1" cy="439.16" rx="31.5" ry="15.03"/><path class="cls-2" d="M255.84,394.05q31.38,1.15,62.78-.15,16.17-.7,32.31-2.07c9-.77,19-.86,24.1-9.64,4.7-8.09,2.53-17.14-1.2-25.1a172.32,172.32,0,0,0-14.26-24.43,219.56,219.56,0,0,0-18.17-22.84c-5.12-5.66-12.08-12.3-13.51-20.16.12.66-1.4,1.32,0,.78.45-.17.92-.28,1.37-.42,2.22-.68,4.57-1,6.83-1.52L352.63,285l31.11-6.68c15.39-3.3,36.57-4.64,47.34-17.79,11.26-13.73,7.1-37,1.93-52.48-5.87-17.54-16.61-31.61-29.68-44.41-6.83-6.69-13.92-13.16-20-20.53a66.81,66.81,0,0,1-4.05-5.41c-.59-.87-1.16-1.76-1.71-2.66-.2-.33-2-3.63-1.81-2.33.14,1,.81-.6,1.45-1.2,1-1,2.08-1.91,3.14-2.85,1.88-1.65,3.8-3.26,5.78-4.81a141.13,141.13,0,0,1,25.84-15.94,110.61,110.61,0,0,1,13.71-5.64c2.88-.93,7-2.51,9.2.18l3.31-12.53a129.59,129.59,0,0,0-44.54,17c-11.37,7-30.31,19.93-20.68,35.55,3.66,6,10.4,9.12,15.64,13.45a102,102,0,0,1,15.32,15.63,95.43,95.43,0,0,1,18.76,41.69c2.71,15.14.54,31.25-8.36,44s-22.88,17.18-37.62,19.32c-15,2.16-32.51,4.25-39,20.27s7,27.71,15.21,39.58a66.86,66.86,0,0,1,10.21,23.22c1.52,6.68,3.3,16.45,0,22.88-1.77,3.44-5.94,3.59-9.37,4.14-4.92.8-9.88,1.3-14.86,1.61a179.09,179.09,0,0,1-30.1-.78c-4-.43-7.5,3.76-7.5,7.5,0,4.42,3.45,7.07,7.5,7.5,17.42,1.88,36,1.81,53.17-2.13,16.84-3.87,18.87-21.67,17.06-36.16-2-16-8.62-30.16-18.74-42.64-3.76-4.64-10.37-11.11-9.15-17.69s9-9.34,14.66-10.59c15.93-3.54,32.29-3.26,46.27-13a62.58,62.58,0,0,0,24.17-35c8.56-31.52-4.91-66.25-26.17-89.67a115.22,115.22,0,0,0-19.27-16.76c-1.73-1.22-5.33-3-5.33-5.38,0-3,5.18-6.35,7.3-7.93a117.68,117.68,0,0,1,49.43-21.21c6.07-1.11,6.55-8.62,3.31-12.53C440,85.15,430.61,85.14,423,87.36c-8.78,2.53-17.4,6.67-25.39,11a157.15,157.15,0,0,0-22.67,15.25c-6.81,5.45-16.55,12.17-13.63,22.19,2.38,8.16,9.44,15.86,15.05,22,5.93,6.49,12.46,12.39,18.68,18.6,12.83,12.81,22.39,27.32,26.19,45.27,1.68,7.93,3.55,19.15-.05,26.76-3.1,6.55-11.4,8.67-17.82,10.24-20.34,5-41,8.84-61.48,13.24-8.23,1.76-20.09,2.18-25.88,9.15-6.17,7.42-1.53,17.85,3,24.86,5,7.62,11.59,14,17.43,20.88A179.81,179.81,0,0,1,352.91,350c2.72,4.53,5.35,9.17,7.62,13.95,1.31,2.75,4,8.52,1.18,11.19-1.36,1.27-4.16,1.12-5.89,1.27q-4.4.41-8.8.76-9.28.74-18.6,1.26-36.26,2-72.58.64c-9.66-.36-9.64,14.64,0,15Z"/><path class="cls-6" d="M300.26,331c6.93-5.59,14.89-9.55,22.26-14.48,6.77-4.52,12.33-10.17,17.84-16.11s12.33-11,17.08-17.35c5.54-7.45,12.66-13,20.12-18.41.77-.56,0-1.86-.76-1.29-6.63,4.83-13.37,9.74-18.56,16.16a64.6,64.6,0,0,1-8,8.85,124.31,124.31,0,0,0-9.77,9.71c-6.24,6.71-12.37,13-20.12,18.06-7.09,4.59-14.57,8.48-21.16,13.8-.76.61.31,1.67,1.06,1.06Z"/><path class="cls-7" d="M329.52,379.58c7.91-.39,15.93-.74,23.78-1.88,4.28-.62,10.45-1.44,11-6.58.12-1-1.39-.95-1.5,0-.64,5.56-12.84,5.49-16.68,5.83-5.54.49-11.09.85-16.64,1.13-1,.05-1,1.55,0,1.5Z"/><path class="cls-7" d="M364.35,371c.15-2.07-1-4.22-1.84-6.06-.4-.88-1.69-.11-1.29.76.71,1.56,1.76,3.54,1.63,5.3-.07,1,1.43.95,1.5,0Z"/><path class="cls-7" d="M147.72,287.41a162.2,162.2,0,0,0,59.4,10.86c20.36-.25,39.33-5.49,58.7-11.24,2.3-.68,1.32-4.3-1-3.62-19,5.66-37.66,10.86-57.7,11.11a159.15,159.15,0,0,1-58.4-10.73c-2.26-.86-3.23,2.77-1,3.62Z"/><path class="cls-7" d="M164.79,440.33a41.85,41.85,0,0,0-24.55-14.13c-10.16-1.73-21.43-2-31,2.22-2.21,1-.3,4.21,1.89,3.24,8.82-3.9,20.25-3.49,29.57-1.56A38.54,38.54,0,0,1,162.14,443c1.58,1.83,4.22-.83,2.65-2.65Z"/><path class="cls-7" d="M285.28,429.1a42.43,42.43,0,0,0-30.19-2.49c-9.23,2.77-18.91,6.68-25.44,14-1.6,1.79,1,4.46,2.65,2.65,5.84-6.55,14.08-9.85,22.24-12.55a38.72,38.72,0,0,1,28.84,1.62c2.18,1,4.09-2.22,1.9-3.24Z"/><ellipse class="cls-8" cx="52.96" cy="269.92" rx="7.92" ry="11.64" transform="translate(-207.28 180.83) rotate(-60)"/><path class="cls-9" d="M362.53,270.29l10-4.05a6.2,6.2,0,0,0-1.71-4.18c-3.08-3.07-9.32-1.88-13.83,2.63s-5.71,10.76-2.64,13.83a5.93,5.93,0,0,0,3.2,1.61Z"/><path class="cls-10" d="M366.66,262.69a62.93,62.93,0,0,1-11.32,14.41c-1.74,1.66.67,4.53,2.43,2.86a66.51,66.51,0,0,0,12-15.12c1.19-2.08-1.87-4.25-3.07-2.15Z"/><path class="cls-2" d="M297.87,63.15a37.91,37.91,0,0,0-6.37-23.32,5,5,0,0,0-2.32-2.13,5.25,5.25,0,0,0-3,.22l-29.39,8a142,142,0,0,0-7.58-37.15,206.83,206.83,0,0,1-14.39,35.61A238.86,238.86,0,0,0,215.19,5.15a86.44,86.44,0,0,0-16.77,31A45.73,45.73,0,0,0,184.31,2.48,49.55,49.55,0,0,0,175.68,33a4.27,4.27,0,0,1-.63,3.14c-1.09,1.22-3.08.7-4.59.06a169.66,169.66,0,0,1-27.2-14.49c-2,4.72,0,10.41,3.5,14.14s8.36,5.92,13.05,8c-5.09,1.76-10.67.37-15.85-1.1q-18.37-5.22-36.38-11.66c4.27,3.61,9.6,5.66,14.37,8.55s9.3,7.15,10.1,12.68c-11.3.87-22.58-1.35-33.7-3.55l12.86,14.75L89.93,54.22a142.57,142.57,0,0,1,17.36,14"/><path class="cls-2" d="M300.37,63.15a40.53,40.53,0,0,0-5.68-23,12.36,12.36,0,0,0-3.61-4.34c-2.06-1.27-4.36-.66-6.52-.07l-13.25,3.61-15.18,4.14,3.16,2.41a146.2,146.2,0,0,0-7.67-37.81,2.53,2.53,0,0,0-4.83,0,205.62,205.62,0,0,1-14.13,35l4.57.6A243.94,243.94,0,0,0,217.35,3.89a2.52,2.52,0,0,0-3.93-.51A90.43,90.43,0,0,0,196,35.5l4.91.67A48.45,48.45,0,0,0,186.08.72a2.54,2.54,0,0,0-3.93.5,51.85,51.85,0,0,0-9,31.93,4.36,4.36,0,0,1,0,1.3c-.08.25,0-.1.08-.1a5.25,5.25,0,0,1-2-.53,133.37,133.37,0,0,1-12.9-6.12q-7.12-3.76-13.88-8.19c-1.48-1-3.1.09-3.67,1.49-2.17,5.32-.19,11.31,3.27,15.58,3.68,4.54,9.22,7.08,14.43,9.42l.6-4.57c-3.94,1.29-8,.62-11.91-.39-4.35-1.11-8.66-2.44-13-3.75q-13.11-4-26-8.62c-2.3-.82-4.34,2.59-2.43,4.18,4.56,3.79,10,6,15,9,4.13,2.54,8,6.09,8.78,11.08l2.41-3.16c-11.16.81-22.14-1.3-33-3.46a2.52,2.52,0,0,0-2.43,4.18l12.85,14.75,3-3.93L91.19,52.06a2.5,2.5,0,0,0-2.53,4.32A141.5,141.5,0,0,1,105.52,70c2.34,2.21,5.88-1.32,3.53-3.53A150,150,0,0,0,91.19,52.06l-2.53,4.32L110,65.67a2.51,2.51,0,0,0,3-3.93L100.12,47l-2.43,4.18c11.3,2.23,22.78,4.47,34.36,3.63a2.55,2.55,0,0,0,2.41-3.17c-.92-5.7-5.18-10.11-9.79-13.23-4.92-3.33-10.72-5.28-15.32-9.1l-2.43,4.18q13.38,4.78,27,8.91c4.42,1.33,8.85,2.75,13.35,3.79,4.35,1,8.92,1.47,13.24.06,1.84-.6,2.69-3.63.59-4.57-4.5-2-9.25-4.09-12.67-7.78-2.87-3.09-4.37-7.54-2.73-11.57L142,23.83a172.52,172.52,0,0,0,27.2,14.49c2.13.9,4.6,1.58,6.73.27,2.32-1.43,2.29-4.09,2.21-6.49a46.89,46.89,0,0,1,1.59-13.8,47.81,47.81,0,0,1,6.74-14.56l-3.93.51a43.45,43.45,0,0,1,13.38,31.92c0,2.86,4.1,3.34,4.91.66A84.31,84.31,0,0,1,217,6.92L213,6.41a236.66,236.66,0,0,1,19.38,38.65c.72,1.83,3.5,2.68,4.57.59a213.78,213.78,0,0,0,14.64-36.2h-4.83a140.86,140.86,0,0,1,7.5,36.48,2.53,2.53,0,0,0,3.17,2.41l15.42-4.2,7.71-2.1L284.44,41a19.4,19.4,0,0,1,3.46-.91c.77-.06,1,.44,1.44,1A27.59,27.59,0,0,1,291.11,44a34,34,0,0,1,2.59,6,36.11,36.11,0,0,1,1.67,13.14c-.18,3.22,4.82,3.21,5,0Z"/><path class="cls-2" d="M339.76,148.49a74.57,74.57,0,0,1,14.1,2,53.24,53.24,0,0,0-15.66,1.41c-2.92.71-6.5,3.39-4.86,5.92a5.06,5.06,0,0,0,2.84,1.7L350,164l-11.77,4.8q9.56,3.43,19.13,6.77l-28.12,7.86a69.82,69.82,0,0,0,23.27,7c.08,3-3.5,4.44-6.39,5.08L317,202.06c5.39,6.13,14.17,7.7,22.24,8.9L320,212.72l17.32,9.63a80,80,0,0,1-25,4.6l18.22,14c-7.64,3.27-16.35,2.09-24.56.85a31.4,31.4,0,0,0,10.51,9.47,17,17,0,0,1-17.82-1.45"/><path class="cls-2" d="M339.76,151a73.36,73.36,0,0,1,13.43,1.95l.67-4.91a57.27,57.27,0,0,0-13.52.89c-3.48.65-7.49,1.78-9.28,5.18a5,5,0,0,0,.23,5.17c1.21,1.77,3.2,2.37,5.15,3l12.93,4.17v-4.83l-11.76,4.81a2.52,2.52,0,0,0,0,4.82q9.54,3.44,19.12,6.77v-4.82l-28.12,7.86c-2,.55-2.57,3.59-.59,4.57A74.58,74.58,0,0,0,352.55,193l-2.5-2.5a.84.84,0,0,1-.22.7,4.63,4.63,0,0,1-.76.64,10,10,0,0,1-2.95,1.18c-3.17.83-6.41,1.45-9.61,2.16l-20.16,4.51c-1.94.43-2.3,2.85-1.11,4.18,5.92,6.58,15,8.29,23.35,9.54l.66-4.91L320,210.22c-2.32.22-3.59,3.37-1.26,4.66l17.31,9.63.6-4.57a79,79,0,0,1-24.36,4.51,2.57,2.57,0,0,0-2.41,1.83,2.64,2.64,0,0,0,1.15,2.83l18.22,14,.59-4.57c-7.41,3.09-15.52,2-23.23.85a2.57,2.57,0,0,0-2.63.9,2.48,2.48,0,0,0-.19,2.77,34.77,34.77,0,0,0,11.41,10.37v-4.32a14.64,14.64,0,0,1-15.29-1.45,2.52,2.52,0,0,0-3.42.9,2.55,2.55,0,0,0,.89,3.42,19.6,19.6,0,0,0,20.34,1.45,2.52,2.52,0,0,0,0-4.32,29,29,0,0,1-9.61-8.57l-2.83,3.67c8.54,1.29,17.66,2.58,25.89-.85a2.55,2.55,0,0,0,.6-4.57l-18.21-14-1.27,4.66A83.6,83.6,0,0,0,338,224.76c1.94-.68,2.58-3.46.6-4.56l-17.32-9.64L320,215.22l19.23-1.76a2.52,2.52,0,0,0,2.46-2.17,2.47,2.47,0,0,0-1.79-2.74c-7.45-1.11-15.84-2.36-21.14-8.26l-1.1,4.18,22.58-5.05c5.09-1.13,14.67-1.9,14.79-9a2.58,2.58,0,0,0-2.5-2.5,67.69,67.69,0,0,1-22-6.65l-.6,4.57L358.06,178a2.52,2.52,0,0,0,0-4.82q-9.57-3.33-19.12-6.77v4.82l11.76-4.8c2.22-.91,2.51-4,0-4.83l-10.16-3.27c-1.49-.48-3.08-.86-4.52-1.48a3.07,3.07,0,0,1-.48-.24c-.19-.12-.19-.47-.14-.22.09.42.11-.05.31-.3,1.71-2.08,5.41-2.31,7.85-2.67a52.13,52.13,0,0,1,10.3-.4c2.81.15,3.39-4.25.66-4.91A80,80,0,0,0,339.76,146c-3.22-.17-3.21,4.83,0,5Z"/><path class="cls-2" d="M114.86,253.13A77.93,77.93,0,0,1,96.1,268.89l3.17-29.5A30.55,30.55,0,0,1,88.11,251.1c-6-7.78-3.84-20.54,4.41-25.88A66.8,66.8,0,0,1,69,229.35c4.77-6.17,15.5-4.32,20.55-10.27C77.31,217,65,214.9,53.37,210.39L78,202.44a261.5,261.5,0,0,1-31.12-7.37l30.86-9.21c-8.94-1.5-18.42-3.26-25.11-9.38a88,88,0,0,0,21.56-7.81c-5.5-5.93-17.06-5.12-19.94-12.67q12.85-3.17,25.88-5.61"/><path class="cls-2" d="M113.09,251.36a77.06,77.06,0,0,1-18.25,15.37l3.76,2.16,3.17-29.5c.27-2.52-3.54-3.33-4.66-1.26a28.56,28.56,0,0,1-10.26,10.81l3.42.9c-5.12-6.76-3.77-17.64,3.51-22.47a2.51,2.51,0,0,0,1-3.12,2.49,2.49,0,0,0-3-1.45,65.68,65.68,0,0,1-22.84,4l1.77,4.27c2.37-3,6.09-3.77,9.69-4.74,3.94-1.07,8.07-2.35,10.85-5.53,1.12-1.27.9-3.84-1.1-4.18C78,214.6,65.66,212.48,54,208v4.82l24.62-8c2.16-.69,2.6-4.37,0-4.82a265.29,265.29,0,0,1-31.11-7.37v4.82l30.85-9.21c2.19-.65,2.57-4.39,0-4.82-8.33-1.4-17.49-2.88-24-8.74l-1.1,4.18a92.42,92.42,0,0,0,22.15-8.06A2.53,2.53,0,0,0,76,166.9c-3-3.16-7.21-4.58-11.2-6.05a27.16,27.16,0,0,1-5-2.26,7.34,7.34,0,0,1-3.05-3.26l-1.75,3.08q12.85-3.16,25.88-5.61a2.52,2.52,0,0,0,1.75-3.07A2.55,2.55,0,0,0,79.45,148q-13,2.45-25.88,5.61a2.5,2.5,0,0,0-1.74,3.07c1.79,4.47,5.59,6.68,9.88,8.37,3.77,1.48,7.93,2.5,10.7,5.41l.51-3.93a87.41,87.41,0,0,1-21,7.56,2.52,2.52,0,0,0-1.11,4.18c7.24,6.51,16.9,8.45,26.21,10v-4.82l-30.85,9.21a2.52,2.52,0,0,0,0,4.82,265.45,265.45,0,0,0,31.12,7.37V200L52.7,208a2.52,2.52,0,0,0,0,4.82c11.63,4.5,24,6.62,36.2,8.69l-1.1-4.17c-2.49,2.83-6.31,3.59-9.9,4.57-3.9,1.07-8,2.42-10.65,5.69-1.29,1.62-.57,4.27,1.77,4.27a70.13,70.13,0,0,0,24.17-4.22l-1.93-4.57c-9.3,6.16-12.15,20.25-5.31,29.3a2.56,2.56,0,0,0,3.42.9,33.46,33.46,0,0,0,12-12.61l-4.65-1.26-3.17,29.5c-.21,1.92,2.26,3.06,3.76,2.16a81.35,81.35,0,0,0,19.26-16.15,2.56,2.56,0,0,0,0-3.54,2.51,2.51,0,0,0-3.53,0Z"/><ellipse class="cls-11" cx="167.53" cy="155.58" rx="43.52" ry="32.04" transform="translate(-13.05 295.81) rotate(-80.71)"/><ellipse class="cls-11" cx="236.76" cy="161.52" rx="32.04" ry="43.52" transform="translate(-22.26 38.84) rotate(-8.96)"/><path class="cls-4" d="M255,166.85c9.65,0,9.67-15,0-15s-9.67,15,0,15Z"/><g class="cls-12"><path class="cls-13" d="M142,181.63a10.41,10.41,0,0,0,1.24-4.53c0-1-.33-2.26,1-2.34,1,0,1.95.14,2.92.09a4.35,4.35,0,0,0,3.2-1.3c.88-1,.8-2.5.82-3.77a17,17,0,0,0-.63-5c-.3-1.08-.75-2.72.83-3.07a9.34,9.34,0,0,0,1.74-.18c3-1.21,2.35-4.93,1.57-7.33-.25-.76-1.46-.43-1.21.33.55,1.68,1.31,3.93-.15,5.38-1,1-2.46.18-3.48,1.15a3.34,3.34,0,0,0-.74,3.18,24.06,24.06,0,0,1,.82,5.07c0,1.73.14,3.64-1.9,4.15-1.55.39-3.2-.29-4.73.13a1.89,1.89,0,0,0-1.39,2c-.07,2-.06,3.6-1,5.42-.37.71.7,1.35,1.08.63Z"/></g><path class="cls-4" d="M151.84,179c9.65,0,9.66-15,0-15s-9.67,15,0,15Z"/><g class="cls-12"><path class="cls-13" d="M185.35,185.9a7.34,7.34,0,0,0-1.95-2.44c-.31-.26-1-.54-1-1s.82-1,1-1.29a3,3,0,0,0,.76-2.56c-.26-1-1.24-1.64-2-2.23a13.06,13.06,0,0,0-2.85-1.65c-.49-.21-1.27-.55-1.09-1.18.12-.43.5-.69.6-1.16.45-2.17-1.89-3.33-3.52-4-.75-.29-1.08.92-.33,1.21,1,.37,2.41.89,2.61,2.09.1.58-.3.79-.54,1.26a1.56,1.56,0,0,0-.12,1,2.6,2.6,0,0,0,1.6,1.77,15.52,15.52,0,0,1,2.71,1.49c.91.67,2.25,1.47,1.5,2.75-.46.79-1.37,1.35-1.62,2.25s.28,1.33.87,1.76a6.83,6.83,0,0,1,2.24,2.53c.37.72,1.44.09,1.08-.63Z"/></g><path class="cls-14" d="M168.79,147.13l30.4,5v0c3.06-18.71-8.15-36.34-24.82-39.07-16.41-2.68-32.45,10-35.84,28.33Z"/><path class="cls-14" d="M235,151l29.8-4.18c-2.47-17.76-17.82-30.55-34.1-28.4-16.13,2.13-27.6,18.19-25.6,35.85Z"/><g class="cls-12"><path class="cls-13" d="M222.85,196.5a10.26,10.26,0,0,0,1.23-4.53c0-1-.33-2.27,1-2.34,1,0,1.95.14,2.92.09a4.34,4.34,0,0,0,3.2-1.31c.88-1,.8-2.49.82-3.76a17,17,0,0,0-.63-5c-.3-1.08-.75-2.73.82-3.07a9.47,9.47,0,0,0,1.75-.19c3-1.2,2.34-4.93,1.56-7.32-.24-.76-1.45-.44-1.2.33.54,1.68,1.31,3.93-.16,5.37-1,1-2.45.19-3.48,1.16a3.33,3.33,0,0,0-.73,3.18,24,24,0,0,1,.82,5.06c0,1.74.14,3.65-1.91,4.16-1.54.38-3.19-.29-4.73.13a1.89,1.89,0,0,0-1.39,2,11.4,11.4,0,0,1-1,5.42c-.38.71.7,1.34,1.08.63Z"/></g><g class="cls-12"><path class="cls-13" d="M265.11,182.41a7.31,7.31,0,0,0-1.94-2.44c-.32-.26-1-.54-1-1s.82-1,1-1.29a3,3,0,0,0,.76-2.57c-.26-1-1.24-1.63-2-2.23a13.37,13.37,0,0,0-2.84-1.64c-.49-.21-1.27-.55-1.1-1.18.13-.43.5-.7.6-1.17.45-2.16-1.88-3.32-3.52-4-.75-.29-1.07.92-.33,1.21,1,.37,2.41.89,2.61,2.09.1.58-.3.79-.54,1.26a1.56,1.56,0,0,0-.12,1,2.62,2.62,0,0,0,1.6,1.77,15.12,15.12,0,0,1,2.71,1.48c.91.68,2.25,1.48,1.5,2.76-.46.78-1.36,1.35-1.62,2.25s.28,1.33.87,1.76A6.85,6.85,0,0,1,264,183c.36.72,1.44.09,1.07-.63Z"/></g><g class="cls-12"><path class="cls-13" d="M244.41,161.34a4.81,4.81,0,0,0-.48-1.69c-.05-.09-.13-.3-.21-.34s-.08-.09-.09.06l.15-.08a2.53,2.53,0,0,0,.75-.42,1.56,1.56,0,0,0,.66-1.25,3.56,3.56,0,0,0-.66-1.58,10,10,0,0,0-1-1.3,2.4,2.4,0,0,1-.16-.27s-.22.1,0,0a1,1,0,0,0,.49-.44c.64-1-.18-2.13-.9-2.84a.63.63,0,0,0-.88.89c.26.25.85.74.75,1.16,0,.16-.1.15-.24.24a1,1,0,0,0-.42.54c-.34,1,.73,1.71,1.21,2.48.17.26.68.91.54,1.22s-.87.48-1.16.73a1.05,1.05,0,0,0-.14,1.39,3.87,3.87,0,0,1,.56,1.47c.07.8,1.32.8,1.25,0Z"/></g><path class="cls-15" d="M49.46,264.38c-2.13-3.66-5.2-6.68-8.23-9.66-10.14-10-20.59-20.13-33.62-25.8a2,2,0,0,0-.94-.23,2,2,0,0,0-1.19.91c-1.14,1.5-2.35,3.19-2.2,5.07.18,2.31,2.31,3.92,4.24,5.21L34,257.58c4.32,2.9,8.85,5.87,14,6.6"/><path class="cls-15" d="M51.62,263.12a49,49,0,0,0-8-9.55c-2.8-2.76-5.61-5.51-8.48-8.2A114.76,114.76,0,0,0,16.4,230.66c-1.7-1-3.43-2-5.21-2.83s-4-2.32-6.07-1.22c-1.57.85-2.83,2.9-3.56,4.48a7.19,7.19,0,0,0-.09,6.21,11.26,11.26,0,0,0,3.71,4c1.75,1.29,3.61,2.44,5.42,3.65l11.57,7.75c4.18,2.79,8.33,5.63,12.55,8.38,3.85,2.5,8,4.81,12.59,5.52a2.59,2.59,0,0,0,3.08-1.75,2.51,2.51,0,0,0-1.75-3.07,26.24,26.24,0,0,1-9.74-4c-3.35-2.07-6.59-4.34-9.86-6.53-6.85-4.59-13.77-9.1-20.57-13.77a6.65,6.65,0,0,1-2.56-2.46c-.64-1.6,1-2.56,1.49-3.87.12-.32.73-.44-.25-.13-.7.21-.57.13,0,.37.78.35,1.54.72,2.3,1.1q2.46,1.24,4.82,2.68a106,106,0,0,1,16.58,13c2.94,2.71,5.79,5.51,8.65,8.31s5.76,5.67,7.84,9.16c1.64,2.76,6,.25,4.31-2.53Z"/><path class="cls-16" d="M6.07,226.17c-3,.72-4.58,3.76-5.62,6.37A6.23,6.23,0,0,0,0,234.71a2.74,2.74,0,0,0,2,2.62,3.48,3.48,0,0,0,1.92,0,4.59,4.59,0,0,0,2.45-1.93c.32-.47.57-1,.92-1.44l-.39.5c.77-1,1.69-1.85,2.37-2.91a3.76,3.76,0,0,0,.63-2.94,2.91,2.91,0,0,0-1.31-1.79,3.63,3.63,0,0,0-1.8-.41l.66.09-.08,0,.6.25-.08,0,.51.39L8.31,227l.39.5,0-.06.25.6,0-.07v1.33l0-.07a2.76,2.76,0,0,0-.26-1.93,2.53,2.53,0,0,0-1.49-1.15,2.6,2.6,0,0,0-1.93.25,2.5,2.5,0,0,0-1.15,1.5,3.18,3.18,0,0,0,0,1.47,2.81,2.81,0,0,0,1,1.41,2.6,2.6,0,0,0,1.34.54c.24,0,.47,0,.71.06l-.66-.09.09,0-.6-.25.06,0-.5-.39a.2.2,0,0,1,.09.09l-.39-.5,0,.06-.25-.6a.74.74,0,0,1,0,.14L5,229.23a1.85,1.85,0,0,1,0,.24L5,228.8a2,2,0,0,1-.1.32l.25-.6a5.54,5.54,0,0,1-.59.92l.39-.5c-.45.58-1,1.1-1.44,1.67a11.07,11.07,0,0,0-1,1.29c-.22.34-.4.7-.64,1l.39-.51a2.63,2.63,0,0,1-.43.45l.5-.39a2.5,2.5,0,0,1-.35.21l.6-.25-.29.08.66-.09a1,1,0,0,1-.3,0l.66.09-.09,0,.6.25-.08,0,.9.89,0-.07.26.6,0-.09.09.66a1.63,1.63,0,0,1,0-.31l-.09.66a5.39,5.39,0,0,1,.38-1.3l-.25.6a14.71,14.71,0,0,1,1.68-3l-.39.51a5.57,5.57,0,0,1,.87-.88l-.5.39a4.32,4.32,0,0,1,.78-.46l-.59.26A2.46,2.46,0,0,1,7.4,231a2.51,2.51,0,0,0,1.74-3.07,2.55,2.55,0,0,0-3.07-1.75Z"/><path class="cls-10" d="M369.83,264.81a63.27,63.27,0,0,1-15.48,9.83c-2.19,1-.87,4.5,1.34,3.5A66.37,66.37,0,0,0,372,267.86c1.81-1.57-.36-4.63-2.18-3.05Z"/></g></svg>