<svg xmlns="http://www.w3.org/2000/svg" viewBox="0 0 341.07 96.88"><defs><style>.cls-1{fill:#be1622;}</style></defs><g id="Layer_19" data-name="Layer 19"><path class="cls-1" d="M125.12,50.45l24.49-19.27L174.12,11.9a31.17,31.17,0,0,0-49,38.55Z"/><path class="cls-1" d="M173.24,11.72,196.88,32l23.66,20.32C232.13,38.84,231,18.8,217.89,7.58S184.84-1.78,173.24,11.72Z"/><polygon class="cls-1" points="125.12 50.45 173.81 11.51 220.54 52.34 173.24 93.47 125.12 50.45"/><path class="cls-1" d="M6.68,53.86,31.16,34.6,55.67,15.31a31.17,31.17,0,1,0-49,38.55Z"/><path class="cls-1" d="M54.8,15.13l23.63,20.3,23.66,20.32c11.6-13.5,10.41-33.54-2.65-44.76S66.39,1.63,54.8,15.13Z"/><polygon class="cls-1" points="6.68 53.86 55.36 14.92 102.09 55.75 54.8 96.88 6.68 53.86"/><path class="cls-1" d="M237.68,50.86,262.16,31.6l24.51-19.29a31.17,31.17,0,0,0-49,38.55Z"/><path class="cls-1" d="M285.8,12.13l23.63,20.3,23.66,20.32c11.6-13.5,10.41-33.54-2.65-44.76S297.39-1.37,285.8,12.13Z"/><polygon class="cls-1" points="237.68 50.86 286.36 11.92 333.09 52.75 285.8 93.88 237.68 50.86"/></g></svg>