<svg xmlns="http://www.w3.org/2000/svg" xmlns:xlink="http://www.w3.org/1999/xlink" viewBox="0 0 1920 1080"><defs><style>.cls-1{fill:#696767;stroke:#1d1d1b;}.cls-1,.cls-36,.cls-37{stroke-miterlimit:10;}.cls-2{fill:#52494a;}.cls-3{fill:#474040;}.cls-4{fill:#55443c;}.cls-5{fill:#7b7772;}.cls-6{fill:#66524a;}.cls-7{fill:#828021;}.cls-8{fill:#322c35;}.cls-9{fill:#372c30;}.cls-10{fill:#1c1f1c;}.cls-11{fill:#919392;}.cls-12{fill:#757575;}.cls-13{fill:#4a4142;}.cls-14{fill:#aaa8aa;}.cls-15{fill:#775413;}.cls-16{fill:#8f6925;}.cls-17{fill:#9a752d;}.cls-18{fill:#8e6926;}.cls-19{fill:#845a17;}.cls-20{fill:#493f40;}.cls-21{fill:#222321;}.cls-22{fill:#5a3f16;}.cls-23{fill:#6e5318;}.cls-24{fill:#372814;}.cls-25{fill:#5a3f14;}.cls-26{fill:#2e2a32;}.cls-27{fill:#6f5319;}.cls-28{fill:#372817;}.cls-29{fill:#5a3f17;}.cls-30{fill:#1c1f1d;}.cls-31{fill:#c2c1c1;}.cls-32{fill:#8d6927;}.cls-33{fill:#9a752e;}.cls-34{fill:#262625;}.cls-35{fill:#555453;}.cls-36{stroke:#0e5428;fill:url(#linear-gradient);}.cls-37,.cls-39{fill:#2b2d2c;}.cls-37{stroke:#313333;}.cls-38{fill:url(#linear-gradient-2);}.cls-40{fill:#2b2b28;opacity:0.94;}</style><linearGradient id="linear-gradient" x1="1616.87" y1="699.71" x2="1919.5" y2="699.71" gradientUnits="userSpaceOnUse"><stop offset="0" stop-color="#306b2d"/><stop offset="1" stop-color="#426d36"/></linearGradient><linearGradient id="linear-gradient-2" x1="1380" y1="737.45" x2="1616.87" y2="737.45" gradientUnits="userSpaceOnUse"><stop offset="0" stop-color="#235222"/><stop offset="1" stop-color="#316d30"/></linearGradient></defs><g id="Layer_9" data-name="Layer 9"><polygon class="cls-1" points="0.5 1080 1920 1080 1295.5 573.92 561.96 578.5 0 842 0.5 1080"/><polygon class="cls-2" points="570.9 0 561.4 614.65 0 820.37 0 0 570.9 0"/><polygon class="cls-3" points="1257.83 0 1249.5 642.5 1921.5 971.49 1921.5 0 1257.83 0"/><polygon class="cls-4" points="570.9 0 562.37 551.94 1273.49 551.94 1281.55 0 570.9 0"/><polygon class="cls-5" points="562.37 551.94 561.96 578.5 1274.18 578.5 1273.49 551.94 562.37 551.94"/><polygon class="cls-6" points="570.9 0 562.37 551.94 908.74 551.94 570.9 0"/><path class="cls-7" d="M123.87,207.91a4.92,4.92,0,0,1,2.29,2.4,4.07,4.07,0,0,0,2.66,2.22c4.51,1.71,6.65,3.45,8.66,6.43,2.89,4.21,3.66,8.13,2.66,13.42a22.77,22.77,0,0,1-.79,2.93,17.37,17.37,0,0,1-7.07,8.75c-2.89,2-4.45,2.27-6.76,1.47s-3.87-2.26-5.45-4.71c-5-7.76-7.43-20.34-5.37-26.26a4.58,4.58,0,0,1,.32-.72,17.16,17.16,0,0,1,5.6-5.15C122,207.93,123,207.6,123.87,207.91ZM120.08,214c-.07,0-.19.09-.26.29-.47,1.36,0,7.15,1.29,12.11,1.94,7.15,5.94,13.42,9.68,14.72l.48.16,1.13.24,1.18-3.4c1.42-4.08,1.63-6.22,1.06-8.55-.76-3.08-3.22-7.82-3.77-8a.06.06,0,0,0-.09,0,8.22,8.22,0,0,0,.1,2.78,12,12,0,0,1,.06,4.21c-.28.82-1.8,2.35-3.71,3.67-1.31.92-2,1.21-2.22,1.13s-.09-.18,0-.32a5,5,0,0,0,.39-.7c.67-1.9-1.3-10.51-3.9-16A7.24,7.24,0,0,0,120.08,214Z"/><path class="cls-7" d="M160.45,234.71c.8-2.32,4.18-4.8,6.1-5.73-1.11,6.7,0,16.76,2.56,25.35a8.13,8.13,0,0,1,.55,3.24c-.37,1.09-4.87,3.95-5.28,3.81-.68-.24-3.34-11.91-3.71-17a7.28,7.28,0,0,0-.42-2.51c-.14,0-.83.85-1.32,1.6-2.25,3.18-5.78,6.53-8.11,7.78a2.86,2.86,0,0,1-2.22.45,3.34,3.34,0,0,1-1.64-1.87c-1.73-3.57-4.63-14.33-6.12-22.32-.47-2.37-.93-4.36-.93-4.36-.15-.66-.17-.82-.1-1s.53-.65,1.11-1.21a17.87,17.87,0,0,1,2.64-2.13c.6-.41,1.24-.72,1.51-.62s.78,1.49,1.49,5.39c2,10.52,5.59,22.75,6.48,23.06S159.71,236.82,160.45,234.71Z"/><path class="cls-7" d="M172.69,227.75a4.51,4.51,0,0,0-.18-2.12c-.72-2.76-1.17-5-1.36-6l-.3-1.78,1.32-1.14c.75-.65,1.91-1.55,2.41-1.91a3.3,3.3,0,0,1,1.63-.73c.27.09.77,1.94,1.26,4.25.91,4.43,1.81,6.65,5.59,12.68a96.45,96.45,0,0,1,4.9,8.72c2,4.05,2.64,5.56,2.24,6.72-.59,1.7-3.62,3.85-4.22,4.25a3.75,3.75,0,0,1-2.92.29c2.46,4.12,6.83,11.28,9.57,16.58l1.47,2.79.91-.67c.6-.4,1.45-.87,2-1.23l.89-.6.48,3.67c.29,2,1,5.52,1.57,7.79l1.06,4.18-1.45,1.32a20.15,20.15,0,0,1-2.78,2.09l-1.24.71L190.8,279c-2.45-4.59-10.93-20.34-14.69-27.74.24,2.6.68,6.18.64,7.16v2.82l-1.15,1.13c-1.84,1.8-2.92,2.49-3.6,2.25-1.09-.37-.89-3.35-.8-7.59.15-7.88.77-16,.58-24.49A12.66,12.66,0,0,1,172,229C172.16,228.41,172.55,228.16,172.69,227.75Zm4.84,8c0,.07-.09,2-.13,3.23-.23,5.71-.36,5.44,3.33,7.1a20.52,20.52,0,0,0,2,.91c.61.22.93.17,1,0a13.24,13.24,0,0,0-1.39-3.23A85.45,85.45,0,0,0,177.53,235.76Z"/><path class="cls-7" d="M240.36,259.85a15.32,15.32,0,0,0,0-5.1,1.79,1.79,0,0,1,0-.91,3.17,3.17,0,0,1,.84-1.09,30.68,30.68,0,0,1,3.08-2.28c.75-.43,1.1-.53,1.44-.42s.56.58.55,1.26c0,1.14.43.53.83.67s.34,1,0,2c-1.13,3.27-.84,7.71.66,20.73l1,8.19-1.5,1.46a17,17,0,0,1-2.64,2.13l-1.15.67-2-3.44c-1.85-3.23-6.17-8.77-6.86-9-.34-.12-1.16.51-1.93,1.39-1.56,1.67-4.74,4-5.21,3.83a.29.29,0,0,1,0-.23,16.39,16.39,0,0,1,1.58-2.35c1.39-1.8,2.49-3,2.87-4.11.29-.81,0-1.07-.23-1.3-4.58-3.95-7.22-5.78-10.73-7.3-.86-.38-2.17-1-2.1-1.19a32.22,32.22,0,0,1,3.77-3.19l1.7-1.16,2.58,1.13a33.18,33.18,0,0,1,6.44,4.06c1.27,1,2.73,2,2.87,2.06C236.68,266.5,240,260.94,240.36,259.85Zm.65,8.23-.29-2.92-.9,1.28a6.11,6.11,0,0,0-1,1.56c-.23.68.06,1.17,1.16,2.16.47.39,1.13.92,1.17.79A19.72,19.72,0,0,0,241,268.08Z"/><path class="cls-7" d="M251.59,290c.31-.88,3.81-3.71,6.19-5.09,1.15-.67,3.17-1.65,4.91-2.49l.47-9.06a27.52,27.52,0,0,0,.33-4.46,10.26,10.26,0,0,0-1.72,1.46c-3.3,3.13-6.17,5-6.58,4.89a.07.07,0,0,1,0-.1,15.29,15.29,0,0,1,2.7-3.4,23.9,23.9,0,0,0,5.95-9.22,4.82,4.82,0,0,1,2.06-2.87c2.27-1.72,3.83-2.48,4.1-2.38.48.16,0,3.21-.44,6.55-.46,3.73-1,8.05-1.1,9.76l-.42,6.48-1.88,3.23a19.67,19.67,0,0,0-3.67,2s2.75.19,3.43.2a29.33,29.33,0,0,1,8.86,1.93l4.42,1.54,0-1.82a33.41,33.41,0,0,1,1-7.12,5.19,5.19,0,0,1,2.45-2.88c2.34-1.71,3-2,3.25-1.92s.22.45,0,1.07c-.59,1.7-1.08,6.18-1,12.53a12.26,12.26,0,0,1-.37,3.69c-.31.88-.88,1.44-2.49,2.79s-2.21,1.75-3,1.47a5,5,0,0,1-1.13-.7,42.76,42.76,0,0,0-9.19-4.49,31.9,31.9,0,0,0-13.35-1.5,21.24,21.24,0,0,1-3.73,0A.07.07,0,0,1,251.59,290Z"/><path class="cls-7" d="M287,302.34c.31-.88,3.81-3.71,6.19-5.09,1.15-.67,3.16-1.65,4.91-2.49l.47-9.06a27.52,27.52,0,0,0,.33-4.46,9.76,9.76,0,0,0-1.73,1.46c-3.29,3.13-6.16,5-6.57,4.88a.06.06,0,0,1,0-.09,15,15,0,0,1,2.7-3.4,23.9,23.9,0,0,0,5.95-9.22A4.78,4.78,0,0,1,301.3,272c2.27-1.72,3.83-2.48,4.1-2.38.48.16,0,3.21-.44,6.55-.46,3.73-1,8.05-1.1,9.75l-.42,6.49-1.89,3.23a19.15,19.15,0,0,0-3.67,2s2.76.19,3.44.2a29.33,29.33,0,0,1,8.86,1.93l4.42,1.53,0-1.82a33.92,33.92,0,0,1,1-7.11,5.32,5.32,0,0,1,2.45-2.89c2.35-1.7,3-2,3.26-1.92s.22.46,0,1.08c-.59,1.7-1.08,6.18-1,12.53a11.84,11.84,0,0,1-.36,3.68c-.31.89-.88,1.45-2.49,2.8s-2.21,1.75-3,1.46a4.64,4.64,0,0,1-1.13-.69,42.53,42.53,0,0,0-9.19-4.49,32.09,32.09,0,0,0-13.35-1.51,21.73,21.73,0,0,1-3.73,0A.07.07,0,0,1,287,302.34Z"/><path class="cls-7" d="M340.93,291.55c-1.23-.43-3.52-.61-3.95.61a4.33,4.33,0,0,0-.11,1.64c.21,3.12,2.07,5.9,6.11,9,1,.81,2.25,1.85,1.87,2.93-.42,1.23-3.29,3.36-8.22,5.69a15.3,15.3,0,0,0-3,1.69s2.76.2,3.44.2a29.63,29.63,0,0,1,8.86,1.93l4.42,1.54,0-1.82a34,34,0,0,1,1-7.12,6.08,6.08,0,0,1,2.68-3.11c2.12-1.47,2.69-1.81,3-1.71s.22.45,0,1.07c-.59,1.7-1,6.2-.93,12.55a12.15,12.15,0,0,1-.31,3.55c-.34,1-1.07,1.54-3.26,3.45-.85.69-1.49,1.23-2.31.95a4.7,4.7,0,0,1-1.13-.7,42.53,42.53,0,0,0-9.19-4.48,33.44,33.44,0,0,0-13.71-1.56,18.14,18.14,0,0,1-3.37.05.07.07,0,0,1-.05-.09c.31-.89,3.81-3.71,6.37-5.19,1.24-.71,3.92-2.07,5.82-2.93l3.51-1.53-1.22-.88c-4.65-3.52-6.91-8.19-5.92-11.05.85-2.45,4.88-6.15,8.2-8,2.64-1.45,5-1.85,6.83-1.21.47.16,1.06.44,1.4.56.61.21.82.06,1.1-.3a43,43,0,0,1,7.94-6.63c.45-.22,1.23-.48,1.14-.21a27.82,27.82,0,0,1-3.39,3.63c-2.15,2-2.56,2.54-3.46,5.12a15.84,15.84,0,0,0-1.11,4.73l-.13,1.93-1.94,1.62c-2,1.66-3.19,2.39-3.46,2.3-.48-.17.23-4.19-.32-4.38-.2-.07-.75.43-.54-.19C344.09,293.64,342.49,292.09,340.93,291.55Z"/><path class="cls-7" d="M389.85,308.91l.24-.68c-.17-2.58-.24-4.81-.27-5.58a7.14,7.14,0,0,1,.12-2.32c.28-.82,1.15-1.58,2.74-2.64s2.5-1.49,2.77-1.4.16.21.11.35c-.19.54.27,6.26.44,10.14.27,6.49,1.5,21.4,2.34,28.63l.87,7.38-1,1c-1.32,1.37-4.39,3.43-4.87,3.26a9.54,9.54,0,0,1-1.48-1.66,44.39,44.39,0,0,0-18.51-13.66,18.84,18.84,0,0,0-13,0,3.18,3.18,0,0,1-1.55.3s-.07,0,0-.16a6.8,6.8,0,0,1,1.69-1.78A17.65,17.65,0,0,1,374,326.18a23.61,23.61,0,0,1,4.57,1.13,44.42,44.42,0,0,1,11.82,6.54c.48.39,1.56,1.23,1.63,1.25s-1.23-16.66-1.48-20.56l-.86,1.61c-.14,0-.83.85-1.32,1.6-2.25,3.18-5.77,6.53-8.11,7.78A2.86,2.86,0,0,1,378,326a3.41,3.41,0,0,1-1.64-1.87c-1.73-3.57-4.63-14.33-6.12-22.32-.47-2.37-.93-4.36-.93-4.36-.15-.66-.17-.82-.1-1a2.09,2.09,0,0,1,.47-.67,22,22,0,0,1,3.19-2.63c.69-.45,1.33-.76,1.61-.66s.77,1.49,1.48,5.39c2,10.52,5.59,22.75,6.48,23.06S389.1,311.09,389.85,308.91Z"/></g><g id="Layer_14" data-name="Layer 14"><path class="cls-8" d="M1172,566c-.15-12.92-7.11-21-18.25-26-1.74-4-1.09-8,2.11-12-3.18.68-6.16,1.35-8.86,2-3.67-.79-4.53-1.4-5.12-2,4,4.16,6.2,7.73,4.12,10-31.26,10-36.18,21-42,32-30.69,18.16-26.76,33.83-16,49,6.35,8.53,16.32,13.56,29,16Z"/><path class="cls-9" d="M1012,605c26.85,14,64.79,11.45,107.5,1.74q7.5-63.3,13-126.59H1012C1008.67,519.59,1009,561.42,1012,605Z"/><path class="cls-10" d="M1141,445.34c-13.06-7.31-65.12-14.9-139.46,0,41.37,3.32,88.19,3.11,139.46,0"/><path class="cls-11" d="M1133.75,449.07c1.45-3.22-15.8-31-36-37.35a33.87,33.87,0,0,1,7.94-11.36c-4.38,1.58-8.29,2.58-10.74,1.81-1.3.52-2.76,0-4.32-1.08a5.82,5.82,0,0,1-5.16-.5c2.57,4.22,5,8.36,4.2,10.66-27.8,7.17-32.41,22.79-36.15,38.73C1074.42,454.05,1132.13,452.69,1133.75,449.07Z"/><path class="cls-12" d="M1081.8,450.65c1-2.16-10.59-20.77-24.1-25A22.86,22.86,0,0,1,1063,418c-2.94,1.06-5.56,1.73-7.2,1.21a3.12,3.12,0,0,1-2.9-.72,3.88,3.88,0,0,1-3.45-.34c1.72,2.83,3.35,5.6,2.81,7.14-18.63,4.81-21.72,15.28-24.23,26C1042,454,1080.71,453.08,1081.8,450.65Z"/><path class="cls-13" d="M998.15,480.15c40.89,5.3,89.9,4.19,142.81,0,2.82-10.76,2.46-22.47,0-34.81-53.56,3.45-103.8,5-142.81,0C994.38,456.7,994.53,468.31,998.15,480.15Z"/><path class="cls-14" d="M1074.5,594.5c13.56,8.2,17.32,20,18,33-6.67,6.12-14,8.48-22,7.5-12,.87-17.34-3.4-19-10.5-.57-12.79,4.61-23.19,16-31,.86-1.34-.85-3.59-3-6a29.13,29.13,0,0,1,6,2c1.58-1.59,3.06-2.63,4.2-2A15.7,15.7,0,0,0,1074.5,594.5Z"/></g><g id="Layer_7" data-name="Layer 7"><polyline class="cls-15" points="1285.5 644.08 1194.99 637.8 1201.54 563.5 1285.5 568.07 1285.5 645.5"/><polyline class="cls-15" points="1135.5 580.5 1119.5 565.5 1117.5 671.5 1132.5 680.5 1135.5 580.5"/><polygon class="cls-16" points="1119.5 565.5 1227.36 564.28 1232.5 578.5 1135.94 580.5 1119.5 565.5"/><path class="cls-17" d="M1303.28,635.53c-9.52,1.85-28.24,3.76-45.78,7-1.54,34.15-3.82,66.92-7,98a377.4,377.4,0,0,0,62.11-4.78Z"/><polygon class="cls-17" points="1232.5 578.5 1135.59 580.5 1132.5 680.5 1221.82 680.5 1228.64 624.5 1232.5 578.5"/><path class="cls-15" d="M1257.5,642.5c-12.88-5.56-24-11.54-33-18-2.79,18.33-5.39,55.78-8,93a178.81,178.81,0,0,0,34,23Z"/><path class="cls-18" d="M1224.5,624.5c26.66-2.88,52.19-5.24,76.8-9.85l2,20.88c-14.6,2.74-29.91,5-45.78,7C1246.63,638.15,1235.6,631.85,1224.5,624.5Z"/><polygon class="cls-19" points="1285.5 568.07 1301.3 560.85 1301.3 614.65 1285.5 617.3 1285.5 568.07"/><polygon class="cls-19" points="1207.82 564.36 1279.31 548.5 1309.5 553.61 1288.68 568.5 1207.82 564.36"/></g><g id="Layer_6" data-name="Layer 6"><polygon class="cls-15" points="1183 485.46 1247.07 487.5 1248.39 409.5 1189.31 409.5 1183 485.46"/><polygon class="cls-17" points="1248.39 409.5 1308.5 410.5 1308.5 480.41 1247.07 486 1248.39 409.5"/><polygon class="cls-17" points="1191 486 1191 564.28 1252.5 564.28 1252.5 551.26 1239.17 486 1191 486"/><path class="cls-15" d="M1291,560.85c.5-1.35-74.5-11.87-74.5-11.87l4-94.48,80.8,7.71Z"/><polygon class="cls-17" points="1301.3 462.21 1387.5 455.88 1387.5 503.5 1291 560.85 1301.3 462.21"/><polygon class="cls-16" points="1387.5 455.88 1325.5 448.5 1220.5 454.5 1301.3 462.21 1387.5 455.88"/><path class="cls-20" d="M1384.68,591.67c-2.14,13-94.65-2.08-94.18-10.48,1.9-33.84-2.86-51.35,5.68-62.85.37-.49.9-1.11,1.36-.71,11.84,10.36,74.77,12.18,87.85,3.84.56-.36,1.25.39,1.23,1.06Z"/><path class="cls-21" d="M1295.5,519.73c11.91-19.48,61.67-16.84,92-16.23l-1,20.1C1354.06,530.47,1323.27,530.92,1295.5,519.73Z"/><path class="cls-9" d="M1301.35,587.56c-1.32,72.28,21.42,151.66,6.44,208.87a1.88,1.88,0,0,0,.49,1.85c14,13.56,40.3,17.06,71.72,16.35l5.12-221.73a219.92,219.92,0,0,1-83.77-5.34"/></g><g id="Layer_8" data-name="Layer 8"><polygon class="cls-22" points="471.5 725.5 539.5 704.5 532.13 629.5 474.37 629.5 471.5 725.5"/><polygon class="cls-23" points="414.24 725.5 471.5 725.5 474.37 629.5 388.92 629.5 383.38 725.5 414.24 725.5"/><polyline class="cls-24" points="522.9 629.5 525.53 540 445.5 535.5 449.05 629.5 522.9 629.5"/><polyline class="cls-22" points="449.05 629.5 389.5 625.5 389.5 535.5 445.5 535.5 449.05 629.5"/><polygon class="cls-25" points="531.86 540 455.9 536.09 455.9 431.09 528.5 447.5 531.86 540"/><polygon class="cls-23" points="383.38 533.42 455.9 536.09 455.9 431.09 383.38 433.2 383.38 533.42"/></g><g id="Layer_10" data-name="Layer 10"><path class="cls-26" d="M421.5,753.5c-7.6-3.45-5.66-27.46-3-53-8.11-39-33.58-68.53-79-87-23.6,9.2-35.29,9.67-40,5,17.27-19.87,30.93-38.56,31.66-53-14.35-6.46-28.17,10.35-41.66,41-1.58-37.64-12.45-54-30-55-15.26,13.38-5.91,35.06,19,62,3.63,9.07,2.06,14.3-4.31,16-12.9-2.46-23.88,4.44-33.69,17a117.48,117.48,0,0,0-13,23l4,90H366C386.57,761.47,405.5,760.27,421.5,753.5Z"/><ellipse class="cls-2" cx="273" cy="582.5" rx="3.5" ry="24" transform="translate(-225.96 176.46) rotate(-25.75)"/><ellipse class="cls-2" cx="310.07" cy="591.06" rx="24" ry="3.5" transform="translate(-350.33 494.29) rotate(-53.98)"/></g><g id="Layer_11" data-name="Layer 11"><polygon class="cls-22" points="201.5 672.5 324.57 677.5 324.5 792.5 201.5 784.5 201.5 672.5"/><polygon class="cls-27" points="324.57 677.5 359.64 672.5 231 670 201.5 672.5 324.57 677.5"/><polyline class="cls-28" points="324.57 677.5 324.5 792.5 359.64 784.37 359.64 672.5 324.57 677.5"/><polygon class="cls-15" points="315 736 311 884 174 880 174 736 315 736"/><polygon class="cls-16" points="345.4 725.5 315 736 174 736 200.61 725.5 345.4 725.5"/><polygon class="cls-29" points="311 884 345.4 861.51 345.4 725.5 315 736 311 884"/></g><g id="Layer_12" data-name="Layer 12"><path class="cls-9" d="M0,902.65c42.58,28.91,105,19.69,172.92,0,15.59-106.29,30-219.31,43.58-337.15-87.87,7.9-165.1,11.36-216.5,4Z"/><path class="cls-30" d="M225.5,565.5c-75-1.46-152.34-14.61-225.5,0v4c57.39,8.32,139,3.49,225.5-4"/><g id="Layer_13" data-name="Layer 13"><path class="cls-31" d="M174.4,571.45c2.73-6.46-31.09-61.7-70.16-74.09,2.86-7.82,8.1-15.41,15.15-22.83-8.44,3.23-16,5.28-20.74,3.79-2.49,1.06-5.33.08-8.36-2.09a10.89,10.89,0,0,1-10-.93c5,8.39,9.8,16.64,8.29,21.24-53.59,14.78-62.23,46.07-69.18,78C59.8,582.34,171.33,578.72,174.4,571.45Z"/></g><path class="cls-13" d="M0,629.5c87.91,4.39,176.29,9,227.5,0,5.53-11.33,4-35.44,0-64-90.37,8.26-175.88,14.22-227.5,4Z"/></g><g id="Skraldespand"><polyline class="cls-15" points="1784.61 646.3 1903 668 1909.62 1080 1784.61 1030.83 1784.61 646.3"/><polygon class="cls-32" points="1920 661.6 1903 668 1784.61 646.3 1920 638 1920 661.6"/><polygon class="cls-33" points="1909.62 1080 1920 1080 1920 661.6 1903 668 1909.62 1080"/><ellipse class="cls-34" cx="1428" cy="862" rx="35" ry="30"/><ellipse class="cls-35" cx="1429.5" cy="862.5" rx="24.5" ry="20.5"/><path class="cls-34" d="M1626.57,964c-9.47,21.57-4.45,40.39,13.43,53.51a50.21,50.21,0,0,0,39,1c10.39-4.59,17.56-10.73,23-23,3.57-10,3.2-20.6-3.43-31.51Z"/><path class="cls-35" d="M1690.76,969c5.31,21.43-1.77,34.26-18.21,40.59-8.51,1.34-15.4,1.11-19.52,0-21-5.85-19.44-23.2-17.8-40.59Z"/><polygon class="cls-36" points="1616.87 528 1616.87 971.49 1784.33 971.49 1784.33 646.3 1919.5 638 1919.5 427.93 1616.87 528"/><polygon class="cls-37" points="1919.01 426.93 1618.62 527 1618.62 551.94 1372.5 499.5 1372.5 483.9 1720.32 347.5 1919.5 377.87 1919.01 426.93"/><polygon class="cls-38" points="1387.06 503.42 1380 828 1616.87 971.49 1616.87 551.94 1387.06 503.42"/><polygon class="cls-39" points="1618.62 551.94 1921.5 446.92 1921 423.5 1618.62 526.32 1618.62 551.94"/><path class="cls-40" d="M1598,237.12a3.46,3.46,0,0,1-.62-.27,3.28,3.28,0,0,0-.73-.29l-.5-.63c-.22-.26-.39-.47-.51-.64a4.7,4.7,0,0,1,0-1.16c0-.55.1-1.13.17-1.74s.12-1.18.17-1.7.08-.87.12-1.08a9.56,9.56,0,0,1,.08-1.49c.06-.61.12-1.23.19-1.85s.13-1.36.2-2.24a15.55,15.55,0,0,0,.46-2.47c.17-1.31.35-2.72.52-4.24s.36-3,.56-4.4.34-2.44.45-3.08c0-.22.11-.69.22-1.41l.39-2.37c.14-.87.28-1.71.42-2.54s.23-1.42.29-1.78a4.18,4.18,0,0,0,.3-1.17c.1-.58.19-1.17.29-1.78s.21-1.19.34-1.72a4.84,4.84,0,0,1,.35-1.11c-.15,0-.24-.05-.26-.1a.34.34,0,0,0-.16-.08l-.34.06c-.14,0-.54.23-1.18.75a10.49,10.49,0,0,0-1.1,1l-1,.4q-.6.24-1.26.57a12.36,12.36,0,0,1-1.19.53,2.41,2.41,0,0,1-.64.17,9.42,9.42,0,0,1-1.1.65,11.33,11.33,0,0,1-1.49.64l-1.41.49a3.2,3.2,0,0,1-.76.21,1.82,1.82,0,0,1-.56,0,2.5,2.5,0,0,1-.77,0l-1.19-.2-.34-.61.18-1.08a1,1,0,0,1,0-.45c0-.14,0-.29.07-.43a1,1,0,0,0,0-.45,4.47,4.47,0,0,1,.67-1.05,3.48,3.48,0,0,0,.71-1.27c.07,0,.26-.11.56-.36s.62-.52,1-.84.7-.6,1-.88a4.58,4.58,0,0,0,.65-.61l.94-.29a4.25,4.25,0,0,1,.76-.27,1.7,1.7,0,0,0,.65-.28c.16,0,.5-.12,1-.22a4.69,4.69,0,0,1,1-.11c.15,0,.47-.14,1-.5s.73-.62.68-.78a3.1,3.1,0,0,0,1.11-.65c.51-.4,1-.83,1.54-1.3s1-.9,1.54-1.3a6.61,6.61,0,0,1,1.12-.76l.84-1c.46-.55.78-1,1-1.22s.55-.65,1.11-1.37a9,9,0,0,1,1.1-1.26,2.8,2.8,0,0,1,.67-1.06,3.08,3.08,0,0,0,.65-.94.27.27,0,0,0,.31-.18.27.27,0,0,1,.3-.17,5.08,5.08,0,0,0,1.35-.78c.58-.42,1-.61,1.09-.59a2.68,2.68,0,0,1,.87-.53c.24-.1.43-.18.59-.23l1,.16.32.05a1.09,1.09,0,0,0,.35-.05,2.55,2.55,0,0,0,.42.45.48.48,0,0,1,.21.42l-.23,1.41c0,.07,0,.2-.06.38a1,1,0,0,0,0,.5,1.83,1.83,0,0,0,0,.66c-.34.69-.61,1.22-.82,1.59s-.39.73-.56,1.07a3.46,3.46,0,0,0-.27.62c-.13.35-.27.79-.43,1.32a3.69,3.69,0,0,0-.21,1.24c-.07,0-.15.12-.23.4s-.17.61-.26,1-.2.71-.29,1.06-.16.64-.2.85c-.08.51-.26,1.27-.54,2.3s-.43,1.61-.45,1.75a6,6,0,0,0-.37,1.27c-.15.64-.27,1.31-.38,2s-.22,1.32-.31,1.89a3.12,3.12,0,0,1-.29,1.06,15.72,15.72,0,0,1-.26,2.29c-.18,1.08-.35,2.21-.5,3.41s-.33,2.31-.5,3.35a15.92,15.92,0,0,0-.25,2.23c-.14.87-.33,2.24-.56,4.12s-.47,3.86-.69,5.93-.45,4-.67,5.77-.34,3-.36,3.54-.19,1.37-.31,2.61-.27,2.52-.42,3.87-.26,2.63-.35,3.87-.15,2.12-.16,2.64l-.64,1.22a8.23,8.23,0,0,1-.25-1.53,7.41,7.41,0,0,1,0-1.4,7.18,7.18,0,0,1-.16-1.69c0-.81,0-1.64,0-2.49s0-1.65.06-2.43,0-1.31,0-1.61l-2.34,2.06a10.06,10.06,0,0,0-.4,1.49c-.16.71-.3,1.46-.43,2.25s-.25,1.55-.37,2.27a5.73,5.73,0,0,1-.34,1.39,4.22,4.22,0,0,1-.07,1.15c-.09.54-.2,1.08-.32,1.61s-.25,1-.37,1.55-.19.81-.21,1l-.92-.48Z"/><path class="cls-40" d="M1631.18,241.76a1.28,1.28,0,0,1-.29-.26l-.27-.38a1.26,1.26,0,0,0-.5,0l-.52.13a4.67,4.67,0,0,0-.58.13l-.79,4.86-.83.31a1.18,1.18,0,0,1-.34-.61,2,2,0,0,1-.13-.58,5.93,5.93,0,0,0,0-.83c0-.4,0-.83,0-1.26s0-.86,0-1.27a5,5,0,0,1,0-.94,4.65,4.65,0,0,1-1.14-.46,4.83,4.83,0,0,0-1.15-.46,4.78,4.78,0,0,1-.88-.37,5.1,5.1,0,0,0-.88-.37,1,1,0,0,0-.48-.46,2,2,0,0,1-.5-.36c-.14,0-.42-.25-.83-.69a10.84,10.84,0,0,1-.79-.91l-1.1-1.06a13.27,13.27,0,0,0-1-.94c-.12-.17-.36-.52-.71-1.06a6.28,6.28,0,0,1-.61-1q-.16-.36-.9-1.59t-1.11-1.74a1.34,1.34,0,0,1-.24-.53,1.38,1.38,0,0,0-.24-.54,2.56,2.56,0,0,1-.22-.7,11,11,0,0,1-.62-1.66c-.24-.77-.48-1.57-.72-2.39s-.48-1.57-.73-2.28a9.71,9.71,0,0,1-.44-1.4,4.62,4.62,0,0,0-.14-.8,2.78,2.78,0,0,1-.13-.91,10.76,10.76,0,0,1-.08-1.23,3.46,3.46,0,0,0-.18-1.25,9.22,9.22,0,0,0,.06-1.76c0-.74,0-1.15,0-1.22l.3-1.84.27-1.62a1.69,1.69,0,0,1,.32-.61,1.62,1.62,0,0,0,.32-.61c.1-.13.21-.28.35-.44a2.67,2.67,0,0,1,.46-.43,4.5,4.5,0,0,1,.64-.56,7.56,7.56,0,0,0,.77-.65c.35-.31.6-.46.74-.43a8.34,8.34,0,0,1,.84-.42c.48-.21.8-.35,1-.4a2.21,2.21,0,0,1,.82-.3,1.56,1.56,0,0,1,.56,0,.86.86,0,0,0,.34-.06,1.88,1.88,0,0,1,.68-.11.11.11,0,0,0,.09.13c.08,0,.11,0,.1.07s0,.06.1.07a.46.46,0,0,0,.31.16c.14,0,.36.25.67.67a3.68,3.68,0,0,0,.14.79,2.84,2.84,0,0,1,.13.91c0,.08,0,.26,0,.55s0,.61,0,.94,0,.66,0,1,0,.48,0,.55a4.72,4.72,0,0,1,.22,1.36c0,.67,0,1.05,0,1.12a3.05,3.05,0,0,0,.12,1,3.86,3.86,0,0,1,.12,1,12.93,12.93,0,0,1,.62,1.6c.25.74.49,1.52.73,2.34s.46,1.57.68,2.27a6,6,0,0,0,.51,1.3,3.37,3.37,0,0,0,.46,1.24,4.8,4.8,0,0,0,.79,1.29c.11.17.34.49.67,1l1,1.44,1,1.45a5.77,5.77,0,0,0,.79,1c0,.15.15.4.54.76l.86.8a5.33,5.33,0,0,0,.61.38,2.39,2.39,0,0,0,.62.27,2.61,2.61,0,0,0,1,.61,7.07,7.07,0,0,0,1,.39l.76.12.54.09c.22,0,.67-.15,1.33-.34l1.22-.35a11.52,11.52,0,0,1,.81-.87,8.46,8.46,0,0,1,.62-.78,3.75,3.75,0,0,1,.59-.57c.17-.12.47-.37.9-.74s.66-.63.68-.77.29-.4.57-.8.58-.81.87-1.24l.88-1.3.58-.85a6.25,6.25,0,0,0,1-1.28,5.05,5.05,0,0,0,.78-1.42c.12-.27.4-.82.83-1.64s.7-1.36.82-1.64a8.3,8.3,0,0,0,.61-1.34c.2-.56.3-.87.32-.94s.06-.27.15-.59.18-.65.27-1,.19-.7.29-1.06.15-.6.18-.74a7.64,7.64,0,0,0,.07-.82c0-.33,0-.68,0-1.06a5.65,5.65,0,0,1,.07-1.09,4.72,4.72,0,0,0-.2-1.2,8.14,8.14,0,0,0-.39-1.34c-.12-.16-.28-.41-.48-.74s-.37-.58-.49-.75a4.75,4.75,0,0,0-1-.78,8,8,0,0,1-1.14-.79,8.79,8.79,0,0,1-1.1-.4,6.27,6.27,0,0,0-1.1-.4l-2.16-.36-1.94-.32c0,.15-.1.47-.21,1s-.26,1-.42,1.54-.34,1.05-.54,1.57a11.39,11.39,0,0,1-.45,1.09l-.7.88a5.05,5.05,0,0,1-.08-1.17,10.51,10.51,0,0,1,0-1.16,10.4,10.4,0,0,1-.11-2.07,16.78,16.78,0,0,1,.12-2l-1.52-.25-.86,5.29a.67.67,0,0,1-.63-.88,6.18,6.18,0,0,1-.44-2.4,13.32,13.32,0,0,1,0-2.33l-.76-.12-.54-.09c-.07,0-.48,0-1.22,0a9.22,9.22,0,0,1-1.76-.06,3.72,3.72,0,0,1-1.3.17,6.8,6.8,0,0,0-1.18.08,6.62,6.62,0,0,0-1.81.21,6.47,6.47,0,0,1-1.81.2c0,.07-.17.16-.48.25s-.64.2-1,.29-.69.16-1,.22a3.42,3.42,0,0,1-.62.06,4.27,4.27,0,0,1-1.82-.08l-2.1-.34c0-.14.15-.62.4-1.43s.38-1.36.43-1.65a1.28,1.28,0,0,0,.41-.48,6.6,6.6,0,0,1,.45-.71,19,19,0,0,0,1.74-1.15,17.35,17.35,0,0,0,1.65-1.28,2.77,2.77,0,0,0,.7-.22l1.25-.52,1.2-.52a1.89,1.89,0,0,1,.64-.23l1.39-1c.66-.48,1.4-1,2.19-1.58s1.58-1.14,2.34-1.72,1.34-1,1.76-1.32.7-.62,1-.94c.54-.57,1.07-1.11,1.6-1.62a4.91,4.91,0,0,0,1-.72c.43-.38.87-.78,1.31-1.23s.86-.86,1.26-1.23a8.47,8.47,0,0,1,.84-.75,3,3,0,0,0-.91.12c-.46.11-.77.19-.92.24-.85.23-2.31.58-4.39,1.06s-4.28,1-6.63,1.57l-6.64,1.63c-2.08.51-3.54.88-4.39,1.11l-2.92-.47a4.85,4.85,0,0,0-.12-.58,1.89,1.89,0,0,1-.13-.57l.14-.87.07-.43a4.11,4.11,0,0,0,.3-.5,1.88,1.88,0,0,0,.33-.62,9,9,0,0,0,.84-.74,2.27,2.27,0,0,0,.63-.79l1-.72a4.4,4.4,0,0,1,1-.61,5.24,5.24,0,0,1,1-.5l1.13-.48c0-.07.18-.16.49-.26a4.27,4.27,0,0,1,.57-.12c1.54-.34,3.67-.85,6.4-1.51s5.46-1.3,8.19-1.93l7.25-1.64,3.73-.83a7.12,7.12,0,0,1,1.23-.35c.57-.13,1.16-.24,1.77-.32s1.17-.18,1.71-.28a4.09,4.09,0,0,1,1-.11l1,.16,1.3.21.54.76-.21,1.29-.16,1c-.16.05-.41.38-.77,1a7.72,7.72,0,0,1-.81,1.2,6.87,6.87,0,0,0-.79.76,2.42,2.42,0,0,1-.77.65l-2.7,2.61q-1.9,1.84-4.07,3.88l-4.06,3.82c-1.27,1.2-2.16,2-2.67,2.45l11.12,1.82a4.47,4.47,0,0,1,.57.2l1,.38c.34.13.69.28,1,.45a6.77,6.77,0,0,1,.71.39,6.13,6.13,0,0,1,1.37.45,7.53,7.53,0,0,0,.94.37c.26.2.68.47,1.25.82a4.39,4.39,0,0,1,1,.78l2.43,3.39a4,4,0,0,0,.36,1.22c.26.67.44,1.13.55,1.37a13.38,13.38,0,0,0,0,1.43,14.23,14.23,0,0,1,0,1.55l-.3,1.84-.27,1.62c0,.14-.18.65-.47,1.53A13.84,13.84,0,0,0,1658,214a2.61,2.61,0,0,0-.61,1,2.64,2.64,0,0,1-.61,1,4.49,4.49,0,0,1-.49,1.31c-.27.51-.54,1-.8,1.53s-.52,1-.74,1.43a3,3,0,0,1-.45.76,7.79,7.79,0,0,0-.8,1.14c-.35.57-.73,1.18-1.13,1.81s-.79,1.24-1.18,1.81a11.61,11.61,0,0,1-.85,1.13c-.09.13-.28.36-.55.69s-.58.68-.9,1.07l-1,1.17a5.71,5.71,0,0,0-.64.89c0,.08-.24.3-.66.67s-.74.62-.9.74a6.74,6.74,0,0,1-1.1,1.26c-.52.51-.83.79-.91.85l-1.26.9-1.82,1.31q-.95.67-1.77,1.38c-.56.46-1,.78-1.21,1a1.15,1.15,0,0,0-.47.15c-.24.11-.52.24-.85.41s-.62.33-.9.46a4.79,4.79,0,0,0-.55.3c-.07,0-.28.12-.62.4a4.06,4.06,0,0,0-.65.61l-1.33,8.1a4.76,4.76,0,0,1-.24.79c-.13.39-.26.79-.36,1.22s-.23.83-.37,1.21a6.7,6.7,0,0,0-.22.69l-.68-.56a18.33,18.33,0,0,0,.2-2c0-.59,0-1.14.05-1.66s0-1,0-1.33c0-.14,0-.49.06-1s.06-1.15.13-1.81.13-1.27.19-1.85S1631.15,242,1631.18,241.76Z"/><path class="cls-40" d="M1667.22,248.43a3.93,3.93,0,0,1-.62-.26,2.84,2.84,0,0,0-.73-.29c-.12-.17-.29-.38-.5-.64s-.39-.47-.51-.63a5.1,5.1,0,0,1,0-1.16c.06-.55.11-1.13.18-1.75s.12-1.18.16-1.69.09-.87.13-1.09a10.58,10.58,0,0,1,.07-1.48c.07-.62.13-1.24.2-1.85s.13-1.37.2-2.24a15.77,15.77,0,0,0,.46-2.48c.17-1.3.35-2.71.52-4.23s.36-3,.56-4.4.34-2.44.44-3.09c0-.21.12-.68.23-1.4s.25-1.51.39-2.38.28-1.71.42-2.53.23-1.42.29-1.79a4.45,4.45,0,0,0,.3-1.17c.09-.57.19-1.16.29-1.78s.21-1.18.34-1.72a4.72,4.72,0,0,1,.35-1.1.51.51,0,0,1-.27-.1.22.22,0,0,0-.15-.08l-.34.05c-.15,0-.54.23-1.18.75a10.12,10.12,0,0,0-1.1,1l-.95.4a11.3,11.3,0,0,0-1.26.57,10.07,10.07,0,0,1-1.19.52,1.77,1.77,0,0,1-.64.17,9.42,9.42,0,0,1-1.1.65,11.4,11.4,0,0,1-1.49.65l-1.41.49a3.2,3.2,0,0,1-.76.21,2.2,2.2,0,0,1-.56,0,2.53,2.53,0,0,1-.77,0l-1.19-.19-.34-.61.18-1.08a.89.89,0,0,1,0-.45c0-.15,0-.29.07-.43a1,1,0,0,0,0-.45,4.24,4.24,0,0,1,.67-1.06,3.4,3.4,0,0,0,.71-1.27c.07,0,.26-.1.56-.35s.62-.53,1-.84.69-.61,1-.88a3.76,3.76,0,0,0,.66-.62l.93-.29a4.64,4.64,0,0,1,.77-.26,2,2,0,0,0,.65-.28c.16-.05.5-.12,1-.22a3.63,3.63,0,0,1,1-.11c.14,0,.47-.15,1-.51s.73-.62.68-.77a3.26,3.26,0,0,0,1.11-.65c.5-.4,1-.83,1.54-1.3s1-.91,1.54-1.3a6.61,6.61,0,0,1,1.12-.76c.1-.13.38-.48.84-1s.78-1,1-1.23.55-.64,1.11-1.37a9,9,0,0,1,1.1-1.26,2.87,2.87,0,0,1,.67-1,3.07,3.07,0,0,0,.65-1,.25.25,0,0,0,.31-.17.25.25,0,0,1,.3-.17,5.72,5.72,0,0,0,1.35-.78c.58-.42.95-.62,1.09-.6a2.71,2.71,0,0,1,.87-.52,5.25,5.25,0,0,1,.59-.24l1,.16.32.06a.86.86,0,0,0,.34-.06,2.67,2.67,0,0,0,.43.46.48.48,0,0,1,.21.42l-.23,1.4c0,.08,0,.2-.06.38a1,1,0,0,0,0,.5,2.16,2.16,0,0,0,0,.67c-.34.69-.61,1.21-.82,1.59s-.39.73-.56,1.07a3.46,3.46,0,0,0-.27.62c-.13.35-.28.78-.43,1.31a3.77,3.77,0,0,0-.21,1.24c-.07,0-.15.13-.23.41s-.17.6-.27,1-.19.71-.28,1.07-.16.63-.2.85c-.08.5-.26,1.27-.54,2.3s-.43,1.61-.45,1.75a6.29,6.29,0,0,0-.38,1.27c-.14.64-.26,1.3-.38,2s-.21,1.31-.3,1.89a3.48,3.48,0,0,1-.29,1.06,15.77,15.77,0,0,1-.26,2.28c-.18,1.08-.35,2.22-.5,3.41s-.33,2.31-.5,3.36a15.62,15.62,0,0,0-.25,2.23c-.14.86-.33,2.24-.56,4.12s-.47,3.86-.7,5.93-.45,4-.66,5.76-.34,3-.36,3.55-.19,1.37-.32,2.6-.26,2.53-.41,3.87-.26,2.64-.35,3.88-.15,2.12-.16,2.63l-.64,1.23a8.37,8.37,0,0,1-.25-1.54,7.31,7.31,0,0,1-.05-1.39,6.73,6.73,0,0,1-.16-1.69c0-.82,0-1.65,0-2.49s0-1.66.06-2.43,0-1.31,0-1.61l-2.34,2.06a9.53,9.53,0,0,0-.41,1.48c-.15.71-.29,1.47-.42,2.26s-.25,1.55-.37,2.27a5.48,5.48,0,0,1-.34,1.38,3.94,3.94,0,0,1-.08,1.15c-.08.54-.19,1.08-.31,1.61l-.37,1.55q-.18.75-.21,1l-.92-.48Z"/><path class="cls-40" d="M1694.54,249.47l-1.29-.22-.71-.06c-.41,0-.87,0-1.38-.06s-1.05,0-1.61,0l-1.29.06a5.83,5.83,0,0,0-.82,0c-.41,0-.83,0-1.27,0a10.11,10.11,0,0,0-1.21,0h-.67c-.6,0-1.42.08-2.45.1s-2.11,0-3.21,0-2.1-.05-3,0a14.25,14.25,0,0,1-1.55,0,7.16,7.16,0,0,1-1,.18c-.49.06-1,.13-1.58.18s-1.08.1-1.57.13a5,5,0,0,1-1,0l-1.4-.22-1.51-.25a1.66,1.66,0,0,0-.11-.68,1.72,1.72,0,0,1-.11-.69l0-.21.06-.33a6.73,6.73,0,0,1,.66-1,10.15,10.15,0,0,0,.8-1.2,5.86,5.86,0,0,0,.79-.75,2.42,2.42,0,0,1,.78-.65c0-.15.36-.4,1-.78a9,9,0,0,1,1.44-.71,1.38,1.38,0,0,0,.59-.18l1-.44a10.28,10.28,0,0,1,1-.39,1.89,1.89,0,0,1,.57-.13l.62-.4,1.17-.69c.45-.26.89-.5,1.34-.72s.78-.39,1-.5c0-.15.13-.26.33-.34s.31-.18.34-.33a15.79,15.79,0,0,1,1.28-1.07c.59-.45,1.16-.91,1.72-1.38s1.07-.88,1.53-1.24l.83-.64c.25-.18.72-.59,1.42-1.21s1.17-1.07,1.43-1.32l.88-1c.4-.45.83-.9,1.27-1.35s.86-.85,1.26-1.23a8.47,8.47,0,0,1,.84-.75c.35-.31.89-.82,1.63-1.51s1.49-1.42,2.24-2.18,1.44-1.48,2.07-2.16l1.21-1.3c.28-.32.82-.92,1.63-1.78s1.67-1.79,2.61-2.79,1.84-2,2.69-2.88,1.5-1.62,2-2.07a9.47,9.47,0,0,1,1-1.28c.55-.65.92-1.1,1.11-1.37l.63-.78,1-1.27c.37-.46.7-.89,1-1.28a2.87,2.87,0,0,0,.47-.81,2.07,2.07,0,0,0,.52-.81,4.92,4.92,0,0,0,.3-.83,1.69,1.69,0,0,1,.2-.53,1.7,1.7,0,0,0,.32-.61,2.26,2.26,0,0,0-.06-.67,1.94,1.94,0,0,1,0-.68c0-.07,0-.33,0-.78a2,2,0,0,0-.24-.92,4.84,4.84,0,0,0-.61-1l-.73-1a2,2,0,0,0-.58-.48,2.54,2.54,0,0,0-.62-.27c-.21-.1-.66-.31-1.34-.6a8,8,0,0,0-1.47-.52l-1.15-.08c-.7,0-1.19-.08-1.48-.13,0,.15,0,.38-.06.71s0,.72,0,1.16a7.23,7.23,0,0,1-.1,1.26,1.87,1.87,0,0,1-.24.79,1.77,1.77,0,0,1-.75,1.21.66.66,0,0,0-.14-.47.6.6,0,0,1-.15-.47,1.74,1.74,0,0,1-.1-.73c0-.41,0-.84,0-1.28a11.62,11.62,0,0,1,0-1.21,6.38,6.38,0,0,1,.07-.77c-.15,0-.4-.08-.75-.17a6.11,6.11,0,0,0-.75-.18,1.61,1.61,0,0,0-.44,0,1.3,1.3,0,0,1-.44,0l-.54-.08-1,.05a7.49,7.49,0,0,0-1.35.12,3.36,3.36,0,0,0-1.12,0,3.84,3.84,0,0,1-.9.07,2.7,2.7,0,0,1-.66.33c-.28.11-.42.23-.45.37a.67.67,0,0,0-.47.15l-.25.18a8.68,8.68,0,0,0,0,1.17,6.83,6.83,0,0,0,.22,1.42,5.24,5.24,0,0,0,.21,1.09,2.48,2.48,0,0,0,.42,1.12,7.86,7.86,0,0,0,.36.83c.19.41.39.82.57,1.26s.38.86.57,1.26a1.74,1.74,0,0,1,.26.82c0,.15.13.41.26.76s.25.72.37,1.11.25.76.38,1.12a2.53,2.53,0,0,0,.28.65l-.11.65-.09.54a3.5,3.5,0,0,1-.75,1.21c-.47.59-.78.91-.93.95a3.61,3.61,0,0,1-.59.57,9,9,0,0,1-1,.72l-1.11.71-.68.44a2.87,2.87,0,0,0-1,.33,2.5,2.5,0,0,1-1.27.29l-.25.18a.86.86,0,0,1-.56,0l-.49-.41a3.71,3.71,0,0,1-.57-.21c-.32-.12-.46-.26-.44-.4a4.91,4.91,0,0,1-.44-1.35,4.9,4.9,0,0,0-.45-1.34c-.07,0-.21-.26-.43-.74s-.44-1-.68-1.61-.46-1.14-.67-1.66-.34-.85-.39-1a4,4,0,0,0-.3-1.21,6.76,6.76,0,0,0-.51-1.25,4.71,4.71,0,0,0,0-1.06,4.37,4.37,0,0,1-.07-.95l.39-2.38.35-2.16a2.67,2.67,0,0,1,.48-.91c.29-.4.62-.81,1-1.23s.69-.83,1-1.23a8.93,8.93,0,0,1,.7-.88,4.47,4.47,0,0,1,.71-.66c.39-.3.83-.62,1.32-1s1-.66,1.55-1,.94-.62,1.19-.8c0-.14.29-.32.81-.53l1.13-.48,1.11-.38c.59-.19,1.23-.39,1.93-.57s1.35-.37,2-.56a13.31,13.31,0,0,0,1.3-.45l.68-.11a3.09,3.09,0,0,1,1-.06,6.75,6.75,0,0,0,1.18-.09q1-.12,1.41-.15a7.68,7.68,0,0,0,1.67,0,10,10,0,0,1,1.34-.06l4.21.69,3.88.64a3.91,3.91,0,0,1,.72.39,2.91,2.91,0,0,0,.81.41,2.13,2.13,0,0,1,.82.41c.33.24.66.5,1,.77s.63.55.92.82a4.84,4.84,0,0,0,.63.54l.47.53a.9.9,0,0,0,.08.51,2.26,2.26,0,0,0,.3.55,4.07,4.07,0,0,0,.43.73l.36,1.17a4.73,4.73,0,0,1,.2.81l-.42,2.59-.44,2.7a5.1,5.1,0,0,1-.51,1.08,13,13,0,0,1-.76,1.26,9.47,9.47,0,0,1-.7,1.22,15.78,15.78,0,0,0-.86,1.52c-.18.19-.57.7-1.19,1.52s-1,1.33-1.19,1.52-.46.56-.84,1.08a16.79,16.79,0,0,1-1.32,1.62c-.49.55-.95,1.06-1.36,1.55a7.41,7.41,0,0,0-.78,1l-1.27,1.34-2.21,2.3c-.8.83-1.56,1.63-2.27,2.4a20.55,20.55,0,0,0-1.51,1.75,14.85,14.85,0,0,1-1,1.21c-.49.55-1,1.1-1.54,1.64l-1.52,1.52a4,4,0,0,1-1,.79c-.28.32-.92.94-1.91,1.84s-2.07,1.9-3.2,3l-3.29,3.12c-1,1-1.8,1.78-2.26,2.3a3.27,3.27,0,0,1-.59.56l-1,.79c-.34.28-.64.52-.89.74s-.4.36-.41.43a9.55,9.55,0,0,1-1.13,1.2,13.35,13.35,0,0,1-1.11,1l1.3.22,1.19.19a13.44,13.44,0,0,0,1.48.08c.77,0,1.64,0,2.6,0h2.66a15.12,15.12,0,0,0,1.56-.08c.15,0,.48,0,1,.05s1,0,1.59.09,1.1.09,1.65.11.94,0,1.15.07l.65-.55c-.11-.24-.27-.66-.47-1.24s-.39-1.21-.58-1.87-.38-1.3-.57-1.93a10.13,10.13,0,0,1-.34-1.27,3.1,3.1,0,0,0-.13-.91,2.78,2.78,0,0,1-.13-.91l.19-1.18.16-1a1.77,1.77,0,0,1,.75-1.2,1.08,1.08,0,0,1,.24-.46,3.12,3.12,0,0,1,.46-.43,5.37,5.37,0,0,1,.65-.56c.16-.12.42-.33.77-.65s.59-.45.74-.43.47-.18,1-.4a6.34,6.34,0,0,0,.84-.41,1.8,1.8,0,0,1,1.38-.33l.6-.24c0,.08,0,.12.09.13s.1,0,.1.07,0,.06.1.07a.39.39,0,0,0,.3.16,1.19,1.19,0,0,1,.42.18c.32.28.48.45.47.52a8.63,8.63,0,0,0,.39,1.29l.69,1.88c.23.63.43,1.25.59,1.87s.25,1,.29,1.27l1.46,3.23a6.82,6.82,0,0,0,.75,1.18c.45.62.93,1.31,1.44,2.06s1,1.46,1.54,2.13a16.56,16.56,0,0,0,1.15,1.41,4,4,0,0,0,.5.31,6.88,6.88,0,0,0,.72.34c0,.14.25.31.81.52a10.11,10.11,0,0,1,1.14.46,5,5,0,0,1,.58.2,6.51,6.51,0,0,0,.94.32c.32.1.75.26,1.31.5a1.49,1.49,0,0,1,.6.37,4.24,4.24,0,0,1,.57.59c.14,0,.31.22.51.59s.37.56.52.58l0,.21-.07.44a2.05,2.05,0,0,0-.53.85,4.54,4.54,0,0,1-.42.88,2.81,2.81,0,0,1-.55.68,10.13,10.13,0,0,0-.68.78l-1.51,1.08-1.51.75a3.43,3.43,0,0,1-1.24.46c-.09.14-.37.22-.82.26a1.89,1.89,0,0,0-.92.23l-1.3-.21-1.08-.17a5.81,5.81,0,0,0-1-.5c-.56-.24-1.14-.49-1.77-.74s-1.21-.47-1.77-.67a7.15,7.15,0,0,0-1-.34l-4.21-.69-3.89-.64c-.07,0-.23.08-.49.26l-.25.18-.6,3.67a5.2,5.2,0,0,1-.44,1,5.5,5.5,0,0,0-.45,1,.49.49,0,0,1-.33-.33c-.08-.2-.19-.31-.34-.33a3.77,3.77,0,0,0-.14-.81,2.76,2.76,0,0,1-.13-.9c0-.22.06-.84.08-1.87a17.57,17.57,0,0,1,.09-1.87l-1.19-.2c-.1.58-.28,1.6-.56,3.07s-.58,3-.92,4.62-.68,3.12-1,4.54-.6,2.41-.76,3a10.8,10.8,0,0,1-.32,1.28c-.16.49-.31,1-.47,1.47s-.33,1.13-.5,1.69l-1-.15,3.25-19.87Z"/></g></svg>