<svg xmlns="http://www.w3.org/2000/svg" viewBox="0 0 235.1 70.32"><defs><style>.cls-1{fill:#1d1d1b;}</style></defs><g id="Layer_19" data-name="Layer 19"><path class="cls-1" d="M15.48,33.06c-.54-.12-1.08-.18-1.62-.3.12.72.3,1.44.42,2.1.54,2.94,1.14,5.94,1.44,8.88a11.62,11.62,0,0,1-.3,4.32,6.31,6.31,0,0,1-1.8,2.76c-.66.54-1.92,1.2-2.64.3a5.81,5.81,0,0,1-.78-3.06c-.12-.72-.24-1.5-.3-2.28a22.84,22.84,0,0,1-.72-3.06,17.46,17.46,0,0,0,.24,1.86c.12,1.08.24,2.1.42,3.12a6.49,6.49,0,0,1,.06,2.4c0,.06,0,.06-.06,0a6.54,6.54,0,0,1-.6-2.64L8.7,44.34c-.3-2-.66-4.08-1-6.18-.42-2.46-.78-5-1.14-7.44A50.5,50.5,0,0,1,1.08,28.2c-.06-.06,0-.18.12-.12,1.74.84,3.54,1.56,5.34,2.22-.06-.36-.18-.66-.24-1-1.38-.54-2.7-1.14-4-1.74a2.64,2.64,0,0,1-1-3.6,2.71,2.71,0,0,1,3-1.2l.36.18c-.72-2.64-1.5-5.28-2.4-7.86a1.83,1.83,0,0,1,1.26-2.28,1.44,1.44,0,0,1,.6-1.26c2-1.38,4.56-.6,6.48.36s3.84,2.22,5.7,3.42a95.88,95.88,0,0,1,10.74,8.4,1.54,1.54,0,0,1,.6,1.38,5.66,5.66,0,0,1,.72,1.8,4,4,0,0,1-1.14,3.72C25.08,34.5,19.2,33.66,15.48,33.06Zm-.66-11.88c-1.32-.66-2.64-1.32-4-1.92.6,2.28,1.2,4.56,1.68,6.9,1.26.42,2.52.78,3.84,1.08a20.55,20.55,0,0,0,6.06.48,7.39,7.39,0,0,0,1.2-.12l.48-.12a1.26,1.26,0,0,0-.24-.36A11.64,11.64,0,0,0,20,24.18C18.3,23.16,16.56,22.14,14.82,21.18Zm-1.56,27.6.12.18a2.15,2.15,0,0,0,.6-.42,9.37,9.37,0,0,0,.18-5.88L13.8,40.8c-.06.06.06.78,0,.78l.12,1.2C14.1,44.76,14.22,47,13.26,48.78Zm.36-17.16c.06.18.06.36.12.48a2.55,2.55,0,0,0,.66.12,28.63,28.63,0,0,0,7.14.48l2.28-.36c0-.06-1.26.06-1.26,0a21.57,21.57,0,0,1-5.64-.12C15.84,32.1,14.76,31.86,13.62,31.62Z"/><path class="cls-1" d="M51.9,36.48c-.3,3.3-.84,7-2.82,9.78a14.44,14.44,0,0,1-2.22,2.46,7.29,7.29,0,0,1-4.2,2.16,10.91,10.91,0,0,1-2,0,7.46,7.46,0,0,1-5.82-1.68c-2.82-2.4-4-6-4.62-9.54a33.24,33.24,0,0,1,3.9-22.32c.06,0,.06-.06.12-.12a16.92,16.92,0,0,1,2.4-4.32c.06-.12.18-.06.12.06a13.12,13.12,0,0,0-1,1.8c-.3.66-.54,1.32-.78,2a1.28,1.28,0,0,1,.48,0c1-2.22,2.46-4.08,4.38-4.5a5.46,5.46,0,0,1,2.34-.48,3.79,3.79,0,0,1,2.58.24,6.09,6.09,0,0,1,1.8,2.28,1.1,1.1,0,0,1,1.38.48,38.09,38.09,0,0,1,2.28,5,44.48,44.48,0,0,1,1.2,5.46A41.33,41.33,0,0,1,51.9,36.48ZM45.36,34c-.24-3-.42-6.06-.9-9-.18-.9-.3-1.8-.48-2.64-.36-1.08-.72-2.16-1.14-3.18a12.84,12.84,0,0,0-.6-1.32A.45.45,0,0,0,42,17.7h-.3a10.85,10.85,0,0,0-.78,2,41.22,41.22,0,0,0-1.5,6.66,48.47,48.47,0,0,0,.24,13.5,2.62,2.62,0,0,1-.24,1.8c-1.68-7.8-1.56-16.62,1.86-23.82A3.32,3.32,0,0,0,40.44,19,27.07,27.07,0,0,0,38,26.16c-.06.12-.06.18-.12.24-.24,1.38-.36,2.76-.48,4.14a45,45,0,0,0,1.2,12.06,2.22,2.22,0,0,1-.66.3,2.84,2.84,0,0,1-2.1-.36c1,2,3.06,4.44,5.64,3.66a2.94,2.94,0,0,0,1.62-1.44,8.61,8.61,0,0,0,.84-2A25.74,25.74,0,0,0,45.36,34Z"/><path class="cls-1" d="M56.22,14.16a5.94,5.94,0,0,1,1.5-1.5,1.59,1.59,0,0,1,.36-.3A6.52,6.52,0,0,1,63.36,11a4.64,4.64,0,0,1,3.42,2.88,1.45,1.45,0,0,1-.66,1.62A8.52,8.52,0,0,1,62.94,17a4.25,4.25,0,0,1-3.18,1.14A7.24,7.24,0,0,1,57,17.64c-.54-.18-1.38-.66-1.5-1.26A2.78,2.78,0,0,1,56.22,14.16Zm5.4,3.12a6.28,6.28,0,0,1-2.88.06,2.18,2.18,0,0,1-1.8-3.12,7.64,7.64,0,0,0-.78,1.14c-.24.54-.3,1,.18,1.38a3.15,3.15,0,0,0,1.14.66,7.71,7.71,0,0,0,2,.42C61.26,17.82,61.68,17.28,61.62,17.28ZM64.5,48.84A1,1,0,0,1,63.9,50a3.86,3.86,0,0,1-4.38-.78L59.4,49a3.58,3.58,0,0,1-.9-.54c-1.26-1.2-1.32-3-1.56-4.68a99.5,99.5,0,0,1-.78-13.38,59.52,59.52,0,0,1,.18-6.54,5.46,5.46,0,0,1,1.26-3,2.35,2.35,0,0,1,.48-.6c1.26-.84,4.32-3.06,5.28-.66a.82.82,0,0,1,1,.72c0,2.22-.12,4.38-.12,6.6s.12,4.38.18,6.6A15,15,0,0,0,64.5,35c.12-.06.3,2,.42,2-.18-4.26-.18-10.56.06-14.82,0-.12.42-.18.42-.12a159.12,159.12,0,0,0,1.38,25.62c.06.6-.9.66-1,.06A2.59,2.59,0,0,1,64.5,48.84ZM58.14,32v.72c.12,1.44.3,2.88.48,4.32h.18c0-2.7-.06-5.4,0-8.1a19.43,19.43,0,0,1,.78-6.18h-.06a1.23,1.23,0,0,0-.42.6C58.2,26,58.26,29.22,58.14,32Z"/><path class="cls-1" d="M70.38,31.26c-.18-4.26-.24-8.58-.3-12.9a7,7,0,0,1,.48-3.12c-.06,1.92,0,3.84.06,5.76.06,4.14.18,8.34.3,12.54L71.46,47s-.24.12-.48-2.46C70.62,40.32,70.56,35.58,70.38,31.26ZM92.7,51.18c-1.62-.72-2-2.58-2.28-4.14l-.36-2L79.62,26.34c-.36-.42-.66-.9-1-1.32.06,4.08,0,8.16,0,12.24.12,2.4.18,4.8.24,7.2.06,1.86.72,5.34-1.74,5.7a2.89,2.89,0,0,1-3.42,1.26,3,3,0,0,1-1.68-1.14c-.3-5-.48-10.08-.66-15.12-.18-4.08-.24-8.22-.36-12.3-.06-2.64-.18-5.28,0-7.86a2.52,2.52,0,0,1,1.14-.54,2.4,2.4,0,0,1,.48-1.38c1.86-2.46,5.28,1.08,6.42,2.58a69.82,69.82,0,0,1,5.34,8.52c1.38,2.34,2.64,4.74,3.84,7.2a1.19,1.19,0,0,1,.12.6l1,1.86c-.3-3-1-6.18-1.5-9.24-.42-2.16-.78-4.32-1.38-6.48-.3-1.14-.84-2.28-.18-3.48a2.94,2.94,0,0,1,1-1.08c0-.06.06-.06.06-.12.72-1.32,2.52-1.2,3.54-.48a1.08,1.08,0,0,1,.42.3c.24,1.14.6,2.28.9,3.42a91.8,91.8,0,0,1,2.1,10.74c1.2,7.32,1.86,14.76,2.34,22.14a3.54,3.54,0,0,1-2.76,1.62A1.22,1.22,0,0,1,92.7,51.18ZM77.52,41.82a.19.19,0,0,0-.12.06l-.06,3.6c0,1,.6,2.34.24,3.84a3.77,3.77,0,0,0,.48-2c-.06-1.14-.12-2.34-.24-3.54,0-.72-.06-1.38-.12-2.1ZM97,49.14a230.66,230.66,0,0,0-4.56-34,.61.61,0,0,1,.18-.66.65.65,0,0,1,1.14.24A152.42,152.42,0,0,1,97.2,46.38,16.89,16.89,0,0,1,97.26,49C97.14,49,97.08,49,97,49.14Z"/><path class="cls-1" d="M131.28,16.26A3.39,3.39,0,0,1,130,19.08a2.37,2.37,0,0,1-.9.36.61.61,0,0,1-.42.24c-3.06.6-6.06,1.14-9.12,1.56,0,2.64-.06,5.28-.06,7.92,0,3.66.06,7.32.06,11,.06,2.1.18,4.2.24,6.3-.12,1.44-.36,2.88-1.44,3.72V50c.06-.84.06-1.68.12-2.52V45.24a34.7,34.7,0,0,1-.72,4,2.65,2.65,0,0,1-3.18,1.68c-2.52-.78-3.06-3.54-3.18-5.88-.18-3.06-.12-6.18,0-9.24s.36-6.18.48-9.3l.12-2.64V21.9h-2.34c-1.62,0-3.24-.06-4.8-.18a9.52,9.52,0,0,1-3.66-1,5.28,5.28,0,0,1-1.92-2.34,3.19,3.19,0,0,1-1.56-3.54,3,3,0,0,1,2.88-2.22c3.3.3,6.54.54,9.84.54,0-.06.06-.12.06-.18a89.17,89.17,0,0,1-9.72-1.08c-.18,0-.12-.36.06-.3A175.71,175.71,0,0,0,126,11.16c.66-.12,1.26-.18,1.86-.24a5.78,5.78,0,0,1,1,0c.9-.12,1.8-.18,2.7-.3.54-.06.72,1,.12,1.08a1,1,0,0,0-.42.06,1.26,1.26,0,0,1,.36.24,2.11,2.11,0,0,1-.12,3.66A1.8,1.8,0,0,1,131.28,16.26Zm-23.22,4a36.61,36.61,0,0,1-7.14-1.38,6.34,6.34,0,0,0,4,1.38A28.11,28.11,0,0,0,108.06,20.28Z"/><path class="cls-1" d="M140.88,30.48l-.06.24a2.79,2.79,0,0,1-4.26,1.44.83.83,0,0,1-.24-.18.62.62,0,0,1-.6-.42,1.78,1.78,0,0,1-.12-.6,2,2,0,0,1-.24-1,2.52,2.52,0,0,1,.36-1.26,4.07,4.07,0,0,1,.72-.72l.36-.24a1.72,1.72,0,0,1,1.32-.48h.3a2.6,2.6,0,0,1,2.22,1.56A1.48,1.48,0,0,1,140.88,30.48Zm0,18.36-.06.24a2.79,2.79,0,0,1-4.26,1.44.83.83,0,0,1-.24-.18.62.62,0,0,1-.6-.42,1.78,1.78,0,0,1-.12-.6,2,2,0,0,1-.24-1,2.52,2.52,0,0,1,.36-1.26,4.07,4.07,0,0,1,.72-.72l.36-.24a1.72,1.72,0,0,1,1.32-.48h.3a2.6,2.6,0,0,1,2.22,1.56A1.48,1.48,0,0,1,140.88,48.84Z"/><path class="cls-1" d="M178.31,47.4a4.32,4.32,0,0,1-.17,2,2.74,2.74,0,0,1-2.64,1.86.83.83,0,0,1-.66-.3A3.73,3.73,0,0,1,174,51c-3.42-.48-3.07-5.94-3.24-8.4a104.9,104.9,0,0,1-.06-12.42c.06-1,.18-2,.23-3-1,.72-2,1.44-3.11,2.1-1.74,1-3.78,1.86-5.88,1.5a3.41,3.41,0,0,1-2.4-4.92c.84-1.62,2.76-2.22,4.26-3a26.57,26.57,0,0,0,7.5-5l1.38-1.26c0-.3.12-.54.17-.84A2.57,2.57,0,0,1,176,14H176a.78.78,0,0,1,1.2.78,2.3,2.3,0,0,1,.66,1.68,120.84,120.84,0,0,0-1.25,14,62.18,62.18,0,0,0,.12,7c0,.24.05.48.05.72.07-2.34.12-4.74.24-7.14.13-2.64.3-5.22.54-7.8.13-1.32.25-2.64.42-4a12.45,12.45,0,0,1,.42-2.88c.06-.06.18-.06.18.06a13.53,13.53,0,0,1,0,3.54c-.35,8.88-.06,17.82.07,26.7A1.06,1.06,0,0,1,178.31,47.4Z"/><path class="cls-1" d="M215.27,45.54a38.21,38.21,0,0,1-30.35,4,3.36,3.36,0,0,1-2.28-4,3.26,3.26,0,0,1,4-2.28c1.14.36,2.34.72,3.48,1a30.71,30.71,0,0,0,11.46.24l1.8-.36a32.86,32.86,0,0,0,3.42-1,19.66,19.66,0,0,0,3.65-1.56c.3-.54-4.86-2.4-5.27-2.52a25.16,25.16,0,0,0-6.67-.84c-1.08,0-2.58.42-3.59.18a26.86,26.86,0,0,0-5.64,1.5,3.09,3.09,0,0,1-3.78-2.16,3.14,3.14,0,0,1,2.16-3.78l2-.72c.36-.12.66-.3,1-.42,4.86-2.1,9.78-4.62,14.39-7.14.9-.48,1.8-1,2.65-1.56l.05-.06a2.21,2.21,0,0,1-.3.06c-1,.18-1.86.36-2.82.6-2.34.48-4.73.9-7.07,1.38-1.26.3-2.46.54-3.72.78a18.58,18.58,0,0,0-3.66.54,7.32,7.32,0,0,1-1,.42,5,5,0,0,1-1.26.36,3,3,0,0,1-3.3-1.38,2.9,2.9,0,0,1,.42-3.54c1.8-1.68,4.44-2.46,6.66-3.24a43.58,43.58,0,0,1,12.72-2.28,17.3,17.3,0,0,1,7,.78,2.55,2.55,0,0,1,1.2,3.18,1.48,1.48,0,0,1,.24.66c.54,2.58-1.92,4.2-3.78,5.46A61.89,61.89,0,0,1,203,31.5l-.95.6a26.48,26.48,0,0,1,5.22,1.14A18.28,18.28,0,0,1,214.43,37C216.53,39.06,218.63,43.56,215.27,45.54Z"/></g></svg>