<svg xmlns="http://www.w3.org/2000/svg" viewBox="0 0 512 358"><defs><style>.cls-1{fill:#706f6f;}.cls-2{fill:#be1622;}.cls-3{fill:#1d1d1b;}</style></defs><g id="Layer_19" data-name="Layer 19"><rect class="cls-1" x="31" y="162" width="326" height="33" rx="9.46"/><path class="cls-2" d="M148.73,80.81l24.48-19.27,24.51-19.29a31.17,31.17,0,0,0-49,38.56Z"/><path class="cls-2" d="M196.85,42.07l23.64,20.31L244.15,82.7c11.59-13.5,10.4-33.54-2.66-44.76S208.45,28.57,196.85,42.07Z"/><polygon class="cls-2" points="148.73 80.81 197.41 41.87 244.15 82.7 196.85 123.83 148.73 80.81"/><path class="cls-2" d="M30.28,84.22,54.77,65,79.28,45.67a31.17,31.17,0,0,0-49,38.55Z"/><path class="cls-2" d="M78.41,45.49,102,65.79,125.7,86.11c11.6-13.5,10.41-33.54-2.65-44.76S90,32,78.41,45.49Z"/><polygon class="cls-2" points="30.28 84.22 78.97 45.28 125.7 86.11 78.41 127.24 30.28 84.22"/><path class="cls-2" d="M261.28,81.22,285.77,62l24.51-19.28a31.17,31.17,0,0,0-49,38.55Z"/><path class="cls-2" d="M309.41,42.49,333,62.79,356.7,83.11c11.6-13.5,10.41-33.54-2.65-44.76S321,29,309.41,42.49Z"/><polygon class="cls-2" points="261.28 81.22 309.97 42.28 356.7 83.11 309.41 124.24 261.28 81.22"/><path class="cls-3" d="M46.33,254.71c-.54-.12-1.08-.18-1.62-.3.12.72.3,1.44.42,2.1.54,2.94,1.14,5.94,1.44,8.88a11.62,11.62,0,0,1-.3,4.32,6.31,6.31,0,0,1-1.8,2.76c-.66.54-1.92,1.2-2.64.3a5.81,5.81,0,0,1-.78-3.06c-.12-.72-.24-1.5-.3-2.28a22.84,22.84,0,0,1-.72-3.06,17.46,17.46,0,0,0,.24,1.86c.12,1.08.24,2.1.42,3.12a6.49,6.49,0,0,1,.06,2.4c0,.06,0,.06-.06,0a6.54,6.54,0,0,1-.6-2.64L39.55,266c-.3-2-.66-4.08-1-6.18-.42-2.46-.78-5-1.14-7.44a50.5,50.5,0,0,1-5.52-2.52c-.06-.06,0-.18.12-.12,1.74.84,3.54,1.56,5.34,2.22-.06-.36-.18-.66-.24-1-1.38-.54-2.7-1.14-4-1.74a2.64,2.64,0,0,1-1-3.6,2.71,2.71,0,0,1,3-1.2l.36.18c-.72-2.64-1.5-5.28-2.4-7.86a1.83,1.83,0,0,1,1.26-2.28,1.44,1.44,0,0,1,.6-1.26c2-1.38,4.56-.6,6.48.36s3.84,2.22,5.7,3.42a95.88,95.88,0,0,1,10.74,8.4,1.54,1.54,0,0,1,.6,1.38,5.66,5.66,0,0,1,.72,1.8,4,4,0,0,1-1.14,3.72C55.93,256.15,50.05,255.31,46.33,254.71Zm-.66-11.88c-1.32-.66-2.64-1.32-4-1.92.6,2.28,1.2,4.56,1.68,6.9,1.26.42,2.52.78,3.84,1.08a20.55,20.55,0,0,0,6.06.48,7.39,7.39,0,0,0,1.2-.12l.48-.12a1.26,1.26,0,0,0-.24-.36,11.64,11.64,0,0,0-3.78-2.94C49.15,244.81,47.41,243.79,45.67,242.83Zm-1.56,27.6.12.18a2.15,2.15,0,0,0,.6-.42,9.37,9.37,0,0,0,.18-5.88l-.36-1.86c-.06.06.06.78,0,.78l.12,1.2C45,266.41,45.07,268.63,44.11,270.43Zm.36-17.16c.06.18.06.36.12.48a2.55,2.55,0,0,0,.66.12,28.63,28.63,0,0,0,7.14.48l2.28-.36c0-.06-1.26.06-1.26,0a21.57,21.57,0,0,1-5.64-.12C46.69,253.75,45.61,253.51,44.47,253.27Z"/><path class="cls-3" d="M82.74,258.13c-.3,3.3-.84,7-2.82,9.78a14.82,14.82,0,0,1-2.21,2.46,7.35,7.35,0,0,1-4.21,2.16,10.8,10.8,0,0,1-2,0,7.45,7.45,0,0,1-5.82-1.68c-2.82-2.4-4-6-4.62-9.54A33.24,33.24,0,0,1,65,239c.05,0,.05-.06.12-.12a17.2,17.2,0,0,1,2.39-4.32c.07-.12.19-.06.12.06a14.21,14.21,0,0,0-1,1.8c-.3.66-.55,1.32-.79,2a1.33,1.33,0,0,1,.49,0c1-2.22,2.46-4.08,4.38-4.5a5.41,5.41,0,0,1,2.33-.48,3.82,3.82,0,0,1,2.59.24,6.07,6.07,0,0,1,1.79,2.28,1.1,1.1,0,0,1,1.38.48,38.09,38.09,0,0,1,2.28,5,42.71,42.71,0,0,1,1.2,5.46A41.33,41.33,0,0,1,82.74,258.13Zm-6.53-2.52c-.25-3-.42-6.06-.91-9-.18-.9-.3-1.8-.47-2.64-.37-1.08-.73-2.16-1.15-3.18a11,11,0,0,0-.6-1.32.39.39,0,0,0-.24-.12h-.3a11.58,11.58,0,0,0-.78,2,43.45,43.45,0,0,0-1.5,6.66,48.86,48.86,0,0,0,.24,13.5,2.57,2.57,0,0,1-.24,1.8c-1.68-7.8-1.55-16.62,1.86-23.82a3.3,3.3,0,0,0-.83,1.14,27.46,27.46,0,0,0-2.41,7.14c0,.12,0,.18-.11.24-.24,1.38-.36,2.76-.48,4.14a44.62,44.62,0,0,0,1.2,12.06,2.34,2.34,0,0,1-.66.3,2.84,2.84,0,0,1-2.1-.36c1,2,3.06,4.44,5.64,3.66A3,3,0,0,0,74,266.41a9.53,9.53,0,0,0,.84-2A26,26,0,0,0,76.21,255.61Z"/><path class="cls-3" d="M87.06,235.81a5.94,5.94,0,0,1,1.5-1.5,1.59,1.59,0,0,1,.36-.3,6.52,6.52,0,0,1,5.28-1.32,4.64,4.64,0,0,1,3.42,2.88,1.45,1.45,0,0,1-.66,1.62,8.52,8.52,0,0,1-3.18,1.44,4.25,4.25,0,0,1-3.18,1.14,7.27,7.27,0,0,1-2.76-.48c-.54-.18-1.38-.66-1.5-1.26A2.78,2.78,0,0,1,87.06,235.81Zm5.4,3.12a6.28,6.28,0,0,1-2.88.06,2.17,2.17,0,0,1-1.79-3.12A7.7,7.7,0,0,0,87,237c-.24.54-.29,1,.18,1.38a3.1,3.1,0,0,0,1.15.66,7.56,7.56,0,0,0,2,.42C92.1,239.47,92.52,238.93,92.46,238.93Zm2.88,31.56a1,1,0,0,1-.6,1.14,3.86,3.86,0,0,1-4.38-.78l-.11-.18a3.46,3.46,0,0,1-.91-.54c-1.26-1.2-1.32-3-1.55-4.68A101.18,101.18,0,0,1,87,252.07a62.1,62.1,0,0,1,.18-6.54,5.53,5.53,0,0,1,1.26-3,2.59,2.59,0,0,1,.48-.6c1.26-.84,4.32-3.06,5.28-.66a.82.82,0,0,1,1,.72c0,2.22-.12,4.38-.12,6.6s.12,4.38.18,6.6a15,15,0,0,0,.12,1.5c.12-.06.3,2,.42,2-.18-4.26-.18-10.56.06-14.82,0-.12.42-.18.42-.12a159.12,159.12,0,0,0,1.38,25.62c.06.6-.9.66-1,.06A2.59,2.59,0,0,1,95.34,270.49ZM89,253.63v.72c.12,1.44.31,2.88.48,4.32h.18c0-2.7-.06-5.4,0-8.1a19.43,19.43,0,0,1,.78-6.18h-.06a1.23,1.23,0,0,0-.42.6C89,247.69,89.1,250.87,89,253.63Z"/><path class="cls-3" d="M101.22,252.91c-.18-4.26-.24-8.58-.3-12.9a7,7,0,0,1,.48-3.12c-.06,1.92,0,3.84.06,5.76.06,4.14.18,8.34.3,12.54l.54,13.5s-.24.12-.48-2.46C101.46,262,101.4,257.23,101.22,252.91Zm22.32,19.92c-1.62-.72-2-2.58-2.28-4.14l-.36-2L110.46,248c-.36-.42-.66-.9-1-1.32.06,4.08,0,8.16,0,12.24.12,2.4.18,4.8.24,7.2.06,1.86.72,5.34-1.74,5.7a2.89,2.89,0,0,1-3.42,1.26,3,3,0,0,1-1.68-1.14c-.3-5-.48-10.08-.66-15.12-.18-4.08-.24-8.22-.36-12.3-.06-2.64-.18-5.28,0-7.86a2.52,2.52,0,0,1,1.14-.54,2.4,2.4,0,0,1,.48-1.38c1.86-2.46,5.28,1.08,6.42,2.58a69.82,69.82,0,0,1,5.34,8.52c1.38,2.34,2.64,4.74,3.84,7.2a1.19,1.19,0,0,1,.12.6l1,1.86c-.3-3-1-6.18-1.5-9.24-.42-2.16-.78-4.32-1.38-6.48-.3-1.14-.84-2.28-.18-3.48a2.94,2.94,0,0,1,1-1.08c0-.06.06-.06.06-.12.72-1.32,2.52-1.2,3.54-.48a1.08,1.08,0,0,1,.42.3c.24,1.14.6,2.28.9,3.42a91.8,91.8,0,0,1,2.1,10.74c1.2,7.32,1.86,14.76,2.34,22.14a3.54,3.54,0,0,1-2.76,1.62A1.22,1.22,0,0,1,123.54,272.83Zm-15.18-9.36a.19.19,0,0,0-.12.06l-.06,3.6c0,1,.6,2.34.24,3.84a3.77,3.77,0,0,0,.48-2c-.06-1.14-.12-2.34-.24-3.54,0-.72-.06-1.38-.12-2.1Zm19.5,7.32a230.66,230.66,0,0,0-4.56-34,.61.61,0,0,1,.18-.66.65.65,0,0,1,1.14.24A152.42,152.42,0,0,1,128,268a16.89,16.89,0,0,1,.06,2.58C128,270.61,127.92,270.67,127.86,270.79Z"/><path class="cls-3" d="M162.12,237.91a3.39,3.39,0,0,1-1.26,2.82,2.37,2.37,0,0,1-.9.36.61.61,0,0,1-.42.24c-3.06.6-6.06,1.14-9.12,1.56,0,2.64-.06,5.28-.06,7.92,0,3.66.06,7.32.06,11,.06,2.1.18,4.2.24,6.3-.12,1.44-.36,2.88-1.44,3.72v-.12c.06-.84.06-1.68.12-2.52v-2.28a34.7,34.7,0,0,1-.72,4,2.65,2.65,0,0,1-3.18,1.68c-2.52-.78-3.06-3.54-3.18-5.88-.18-3.06-.12-6.18,0-9.24s.36-6.18.48-9.3l.12-2.64v-1.92h-2.34c-1.62,0-3.24-.06-4.8-.18a9.52,9.52,0,0,1-3.66-1,5.28,5.28,0,0,1-1.92-2.34,3.19,3.19,0,0,1-1.56-3.54,3,3,0,0,1,2.88-2.22c3.3.3,6.54.54,9.84.54,0-.06.06-.12.06-.18a89.17,89.17,0,0,1-9.72-1.08c-.18,0-.12-.36.06-.3a175.71,175.71,0,0,0,25.14-.42c.66-.12,1.26-.18,1.86-.24a5.78,5.78,0,0,1,1,0c.9-.12,1.8-.18,2.7-.3.54-.06.72,1,.12,1.08a1,1,0,0,0-.42.06,1.26,1.26,0,0,1,.36.24,2.11,2.11,0,0,1-.12,3.66A1.8,1.8,0,0,1,162.12,237.91Zm-23.22,4a36.61,36.61,0,0,1-7.14-1.38,6.34,6.34,0,0,0,4,1.38A28.11,28.11,0,0,0,138.9,241.93Z"/><path class="cls-3" d="M171.72,252.13l-.06.24a2.79,2.79,0,0,1-4.26,1.44.83.83,0,0,1-.24-.18.62.62,0,0,1-.6-.42,1.78,1.78,0,0,1-.12-.6,2,2,0,0,1-.24-1,2.52,2.52,0,0,1,.36-1.26,4.07,4.07,0,0,1,.72-.72l.36-.24a1.72,1.72,0,0,1,1.32-.48h.3a2.6,2.6,0,0,1,2.22,1.56A1.48,1.48,0,0,1,171.72,252.13Zm0,18.36-.06.24a2.79,2.79,0,0,1-4.26,1.44.83.83,0,0,1-.24-.18.62.62,0,0,1-.6-.42,1.78,1.78,0,0,1-.12-.6,2,2,0,0,1-.24-1,2.52,2.52,0,0,1,.36-1.26,4.07,4.07,0,0,1,.72-.72l.36-.24a1.72,1.72,0,0,1,1.32-.48h.3a2.6,2.6,0,0,1,2.22,1.56A1.48,1.48,0,0,1,171.72,270.49Z"/></g></svg>