<svg xmlns="http://www.w3.org/2000/svg" viewBox="0 0 1920 1080"><defs><style>.cls-1{fill:#474040;}.cls-2{fill:#372814;}.cls-18,.cls-25,.cls-3,.cls-34{fill:#1d1d1b;}.cls-4{fill:#6a6868;}.cls-5{fill:#383836;}.cls-6{fill:#828021;}.cls-7{fill:#26346c;}.cls-8{fill:#e83363;opacity:0.86;}.cls-9{fill:#f39200;opacity:0.71;}.cls-10{fill:#222321;}.cls-11{fill:#2b2d2c;}.cls-12{fill:#262625;}.cls-13{fill:#333;}.cls-14{opacity:0.93;}.cls-15,.cls-16,.cls-17,.cls-19,.cls-26{fill:#fff;}.cls-15{stroke:#f0f0f0;}.cls-15,.cls-16,.cls-18,.cls-19,.cls-22,.cls-23,.cls-25,.cls-26,.cls-28{stroke-miterlimit:10;}.cls-16,.cls-25,.cls-28{stroke:#1d1d1b;}.cls-18,.cls-19,.cls-22,.cls-26{stroke:#fff;}.cls-18,.cls-22,.cls-23,.cls-26{stroke-width:0.25px;}.cls-20{fill:#ededed;}.cls-21{fill:#f0f0f0;}.cls-22,.cls-23,.cls-24{fill:#f4d3e7;}.cls-23{stroke:#f4d3e7;}.cls-27{fill:#242422;}.cls-28{fill:#f7bbae;}.cls-29{opacity:0.69;}.cls-30{fill:#df0833;}.cls-31{fill:#d0d0d0;}.cls-32{fill:#ed6b1f;}.cls-33{fill:#235222;}.cls-34{opacity:0.9;}.cls-35{fill:#2e2a32;}.cls-36{fill:#9a752d;}.cls-37{fill:#775413;}.cls-38{fill:#89601b;}.cls-39{fill:#372817;}.cls-40{fill:#af9565;}</style></defs><g id="Layer_9" data-name="Layer 9"><polyline class="cls-1" points="0 936.6 0 0 1921.5 0 1921.5 960.21 0 936.6"/></g><g id="Layer_8" data-name="Layer 8"><polyline class="cls-2" points="507.07 911.15 507.07 868.43 557.45 868.43"/></g><g id="Skraldespand"><path class="cls-3" d="M1442.38,124.27c0-1,2.64-5.28,4.64-7.6,1-1.12,2.72-2.88,4.24-4.4l-2.8-9.68a31.87,31.87,0,0,0-1.28-4.8,10.78,10.78,0,0,0-1.28,2.16c-2.32,4.48-4.64,7.52-5.12,7.52a.08.08,0,0,1-.08-.08,16.76,16.76,0,0,1,1.6-4.56A26.54,26.54,0,0,0,1445.18,91a5.38,5.38,0,0,1,1.12-3.76c1.76-2.65,3.12-4,3.44-4,.56,0,1.2,3.36,1.92,7,.88,4.08,1.92,8.8,2.4,10.64l1.92,7-.8,4.08a21.22,21.22,0,0,0-3.12,3.44s3-.8,3.68-1a32.64,32.64,0,0,1,10-1.2h5.2l-.64-1.92a36.83,36.83,0,0,1-1.52-7.84,5.85,5.85,0,0,1,1.52-3.92c1.84-2.64,2.4-3.2,2.72-3.2s.4.4.4,1.12c0,2,1.12,6.88,3.52,13.52a13.31,13.31,0,0,1,1,4c0,1-.4,1.84-1.6,3.84-1.12,1.84-1.68,2.64-2.64,2.64a5.23,5.23,0,0,1-1.44-.32,47.35,47.35,0,0,0-11.28-1.36,35.59,35.59,0,0,0-14.56,3.28,24.9,24.9,0,0,1-3.92,1.36A.08.08,0,0,1,1442.38,124.27ZM1471,95.55a20,20,0,0,0-2,3.2l-1,2-.72-2.48,1-2a18.58,18.58,0,0,1,2-3.2l1-1.2.72,2.48Z"/><path class="cls-3" d="M1478.38,84.58a5.45,5.45,0,0,1,3.28,1.69,4.49,4.49,0,0,0,3.6,1.36c5.36.16,8.24,1.2,11.44,3.6,4.56,3.36,6.8,7.2,7.68,13.12a27.53,27.53,0,0,1,.24,3.36c0,4.24-1.44,7.92-4.24,11.76-2.32,3.12-3.84,4-6.56,4s-4.88-1-7.44-3c-8.08-6.32-15.2-18.64-15.2-25.6a6,6,0,0,1,.08-.88c.32-1.92,2.08-5.2,4-7.44C1476.38,85.31,1477.34,84.58,1478.38,84.58Zm-1.76,7.77c-.08,0-.16.16-.16.4,0,1.6,2.56,7.52,5.76,12.24,4.64,6.8,11.12,11.92,15.52,11.92h.56l1.28-.16v-4c0-4.8-.56-7.12-2-9.36-1.92-3-6.24-7-6.88-7a.08.08,0,0,0-.08.08,9.1,9.1,0,0,0,1.12,2.88,13.49,13.49,0,0,1,1.6,4.4c0,1-1,3.12-2.56,5.2-1,1.44-1.68,2-1.92,2-.08,0-.16-.16-.16-.32a6,6,0,0,0,.16-.88c0-2.24-5.2-10.56-9.92-15.36A8.16,8.16,0,0,0,1476.62,92.35Z"/><path class="cls-3" d="M1501.18,87.63a5,5,0,0,0-1-2.16c-1.76-2.64-3-4.8-3.6-5.76l-1-1.76,1-1.68c.56-1,1.44-2.32,1.84-2.89A3.67,3.67,0,0,1,1499.9,72c.32,0,1.52,1.76,2.88,4,2.56,4.32,4.32,6.32,10.48,11.28a103.43,103.43,0,0,1,8.32,7.36c3.6,3.52,4.8,4.88,4.8,6.24,0,2-2.4,5.36-2.88,6a4.12,4.12,0,0,1-3,1.36c4.08,3.44,11.28,9.36,16.08,13.92l2.56,2.4.72-1c.48-.64,1.2-1.44,1.6-2l.72-1,1.84,3.68c1,2,3,5.44,4.48,7.6l2.64,4-1,1.92A22.15,22.15,0,0,1,1548,141l-1,1.2-8.08-7.36c-4.24-3.92-18.88-17.36-25.52-23.76,1.2,2.64,3,6.24,3.28,7.28l1,3-.8,1.6c-1.28,2.56-2.16,3.68-3,3.68-1.28,0-2.16-3.2-3.6-7.68-2.72-8.32-5-17.12-8.32-25.92a14.12,14.12,0,0,1-1.12-3.84C1500.86,88.51,1501.18,88.11,1501.18,87.63Zm8,6.64c0,.08.64,2.16,1,3.44,1.84,6.08,1.6,5.84,6.08,6.24a22.82,22.82,0,0,0,2.4.24c.72,0,1-.16,1-.32a14.78,14.78,0,0,0-2.64-2.88A96.77,96.77,0,0,0,1509.18,94.27Z"/><path class="cls-3" d="M1533.5,93.31c-1.44,0-3.92.64-3.92,2.08a4.86,4.86,0,0,0,.48,1.76c1.36,3.2,4.32,5.44,9.68,7.2,1.36.48,3,1.12,3,2.4,0,1.44-2.24,4.72-6.56,9a16.82,16.82,0,0,0-2.56,2.88s3-.8,3.68-1a32.64,32.64,0,0,1,10-1.2h5.2l-.64-1.92a36.83,36.83,0,0,1-1.52-7.84,6.68,6.68,0,0,1,1.68-4.24c1.68-2.32,2.16-2.88,2.48-2.88s.4.4.4,1.12c0,2,1.2,6.88,3.6,13.52a13.53,13.53,0,0,1,1,3.84c0,1.12-.56,2-2.16,4.8-.64,1-1.12,1.84-2.08,1.84a5.23,5.23,0,0,1-1.44-.32,47.35,47.35,0,0,0-11.28-1.36,37.41,37.41,0,0,0-15,3.36,20.06,20.06,0,0,1-3.52,1.28.08.08,0,0,1-.08-.08c0-1,2.64-5.28,4.8-7.76,1-1.2,3.36-3.6,5-5.2l3.12-2.88-1.6-.48c-6.16-2-10.24-6.08-10.24-9.44,0-2.88,2.88-8.24,5.68-11.44,2.24-2.48,4.56-3.76,6.72-3.76.56,0,1.28.08,1.68.08.72,0,.88-.24,1-.72a47.43,47.43,0,0,1,5.92-9.84c.4-.41,1.12-1,1.12-.65a28.91,28.91,0,0,1-2.24,5.05c-1.52,2.88-1.76,3.6-1.76,6.64a17.53,17.53,0,0,0,.56,5.36l.56,2.08-1.44,2.4c-1.52,2.48-2.48,3.68-2.8,3.68-.56,0-1.28-4.48-1.92-4.48-.24,0-.64.72-.64,0C1537.58,94.35,1535.34,93.31,1533.5,93.31Z"/><path class="cls-3" d="M1577.74,80.35c.4,0,1.6,2.8,2.48,5,4.8,11.6,10.16,21.44,19.44,35.36,2.32,3.44,5.28,7.76,6,8.72l1.28,1.68-1.12,2a24.53,24.53,0,0,1-2.16,3.36l-1,1.28-4.56-6.4a222.93,222.93,0,0,1-16.88-27.84c-1.52-2.88-2.4-4.48-2.8-4.48-.08,0-.08.16-.08.16,0,1.28.16,3,.4,5.36l.56,4.24-1.2,2.16c-.4.72-2.16,4.56-3.36,4.56a.25.25,0,0,1-.16-.08c-.72-.48-3.52-4.32-6.88-9.28-2.64-3.92-5-7.28-5.36-7.28-.56,0-1,9.6-5.28,16.24-1,1.52-2.08,2.64-2.56,2.64,0,0-.08,0-.08-.24a8.92,8.92,0,0,1,.48-1.68,91,91,0,0,0,3-12.48,73.32,73.32,0,0,1,1.68-7.68c.56-1.76,3.2-5.6,4.32-6.24a.61.61,0,0,1,.4-.16c.8,0,1.84,1.36,5.44,6.72l3.6,5.44c-.16-4.72-.24-9.36-.4-14.08l1-2a20.84,20.84,0,0,1,2.08-3.12A5.94,5.94,0,0,1,1577.74,80.35Z"/><path class="cls-3" d="M1609.82,124.59l-1,1.12-2-1a18.11,18.11,0,0,0-8.08-2.08,12.85,12.85,0,0,0-5.2,1c-1,.4-1.68.56-1.68.32a36.75,36.75,0,0,1,3.76-5.92c1.2-1.28,4.32-2.08,7.84-2.08h3c-1.28-5.28-2.64-10.56-3.76-15.12-.88-3.36-1.44-5.52-1.6-5.52a9.78,9.78,0,0,0-1.28,2.24c-2.32,4.4-4.56,7.44-5,7.44a.08.08,0,0,1-.08-.08,16.76,16.76,0,0,1,1.6-4.56,26.54,26.54,0,0,0,2.88-11.84,5.38,5.38,0,0,1,1.12-3.76c1.76-2.64,3.12-4,3.44-4,.56,0,1.2,3.36,1.92,7,.88,4.08,1.92,8.8,3,12.88,1.2,4.4,2.8,11.28,4.48,18A16.35,16.35,0,0,1,1609.82,124.59Z"/><path class="cls-3" d="M1609.18,90.83a5,5,0,0,0-1-2.16c-1.76-2.64-3-4.8-3.6-5.76l-1-1.76,1-1.69c.56-1,1.44-2.31,1.84-2.88a3.77,3.77,0,0,1,1.44-1.35c.32,0,1.52,1.76,2.88,4,2.56,4.31,4.32,6.32,10.48,11.28a103.43,103.43,0,0,1,8.32,7.36c3.6,3.52,4.8,4.88,4.8,6.24,0,2-2.4,5.36-2.8,5.84-1.2,1.52-4.16,1.68-6.8,1.68-1.92,0-3.6-.08-3.6-.08s2.88,8.4,3.44,10l1,3-.8,1.6c-1.28,2.56-2.16,3.68-3,3.68-1.28,0-2.16-3.2-3.6-7.68-2.72-8.32-5-17.12-8.32-25.92a14.12,14.12,0,0,1-1.12-3.84C1608.86,91.71,1609.18,91.31,1609.18,90.83Zm8,6.64c0,.08.64,2.16,1,3.44,1.84,6.08,1.6,5.84,6.08,6.24a22.82,22.82,0,0,0,2.4.24c.72,0,1-.16,1-.32a14.78,14.78,0,0,0-2.64-2.88A96.77,96.77,0,0,0,1617.18,97.47Z"/><path class="cls-3" d="M1633.82,92.51a5.84,5.84,0,0,0,.48,1.76c1.28,2.72,3.2,4.72,9.84,10.32,11.36,9.6,16,14.64,16,19.52,0,2.32-1,4.56-3,7.36-2.4,3.44-3.92,4.48-8.56,4.48a14.48,14.48,0,0,1-6.8-1.44,15.25,15.25,0,0,1-6.4-5.2l-.88-1.36,1.12-2a24.53,24.53,0,0,1,2.16-3.36l1-1.28,1,1.52c2.4,3.84,7.92,6.64,13.44,6.64,1.6,0,2.16-.24,2.16-.88a5.91,5.91,0,0,0-.64-1.76c-1.92-3.84-6.56-8.72-15.44-16.16-8-6.64-10-9.12-10-11.92,0-4.4,4.88-11.84,8.48-13.52a5.58,5.58,0,0,1,2.4-.56c1.76,0,3.52,1,5.6,3l1.68,1.68V86.75c0-2.8.16-3.36,1.92-5.68a11,11,0,0,1,2.16-2.49,10.81,10.81,0,0,1,.4,3A29.6,29.6,0,0,0,1655.18,94l1.52,3.2-.72,1.52a27.18,27.18,0,0,1-2.08,3.28l-1.36,1.84-2-3.52-1,1.28c-1.12,1.28-1.68,1.52-1.68,1,0-1.2-3.52-5.68-6.32-8.32-2.16-2-3.92-3-5.76-3C1634.86,91.39,1633.82,91.63,1633.82,92.51Z"/><path class="cls-3" d="M1681.42,99.39c0-2.72,2.64-6.56,4.32-8.24,1.28,7.44,6.08,17.6,11.92,25.68,1,1.52,1.76,2.64,1.76,3.2,0,1.28-3.68,5.92-4.16,5.92-.8,0-7.84-11.28-10.08-16.48a7.68,7.68,0,0,0-1.36-2.48,6.28,6.28,0,0,0-.8,2.16c-1.2,4.16-3.68,9-5.68,11.12a3.12,3.12,0,0,1-2.16,1.28,3.72,3.72,0,0,1-2.4-1.36c-3.12-3.12-10.08-13.36-14.56-21.2-1.36-2.32-2.56-4.24-2.56-4.24-.4-.64-.48-.8-.48-1a5.1,5.1,0,0,1,.72-1.68,20,20,0,0,1,2-3.2c.48-.64,1-1.2,1.36-1.2s1.36,1.28,3.52,5.12c5.92,10.32,14.16,21.84,15.2,21.84S1681.42,101.87,1681.42,99.39Z"/><path class="cls-3" d="M1715.5,80.35c.4,0,1.6,2.8,2.48,5,4.8,11.6,10.16,21.44,19.44,35.36,2.32,3.44,5.28,7.76,6,8.72l1.28,1.68-1.12,2a24.53,24.53,0,0,1-2.16,3.36l-1,1.28-4.56-6.4a222.93,222.93,0,0,1-16.88-27.84c-1.52-2.88-2.4-4.48-2.8-4.48-.08,0-.08.16-.08.16,0,1.28.16,3,.4,5.36l.56,4.24-1.2,2.16c-.4.72-2.16,4.56-3.36,4.56a.25.25,0,0,1-.16-.08c-.72-.48-3.52-4.32-6.88-9.28-2.64-3.92-5-7.28-5.36-7.28-.56,0-1,9.6-5.28,16.24-1,1.52-2.08,2.64-2.56,2.64,0,0-.08,0-.08-.24a8.92,8.92,0,0,1,.48-1.68,91,91,0,0,0,3-12.48,73.32,73.32,0,0,1,1.68-7.68c.56-1.76,3.2-5.6,4.32-6.24a.61.61,0,0,1,.4-.16c.8,0,1.84,1.36,5.44,6.72l3.6,5.44c-.16-4.72-.24-9.36-.4-14.08l1-2a20.84,20.84,0,0,1,2.08-3.12A5.94,5.94,0,0,1,1715.5,80.35Z"/></g><g id="Layer_18" data-name="Layer 18"><polygon class="cls-1" points="0 936.6 1921.5 960.21 1921.5 0 0 0 0 936.6"/><path class="cls-4" d="M1921.5,960.21C1328.69,934.56,682.54,928.8,0,936.6L.5,1083h1921Z"/><polyline class="cls-5" points="1272.12 272.94 1453.5 940 679.5 932.15 687.74 272.95 1272.12 272.94"/><path class="cls-6" d="M1617.29,521.43a5.51,5.51,0,0,0-.11,1.64c.29,2.69,1.33,5,5.32,11.68,6.83,11.52,9.29,17.17,7.85,21.32-.69,2-2.23,3.57-4.76,5.36-3,2.22-4.65,2.65-8.6,1.28a13,13,0,0,1-5.36-3.23,13.66,13.66,0,0,1-3.9-6.31l-.35-1.41,1.54-1.37a21.37,21.37,0,0,1,2.83-2.22l1.26-.79.37,1.58c.91,4,4.77,8,9.47,9.61,1.36.48,1.91.44,2.1-.11a5.31,5.31,0,0,0,0-1.68c-.5-3.83-3-9.35-8.36-18.3-4.84-8-5.81-10.71-5-13.09,1.29-3.74,7.64-8.62,11.19-9a5.09,5.09,0,0,1,2.21.23c1.5.52,2.71,1.86,3.89,4.17l.93,1.92.76-2.17c.82-2.38,1.12-2.81,3.31-4.26a10.2,10.2,0,0,1,2.57-1.48,10,10,0,0,1-.54,2.64A26.51,26.51,0,0,0,1635,529l.35,3.17-1.07,1.08a24.11,24.11,0,0,1-2.73,2.17l-1.7,1.17c-.22-1.14-.45-2.45-.66-3.59l-1.26.78c-1.33.76-1.88.8-1.74.39.35-1-1.32-5.87-2.92-8.94-1.25-2.33-2.46-3.67-4-4.22C1618.51,520.79,1617.55,520.68,1617.29,521.43Z"/><path class="cls-6" d="M1643.57,523a4.87,4.87,0,0,1,2.3,2.39,4,4,0,0,0,2.66,2.22c4.51,1.72,6.65,3.45,8.66,6.44,2.89,4.2,3.66,8.13,2.66,13.42a25.06,25.06,0,0,1-.79,2.93,17.37,17.37,0,0,1-7.07,8.75c-2.9,2-4.45,2.27-6.76,1.46s-3.87-2.25-5.46-4.71c-5-7.76-7.42-20.33-5.37-26.25a5.78,5.78,0,0,1,.33-.73,17,17,0,0,1,5.6-5.14C1641.66,523,1642.69,522.7,1643.57,523Zm-3.78,6.08c-.07,0-.19.08-.26.29-.47,1.36,0,7.15,1.29,12.11,1.94,7.15,5.94,13.41,9.68,14.71l.47.17,1.14.24,1.18-3.4c1.42-4.08,1.63-6.22,1.06-8.55-.76-3.09-3.23-7.83-3.77-8a.07.07,0,0,0-.09.05,8,8,0,0,0,.1,2.78,12.25,12.25,0,0,1,.06,4.21c-.28.82-1.8,2.35-3.71,3.67-1.31.91-2,1.2-2.22,1.13s-.09-.18,0-.32a4.8,4.8,0,0,0,.4-.7c.66-1.91-1.3-10.51-3.9-16A7.46,7.46,0,0,0,1639.79,529.09Z"/><path class="cls-6" d="M1684.41,533.14c.34.12.54,2.85.65,5,.66,11.28,2.31,21.23,6.09,35.8,1,3.61,2.2,8.16,2.53,9.19l.59,1.81-1.54,1.37a22.44,22.44,0,0,1-2.83,2.22l-1.26.78-2-6.79a200.51,200.51,0,0,1-6.13-28.66c-.45-2.89-.72-4.51-1.06-4.63-.07,0-.12.11-.12.11-.38,1.09-.74,2.57-1.24,4.68l-.78,3.77-1.65,1.48c-.56.49-3.19,3.24-4.21,2.89a.3.3,0,0,1-.11-.12c-.47-.62-1.72-4.71-3.11-9.92-1.09-4.11-2.14-7.68-2.41-7.77-.48-.17-3.72,7.85-9.28,12.25-1.33,1-2.55,1.63-3,1.49,0,0-.07,0,0-.23a9.62,9.62,0,0,1,.91-1.29,82,82,0,0,0,6.2-9.73,67.9,67.9,0,0,1,3.69-6c1-1.33,4.38-3.82,5.52-4a.49.49,0,0,1,.38,0c.69.24,1.17,1.7,2.65,7.32l1.45,5.69c1.26-4.06,2.56-8,3.82-12.09l1.47-1.4a18.64,18.64,0,0,1,2.69-2A5.22,5.22,0,0,1,1684.41,533.14Z"/><path class="cls-6" d="M1695.08,549.19c-1.23-.43-3.53-.61-3.95.61a4.33,4.33,0,0,0-.11,1.64c.21,3.12,2.06,5.9,6.1,9,1,.81,2.26,1.85,1.88,2.94s-3.3,3.35-8.22,5.68a15.3,15.3,0,0,0-3,1.69s2.75.2,3.44.2a29.28,29.28,0,0,1,8.85,1.94l4.43,1.53,0-1.82a32.74,32.74,0,0,1,1-7.12,6,6,0,0,1,2.68-3.11c2.11-1.47,2.69-1.81,3-1.72s.22.46,0,1.08c-.59,1.7-1,6.2-.93,12.55a12.18,12.18,0,0,1-.32,3.55c-.33,1-1.06,1.54-3.25,3.45-.85.69-1.5,1.23-2.31,1a4.7,4.7,0,0,1-1.13-.7A42.53,42.53,0,0,0,1694,577a33.61,33.61,0,0,0-13.71-1.56,19.27,19.27,0,0,1-3.38,0,.07.07,0,0,1,0-.09c.31-.89,3.8-3.72,6.37-5.19,1.24-.71,3.92-2.07,5.82-2.93l3.5-1.53-1.21-.88c-4.65-3.52-6.92-8.19-5.93-11,.85-2.45,4.88-6.15,8.21-8.05,2.64-1.45,5-1.85,6.82-1.21.48.16,1.07.44,1.41.56.61.21.82.06,1.1-.3a43.29,43.29,0,0,1,7.93-6.63c.46-.22,1.24-.48,1.14-.21a26.2,26.2,0,0,1-3.39,3.63c-2.14,2-2.56,2.54-3.46,5.12a16.06,16.06,0,0,0-1.1,4.72l-.14,1.94L1702,555c-2,1.66-3.19,2.39-3.47,2.3-.47-.17.24-4.19-.31-4.38-.2-.07-.75.42-.54-.19C1698.24,551.28,1696.64,549.73,1695.08,549.19Z"/><path class="cls-6" d="M1712.69,546.31c.07,0,1.53,1.06,2.25,1.62,5.69,4,9.18,6.08,14.69,8a75.15,75.15,0,0,0,13.91,3.38,12.93,12.93,0,0,1,1.3.22.19.19,0,0,1,.13.28c-.21.61-2.83,2.67-4.18,3.5-1.06.62-1.7.71-3.52.46a78.57,78.57,0,0,1-8.63-1.93,27.52,27.52,0,0,0-3.22-.82c0,.07-.11,3.17-.09,6.84,0,7.08.31,14,.66,17a7.72,7.72,0,0,1,.06,2.69c-.43,1.22-4.86,4.11-5.26,4-.62-.22-1.18-9.56-1.19-31.51,0-1.44,0-1.67-1-2l-.13-.05a61,61,0,0,1-8.54-5.25c-1.79-1.23-2.53-1.94-2.39-2.35a13.72,13.72,0,0,1,3.5-3.05A7.64,7.64,0,0,1,1712.69,546.31Z"/><path class="cls-6" d="M1755.17,589.71c-.14-.05-.16-.21-.09-.41.43-1.23-2.14-5.7-3.36-6.12,0,0-.14,0-.21.15a37.28,37.28,0,0,0-.47,5.32l-.25,5.33-1.13,1.06c-.34.34-3.54,3.19-4.29,2.93a.15.15,0,0,1-.09-.19c-.18-.59.49-12.17.78-15.65l.16-1.55-2.75-.65c-1.61-.4-4.58-1.51-4.79-.9-.12.34-.34,3.62-.48,7.3l-.31,6.83-1.45,1.33a14.72,14.72,0,0,1-4,2.73c-.27-.1,0-4.81.2-10.23l.41-10-1.43-.49c-1.7-.59-8.28-3.8-7.9-4.88.49-1.43,3.68-3.15,4-3.35l1.26-.78,1.85,1.25a14.09,14.09,0,0,0,2,1.24c.14,0,.16,0,.16,0l0-.13c.33-1,.45-9,.12-9.79.35-1,2.31-2.71,4.51-4,.67-.38.94-.51,1.08-.46.41.14.28,4.89.2,9.06l-.16,8,3.74,1.07c2.09.57,4,1.16,4.16.75.31-.88,1.51-13.57,1.63-13.91.23-.68,1.57-1.67,3.73-3a9.19,9.19,0,0,1,1.46-.94c.41.14-1.42,18.18-1.47,18.31l-.09,1.34,2.45,1.08c3.37,1.48,7.26,5.42,6.34,8.07C1760.66,585.52,1756.46,590.16,1755.17,589.71Z"/><path class="cls-6" d="M1756.18,600.2l-1.22.64-1.42-1.41a16.29,16.29,0,0,0-6.25-4.15,11.58,11.58,0,0,0-4.73-.65c-.94.06-1.6,0-1.52-.22a32.89,32.89,0,0,1,4.94-3.93c1.4-.73,4.29-.49,7.28.55l2.59.89c.47-4.86.87-9.75,1.26-14a34.2,34.2,0,0,0,.27-5.17,8.45,8.45,0,0,0-1.75,1.53c-3.27,3.06-6.07,5-6.48,4.84a.07.07,0,0,1-.05-.09,15.1,15.1,0,0,1,2.71-3.41,23.76,23.76,0,0,0,5.94-9.22,4.87,4.87,0,0,1,2.06-2.86c2.28-1.73,3.84-2.48,4.11-2.39.48.17,0,3.21-.44,6.55-.46,3.73-1,8-1.22,11.85-.28,4.1-1,10.42-1.5,16.63A14.83,14.83,0,0,1,1756.18,600.2Z"/><path class="cls-6" d="M1768.52,572.54c.34.12.66,1.38.86,3.43a5.64,5.64,0,0,0,1.59,4c.25.39,10.66,15.43,10.66,15.43.18-.54.48-10,.7-18.27l.12-4.31,1.26-1c.58-.56,3.3-2.89,4-2.63.41.14.36,2.94.15,7.06-.25,6.85-.38,14-.4,18.92l0,8.9-1.31,1.15c-2.12,1.93-3.29,2.67-4.32,2.77-1.56-.55-11.25-16.56-11.52-16.66l0,.07c-.24.68-.25,11-.56,11.93-.21.61-2.9,2.88-4.51,3.77l-.94.51,0-6c0-7.61-.28-18.31-.7-19.3-.26-.77-4.1-5.08-3.91-5.62a17.6,17.6,0,0,1,3.22-2.7c1-.78,1.42-1,3.12-.44C1766.18,573.56,1768.24,572.45,1768.52,572.54Z"/><path class="cls-6" d="M1791.63,613.11a6.48,6.48,0,0,1-4.05-3.7c-1.68-4.16-1.38-14.27.8-20.53a19.1,19.1,0,0,1,7.77-9.87c2.36-1.55,3.92-2.07,5.08-1.67,2.24.78,3.87,5.08,4.39,7.09.09.41.11.57.18.59s.18-.09.46-.45a19,19,0,0,1,4.12-4c1.11-.76,1.88-1,2.16-.93.06,0,.11.12,0,.32a3.86,3.86,0,0,1-.51.81,37,37,0,0,0-4.41,8.54c-.76,2.17-.84,3.74-1.13,4.56-.8,2.31-5.3,5.17-5.64,5.06-.14-.05,0-1.24,0-1.53.41-4-1.47-12-3.11-14.11A4.45,4.45,0,0,0,1796,582c-.48-.16-.61,0-1.34,1.44a18.07,18.07,0,0,0-.82,1.93c-2,5.71-2.19,17.07.06,20.9a6,6,0,0,0,3.25,2.5c1.63.57,2.44.24,3.82-1.11-.16-1.74-.25-3.67-.37-5.54l5.83-1.64c.57,7.59,1.29,15.84,1.84,20.61l.84,7.46-.94,1c-1.32,1.37-4.42,3.49-4.82,3.35a5.45,5.45,0,0,1-1.19-1.4c-4.33-5.77-12.41-11.7-18.87-13.94a18.75,18.75,0,0,0-13,0,3.38,3.38,0,0,1-1.48.33c-.07,0-.11-.12-.07-.25a6.94,6.94,0,0,1,1.48-1.63,18,18,0,0,1,13.74-4,24.21,24.21,0,0,1,4.56,1.12,43.36,43.36,0,0,1,11.29,6.13c1,.81,2.12,1.57,2.12,1.57.09-.27-.56-8.5-.76-10.78C1798.15,612.32,1795.58,614.48,1791.63,613.11Z"/><path class="cls-7" d="M71.41,712.79a16.94,16.94,0,0,0-4-4,2,2,0,0,1-.71-.72,3.38,3.38,0,0,1-.19-1.51,36,36,0,0,1,.63-4.21c.26-.93.45-1.28.81-1.46s.89,0,1.42.56c.88.9.75.08,1.18-.13s1.07.55,1.56,1.56c1.67,3.46,5.38,6.73,16.77,15.81l7.18,5.68,0,2.32a19.26,19.26,0,0,1-.41,3.76l-.38,1.42L91,730.71c-4-1.1-11.74-2.07-12.53-1.68-.15.07-.29.31-.28,2.18,0,2.14.13,8,.27,8.3,0,0,1.5-2.59,2.46-4.12l5.58,2.37a42.27,42.27,0,0,0-7.07,11.5,14.86,14.86,0,0,1-1.73,3.41c-.07,0-.14-.11-.14-.11a28.92,28.92,0,0,1-1.89-8.33c-.11-1.72-.15-9.16-.14-10.24,0-3.36-.26-4-.4-4.33a1,1,0,0,0-1.07-.55c-6.69.47-10.21,1.1-14.17,2.66-1,.38-2.48.93-2.58.71a33.57,33.57,0,0,1,.47-5.46l.42-2.25,2.92-1.14a37.12,37.12,0,0,1,8.25-1.85c1.76-.23,3.73-.56,3.88-.63C73.73,720.91,72,713.94,71.41,712.79Zm7,6-2.51-2.08.3,1.72a6.5,6.5,0,0,0,.43,2c.35.72,1,.88,2.6.79.68-.06,1.61-.16,1.55-.3A23.62,23.62,0,0,0,78.38,718.76ZM98,731a19.06,19.06,0,0,0,.41-3.75l.06-2.25,2.14.75L100.5,728a17.81,17.81,0,0,1-.41,3.75l-.34,1.5-2.14-.75Z"/><path class="cls-7" d="M92.92,733.06c-.46-.94.08-5.9.87-8.86.38-1.43,1.2-3.78,1.91-5.81L89,710.89a31.87,31.87,0,0,0-3.24-3.77,11.2,11.2,0,0,0-.21,2.51c-.14,5-.91,8.79-1.35,9a.07.07,0,0,1-.1,0,16.65,16.65,0,0,1-.54-4.8c-.11-4.84-.74-8.17-2.55-11.92a5.37,5.37,0,0,1-.63-3.87c.44-3.15,1.08-5,1.36-5.1.51-.24,2.54,2.5,4.79,5.51,2.57,3.29,5.55,7.09,6.79,8.54L98,712.38l1,4a20.46,20.46,0,0,0-1.31,4.46s2.31-2,2.86-2.54a32.45,32.45,0,0,1,8.48-5.42l4.69-2.26-1.41-1.45a37.28,37.28,0,0,1-4.78-6.4,5.86,5.86,0,0,1-.33-4.2c.51-3.17.77-3.92,1.06-4.06s.53.19.84.83c.87,1.81,4,5.72,9,10.65a13.26,13.26,0,0,1,2.6,3.19c.45.94.44,1.83.23,4.15-.21,2.15-.37,3.11-1.23,3.53a4.85,4.85,0,0,1-1.44.33,47.8,47.8,0,0,0-10.75,3.68A35.55,35.55,0,0,0,96,730.17,24.57,24.57,0,0,1,93,733.1.07.07,0,0,1,92.92,733.06Z"/><path class="cls-7" d="M119.43,720.27c-.45-.94.08-5.9.88-8.86.38-1.43,1.2-3.78,1.91-5.81l-6.73-7.5a34.19,34.19,0,0,0-3.24-3.77,10.56,10.56,0,0,0-.21,2.51c-.15,5-.92,8.78-1.35,9a.08.08,0,0,1-.11,0A17.45,17.45,0,0,1,110,701c-.11-4.84-.74-8.17-2.55-11.92a5.42,5.42,0,0,1-.62-3.87c.44-3.15,1.07-5,1.36-5.1.5-.24,2.54,2.5,4.79,5.51,2.56,3.29,5.55,7.09,6.78,8.54l4.76,5.43,1,4a21.53,21.53,0,0,0-1.32,4.46s2.32-2,2.86-2.54a32.5,32.5,0,0,1,8.49-5.42l4.68-2.26-1.41-1.45a37.48,37.48,0,0,1-4.77-6.41,5.89,5.89,0,0,1-.34-4.19c.51-3.17.78-3.92,1.06-4.06s.54.19.85.83c.87,1.81,4,5.72,9,10.65a13.54,13.54,0,0,1,2.61,3.19c.45.94.44,1.83.22,4.15-.2,2.15-.36,3.11-1.23,3.53a5.19,5.19,0,0,1-1.43.33,47.63,47.63,0,0,0-10.75,3.68,35.55,35.55,0,0,0-11.69,9.28,25.4,25.4,0,0,1-2.94,2.93A.09.09,0,0,1,119.43,720.27Z"/><path class="cls-7" d="M142.37,674.83c-1.3.63-3.25,2.28-2.63,3.58a5,5,0,0,0,1.2,1.38c2.61,2.29,6.25,3,11.85,2.27,1.43-.15,3.22-.31,3.78.85s0,5.22-2,10.92a16.25,16.25,0,0,0-1.05,3.7s2.31-2,2.86-2.53a32.74,32.74,0,0,1,8.48-5.43l4.69-2.26-1.41-1.45a36.52,36.52,0,0,1-4.78-6.4,6.71,6.71,0,0,1-.33-4.55c.51-2.82.7-3.53,1-3.67s.53.19.84.84c.87,1.8,4.07,5.67,9.12,10.61a13.12,13.12,0,0,1,2.53,3c.49,1,.37,2,.14,5.26-.12,1.22-.21,2.14-1.07,2.56a5.25,5.25,0,0,1-1.44.34,47.3,47.3,0,0,0-10.75,3.68,37.17,37.17,0,0,0-12,9.52,20,20,0,0,1-2.62,2.69.09.09,0,0,1-.11,0c-.45-.94.09-5.91,1-9.08.41-1.53,1.46-4.7,2.28-6.87l1.56-3.95-1.65.26c-6.42.88-11.87-1-13.33-4.05-1.25-2.59-1-8.67.15-12.77.94-3.21,2.47-5.37,4.42-6.31.5-.24,1.18-.48,1.54-.66.65-.31.69-.6.63-1.1a47.88,47.88,0,0,1,1.06-11.43c.18-.54.59-1.35.73-1.07a29.35,29.35,0,0,1,.17,5.52c-.12,3.25,0,4,1.3,6.74a17.7,17.7,0,0,0,2.83,4.59l1.41,1.63-.26,2.78c-.29,2.9-.63,4.4-.92,4.54-.5.24-3.1-3.48-3.68-3.21-.21.11-.26.93-.57.28C146.5,674,144,674,142.37,674.83Z"/><path class="cls-7" d="M205,659.8c-.14.07-1-.94-1.2-1.2-2.85-3.51-10.65-8.27-13.65-8.6a4.1,4.1,0,0,0-2.26.29c-.51.24-.48.5.07,2.18a19.52,19.52,0,0,0,.87,2.16c2.92,6.06,11.59,15.2,16.26,16.41a6.74,6.74,0,0,0,4.55-.51c1.73-.83,2.28-1.9,2.28-4.48a20.39,20.39,0,0,1,.53-4.6l.68-2.11.44,1.66c1.06,3.48.34,11-1.38,14.07a8,8,0,0,1-3.52,3.21,7.13,7.13,0,0,1-5.94.2c-4.59-2-12.27-10.15-15.47-16.78a21.32,21.32,0,0,1-1.63-13.88c.65-3.06,1.46-4.7,2.69-5.29,2.31-1.11,7,1,9,2.13.64.41.68.48.61,0a19.54,19.54,0,0,1,.17-6.66c.23-1.53.64-2.35.93-2.49.07,0,.18,0,.28.22a5.24,5.24,0,0,1,.24,1,40.75,40.75,0,0,0,3.21,10.17c1.12,2.31,2.28,3.62,2.7,4.48C206.68,653.85,205.38,659.63,205,659.8Z"/><path class="cls-7" d="M214.3,643.87a17,17,0,0,0-4-4,1.86,1.86,0,0,1-.7-.73,3.34,3.34,0,0,1-.2-1.5,36.56,36.56,0,0,1,.63-4.22c.27-.92.45-1.28.81-1.45s.9,0,1.43.56c.88.9.75.08,1.18-.13s1.06.55,1.55,1.56c1.67,3.46,5.38,6.73,16.77,15.8l7.19,5.69,0,2.32a17.65,17.65,0,0,1-.41,3.75l-.38,1.43-4.27-1.13c-4-1.1-11.75-2.07-12.47-1.72-.36.17-.52,1.32-.43,2.61.07,2.54-.6,6.86-1.1,7.1a.37.37,0,0,1-.18-.18,19,19,0,0,1-.6-3.09c-.32-2.51-.4-4.33-1-5.48-.41-.87-.84-.84-1.2-.84-6.7.47-10.22,1.1-14.17,2.66-1,.38-2.49.93-2.59.71a36.32,36.32,0,0,1,.47-5.47l.43-2.24,2.91-1.14a37.09,37.09,0,0,1,8.26-1.85c1.75-.23,3.73-.56,3.87-.63C216.61,652,214.85,645,214.3,643.87Zm7,6-2.51-2.07.3,1.72a7.16,7.16,0,0,0,.43,2c.35.72,1,.87,2.6.79.69-.06,1.62-.16,1.55-.3A24.43,24.43,0,0,0,221.26,649.83Z"/><path class="cls-7" d="M216.08,628.79c.08,0,2-.36,3-.49,7.64-1.29,12-2.41,17.82-5.22a83.37,83.37,0,0,0,13.61-8.25,12.49,12.49,0,0,1,1.19-.84.21.21,0,0,1,.32.11c.32.65-.13,4.33-.55,6-.34,1.32-.77,1.88-2.4,3.11a84.92,84.92,0,0,1-8.31,5.25,29.87,29.87,0,0,0-3.17,1.89c0,.07,2.39,2.57,5.29,5.44,5.54,5.59,11.26,10.82,13.84,12.86a8.56,8.56,0,0,1,2.15,2.07c.63,1.3-.6,7-1,7.25-.65.32-8.42-6.59-25.64-23.87-1.09-1.16-1.27-1.34-2.35-.82l-.14.07A70.22,70.22,0,0,1,218.92,636c-2.37.42-3.52.45-3.72,0s-.07-2.9.35-5.14A10.14,10.14,0,0,1,216.08,628.79Z"/><path class="cls-7" d="M249.24,622.39a5.53,5.53,0,0,0,1.19,1.38c2.34,1.9,4.94,2.86,13.35,5,14.4,3.71,20.77,6.24,22.89,10.63,1,2.09,1.05,4.56.46,8-.66,4.14-1.58,5.74-5.76,7.76a14.46,14.46,0,0,1-6.75,1.65,15.2,15.2,0,0,1-8-1.9l-1.38-.84.14-2.29a25,25,0,0,1,.48-4l.39-1.61,1.52,1c3.83,2.42,10,2.54,15,.15,1.44-.7,1.84-1.16,1.57-1.74a6.17,6.17,0,0,0-1.34-1.3c-3.4-2.63-9.7-5-20.93-7.85-10.09-2.51-13-3.87-14.19-6.39-1.91-4-.75-12.79,1.76-15.87a5.67,5.67,0,0,1,1.92-1.54c1.59-.77,3.59-.67,6.33.23l2.25.78L259,611.3c-1.21-2.52-1.31-3.1-.73-5.95a11.06,11.06,0,0,1,.86-3.17,10.47,10.47,0,0,1,1.65,2.49,29.47,29.47,0,0,0,8.38,9.81l2.76,2.23v1.68a28.69,28.69,0,0,1-.45,3.86l-.43,2.24-3.33-2.3-.38,1.61c-.45,1.64-.85,2.1-1.06,1.66-.52-1.08-5.64-3.58-9.31-4.75-2.81-.86-4.81-1-6.47-.16C249.69,620.93,248.85,621.6,249.24,622.39Z"/><path class="cls-7" d="M303.72,600.74a17,17,0,0,0-4-4A2,2,0,0,1,299,596a3.49,3.49,0,0,1-.19-1.5,36.21,36.21,0,0,1,.63-4.22c.27-.92.45-1.28.81-1.45s.9,0,1.42.55c.89.91.75.09,1.19-.12s1.06.55,1.55,1.56c1.67,3.46,5.38,6.73,16.77,15.8l7.18,5.69,0,2.32a18.49,18.49,0,0,1-.41,3.75l-.38,1.43-4.28-1.14c-4-1.09-11.74-2.06-12.46-1.71-.36.17-.52,1.31-.43,2.6.07,2.55-.6,6.87-1.1,7.11a.37.37,0,0,1-.18-.18,19,19,0,0,1-.6-3.09c-.32-2.51-.4-4.33-1-5.49-.42-.86-.85-.83-1.2-.84-6.7.48-10.22,1.11-14.18,2.66-1,.38-2.48.93-2.58.72a34.9,34.9,0,0,1,.47-5.47l.42-2.25,2.92-1.14a37.67,37.67,0,0,1,8.26-1.85c1.75-.22,3.73-.55,3.87-.62C306,608.86,304.27,601.89,303.72,600.74Zm7,6-2.51-2.07.3,1.72a6.57,6.57,0,0,0,.43,2c.35.72,1,.87,2.6.79.68-.07,1.62-.16,1.55-.3A24.43,24.43,0,0,0,310.68,606.7Z"/><path class="cls-7" d="M309.87,587.73a4.87,4.87,0,0,0-1.8-1.53c-2.73-1.61-4.82-3-5.74-3.63l-1.63-1.16.13-1.93c.09-1.11.29-2.72.41-3.4a3.77,3.77,0,0,1,.7-1.85c.29-.14,2.14.93,4.34,2.35,4.18,2.78,6.63,3.82,14.34,5.61a103.28,103.28,0,0,1,10.69,3c4.77,1.6,6.44,2.3,7,3.53.87,1.8.17,5.87,0,6.66a4.13,4.13,0,0,1-2.07,2.51c5.17,1.32,14.22,3.53,20.53,5.55l3.35,1,.2-1.25c.15-.79.45-1.82.57-2.5l.23-1.18,3.26,2.52c1.8,1.35,5.1,3.58,7.33,4.9l4.12,2.45-.1,2.19a22.49,22.49,0,0,1-.56,3.82L374.8,617l-10.48-3.12c-5.52-1.69-24.55-7.43-33.31-10.31,2.23,1.85,5.38,4.33,6.12,5.13l2.22,2.21,0,1.79c0,2.86-.35,4.26-1.07,4.6-1.15.56-3.34-1.94-6.58-5.35-6.07-6.31-12-13.23-18.76-19.73a14.33,14.33,0,0,1-2.67-3C310,588.66,310.08,588.16,309.87,587.73Zm10.09,2.5c0,.07,1.52,1.67,2.44,2.65,4.29,4.68,4,4.56,8.18,3a21,21,0,0,0,2.27-.83c.65-.31.87-.59.8-.74a15.12,15.12,0,0,0-3.63-1.45A98.45,98.45,0,0,0,320,590.23Z"/><path class="cls-7" d="M341.45,578.8c-1.29.63-3.25,2.28-2.62,3.58a4.78,4.78,0,0,0,1.19,1.38c2.62,2.29,6.26,3,11.85,2.27,1.43-.15,3.22-.31,3.78.85s0,5.22-2,10.92a17.33,17.33,0,0,0-1.05,3.7s2.32-2,2.86-2.53a32.8,32.8,0,0,1,8.49-5.43l4.68-2.26-1.41-1.45a36.49,36.49,0,0,1-4.77-6.4,6.65,6.65,0,0,1-.33-4.55c.5-2.82.69-3.53,1-3.67s.53.19.85.83c.87,1.81,4.07,5.68,9.11,10.62a13.43,13.43,0,0,1,2.54,3c.48,1,.36,2,.14,5.26-.13,1.22-.21,2.14-1.08,2.56a5.18,5.18,0,0,1-1.43.34,47.14,47.14,0,0,0-10.75,3.68,37.21,37.21,0,0,0-12,9.52,19.87,19.87,0,0,1-2.61,2.68.07.07,0,0,1-.11,0c-.45-.94.08-5.91.95-9.08.42-1.53,1.46-4.7,2.28-6.87l1.56-4-1.65.26c-6.42.88-11.86-1-13.32-4.05-1.25-2.6-1-8.68.14-12.77.94-3.21,2.48-5.37,4.42-6.31.51-.24,1.19-.48,1.55-.66.65-.31.69-.6.62-1.1a47.88,47.88,0,0,1,1.06-11.43c.19-.54.59-1.36.73-1.07a29.35,29.35,0,0,1,.17,5.52c-.11,3.25,0,4,1.3,6.74a17.36,17.36,0,0,0,2.84,4.59l1.4,1.63-.25,2.78c-.29,2.9-.64,4.4-.92,4.53-.51.25-3.1-3.48-3.68-3.2-.22.11-.26.93-.58.28C345.58,578,343.11,578,341.45,578.8Z"/><path class="cls-7" d="M381.35,553.25a5,5,0,0,0-1.8-1.53c-2.73-1.61-4.82-3-5.75-3.62l-1.63-1.17.14-1.93c.12-1.22.18-4.79.9-5.14s2.35.82,4,1.88c4.72,3.14,7.17,4.18,14,5.78,5.71,1.33,17.05,3.68,18.79,7.28.84,1.73.11,5.19-.27,6.62a9.18,9.18,0,0,0-.39,2.32,19.62,19.62,0,0,0,2.92.54c5.89,1,11.44,3.45,12.31,5.26.66,1.36.27,6.08-.81,9-.41,1-.7,1.31-3.91,3.13-7.36,4.26-11.37,7.35-13.49,10.15-3,3.93-3,8.37-3.52,10.93l-.41,1.72-.49-1a16.92,16.92,0,0,1-.44-4.59c.1-6.62,2.92-11.26,6.43-16.33,0,0-2.22-2.39-4.2-4.46-5-5.33-5.89-6.13-7.81-6.63-.4-.07-.79-.15-1-.51s0-1.68-.36-2.4a12.53,12.53,0,0,0-1.9-2.28c-3-3.27-6-6.28-8.32-8.6a13.44,13.44,0,0,1-2.65-2.9C381.45,554.18,381.56,553.68,381.35,553.25Zm10.09,2.5c0,.08,1.52,1.67,2.05,2.22,5,5.33,5.29,5.26,10.48,2.76l.21-.11c.8-.38,1-.66.94-.81a13.86,13.86,0,0,0-3.27-1.26A104.66,104.66,0,0,0,391.44,555.75Zm26.2,20.06c.79-.39,1.44-.88,1.23-1.31s-1.17-.77-2.7-1.18a41.54,41.54,0,0,0-7.78-1.58,4.76,4.76,0,0,0-1.93,0,.09.09,0,0,0,0,.11c0,.07,1,1.12,2.19,2.32l2.22,2.22,0,1.78c0,1,0,1.79,0,1.86s.11,0,.54-.17C412.79,579.21,415.69,576.74,417.64,575.81Z"/><path class="cls-7" d="M418.57,545.33a17.12,17.12,0,0,0-4-4,1.86,1.86,0,0,1-.7-.73,3.51,3.51,0,0,1-.2-1.51,35.85,35.85,0,0,1,.64-4.21c.26-.93.44-1.28.8-1.45s.9,0,1.43.55c.88.91.75.08,1.18-.12s1.07.55,1.55,1.56c1.67,3.46,5.38,6.73,16.77,15.8l7.19,5.68,0,2.33a17.81,17.81,0,0,1-.41,3.75l-.37,1.43-4.28-1.14c-4-1.09-11.75-2.06-12.47-1.71-.36.17-.52,1.31-.43,2.6.08,2.54-.59,6.86-1.1,7.11a.37.37,0,0,1-.18-.18,20.29,20.29,0,0,1-.6-3.09c-.32-2.51-.4-4.34-1-5.49-.41-.86-.84-.83-1.2-.84-6.7.48-10.21,1.11-14.17,2.66-1,.38-2.49.93-2.59.72a36.23,36.23,0,0,1,.47-5.47l.43-2.25,2.91-1.14a37.81,37.81,0,0,1,8.26-1.85c1.76-.22,3.73-.55,3.87-.62C420.89,553.45,419.12,546.49,418.57,545.33Zm7,6L423,549.23l.3,1.72a6.82,6.82,0,0,0,.44,2c.34.72.95.87,2.6.79.68-.07,1.61-.16,1.54-.3A21.86,21.86,0,0,0,425.53,551.3Z"/><path class="cls-7" d="M430.59,534.91a5.81,5.81,0,0,0,1.2,1.38c2.34,1.89,4.93,2.86,13.35,5,14.4,3.71,20.77,6.24,22.89,10.63,1,2.09,1.05,4.56.46,7.95-.67,4.14-1.58,5.74-5.76,7.76A14.49,14.49,0,0,1,456,569.3a15.18,15.18,0,0,1-8-1.9l-1.38-.84.14-2.29a25.23,25.23,0,0,1,.48-4l.39-1.6,1.52.95c3.83,2.42,10,2.54,15,.14,1.44-.69,1.84-1.15,1.56-1.73a6,6,0,0,0-1.34-1.31c-3.39-2.62-9.69-5-20.93-7.84-10.09-2.51-13-3.87-14.18-6.39-1.91-4-.75-12.79,1.76-15.87a5.67,5.67,0,0,1,1.92-1.54c1.59-.77,3.59-.67,6.33.23l2.24.78-1.11-2.3c-1.21-2.53-1.31-3.1-.74-6a11.4,11.4,0,0,1,.87-3.18,10.63,10.63,0,0,1,1.65,2.5,29.56,29.56,0,0,0,8.37,9.81l2.76,2.22,0,1.69a28.38,28.38,0,0,1-.45,3.85l-.43,2.25-3.33-2.3-.38,1.61c-.45,1.64-.85,2.09-1.06,1.66-.52-1.08-5.64-3.58-9.31-4.75-2.81-.86-4.81-1-6.47-.16C431.05,533.45,430.21,534.12,430.59,534.91Z"/><path class="cls-7" d="M444.13,518.79c.08,0,2.05-.36,3.05-.49,7.64-1.29,12-2.41,17.82-5.22a83.8,83.8,0,0,0,13.61-8.25,12.71,12.71,0,0,1,1.19-.85.21.21,0,0,1,.32.12c.32.64-.13,4.32-.55,6-.34,1.32-.78,1.89-2.4,3.12a86.86,86.86,0,0,1-8.31,5.25,28.12,28.12,0,0,0-3.17,1.89c0,.07,2.39,2.57,5.29,5.44,5.53,5.59,11.26,10.82,13.84,12.86a8.76,8.76,0,0,1,2.15,2.07c.63,1.3-.6,7-1,7.25-.65.31-8.42-6.6-25.64-23.87-1.09-1.16-1.27-1.35-2.35-.82l-.14.07A70.72,70.72,0,0,1,447,526c-2.37.43-3.52.45-3.73,0s-.06-2.9.36-5.15A9.42,9.42,0,0,1,444.13,518.79Z"/><path class="cls-7" d="M485.94,512.84a17.16,17.16,0,0,0-4-4,1.86,1.86,0,0,1-.7-.73,3.32,3.32,0,0,1-.2-1.5,33.51,33.51,0,0,1,.64-4.21c.26-.93.44-1.29.8-1.46s.9,0,1.43.56c.88.9.75.08,1.18-.13s1.07.55,1.55,1.56c1.67,3.46,5.38,6.73,16.77,15.8l7.19,5.69,0,2.32a17.73,17.73,0,0,1-.41,3.75l-.38,1.43-4.27-1.13c-4-1.1-11.75-2.07-12.47-1.72-.36.17-.52,1.32-.43,2.61.07,2.54-.6,6.86-1.1,7.1a.37.37,0,0,1-.18-.18,19,19,0,0,1-.6-3.09c-.32-2.51-.4-4.33-1-5.48-.41-.87-.84-.84-1.2-.84-6.7.47-10.22,1.1-14.17,2.66-1,.38-2.49.93-2.59.71a36.32,36.32,0,0,1,.47-5.47l.43-2.24,2.91-1.14a37.23,37.23,0,0,1,8.26-1.85c1.75-.23,3.73-.56,3.87-.63C488.25,521,486.49,514,485.94,512.84Zm7,6-2.51-2.07.3,1.72a7.16,7.16,0,0,0,.43,2c.35.72,1,.87,2.61.79.68-.06,1.61-.16,1.54-.3A24.43,24.43,0,0,0,492.9,518.8Z"/><path class="cls-7" d="M492.1,499.83a5,5,0,0,0-1.81-1.53c-2.73-1.61-4.82-3-5.74-3.62l-1.63-1.17.13-1.93c.09-1.11.29-2.72.41-3.39a3.54,3.54,0,0,1,.71-1.85c.28-.14,2.13.92,4.33,2.35,4.18,2.78,6.63,3.81,14.34,5.6a103.28,103.28,0,0,1,10.69,3c4.77,1.6,6.44,2.31,7,3.53.87,1.8.17,5.87,0,6.66A4.17,4.17,0,0,1,518.5,510c5.17,1.33,14.23,3.53,20.53,5.55l3.35,1.05.2-1.25c.15-.78.45-1.82.57-2.5l.23-1.17,3.26,2.51c1.8,1.35,5.1,3.58,7.34,4.9l4.11,2.46-.1,2.18a21.53,21.53,0,0,1-.56,3.82l-.41,1.53L546.54,526c-5.52-1.69-24.55-7.43-33.31-10.31,2.23,1.86,5.38,4.33,6.12,5.13l2.22,2.22,0,1.78c0,2.87-.35,4.26-1.07,4.6-1.15.56-3.33-1.94-6.58-5.35-6.06-6.31-12-13.23-18.75-19.73a13.92,13.92,0,0,1-2.68-3C492.19,500.76,492.3,500.26,492.1,499.83Zm10.09,2.5c0,.08,1.51,1.67,2.43,2.65,4.3,4.68,4,4.57,8.19,3a21.4,21.4,0,0,0,2.26-.83c.65-.31.87-.59.8-.74a15.1,15.1,0,0,0-3.63-1.44A97.4,97.4,0,0,0,502.19,502.33Z"/><path class="cls-7" d="M530.41,525.49a16.65,16.65,0,0,0-8.23,7.79,5.49,5.49,0,0,1-1.1,1.6c-.14.07-.18,0-.18,0a6.92,6.92,0,0,1-.18-2.58,15.08,15.08,0,0,1,3.79-9.47c1.89-2.33,3.34-3.38,7-5.16a66.4,66.4,0,0,1,8.1-3.28,39.24,39.24,0,0,0,5.33-2,12.47,12.47,0,0,0,4.95-3.9l1.46-1.94L550.07,504a8,8,0,0,0-3.16-4,32.38,32.38,0,0,0-7.67-4.12c-3.84-1.52-14.71-4.9-18.92-5.89l-1.49-.34,2.64,3.08c4.18,5,11.53,14.33,11.95,15.2s.09,5.72-.62,7.93c-.15.43-.18.36-.43,0-2.35-3.4-13-16.57-15.5-19.25a7.19,7.19,0,0,0-2-1.64c-.38-.79-.42-3.09,0-5.26l.38-1.61L512.71,487a24.35,24.35,0,0,1-7.72-5.34l-1.91-1.92v-1.86a27.28,27.28,0,0,1,.49-4.15c.16-1.14.42-1.89.71-2s.5.12.74.62c.73,1.52,3.66,4.1,7.18,6.05,3,1.72,7,3.21,15.7,5.66,14.54,4.17,19.44,6.61,22.89,11a8.9,8.9,0,0,1,1.08,1.52,16.75,16.75,0,0,1,1.37,9.29c-.59,6.86-3.13,11.37-8.89,14.15C541,521.56,534.37,523.58,530.41,525.49Z"/><path class="cls-7" d="M543.21,480.59a6,6,0,0,0,1.2,1.38c2.34,1.89,4.93,2.86,13.35,5,14.4,3.71,20.77,6.23,22.89,10.63,1,2.09,1,4.56.46,7.95-.67,4.14-1.59,5.74-5.76,7.75a14.5,14.5,0,0,1-6.76,1.66,15.26,15.26,0,0,1-8-1.9l-1.38-.85.14-2.28a24.94,24.94,0,0,1,.48-4l.38-1.6,1.53.95c3.83,2.41,10,2.54,15,.14,1.44-.69,1.84-1.15,1.56-1.73a6,6,0,0,0-1.34-1.31c-3.4-2.62-9.7-5-20.93-7.85-10.09-2.5-13-3.87-14.18-6.39-1.91-4-.75-12.78,1.76-15.86a5.69,5.69,0,0,1,1.92-1.55c1.58-.76,3.59-.66,6.33.24l2.24.78L553,469.49c-1.21-2.52-1.31-3.09-.74-5.95a11.39,11.39,0,0,1,.87-3.17,10.71,10.71,0,0,1,1.65,2.49,29.5,29.5,0,0,0,8.37,9.82l2.76,2.22v1.68a26.87,26.87,0,0,1-.44,3.86l-.43,2.25-3.33-2.3-.38,1.6c-.45,1.64-.85,2.1-1.06,1.67-.52-1.08-5.64-3.59-9.31-4.75-2.81-.86-4.82-1-6.47-.16C543.66,479.13,542.83,479.8,543.21,480.59Z"/><path class="cls-8" d="M496.07,254c.34-1,4.22-4.12,6.87-5.66,1.28-.74,3.52-1.83,5.45-2.77l.53-10.06a31.77,31.77,0,0,0,.36-4.95,10.68,10.68,0,0,0-1.91,1.61c-3.66,3.48-6.85,5.59-7.31,5.43a.08.08,0,0,1-.05-.1,17,17,0,0,1,3-3.78c3.33-3.5,5.24-6.31,6.6-10.24a5.39,5.39,0,0,1,2.29-3.19c2.53-1.92,4.26-2.76,4.57-2.65.52.18,0,3.57-.5,7.28-.51,4.14-1.07,8.94-1.22,10.84l-.47,7.2-2.09,3.6a21.77,21.77,0,0,0-4.08,2.22s3.06.22,3.82.23a32.56,32.56,0,0,1,9.84,2.14l4.91,1.71,0-2a36.57,36.57,0,0,1,1.13-7.9,5.91,5.91,0,0,1,2.72-3.21c2.61-1.89,3.32-2.23,3.62-2.13s.25.51,0,1.19c-.65,1.89-1.19,6.87-1.1,13.93a13.3,13.3,0,0,1-.41,4.09c-.34,1-1,1.61-2.77,3.11s-2.45,1.94-3.36,1.62a5,5,0,0,1-1.25-.77,47.61,47.61,0,0,0-10.21-5,35.73,35.73,0,0,0-14.84-1.67,24.2,24.2,0,0,1-4.14,0A.07.07,0,0,1,496.07,254Zm36.47-17.75a20,20,0,0,0-2.94,2.37L528,240.14l.14-2.58,1.63-1.55a19.55,19.55,0,0,1,2.94-2.37l1.3-.81-.13,2.58Z"/><path class="cls-8" d="M544.38,238c-1.36-.47-3.91-.68-4.38.68a4.83,4.83,0,0,0-.12,1.82c.23,3.47,2.29,6.56,6.78,10,1.13.9,2.5,2.05,2.08,3.27s-3.66,3.72-9.13,6.31a16.64,16.64,0,0,0-3.36,1.88s3,.21,3.81.22a32.64,32.64,0,0,1,9.85,2.15l4.91,1.7,0-2A36.79,36.79,0,0,1,556,256a6.69,6.69,0,0,1,3-3.45c2.35-1.64,3-2,3.29-1.91s.25.51,0,1.19c-.65,1.89-1.12,6.89-1,13.95a13.51,13.51,0,0,1-.35,3.95c-.37,1.05-1.19,1.7-3.62,3.82-.94.78-1.66,1.37-2.56,1.06a5.41,5.41,0,0,1-1.26-.77,46.92,46.92,0,0,0-10.21-5A37.36,37.36,0,0,0,528,267.16a20.61,20.61,0,0,1-3.74.06.07.07,0,0,1,0-.1c.34-1,4.23-4.13,7.08-5.76,1.37-.8,4.35-2.3,6.47-3.26l3.89-1.7-1.36-1c-5.16-3.91-7.68-9.1-6.58-12.27.95-2.72,5.43-6.85,9.12-9,2.93-1.61,5.54-2.06,7.58-1.35.53.19,1.19.5,1.56.63.68.23.91.06,1.22-.34a48,48,0,0,1,8.82-7.36c.51-.24,1.37-.54,1.27-.24a29.22,29.22,0,0,1-3.77,4c-2.38,2.22-2.84,2.83-3.84,5.7a17.57,17.57,0,0,0-1.23,5.25l-.15,2.15-2.15,1.79c-2.25,1.84-3.55,2.66-3.85,2.56-.53-.19.26-4.65-.35-4.86-.22-.08-.84.47-.6-.21C547.9,240.29,546.12,238.57,544.38,238Z"/><path class="cls-8" d="M564,234.76c.08,0,1.71,1.19,2.51,1.8,6.32,4.48,10.19,6.76,16.31,8.88a83,83,0,0,0,15.47,3.76,12.52,12.52,0,0,1,1.44.25.2.2,0,0,1,.14.3c-.23.68-3.15,3-4.65,3.89-1.17.7-1.88.79-3.9.51a85.38,85.38,0,0,1-9.59-2.14,31.44,31.44,0,0,0-3.58-.91c0,.08-.12,3.52-.09,7.59,0,7.87.34,15.62.73,18.89a8.84,8.84,0,0,1,.06,3c-.47,1.36-5.4,4.57-5.85,4.41-.68-.24-1.31-10.62-1.31-35,0-1.59,0-1.84-1.09-2.24l-.15-.05a69.15,69.15,0,0,1-9.49-5.83c-2-1.37-2.81-2.16-2.65-2.62s2-2.1,3.88-3.39A10.18,10.18,0,0,1,564,234.76Z"/><path class="cls-8" d="M621.29,271.09c.9-2.57,4.65-5.33,6.79-6.37-1.23,7.45,0,18.62,2.84,28.17.48,1.78.8,3.07.61,3.6-.42,1.21-5.42,4.39-5.87,4.23-.75-.26-3.71-13.23-4.12-18.87a7.64,7.64,0,0,0-.47-2.79c-.15-.05-.92.95-1.46,1.78-2.5,3.53-6.42,7.25-9,8.64a3.12,3.12,0,0,1-2.46.5,3.73,3.73,0,0,1-1.82-2.07c-1.92-4-5.14-15.93-6.8-24.8-.53-2.64-1-4.85-1-4.85-.17-.73-.19-.91-.11-1.14s.59-.73,1.23-1.35a19.46,19.46,0,0,1,2.94-2.37c.66-.44,1.37-.79,1.67-.69s.87,1.66,1.65,6c2.21,11.69,6.22,25.27,7.2,25.61S620.48,273.43,621.29,271.09Z"/><path class="cls-8" d="M637.23,269.34a5.93,5.93,0,0,0-.13,1.82c.32,3,1.48,5.51,5.92,13,7.58,12.8,10.31,19.08,8.71,23.69-.76,2.19-2.47,4-5.28,6-3.4,2.46-5.17,2.94-9.56,1.42a14.39,14.39,0,0,1-5.95-3.58,15.33,15.33,0,0,1-4.34-7l-.39-1.57,1.72-1.52a23.65,23.65,0,0,1,3.14-2.47l1.4-.87.41,1.75c1,4.42,5.31,8.87,10.52,10.68,1.51.53,2.12.48,2.33-.12a5.64,5.64,0,0,0,0-1.87c-.55-4.26-3.34-10.39-9.29-20.33-5.38-8.9-6.45-11.9-5.54-14.54,1.45-4.16,8.5-9.59,12.45-10a5.44,5.44,0,0,1,2.45.25c1.66.58,3,2.06,4.32,4.64l1,2.13.84-2.41c.91-2.65,1.25-3.13,3.67-4.74A11.08,11.08,0,0,1,658.5,262a10.6,10.6,0,0,1-.6,2.93,29.72,29.72,0,0,0-1,12.87l.39,3.52-1.18,1.2a28.08,28.08,0,0,1-3,2.41l-1.89,1.3c-.24-1.27-.5-2.72-.74-4l-1.4.87c-1.48.84-2.08.88-1.93.43.4-1.14-1.46-6.52-3.24-9.93-1.38-2.6-2.73-4.09-4.47-4.69C638.58,268.62,637.52,268.51,637.23,269.34Z"/><path class="cls-8" d="M673.37,276.71a5,5,0,0,0-.2-2.35c-.8-3.07-1.3-5.53-1.51-6.62l-.33-2,1.45-1.27c1-.78,3.51-3.28,4.26-3s1.09,2.24,1.52,4.16c1.12,5.56,2.13,8,5.83,14,3.1,5,9.48,14.64,8.17,18.42-.63,1.81-3.59,3.75-4.86,4.49a9.38,9.38,0,0,0-1.92,1.37,19.62,19.62,0,0,0,1.69,2.45c3.49,4.85,5.67,10.52,5,12.41-.5,1.43-4.1,4.5-6.92,5.8-1,.42-1.43.44-5-.54-8.22-2.17-13.25-2.81-16.72-2.33-4.89.68-8,3.83-10.21,5.27l-1.51.91.37-1.05a16.2,16.2,0,0,1,2.93-3.56c4.74-4.62,10-5.92,16.08-7,0,0,.11-3.26.17-6.12.24-7.28.16-8.5-.86-10.21-.22-.33-.45-.66-.32-1s1.18-1.2,1.45-1.95a12.49,12.49,0,0,0,.26-3c.18-4.43.21-8.65.17-12a12.83,12.83,0,0,1,.18-3.92C672.78,277.44,673.21,277.17,673.37,276.71Zm9.78,41.59c.83.29,1.64.4,1.8-.05s-.29-1.37-1.08-2.75a41.77,41.77,0,0,0-4.4-6.6,4.59,4.59,0,0,0-1.4-1.34.08.08,0,0,0-.1.05c0,.08-.09,1.49-.09,3.19v3.14l-1.28,1.25c-.66.69-1.28,1.25-1.3,1.32s.05.1.5.26C677.32,317.29,681.11,317.59,683.15,318.3Zm-4.4-32.69c0,.08-.11,2.25-.12,3-.24,7.28,0,7.46,5.48,9.35l.23.08c.83.29,1.18.24,1.24.09a13.34,13.34,0,0,0-1.43-3.2A106.71,106.71,0,0,0,678.75,285.61Z"/><path class="cls-8" d="M705.06,293.72c-1.36-.47-3.91-.68-4.39.69a5,5,0,0,0-.12,1.81c.24,3.47,2.3,6.56,6.79,10,1.12.9,2.5,2.06,2.08,3.26-.47,1.36-3.66,3.73-9.13,6.32a16.85,16.85,0,0,0-3.37,1.88s3.06.22,3.82.22a32.88,32.88,0,0,1,9.84,2.15l4.92,1.7,0-2a37.2,37.2,0,0,1,1.13-7.9,6.74,6.74,0,0,1,3-3.46c2.35-1.64,3-2,3.29-1.91s.25.51,0,1.19c-.66,1.89-1.12,6.9-1,14a13.79,13.79,0,0,1-.35,3.94c-.37,1.06-1.19,1.7-3.62,3.83-.94.77-1.66,1.37-2.57,1.05a5.36,5.36,0,0,1-1.25-.77,47.37,47.37,0,0,0-10.21-5,37.55,37.55,0,0,0-15.24-1.73,20.61,20.61,0,0,1-3.74.06.07.07,0,0,1,0-.1c.34-1,4.22-4.13,7.08-5.76,1.37-.79,4.35-2.3,6.46-3.26l3.89-1.7-1.35-1c-5.16-3.91-7.68-9.1-6.58-12.27.94-2.72,5.42-6.84,9.12-9,2.93-1.61,5.54-2.06,7.58-1.35.53.19,1.18.5,1.56.63.68.23.91.06,1.22-.34a48,48,0,0,1,8.82-7.36c.51-.24,1.37-.53,1.27-.23a30.21,30.21,0,0,1-3.77,4c-2.38,2.23-2.85,2.83-3.84,5.7a17.31,17.31,0,0,0-1.23,5.25l-.15,2.15-2.15,1.79c-2.25,1.85-3.55,2.66-3.85,2.56-.53-.18.26-4.65-.35-4.86-.22-.08-.84.47-.6-.21C708.57,296,706.8,294.33,705.06,293.72Z"/><path class="cls-9" d="M1504.15,220.46a7.59,7.59,0,0,0,1.11,2c2.4,3,5.37,4.93,15.28,9.94,17,8.59,24.21,13.5,25.64,19.56.69,2.89,0,6-1.61,10.05-2,5-3.56,6.73-9.33,8.09a18.37,18.37,0,0,1-8.88.21,19.47,19.47,0,0,1-9.49-4.58l-1.49-1.43.8-2.82a32.42,32.42,0,0,1,1.7-4.81l.92-1.9,1.64,1.61c4.11,4.07,11.8,5.92,18.67,4.3,2-.47,2.61-.93,2.42-1.73a7.44,7.44,0,0,0-1.31-2c-3.52-4.21-10.73-8.91-24-15.55-11.9-5.9-15.12-8.4-15.94-11.88-1.3-5.47,2.58-16.16,6.56-19.31a7.12,7.12,0,0,1,2.82-1.4c2.19-.52,4.66.15,7.84,2l2.58,1.59-.76-3.18c-.82-3.48-.79-4.23.72-7.63,1-2.34,1.76-3.67,2-3.72s.89,2,1.37,3.56c2,6.45,4.11,10.27,7.75,14.56l2.83,3.53-.45,2.1a33.35,33.35,0,0,1-1.62,4.69l-1.15,2.69-3.52-3.79-.92,1.9c-1,1.92-1.64,2.39-1.78,1.79-.35-1.49-6-6-10.31-8.49-3.27-1.85-5.74-2.52-8-2C1505.11,218.76,1503.89,219.36,1504.15,220.46Z"/><path class="cls-9" d="M1536.83,202.32c1.4-.33,3.12.31,4.58,1.12a5.7,5.7,0,0,0,4.87.63c6.72-1.38,10.6-.93,15.29,1.11,6.66,2.84,10.58,6.95,13.41,14.06a33.85,33.85,0,0,1,1.29,4.1c1.25,5.28.54,10.28-1.81,15.87-2,4.57-3.6,6.11-7,6.91s-6.35.24-10.12-1.49c-11.91-5.48-24.39-18.7-26.44-27.36a7.39,7.39,0,0,1-.16-1.12c-.17-2.48,1-7.08,2.78-10.43C1534.56,203.8,1535.54,202.62,1536.83,202.32Zm.1,10.17c-.1,0-.15.24-.08.54.47,2,5.4,8.6,10.77,13.53,7.77,7.09,17.33,11.54,22.8,10.25l.7-.17,1.55-.57-1.18-5c-1.41-6-2.79-8.68-5.25-11.05-3.25-3.11-9.83-6.91-10.62-6.73a.11.11,0,0,0-.08.13,11.62,11.62,0,0,0,2.24,3.25,17.22,17.22,0,0,1,3.29,5c.28,1.19-.38,4.19-1.66,7.22-.87,2.1-1.5,3-1.8,3.05-.09,0-.24-.15-.29-.35a6.52,6.52,0,0,0-.06-1.14c-.66-2.79-9.57-11.6-16.86-16.18C1539,213.36,1537.33,212.39,1536.93,212.49Z"/><path class="cls-9" d="M1593.48,183.34c.5-.12,2.82,3,4.55,5.43,9.38,13,18.94,23.67,34.58,38.25,3.9,3.6,8.85,8.1,10,9.08l2.09,1.71-.81,2.82a31,31,0,0,1-1.69,4.81l-.92,1.9-7.55-6.62a282.76,282.76,0,0,1-29.19-29.65c-2.74-3.13-4.3-4.86-4.8-4.74-.1,0-.06.22-.06.22.38,1.59,1.08,3.63,2.08,6.55l2,5.11-.86,3c-.29,1-1.34,6.3-2.84,6.66a.32.32,0,0,1-.22-.06c-1-.38-5.65-4.33-11.29-9.51-4.43-4.1-8.41-7.57-8.81-7.48-.69.17,1.54,12.25-1.78,21.75-.85,2.2-1.81,3.9-2.41,4,0,0-.1,0-.17-.27a11.46,11.46,0,0,1,.11-2.24,117,117,0,0,0,0-16.39,93.42,93.42,0,0,1-.17-10c.18-2.36,2.33-7.91,3.53-9a.8.8,0,0,1,.46-.32c1-.24,2.68,1.15,8.74,6.76l6.08,5.7c-1.59-5.82-3.06-11.57-4.65-17.39l.71-2.8a26.1,26.1,0,0,1,1.67-4.49A7.48,7.48,0,0,1,1593.48,183.34Z"/><path class="cls-9" d="M1618.49,194.44c-1.79.42-4.69,1.95-4.26,3.74a6.07,6.07,0,0,0,1.11,2c2.64,3.58,7,5.5,14.16,6.11,1.83.19,4.11.5,4.49,2.09.42,1.79-1.4,6.53-5.52,13.07-1.22,2-2.41,4-2.34,4.34,0,0,3.45-1.87,4.27-2.38a41.76,41.76,0,0,1,12.08-4.44l6.47-1.53-1.36-2.2c-1.07-1.85-3.56-6.61-4.2-9.3-.54-2.29,0-3.79.84-5.77,1.41-3.38,1.84-4.21,2.24-4.31s.61.38.82,1.28c.59,2.48,3.52,8.2,8.46,15.75a17.18,17.18,0,0,1,2.33,4.49c.33,1.39-.11,2.65-1.28,6.61-.49,1.48-.85,2.61-2,2.9a6.51,6.51,0,0,1-1.88,0,60.87,60.87,0,0,0-14.43,1.63c-6.67,1.58-12.06,4.54-17.62,8.59a24.58,24.58,0,0,1-4,2.62.09.09,0,0,1-.12-.07c-.31-1.29,1.73-7.34,3.68-11.06.94-1.8,3.12-5.47,4.74-7.95l3-4.5-2.13-.13c-8.25-.67-14.52-4.55-15.51-8.73-.85-3.58,1.15-11.09,3.69-15.89,2.06-3.75,4.57-6,7.25-6.66.7-.16,1.62-.28,2.11-.39.9-.22,1-.56,1.09-1.2a61,61,0,0,1,4.46-14c.38-.62,1.11-1.53,1.2-1.13s-.3,2.7-1.3,6.93c-1,4-1.13,5-.23,8.77a22.55,22.55,0,0,0,2.27,6.5l1.31,2.42-1.08,3.41c-1.16,3.53-2,5.31-2.4,5.4-.7.17-2.91-5.19-3.71-5-.3.07-.58,1.08-.79.19C1623.87,194.53,1620.78,193.89,1618.49,194.44Z"/><path class="cls-9" d="M1637.4,177.56c.1,0,2.65.11,3.94.23,9.88.49,15.62.29,23.67-1.62a106.37,106.37,0,0,0,19.25-6.55s1.33-.63,1.72-.73a.27.27,0,0,1,.37.23c.21.9-1.35,5.37-2.35,7.39-.78,1.55-1.49,2.14-3.85,3.22a108.76,108.76,0,0,1-11.81,4.27,36.68,36.68,0,0,0-4.48,1.48c0,.1,2.28,3.87,5.1,8.25,5.37,8.5,11.08,16.6,13.74,19.86a11.28,11.28,0,0,1,2.12,3.17c.42,1.79-2.69,8.62-3.29,8.77-.89.21-8.69-10.55-25.43-36.85-1-1.75-1.21-2-2.7-1.67l-.2.05c-1.79.42-9.65.5-14.24.22-3.07-.12-4.51-.41-4.65-1s.72-3.64,1.87-6.33A11.93,11.93,0,0,1,1637.4,177.56Z"/><path class="cls-9" d="M1721.36,197.18c-.2,0-.34-.12-.41-.42-.43-1.79-6.91-5.2-8.7-4.77,0,0-.2,0-.13.34a53.63,53.63,0,0,0,3.49,6.74l3.76,6.57-.54,2.13c-.16.66-1.82,6.52-2.92,6.78a.21.21,0,0,1-.24-.15c-.67-.58-8.69-15-11-19.36l-1-2-3.78,1.32c-2.24.74-6.64,1.67-6.43,2.57.12.5,2.35,4.59,5,9.11l4.83,8.42-.72,2.69c-.71,2.8-2.41,6.25-2.71,6.32s-3.68-5.75-7.56-12.4l-7.11-12.28-2.09.49c-2.49.59-12.82,1.77-13.2.18-.49-2.09,2-6.57,2.22-7l.92-1.9,3.17.09a20,20,0,0,0,3.35,0c.2-.05.18-.15.18-.15l0-.2c-.33-1.39-6.31-11.11-7.32-11.82-.35-1.49.71-5,2.36-8.23.51-1,.74-1.33.94-1.37.6-.15,4.07,5.65,7.16,10.7l5.85,9.64,5.3-1.57c2.94-.9,5.7-1.66,5.56-2.26-.31-1.29-8.54-17.41-8.65-17.91-.24-1,.61-3.19,2.14-6.5a13.37,13.37,0,0,1,1-2.24c.6-.14,12.14,22.87,12.19,23.07l.92,1.67,3.75-.58c5.17-.8,12.83,1,13.75,4.84C1724.75,188,1723.25,196.74,1721.36,197.18Z"/><path class="cls-9" d="M1730.56,209l-1,1.7-2.77-.61a23.1,23.1,0,0,0-10.66-.2,16.24,16.24,0,0,0-6.16,2.82c-1.08.78-1.93,1.19-2,.89-.11-.5,2.13-7,2.94-8.47,1.11-1.94,4.76-3.86,9.13-4.89l3.78-.9c-3.14-6.19-6.39-12.35-9.12-17.69-2.09-3.92-3.42-6.44-3.62-6.39a12.52,12.52,0,0,0-.93,3.16c-1.59,6.15-3.48,10.59-4.08,10.73a.09.09,0,0,1-.12-.07c-.19-.8,0-2.95.65-6.14,1.19-6.06,1.32-10.4.09-15.58a6.83,6.83,0,0,1,.29-5c1.41-3.8,2.7-5.89,3.1-6,.69-.16,2.48,3.83,4.46,8.19,2.29,4.82,5,10.38,7.57,15.12,2.79,5.12,6.8,13.21,10.87,21.07A20.77,20.77,0,0,1,1730.56,209Z"/><path class="cls-9" d="M1724.28,166.45c.49-.12,1.84,1.14,3.65,3.44,1.56,2.15,2.17,2.53,4.94,3.56.59.28,24.52,10.37,24.52,10.37-.19-.79-7-12.31-13.09-22.43l-3.13-5.25.74-2.17c.26-1.11,1.74-6,2.83-6.24.6-.14,2.67,3.26,5.55,8.35,4.93,8.4,10.25,17.12,14,23l6.73,10.7-.69,2.37c-1.07,3.93-1.91,5.7-3.06,6.6-2.29.55-26.1-11.26-26.5-11.16l0,.1c.23,1,8.11,13.41,8.42,14.71.21.89-1.29,5.66-2.53,7.95l-.74,1.33-4.54-7.22c-5.74-9.15-14.29-21.73-15.54-22.59-.91-.73-8.79-3-9-3.76-.07-.29.5-2.32,1.81-5.68.64-1.73.92-2.32,3.4-2.91C1722.25,169.45,1723.88,166.54,1724.28,166.45Z"/><path class="cls-9" d="M1782.88,197.43a9.22,9.22,0,0,1-7.67-1.33c-5.19-3.71-12.52-16.06-14.69-25.21a27.31,27.31,0,0,1,1.79-17.76c1.65-3.64,3.11-5.46,4.81-5.86,3.28-.78,8.51,3.13,10.67,5.14.42.43.56.6.66.58s.15-.25.21-.89a27,27,0,0,1,1.91-7.91c.74-1.75,1.47-2.66,1.87-2.76.1,0,.22.06.29.36a6,6,0,0,1,0,1.36,52.12,52.12,0,0,0,1.22,13.58c.75,3.18,1.84,5.13,2.13,6.32.8,3.39-2.41,10.24-2.91,10.36-.2,0-1-1.45-1.17-1.83-2.59-5.16-10.92-13.28-14.47-14.54a6.31,6.31,0,0,0-3.1-.21c-.69.17-.72.49-.5,2.75a24.34,24.34,0,0,0,.48,2.93c2,8.36,10.39,22.13,16,25a8.5,8.5,0,0,0,5.79.52c2.39-.57,3.1-1.58,3.73-4.25-1.52-1.95-3.1-4.2-4.66-6.35L1791,171c6.47,8.66,13.61,18,17.91,23.28l6.69,8.29-.39,1.88c-.53,2.65-2.63,7.56-3.22,7.7a8.2,8.2,0,0,1-2.5-.78c-9.57-3.61-23.77-4.56-33.22-2.32a26.6,26.6,0,0,0-15.62,9.9c-.74.9-1.24,1.44-1.54,1.52-.09,0-.22-.06-.27-.26a9.91,9.91,0,0,1,.54-3.06,25.56,25.56,0,0,1,13.41-15.26,33.71,33.71,0,0,1,6.32-2.13,61.67,61.67,0,0,1,18.19-1.26c1.84.2,3.74.27,3.74.27-.09-.4-7.14-9.76-9.11-12.34C1790.1,191.52,1788.65,196.07,1782.88,197.43Z"/></g><g id="Layer_16" data-name="Layer 16"><polygon class="cls-10" points="632.5 568.56 653.58 540 1270.72 540 1270.72 568.56 632.5 568.56"/><path class="cls-11" d="M1270.72,539.05V274a.94.94,0,0,0-1-.95H652.16a1,1,0,0,0-.95.95l2.36,265.11a.94.94,0,0,0,.94.94h615.26A.94.94,0,0,0,1270.72,539.05Z"/><path class="cls-12" d="M1226.5,891c-2.51,12.53-4.12,24.76-1.33,35.55,1.76,6.8,7.43,11.05,13.37,9.85l.21,0c5.1-1.08,9.11-5.85,9.89-11.91a89.52,89.52,0,0,0-.32-21.14c-.8-7.07-6-12.31-12-12.31h-9.81"/><path class="cls-12" d="M645.27,891c-2.51,12.53-4.12,24.76-1.33,35.55,1.76,6.8,7.43,11.05,13.36,9.85l.22,0c5.1-1.08,9.11-5.85,9.88-11.91a89,89,0,0,0-.31-21.14c-.81-7.07-6-12.31-12-12.31h-9.81"/><polygon class="cls-13" points="1242.5 522.17 1242.5 294 672.5 294 674.68 522.17 1242.5 522.17"/><g class="cls-14"><ellipse class="cls-15" cx="1198.45" cy="503.31" rx="55.72" ry="54.01"/><ellipse class="cls-16" cx="1182.69" cy="500.74" rx="17.49" ry="12.88" transform="translate(497.65 1587.11) rotate(-80.71)"/><ellipse class="cls-16" cx="1210.52" cy="503.12" rx="12.88" ry="17.49" transform="translate(-63.58 194.65) rotate(-8.96)"/><path class="cls-3" d="M1205.64,505.27c3.88,0,3.89-6,0-6s-3.89,6,0,6Z"/><path class="cls-3" d="M1189.53,504.63c3.88,0,3.88-6,0-6s-3.89,6,0,6Z"/><path class="cls-17" d="M1161,470.46c0-.84-1-1.32-1.74-1.63l-25-10.16c-.57-.23-1.28-.44-1.74,0s-.31,1.21-.09,1.83a176.65,176.65,0,0,0,13.67,29.63"/><path class="cls-17" d="M1162,470.46a2.81,2.81,0,0,0-1.61-2.21,30.87,30.87,0,0,0-3.08-1.3l-6.67-2.7-13.34-5.42c-1-.43-2.1-.95-3.19-1.28a2.16,2.16,0,0,0-2.68.9c-.5,1-.06,2.05.28,3s.77,2.12,1.17,3.17q2.42,6.36,5.3,12.52,3.24,6.89,7,13.48a1,1,0,0,0,1.73-1A176.32,176.32,0,0,1,1136,467.23q-1.17-2.93-2.24-5.88c-.16-.43-.32-.85-.46-1.28,0-.14-.1-.3-.13-.45s.09-.24-.08-.2a1.44,1.44,0,0,1,.72.17c.51.19,1,.41,1.52.61l12.32,5,6.85,2.78,3.52,1.43c.44.18.89.34,1.31.56.18.1.6.34.61.48a1,1,0,0,0,1,1,1,1,0,0,0,1-1Z"/><ellipse class="cls-18" cx="1196.28" cy="522.75" rx="5.8" ry="1.87"/><path class="cls-3" d="M1196.38,530.48a12,12,0,0,1-4.22,1.28,9.08,9.08,0,0,1-4.39-.39c-.3-.12-.43.37-.14.48a9.68,9.68,0,0,0,4.69.39,12.57,12.57,0,0,0,4.31-1.33c.29-.15,0-.58-.25-.43Z"/><path class="cls-3" d="M1196.45,530.87a22.18,22.18,0,0,0,4.62,1.16c1.31.18,2.92.27,4-.68.24-.22-.11-.58-.35-.36-1.06,1-2.83.67-4.1.46a21.37,21.37,0,0,1-4-1.07c-.3-.11-.43.38-.13.49Z"/><path class="cls-17" d="M1247.47,486.6c.85,0,1.37-.89,1.73-1.65l11.41-24.46c.26-.55.51-1.25.12-1.73s-1.19-.37-1.82-.19a177.41,177.41,0,0,0-30.29,12.15"/><path class="cls-17" d="M1247.47,487.6a2.85,2.85,0,0,0,2.28-1.53,29.85,29.85,0,0,0,1.41-3l3-6.52,6.09-13c.48-1,1-2.07,1.43-3.14a2.13,2.13,0,0,0-.83-2.76,3.87,3.87,0,0,0-2.89.15c-1.08.33-2.17.67-3.24,1q-6.43,2.07-12.69,4.63c-4.74,1.94-9.41,4.07-14,6.41-1.15.59-.13,2.32,1,1.73a176.08,176.08,0,0,1,23-9.79q3-1,5.93-1.92c.45-.14.89-.29,1.35-.4.13,0,.26,0,.4-.06s.16,0,.1,0,0-.17,0,0,0,.14,0,.18a2,2,0,0,1-.19.52c-.23.51-.48,1-.72,1.54l-5.58,11.95-3.17,6.8-1.56,3.35c-.21.44-.68,1.84-1.2,1.87a1,1,0,0,0-1,1,1,1,0,0,0,1,1Z"/><path class="cls-3" d="M1185.15,522.23a50.9,50.9,0,0,0-14.26.79c-.31.06-.18.55.14.48a50.65,50.65,0,0,1,14.12-.77c.32,0,.32-.48,0-.5Z"/><path class="cls-3" d="M1207.39,523.33a84.32,84.32,0,0,1,16.89,2.35c.32.07.45-.41.14-.49a85.82,85.82,0,0,0-17-2.37c-.32,0-.32.49,0,.51Z"/><path class="cls-3" d="M1207.17,527.27a16.78,16.78,0,0,1,10.53,3c.27.19.52-.25.25-.43a17.14,17.14,0,0,0-10.78-3c-.32,0-.32.52,0,.5Z"/><path class="cls-3" d="M1183.77,526.1q-6.64,1.32-13.16,3.18a.25.25,0,0,0,.13.48q6.51-1.86,13.16-3.17c.32-.06.18-.55-.13-.49Z"/><ellipse class="cls-19" cx="1198.45" cy="579.53" rx="33.97" ry="37.53"/><ellipse class="cls-19" cx="1196.51" cy="589.03" rx="51.14" ry="27.85"/><path class="cls-17" d="M1230.46,568.31a99.78,99.78,0,0,1,16.3-13.4q4.31-2.8,8.87-5.18c1.61-.83,3.25-1.68,4.93-2.38a9.33,9.33,0,0,0,1.62-.55c.9.13.81-.28-.25-1.22a1.44,1.44,0,0,1-.29.51c-2.79,2.25-5.43,4.65-8.37,6.75s-6.17,4.21-9.34,6.19c-6.53,4.05-13.18,8.42-20.25,11.46-1.51.65-1.81,2.84-1.08,4.13a3.09,3.09,0,0,0,4.12,1.08c6.63-2.86,12.84-6.92,19-10.68a158.32,158.32,0,0,0,17.56-12.29c2.33-1.9,5.24-4.41,4.55-7.8s-3.85-4.55-6.94-4-5.94,2.36-8.59,3.75q-4.4,2.29-8.56,5a106.43,106.43,0,0,0-17.53,14.35c-2.72,2.77,1.54,7,4.27,4.26Z"/><path class="cls-17" d="M1177.07,565c1.45-3.76-3-5.9-5.53-7.41q-5.08-3-10.28-5.78c-6.8-3.66-13.75-7.08-20.84-10.18-3.11-1.36-7.31-2.33-9.43,1.23s.82,6.81,3.56,8.64,6,2.65,8.92,4a99.19,99.19,0,0,1,8.67,4.83c6.6,4,13.16,8.2,20.65,10.35,3.74,1.08,5.34-4.74,1.61-5.81-7.2-2.07-13.44-6.25-19.78-10.09a88.82,88.82,0,0,0-9.6-5.18c-1.55-.69-8.85-2.74-8.61-4.82l-.41,1.52a.72.72,0,0,0-.29,0,4.06,4.06,0,0,1,1.32.37c.71.25,1.4.61,2.09.92q2.43,1.1,4.84,2.22,5,2.35,9.89,4.88,4.73,2.44,9.37,5,2.33,1.31,4.62,2.65c1,.6,3.31,1.44,3.83,2.48l-.41-1.52v0a3,3,0,0,0,2.1,3.7,3.07,3.07,0,0,0,3.71-2.1Z"/><path class="cls-17" d="M1231.56,567.9c6.81-1.67,14.28-2.59,18.55-8.79,1.53-2.22,2.72-6,5.45-7.09,1.25-.5,2.69-.36,4-.71a6.75,6.75,0,0,0,3.74-2.67c1.47-1.93-.56-4.47-2.61-4.54-3.87-.13-5.85,2.73-8.75,4.69-3.11,2.1-7.07,2.48-10.24,4.54s-5.77,5-8.65,7.59a45.06,45.06,0,0,1-10.07,6.59c-3.49,1.7-.44,6.9,3,5.21a51.39,51.39,0,0,0,9.42-6c2.91-2.31,5.33-5.19,8.26-7.46s6.18-2.82,9.33-4.25a17.51,17.51,0,0,0,4.22-2.8c1-.86,2-2.15,3.44-2.1l-2.6-4.53s-2.23.22-2.7.3a9.46,9.46,0,0,0-3.85,1.52c-2.55,1.73-4,4.4-5.56,7a10.78,10.78,0,0,1-6.56,5.3c-3.09,1-6.29,1.62-9.43,2.39-3.77.92-2.17,6.74,1.6,5.81Z"/><path class="cls-17" d="M1167.18,559.18a59.35,59.35,0,0,1-10.36-4c-3-1.67-5.88-3.7-9.35-4.44-3.79-.81-5.4,5-1.6,5.81,3.41.74,6.15,3,9.23,4.52a75.25,75.25,0,0,0,10.48,4c3.7,1.19,5.29-4.63,1.6-5.81Z"/><ellipse class="cls-19" cx="1169.18" cy="614.53" rx="12.66" ry="6.04"/><ellipse class="cls-19" cx="1220.05" cy="614.53" rx="12.66" ry="6.04"/><path class="cls-17" d="M1218.34,596.39q12.62.47,25.24-.06,6.5-.27,13-.83c3.61-.31,7.63-.34,9.68-3.87,1.89-3.26,1-6.89-.48-10.09a68.76,68.76,0,0,0-5.73-9.82,88.48,88.48,0,0,0-7.31-9.19c-2-2.27-4.85-4.94-5.43-8.1,0,.27-.56.53,0,.32.18-.07.37-.12.55-.17.89-.27,1.84-.42,2.75-.61l6.64-1.43,12.51-2.68c6.18-1.33,14.69-1.87,19-7.16,4.53-5.51,2.86-14.88.78-21.09-2.36-7.05-6.68-12.71-11.93-17.85a110.21,110.21,0,0,1-8.06-8.26,24.46,24.46,0,0,1-1.62-2.17c-.24-.35-.47-.71-.69-1.07-.08-.13-.8-1.46-.73-.93s.33-.25.58-.49c.41-.39.84-.77,1.26-1.14.76-.67,1.53-1.32,2.33-1.94a57.05,57.05,0,0,1,10.38-6.4,44.15,44.15,0,0,1,5.52-2.27c1.15-.38,2.8-1,3.7.07l1.33-5a52.19,52.19,0,0,0-17.91,6.84c-4.57,2.81-12.18,8-8.31,14.29,1.47,2.39,4.18,3.66,6.28,5.4a41.17,41.17,0,0,1,6.16,6.29,38.29,38.29,0,0,1,7.55,16.76c1.08,6.08.21,12.55-3.37,17.69s-9.19,6.91-15.12,7.77-13.07,1.71-15.68,8.15,2.81,11.14,6.11,15.91a26.64,26.64,0,0,1,4.1,9.33c.61,2.68,1.33,6.61,0,9.2-.71,1.38-2.38,1.44-3.76,1.66-2,.32-4,.52-6,.65a73,73,0,0,1-12.1-.31,3,3,0,0,0-3,3,3.09,3.09,0,0,0,3,3,65.82,65.82,0,0,0,21.37-.86c6.77-1.56,7.58-8.71,6.86-14.54a33.45,33.45,0,0,0-7.54-17.14c-1.51-1.86-4.16-4.46-3.68-7.11s3.64-3.75,5.9-4.25c6.4-1.43,13-1.31,18.6-5.24a25.15,25.15,0,0,0,9.71-14c3.44-12.67-2-26.63-10.52-36a46.45,46.45,0,0,0-7.74-6.74c-.7-.49-2.14-1.21-2.15-2.16,0-1.22,2.09-2.55,2.94-3.19a47.25,47.25,0,0,1,19.87-8.52c2.44-.45,2.63-3.47,1.33-5-2.21-2.67-6-2.68-9-1.79a52,52,0,0,0-10.21,4.44,63.4,63.4,0,0,0-9.11,6.13c-2.74,2.2-6.65,4.9-5.48,8.92,1,3.28,3.8,6.38,6,8.85s5,5,7.51,7.47c5.16,5.15,9,11,10.53,18.2.67,3.19,1.42,7.7,0,10.76-1.25,2.63-4.58,3.48-7.16,4.11-8.18,2-16.49,3.56-24.72,5.32-3.31.71-8.07.88-10.4,3.68-2.48,3-.62,7.18,1.22,10,2,3.07,4.66,5.61,7,8.4a73.24,73.24,0,0,1,6.62,9.3c1.1,1.82,2.15,3.68,3.07,5.61.52,1.1,1.62,3.42.47,4.5-.55.51-1.67.44-2.37.51l-3.54.3q-3.73.3-7.47.51-14.58.81-29.18.25c-3.88-.14-3.87,5.89,0,6Z"/><path class="cls-20" d="M1236.2,571.06c2.78-2.25,6-3.84,9-5.82a41.21,41.21,0,0,0,7.17-6.48c2.19-2.37,5-4.4,6.86-7a35.84,35.84,0,0,1,8.09-7.4c.31-.23,0-.75-.3-.52a37.68,37.68,0,0,0-7.47,6.5,25.74,25.74,0,0,1-3.21,3.55,51.65,51.65,0,0,0-3.93,3.9,43.6,43.6,0,0,1-8.08,7.27,95.4,95.4,0,0,0-8.51,5.54c-.3.25.13.67.43.43Z"/><path class="cls-21" d="M1248,590.58c3.18-.16,6.4-.3,9.56-.76,1.72-.25,4.2-.58,4.44-2.64,0-.39-.56-.39-.61,0-.26,2.23-5.16,2.21-6.7,2.34-2.23.2-4.46.34-6.69.45-.39,0-.39.63,0,.61Z"/><path class="cls-21" d="M1262,587.12a5.34,5.34,0,0,0-.74-2.43c-.16-.35-.68-.05-.52.3a4.86,4.86,0,0,1,.66,2.13c0,.39.57.39.6,0Z"/><path class="cls-21" d="M1174.88,553.53a65.43,65.43,0,0,0,23.88,4.37c8.18-.11,15.81-2.21,23.59-4.52a.76.76,0,0,0-.4-1.46c-7.65,2.27-15.14,4.37-23.19,4.47a64,64,0,0,1-23.48-4.32c-.9-.34-1.3,1.12-.4,1.46Z"/><path class="cls-21" d="M1181.75,615a16.82,16.82,0,0,0-9.88-5.68c-4.08-.7-8.61-.81-12.45.89-.88.39-.12,1.69.76,1.3,3.55-1.57,8.14-1.4,11.89-.63a15.6,15.6,0,0,1,8.61,5.18c.63.74,1.7-.33,1.07-1.06Z"/><path class="cls-21" d="M1230.18,610.48a17.11,17.11,0,0,0-12.14-1c-3.71,1.11-7.6,2.69-10.22,5.63-.65.72.42,1.79,1.06,1.07,2.35-2.63,5.66-4,8.94-5a15.56,15.56,0,0,1,11.59.66c.88.4,1.65-.9.77-1.31Z"/><ellipse class="cls-22" cx="1136.79" cy="546.5" rx="3.18" ry="4.68" transform="translate(95.12 1257.74) rotate(-60)"/><path class="cls-23" d="M1261.23,546.65l4-1.63a2.48,2.48,0,0,0-.69-1.68c-1.24-1.24-3.75-.76-5.56,1.06s-2.29,4.32-1.06,5.56a2.36,2.36,0,0,0,1.29.64Z"/><path class="cls-24" d="M1263.09,543.66a24.19,24.19,0,0,1-4.41,5.67c-.67.65.24,1.83.92,1.18a26,26,0,0,0,4.66-6c.47-.82-.7-1.73-1.17-.9Z"/><path class="cls-17" d="M1235.24,463.38a15.26,15.26,0,0,0-2.56-9.37,2.06,2.06,0,0,0-.94-.86,2.15,2.15,0,0,0-1.2.09l-11.81,3.22a57.7,57.7,0,0,0-3-14.93,82.6,82.6,0,0,1-5.79,14.31,95.19,95.19,0,0,0-7.89-15.77,34.77,34.77,0,0,0-6.74,12.47,18.38,18.38,0,0,0-5.67-13.54,19.9,19.9,0,0,0-3.47,12.25,1.75,1.75,0,0,1-.25,1.26c-.44.49-1.24.28-1.85,0a68.61,68.61,0,0,1-10.93-5.83,5.43,5.43,0,0,0,1.41,5.68,16,16,0,0,0,5.24,3.23c-2,.71-4.29.15-6.37-.44q-7.38-2.1-14.62-4.69c1.71,1.45,3.86,2.28,5.78,3.44s3.73,2.87,4,5.1c-4.54.34-9.07-.54-13.54-1.43l5.17,5.93-8.56-3.74a58.34,58.34,0,0,1,7,5.64"/><path class="cls-17" d="M1236.24,463.38a16.26,16.26,0,0,0-2.28-9.23,5,5,0,0,0-1.45-1.74,3.19,3.19,0,0,0-2.62,0l-5.33,1.45-6.1,1.66,1.27,1a58.51,58.51,0,0,0-3.09-15.2,1,1,0,0,0-1.93,0,82.93,82.93,0,0,1-5.68,14.08l1.83.24a97.7,97.7,0,0,0-8-16,1,1,0,0,0-1.58-.2,36.48,36.48,0,0,0-7,12.91l2,.27a19.47,19.47,0,0,0-6-14.25,1,1,0,0,0-1.58.2,21.21,21.21,0,0,0-3.57,10.17,21.47,21.47,0,0,0,0,2.66,1.88,1.88,0,0,1,0,.53c0,.1,0,0,0,0a2.44,2.44,0,0,1-.79-.21,54.6,54.6,0,0,1-5.18-2.47q-2.87-1.5-5.58-3.29a1,1,0,0,0-1.48.6,6.36,6.36,0,0,0,1.32,6.26c1.48,1.83,3.7,2.85,5.8,3.79l.24-1.84a8.49,8.49,0,0,1-4.79-.15c-1.75-.45-3.48-1-5.21-1.51q-5.26-1.61-10.46-3.47a1,1,0,0,0-1,1.68c1.83,1.53,4,2.4,6,3.64a6.76,6.76,0,0,1,3.53,4.45l1-1.27c-4.48.33-8.9-.52-13.27-1.39a1,1,0,0,0-1,1.68l5.17,5.93,1.21-1.58-8.55-3.73a1,1,0,0,0-1,1.73,57.6,57.6,0,0,1,6.78,5.48c.94.89,2.36-.53,1.42-1.42a59.62,59.62,0,0,0-7.18-5.79l-1,1.73,8.56,3.74a1,1,0,0,0,1.22-1.58l-5.17-5.93-1,1.68c4.54.9,9.16,1.8,13.81,1.46a1,1,0,0,0,1-1.27,8.38,8.38,0,0,0-3.93-5.32c-2-1.34-4.31-2.12-6.16-3.66l-1,1.68q5.38,1.92,10.84,3.58c1.78.54,3.56,1.11,5.37,1.53a9.91,9.91,0,0,0,5.32,0c.74-.24,1.08-1.46.24-1.84a15,15,0,0,1-5.09-3.12,4.45,4.45,0,0,1-1.1-4.65l-1.48.6a69.47,69.47,0,0,0,10.94,5.82,2.88,2.88,0,0,0,2.7.11c.93-.57.92-1.64.89-2.61a18.84,18.84,0,0,1,.64-5.54,19.14,19.14,0,0,1,2.71-5.85l-1.58.2a17.48,17.48,0,0,1,5.38,12.83,1,1,0,0,0,2,.27,33.86,33.86,0,0,1,6.48-12l-1.57-.2a96.76,96.76,0,0,1,7.79,15.53,1,1,0,0,0,1.83.24,84.87,84.87,0,0,0,5.88-14.55h-1.93a56.48,56.48,0,0,1,3,14.66,1,1,0,0,0,1.27,1l6.2-1.69,3.1-.84,1.55-.43a7.48,7.48,0,0,1,1.39-.36c.31,0,.41.17.58.41s.49.77.71,1.16a14.35,14.35,0,0,1,1,2.42,14.57,14.57,0,0,1,.67,5.28c-.07,1.3,1.94,1.29,2,0Z"/><path class="cls-17" d="M1252.08,497.69a29.27,29.27,0,0,1,5.66.82,21.12,21.12,0,0,0-6.29.56c-1.18.29-2.62,1.37-2,2.38a2.06,2.06,0,0,0,1.15.69l5.57,1.79-4.73,1.94,7.69,2.72-11.31,3.16a28.17,28.17,0,0,0,9.36,2.81c0,1.19-1.41,1.78-2.57,2l-11.72,2.62c2.17,2.46,5.7,3.09,8.94,3.58l-7.73.71,7,3.87a32.48,32.48,0,0,1-10.06,1.85l7.32,5.62c-3.06,1.32-6.57.84-9.87.35a12.64,12.64,0,0,0,4.23,3.8,6.83,6.83,0,0,1-7.16-.58"/><path class="cls-17" d="M1252.08,498.69a29.7,29.7,0,0,1,5.39.79l.27-2a23,23,0,0,0-5.43.36c-1.4.26-3,.72-3.73,2.08a2,2,0,0,0,.09,2.08,3.68,3.68,0,0,0,2.07,1.21l5.2,1.67V503l-4.73,1.94a1,1,0,0,0,0,1.93q3.84,1.38,7.69,2.72v-1.93l-11.3,3.16a1,1,0,0,0-.24,1.83,29.6,29.6,0,0,0,9.86,2.95l-1-1a.32.32,0,0,1-.09.28,1.69,1.69,0,0,1-.3.26,4.22,4.22,0,0,1-1.19.47c-1.27.33-2.58.58-3.86.87l-8.11,1.81a1,1,0,0,0-.44,1.68c2.38,2.65,6,3.34,9.38,3.84l.27-2-7.73.71a1,1,0,0,0-.51,1.87l7,3.88.24-1.84a31.69,31.69,0,0,1-9.79,1.81,1,1,0,0,0-1,.74,1.06,1.06,0,0,0,.47,1.13l7.32,5.63.24-1.84c-3,1.25-6.24.81-9.34.35a1,1,0,0,0-1.06.36,1,1,0,0,0-.08,1.11,14.09,14.09,0,0,0,4.59,4.17v-1.74a5.88,5.88,0,0,1-6.15-.58,1,1,0,0,0-1.37.36,1,1,0,0,0,.36,1.38,7.9,7.9,0,0,0,8.18.58,1,1,0,0,0,0-1.74,11.62,11.62,0,0,1-3.87-3.44l-1.13,1.47c3.43.52,7.09,1,10.4-.34a1,1,0,0,0,.24-1.83l-7.32-5.63-.51,1.87a34,34,0,0,0,10.33-1.88,1,1,0,0,0,.24-1.84l-7-3.87-.51,1.87,7.73-.71a1,1,0,0,0,.27-2c-3-.45-6.37-1-8.5-3.32l-.44,1.68,9.08-2c2-.46,5.9-.76,5.94-3.6a1,1,0,0,0-1-1,27.16,27.16,0,0,1-8.85-2.67l-.24,1.84,11.3-3.17a1,1,0,0,0,0-1.93c-2.56-.9-5.13-1.8-7.68-2.72v1.93l4.72-1.93a1,1,0,0,0,0-1.94l-4.08-1.31c-.6-.2-1.24-.35-1.82-.6l-.19-.09c-.08,0-.08-.19-.06-.09s0,0,.13-.12c.68-.84,2.17-.93,3.15-1.08a21.23,21.23,0,0,1,4.14-.16,1,1,0,0,0,.27-2,32.25,32.25,0,0,0-5.93-.86c-1.3-.06-1.29,1.95,0,2Z"/><path class="cls-17" d="M1161.67,539.75a31.16,31.16,0,0,1-7.54,6.33l1.28-11.85a12.29,12.29,0,0,1-4.49,4.7,7.47,7.47,0,0,1,1.77-10.4,26.9,26.9,0,0,1-9.44,1.66c1.91-2.48,6.23-1.74,8.26-4.13a73.48,73.48,0,0,1-14.55-3.49l9.89-3.2a105.08,105.08,0,0,1-12.5-3l12.4-3.7c-3.6-.6-7.41-1.31-10.09-3.77a35.22,35.22,0,0,0,8.66-3.14c-2.21-2.38-6.86-2.06-8-5.09q5.16-1.27,10.4-2.26"/><path class="cls-17" d="M1161,539a30.75,30.75,0,0,1-7.33,6.17l1.51.87,1.27-11.85c.11-1-1.42-1.34-1.87-.51a11.47,11.47,0,0,1-4.13,4.34l1.38.37a6.46,6.46,0,0,1,1.41-9,1,1,0,0,0,.41-1.26,1,1,0,0,0-1.18-.58,26.63,26.63,0,0,1-9.18,1.63l.71,1.71c1-1.19,2.45-1.51,3.89-1.91a8.36,8.36,0,0,0,4.37-2.22,1,1,0,0,0-.45-1.68,74.15,74.15,0,0,1-14.55-3.49v1.94l9.9-3.2c.87-.28,1-1.75,0-1.93a107.75,107.75,0,0,1-12.51-3v1.94l12.41-3.7c.88-.26,1-1.77,0-1.94-3.35-.56-7-1.16-9.65-3.51l-.45,1.68a37.15,37.15,0,0,0,8.91-3.24,1,1,0,0,0,.2-1.58,11.27,11.27,0,0,0-4.5-2.43,11.16,11.16,0,0,1-2-.91,3,3,0,0,1-1.23-1.31l-.7,1.23q5.17-1.26,10.41-2.25a1,1,0,0,0,.7-1.24,1,1,0,0,0-1.24-.7q-5.24,1-10.4,2.26a1,1,0,0,0-.7,1.23c.72,1.8,2.24,2.69,4,3.37,1.52.59,3.19,1,4.3,2.17l.2-1.58a34.47,34.47,0,0,1-8.42,3,1,1,0,0,0-.44,1.68c2.91,2.62,6.79,3.4,10.53,4v-1.94l-12.4,3.7a1,1,0,0,0,0,1.94,105.24,105.24,0,0,0,12.51,3v-1.93l-9.9,3.19a1,1,0,0,0,0,1.94,74,74,0,0,0,14.55,3.49l-.44-1.68c-1,1.14-2.54,1.45-4,1.84a7.82,7.82,0,0,0-4.28,2.29,1,1,0,0,0,.71,1.72,28.44,28.44,0,0,0,9.71-1.7l-.77-1.84a8.48,8.48,0,0,0-2.14,11.78,1,1,0,0,0,1.38.36,13.39,13.39,0,0,0,4.84-5.07l-1.87-.5-1.27,11.85a1,1,0,0,0,1.51.87,32.59,32.59,0,0,0,7.74-6.49A1,1,0,0,0,1161,539Z"/><path class="cls-24" d="M1264.22,544.15a24.84,24.84,0,0,1-5.91,4.08c-.84.41-.32,1.81.52,1.39a25.85,25.85,0,0,0,6.24-4.26c.69-.65-.15-1.86-.85-1.21Z"/></g><ellipse class="cls-25" cx="579.88" cy="611.72" rx="63.02" ry="61.08"/><path class="cls-3" d="M537.5,574.57c-.06-1-1.08-1.5-2-1.85l-28.28-11.49c-.64-.26-1.44-.49-2,0s-.35,1.38-.11,2.07a200.65,200.65,0,0,0,15.46,33.52"/><path class="cls-3" d="M538.64,574.57a3.19,3.19,0,0,0-1.82-2.51,35.66,35.66,0,0,0-3.49-1.46l-7.54-3.06-15.08-6.13c-1.19-.48-2.38-1.07-3.61-1.44a2.44,2.44,0,0,0-3,1c-.56,1.1-.06,2.32.32,3.38s.87,2.4,1.33,3.59q2.73,7.18,6,14.16,3.66,7.78,8,15.24a1.14,1.14,0,0,0,2-1.15,198.29,198.29,0,0,1-12.34-25.29c-.89-2.2-1.73-4.42-2.54-6.65-.17-.48-.36-1-.51-1.45a3.12,3.12,0,0,1-.14-.5c-.05-.33.09-.27-.1-.23a1.72,1.72,0,0,1,.81.19c.58.21,1.15.46,1.72.7l13.93,5.65,7.75,3.15,4,1.62a14.94,14.94,0,0,1,1.48.63c.2.11.68.39.7.55a1.16,1.16,0,0,0,1.13,1.13,1.14,1.14,0,0,0,1.14-1.13Z"/><ellipse class="cls-26" cx="577.43" cy="633.7" rx="6.56" ry="2.11"/><path class="cls-17" d="M577.54,642.44a13.58,13.58,0,0,1-4.78,1.44,10.3,10.3,0,0,1-5-.43c-.34-.14-.49.41-.15.54a10.8,10.8,0,0,0,5.29.44,14.19,14.19,0,0,0,4.89-1.5c.32-.17,0-.66-.29-.49Z"/><path class="cls-17" d="M577.62,642.88a24.8,24.8,0,0,0,5.22,1.31c1.49.2,3.3.31,4.5-.77.27-.25-.13-.65-.4-.4-1.2,1.08-3.2.75-4.64.52a24.63,24.63,0,0,1-4.53-1.21c-.34-.13-.49.42-.15.55Z"/><path class="cls-3" d="M635.32,592.81c.95,0,1.55-1,1.95-1.86l12.91-27.66c.29-.62.57-1.41.14-1.95s-1.36-.43-2.06-.22A200.86,200.86,0,0,0,614,574.85"/><path class="cls-3" d="M635.32,594a3.2,3.2,0,0,0,2.57-1.74,32.12,32.12,0,0,0,1.6-3.35l3.45-7.37,6.88-14.75c.55-1.18,1.18-2.34,1.63-3.55a2.44,2.44,0,0,0-.94-3.13c-1-.54-2.24-.13-3.27.18-1.23.37-2.45.75-3.67,1.14q-7.27,2.36-14.35,5.24c-5.36,2.2-10.64,4.61-15.79,7.25-1.31.67-.16,2.63,1.14,2a197.57,197.57,0,0,1,26-11.08c2.23-.77,4.46-1.49,6.71-2.17.51-.16,1-.33,1.52-.45a3.65,3.65,0,0,1,.46-.07c.06,0,.18,0,.11,0s0-.19,0,0,0,.16,0,.21a3.14,3.14,0,0,1-.22.58c-.26.59-.54,1.16-.81,1.74L642,578.09l-3.59,7.68-1.77,3.79c-.23.49-.76,2.08-1.35,2.12a1.14,1.14,0,0,0,0,2.27Z"/><path class="cls-17" d="M564.83,633.11a57.67,57.67,0,0,0-16.11.89c-.36.07-.21.62.15.55a57.36,57.36,0,0,1,16-.88c.37,0,.37-.53,0-.56Z"/><path class="cls-17" d="M590,634.35A95.62,95.62,0,0,1,609.1,637a.29.29,0,0,0,.15-.55A96.29,96.29,0,0,0,590,633.78c-.36,0-.36.56,0,.57Z"/><path class="cls-17" d="M589.75,638.81a18.89,18.89,0,0,1,11.9,3.35c.3.21.59-.28.29-.49a19.46,19.46,0,0,0-12.19-3.43c-.37,0-.37.59,0,.57Z"/><path class="cls-17" d="M563.27,637.49q-7.5,1.49-14.88,3.59a.29.29,0,0,0,.15.55q7.37-2.1,14.88-3.59c.36-.07.21-.62-.15-.55Z"/><ellipse class="cls-25" cx="579.88" cy="697.91" rx="38.41" ry="42.44"/><ellipse class="cls-25" cx="577.68" cy="708.65" rx="57.84" ry="31.5"/><path class="cls-3" d="M613.67,682.82a114.37,114.37,0,0,1,35.44-24.56c1.89-.84,4.58-1.39,5.62.4s-.62,3.72-2.12,5c-1.83,1.55-3.7,3.06-5.61,4.51-8.3,6.31-17.31,11.6-26.3,16.88a89.5,89.5,0,0,1-10.56,5.58"/><path class="cls-3" d="M616.08,685.23a112,112,0,0,1,18.43-15.16,114.1,114.1,0,0,1,10-5.86c1.83-.94,3.68-1.9,5.58-2.69a9,9,0,0,0,1.83-.63c1,.15.92-.31-.28-1.37a1.64,1.64,0,0,1-.33.57c-3.16,2.55-6.14,5.26-9.46,7.64s-7,4.76-10.57,7c-7.38,4.59-14.9,9.53-22.9,13-1.7.73-2,3.21-1.22,4.66,1,1.76,3,1.95,4.67,1.23,7.49-3.23,14.51-7.82,21.45-12.08a177.5,177.5,0,0,0,19.86-13.89c2.64-2.16,5.93-5,5.15-8.83s-4.36-5.15-7.85-4.51-6.71,2.67-9.71,4.24q-5,2.6-9.69,5.67a121,121,0,0,0-19.82,16.22c-3.08,3.13,1.74,8,4.83,4.83Z"/><path class="cls-3" d="M552.42,680.58c.61-.89-.45-2-1.37-2.54a335,335,0,0,0-38.91-20.2,7.65,7.65,0,0,0-3.21-.89,2.72,2.72,0,0,0-2.62,1.73,3.35,3.35,0,0,0,1.16,3.06c2.26,2.35,5.52,3.38,8.55,4.61,12.44,5,22.81,14.74,35.75,18.34"/><path class="cls-3" d="M555.7,681.49c1.64-4.25-3.36-6.67-6.26-8.38q-5.73-3.39-11.61-6.54c-7.7-4.14-15.56-8-23.57-11.51-3.52-1.53-8.27-2.63-10.67,1.4-2.3,3.86.93,7.69,4,9.76s6.79,3,10.1,4.58,6.6,3.53,9.8,5.47c7.47,4.53,14.88,9.27,23.36,11.7,4.22,1.22,6-5.36,1.81-6.57-8.14-2.34-15.19-7.07-22.37-11.41a99.48,99.48,0,0,0-10.85-5.86c-1.76-.78-10-3.1-9.74-5.45l-.47,1.72a1.12,1.12,0,0,0-.32,0,4.8,4.8,0,0,1,1.49.42c.81.28,1.58.7,2.36,1.05,1.83.82,3.66,1.65,5.47,2.51q5.65,2.65,11.19,5.51,5.35,2.76,10.6,5.71,2.63,1.49,5.22,3c1.15.68,3.75,1.63,4.34,2.81l-.47-1.72v0c-.67,1.73.74,3.72,2.38,4.19a3.48,3.48,0,0,0,4.19-2.38Z"/><path class="cls-3" d="M617.33,684.76c7.7-1.89,16.15-2.93,21-9.94,1.73-2.51,3.08-6.79,6.17-8,1.41-.56,3-.41,4.49-.81a7.58,7.58,0,0,0,4.22-3c1.66-2.19-.63-5.05-2.94-5.13-4.38-.16-6.62,3.08-9.9,5.29-3.52,2.38-8,2.81-11.58,5.15s-6.53,5.7-9.79,8.57a50.86,50.86,0,0,1-11.39,7.46c-3.94,1.92-.49,7.8,3.44,5.88a57.45,57.45,0,0,0,10.66-6.75c3.29-2.62,6-5.88,9.34-8.44,3.15-2.44,7-3.19,10.55-4.8a19.53,19.53,0,0,0,4.77-3.17c1.13-1,2.3-2.43,3.9-2.38l-3-5.13s-2.52.26-3,.35a10.73,10.73,0,0,0-4.36,1.72c-2.87,2-4.56,5-6.29,7.89a12.15,12.15,0,0,1-7.41,6c-3.49,1.09-7.12,1.83-10.67,2.7-4.26,1.05-2.45,7.63,1.82,6.58Z"/><ellipse class="cls-25" cx="546.78" cy="737.49" rx="14.32" ry="6.83"/><ellipse class="cls-25" cx="604.31" cy="737.49" rx="14.32" ry="6.83"/><path class="cls-3" d="M602.38,717q14.26.53,28.54-.07,7.35-.31,14.68-.94c4.1-.35,8.64-.39,11-4.38,2.14-3.68,1.15-7.79-.55-11.41a78.54,78.54,0,0,0-6.48-11.11,100.53,100.53,0,0,0-8.26-10.38c-2.33-2.57-5.49-5.59-6.14-9.16,0,.3-.64.6,0,.35.2-.08.42-.12.62-.19,1-.3,2.08-.47,3.1-.69l7.52-1.61,14.14-3c7-1.5,16.62-2.11,21.52-8.09,5.12-6.24,3.22-16.82.87-23.85-2.66-8-7.55-14.37-13.49-20.19a127.3,127.3,0,0,1-9.11-9.33c-.65-.79-1.27-1.61-1.84-2.46-.26-.4-.52-.8-.77-1.21-.1-.15-.91-1.65-.83-1.06s.37-.27.66-.55c.47-.44.94-.87,1.43-1.29.85-.75,1.73-1.48,2.62-2.19a64.8,64.8,0,0,1,11.75-7.24,49.9,49.9,0,0,1,6.24-2.57c1.3-.42,3.17-1.14,4.18.08l1.5-5.69A58.86,58.86,0,0,0,665,586.44c-5.16,3.17-13.78,9.06-9.4,16.16,1.67,2.7,4.73,4.14,7.11,6.11a46,46,0,0,1,7,7.11,43.4,43.4,0,0,1,8.53,18.95c1.23,6.88.24,14.2-3.8,20s-10.41,7.81-17.11,8.78-14.77,1.94-17.73,9.22,3.18,12.6,6.91,18a30.52,30.52,0,0,1,4.64,10.55c.69,3,1.5,7.48,0,10.41-.8,1.56-2.7,1.63-4.26,1.88-2.23.36-4.49.59-6.75.73a81.3,81.3,0,0,1-13.69-.35c-1.83-.2-3.41,1.71-3.41,3.41a3.49,3.49,0,0,0,3.41,3.41,74.3,74.3,0,0,0,24.17-1c7.66-1.76,8.58-9.85,7.76-16.44A37.89,37.89,0,0,0,649.83,684c-1.71-2.1-4.71-5-4.16-8s4.11-4.25,6.66-4.82c7.25-1.61,14.69-1.48,21-5.92a28.48,28.48,0,0,0,11-15.89c3.89-14.32-2.23-30.11-11.9-40.76A53,53,0,0,0,663.7,601c-.79-.55-2.42-1.37-2.43-2.44,0-1.38,2.36-2.89,3.32-3.61a53.66,53.66,0,0,1,22.47-9.64c2.76-.5,3-3.92,1.51-5.7-2.5-3-6.75-3-10.23-2a59,59,0,0,0-11.54,5,72.27,72.27,0,0,0-10.3,6.94c-3.1,2.48-7.53,5.53-6.2,10.09,1.09,3.71,4.3,7.2,6.85,10,2.69,3,5.66,5.64,8.49,8.46,5.83,5.83,10.18,12.42,11.9,20.58.76,3.6,1.62,8.71,0,12.17-1.41,3-5.18,3.93-8.1,4.65-9.25,2.25-18.64,4-27.95,6-3.74.8-9.13,1-11.76,4.16-2.81,3.37-.7,8.11,1.38,11.3,2.26,3.46,5.27,6.34,7.92,9.49A80.91,80.91,0,0,1,646.5,697c1.24,2.06,2.44,4.17,3.47,6.34.59,1.25,1.83,3.87.53,5.09-.61.57-1.89.5-2.67.58l-4,.34c-2.82.22-5.64.42-8.46.57q-16.49.93-33,.29c-4.39-.16-4.39,6.66,0,6.82Z"/><path class="cls-27" d="M622.57,688.33c3.15-2.54,6.77-4.34,10.12-6.58a47,47,0,0,0,8.11-7.33c2.48-2.67,5.6-5,7.76-7.88a40.73,40.73,0,0,1,9.15-8.37c.35-.26,0-.85-.35-.59a43.52,43.52,0,0,0-8.44,7.35,28.24,28.24,0,0,1-3.63,4,57.73,57.73,0,0,0-4.44,4.41,49.23,49.23,0,0,1-9.14,8.22c-3.23,2.08-6.62,3.85-9.62,6.27-.35.28.14.75.48.48Z"/><path class="cls-27" d="M553.23,668.5a73.56,73.56,0,0,0,27,4.94c9.26-.11,17.88-2.49,26.68-5.11a.85.85,0,0,0-.45-1.64c-8.66,2.57-17.12,4.93-26.23,5a72.42,72.42,0,0,1-26.55-4.88c-1-.39-1.47,1.26-.45,1.64Z"/><path class="cls-27" d="M561,738a19,19,0,0,0-11.16-6.42c-4.62-.79-9.74-.91-14.09,1-1,.44-.13,1.91.86,1.47,4-1.78,9.21-1.59,13.45-.71a17.53,17.53,0,0,1,9.73,5.86c.72.83,1.92-.38,1.21-1.21Z"/><path class="cls-27" d="M615.76,732.92A19.27,19.27,0,0,0,602,731.78c-4.2,1.26-8.6,3-11.57,6.37-.72.82.48,2,1.21,1.21,2.65-3,6.4-4.48,10.11-5.71a17.61,17.61,0,0,1,13.11.74c1,.46,1.85-1,.86-1.47Z"/><path class="cls-3" d="M621.78,567.71a17.19,17.19,0,0,0-2.89-10.6,2.17,2.17,0,0,0-1.06-1,2.28,2.28,0,0,0-1.36.1l-13.36,3.64A64.55,64.55,0,0,0,599.66,543a93.44,93.44,0,0,1-6.54,16.19,109.25,109.25,0,0,0-8.92-17.84,39.41,39.41,0,0,0-7.63,14.1,20.76,20.76,0,0,0-6.41-15.31A22.45,22.45,0,0,0,566.24,554a1.94,1.94,0,0,1-.29,1.43c-.5.55-1.4.32-2.08,0a77.2,77.2,0,0,1-12.37-6.59c-.92,2.15,0,4.73,1.59,6.43a18.18,18.18,0,0,0,5.94,3.65c-2.32.8-4.86.17-7.21-.5q-8.36-2.37-16.54-5.3c1.94,1.64,4.37,2.57,6.54,3.89s4.22,3.25,4.58,5.76c-5.13.39-10.26-.61-15.31-1.61l5.84,6.7-9.67-4.22a65.22,65.22,0,0,1,7.89,6.37"/><path class="cls-3" d="M622.92,567.71a18.46,18.46,0,0,0-2.58-10.44,5.65,5.65,0,0,0-1.65-2,3.63,3.63,0,0,0-3,0l-6,1.64-6.9,1.88,1.44,1.1a66.82,66.82,0,0,0-3.49-17.19,1.15,1.15,0,0,0-2.19,0,94.19,94.19,0,0,1-6.43,15.92l2.08.27a110.87,110.87,0,0,0-9-18.11,1.14,1.14,0,0,0-1.78-.23,40.89,40.89,0,0,0-7.92,14.6l2.23.3A22,22,0,0,0,571,539.33a1.14,1.14,0,0,0-1.78.23,23.84,23.84,0,0,0-4,11.49,25.36,25.36,0,0,0,0,3,1.67,1.67,0,0,1,0,.59c0,.12,0,0,0,0a2.49,2.49,0,0,1-.89-.23,60.58,60.58,0,0,1-5.87-2.79q-3.24-1.71-6.3-3.72a1.15,1.15,0,0,0-1.67.68c-1,2.41-.09,5.14,1.48,7.08s4.2,3.22,6.56,4.28l.27-2.08a9.59,9.59,0,0,1-5.41-.17c-2-.51-3.94-1.11-5.89-1.71q-6-1.82-11.83-3.92a1.15,1.15,0,0,0-1.11,1.9c2.07,1.73,4.56,2.71,6.84,4.11,1.88,1.16,3.62,2.77,4,5l1.09-1.44c-5.07.37-10.06-.59-15-1.57a1.15,1.15,0,0,0-1.11,1.9l5.85,6.7,1.38-1.78-9.68-4.22a1.14,1.14,0,0,0-1.15,2,64.26,64.26,0,0,1,7.66,6.2c1.07,1,2.68-.6,1.61-1.61a67.24,67.24,0,0,0-8.12-6.55l-1.15,2,9.68,4.22a1.14,1.14,0,0,0,1.38-1.78l-5.85-6.71-1.1,1.9c5.13,1,10.35,2,15.61,1.65a1.15,1.15,0,0,0,1.1-1.43c-.42-2.6-2.35-4.6-4.45-6s-4.87-2.4-7-4.14l-1.11,1.9c4,1.45,8.14,2.81,12.26,4,2,.61,4,1.25,6.07,1.73a11.19,11.19,0,0,0,6,0c.83-.27,1.22-1.64.27-2.07a16.93,16.93,0,0,1-5.76-3.54,5,5,0,0,1-1.24-5.26l-1.67.68a77.91,77.91,0,0,0,12.36,6.59,3.29,3.29,0,0,0,3.06.12c1.06-.65,1-1.86,1-2.95a21.06,21.06,0,0,1,.72-6.27,21.92,21.92,0,0,1,3.06-6.62l-1.78.23a19.79,19.79,0,0,1,6.08,14.51,1.14,1.14,0,0,0,2.23.3,38.47,38.47,0,0,1,7.33-13.6l-1.78-.23A108.07,108.07,0,0,1,592,559.48a1.15,1.15,0,0,0,2.07.27,96.62,96.62,0,0,0,6.66-16.46h-2.19a64.42,64.42,0,0,1,3.4,16.59,1.16,1.16,0,0,0,1.44,1.1l7-1.92,3.51-.95,1.75-.48a8.89,8.89,0,0,1,1.57-.42c.35,0,.47.21.66.47.29.42.55.87.8,1.32a15.74,15.74,0,0,1,1.18,2.73,16.61,16.61,0,0,1,.76,6c-.08,1.46,2.19,1.45,2.27,0Z"/><path class="cls-3" d="M640.83,606.5a33.05,33.05,0,0,1,6.4.93,24,24,0,0,0-7.11.64c-1.33.32-3,1.54-2.21,2.69a2.25,2.25,0,0,0,1.29.77l6.3,2-5.35,2.19q4.33,1.56,8.69,3.07l-12.78,3.58a31.91,31.91,0,0,0,10.58,3.18c0,1.35-1.59,2-2.91,2.31l-13.25,3c2.46,2.79,6.44,3.5,10.11,4l-8.74.8,7.87,4.38a36.69,36.69,0,0,1-11.37,2.09l8.28,6.36c-3.47,1.49-7.43,1-11.17.39a14.28,14.28,0,0,0,4.78,4.3,7.73,7.73,0,0,1-8.1-.66"/><path class="cls-3" d="M640.83,607.64a33.11,33.11,0,0,1,6.1.88l.3-2.23a25.84,25.84,0,0,0-6.14.41c-1.58.29-3.4.8-4.22,2.35a2.26,2.26,0,0,0,.1,2.35,4.05,4.05,0,0,0,2.35,1.36l5.87,1.9v-2.19l-5.34,2.18a1.15,1.15,0,0,0,0,2.19q4.33,1.56,8.69,3.08v-2.19l-12.78,3.57a1.15,1.15,0,0,0-.27,2.08,34,34,0,0,0,11.15,3.34l-1.14-1.14a.38.38,0,0,1-.1.32,1.84,1.84,0,0,1-.34.29,4.89,4.89,0,0,1-1.34.54c-1.45.37-2.92.65-4.37,1l-9.17,2a1.14,1.14,0,0,0-.5,1.89c2.69,3,6.82,3.78,10.61,4.34l.3-2.23-8.74.8a1.15,1.15,0,0,0-.57,2.12l7.87,4.38.27-2.08a35.77,35.77,0,0,1-11.07,2,1.17,1.17,0,0,0-1.1.83,1.21,1.21,0,0,0,.53,1.29l8.27,6.36.28-2.08c-3.37,1.41-7.06.92-10.56.39a1.17,1.17,0,0,0-1.2.41,1.14,1.14,0,0,0-.09,1.26,15.82,15.82,0,0,0,5.19,4.71v-2a6.65,6.65,0,0,1-6.95-.66,1.14,1.14,0,1,0-1.15,2,8.89,8.89,0,0,0,9.25.66,1.15,1.15,0,0,0,0-2,13.19,13.19,0,0,1-4.37-3.9L625.16,650c3.88.59,8,1.18,11.77-.38a1.16,1.16,0,0,0,.27-2.08l-8.28-6.37-.57,2.12A38.19,38.19,0,0,0,640,641.17a1.15,1.15,0,0,0,.27-2.07l-7.87-4.38-.58,2.12,8.74-.81a1.14,1.14,0,0,0,.31-2.23c-3.39-.5-7.2-1.07-9.61-3.75l-.5,1.9,10.26-2.3c2.32-.51,6.67-.86,6.73-4.07a1.18,1.18,0,0,0-1.14-1.14,30.85,30.85,0,0,1-10-3l-.27,2.07,12.79-3.57a1.15,1.15,0,0,0,0-2.19c-2.91-1-5.8-2-8.7-3.08v2.19l5.35-2.18a1.15,1.15,0,0,0,0-2.19L641.18,611c-.68-.22-1.4-.39-2.06-.67l-.21-.11c-.09-.06-.09-.22-.06-.1s0,0,.13-.14c.78-1,2.46-1.05,3.57-1.21a23.64,23.64,0,0,1,4.68-.19,1.14,1.14,0,0,0,.31-2.23,37.18,37.18,0,0,0-6.71-1c-1.47-.07-1.46,2.2,0,2.28Z"/><path class="cls-3" d="M538.59,654.07a35.55,35.55,0,0,1-8.53,7.16l1.44-13.41a13.79,13.79,0,0,1-5.07,5.32,8.45,8.45,0,0,1,2-11.76,30.44,30.44,0,0,1-10.69,1.88c2.17-2.81,7-2,9.34-4.67-5.57-.94-11.19-1.9-16.45-4L521.83,631a118.12,118.12,0,0,1-14.14-3.36l14-4.18c-4.06-.69-8.37-1.48-11.41-4.27a39.93,39.93,0,0,0,9.8-3.55c-2.5-2.69-7.76-2.32-9.07-5.76q5.85-1.44,11.77-2.55"/><path class="cls-3" d="M537.79,653.26a35.2,35.2,0,0,1-8.3,7l1.71,1,1.44-13.41c.12-1.14-1.61-1.51-2.12-.57a12.93,12.93,0,0,1-4.66,4.91l1.55.41a7.32,7.32,0,0,1,1.6-10.21,1.15,1.15,0,0,0,.47-1.42,1.14,1.14,0,0,0-1.35-.66,29.84,29.84,0,0,1-10.38,1.84l.81,1.94c1.07-1.35,2.76-1.71,4.4-2.15a9.56,9.56,0,0,0,4.94-2.52,1.15,1.15,0,0,0-.51-1.9c-5.56-.94-11.16-1.9-16.45-4v2.19l11.19-3.61c1-.31,1.18-2,0-2.19A120,120,0,0,1,508,626.58v2.19l14-4.19c1-.29,1.17-2,0-2.19-3.78-.64-8-1.31-10.91-4l-.5,1.9a41.63,41.63,0,0,0,10.07-3.67,1.14,1.14,0,0,0,.23-1.78,12.68,12.68,0,0,0-5.09-2.75,12.36,12.36,0,0,1-2.29-1,3.29,3.29,0,0,1-1.39-1.48l-.8,1.4q5.85-1.44,11.77-2.55a1.14,1.14,0,0,0,.79-1.4,1.16,1.16,0,0,0-1.39-.79q-5.93,1.11-11.77,2.55a1.13,1.13,0,0,0-.79,1.4c.81,2,2.54,3,4.49,3.8,1.72.67,3.6,1.13,4.86,2.46l.23-1.79a39.28,39.28,0,0,1-9.52,3.44,1.15,1.15,0,0,0-.51,1.9c3.3,3,7.69,3.84,11.92,4.55v-2.19l-14,4.19a1.15,1.15,0,0,0,0,2.19,120.67,120.67,0,0,0,14.15,3.35v-2.19l-11.2,3.61a1.15,1.15,0,0,0,0,2.19c5.29,2,10.89,3,16.46,4l-.5-1.9c-1.13,1.29-2.87,1.63-4.5,2.08s-3.65,1.09-4.84,2.58a1.15,1.15,0,0,0,.8,1.94,31.67,31.67,0,0,0,11-1.92l-.88-2.07c-4.22,2.8-5.52,9.21-2.41,13.32a1.16,1.16,0,0,0,1.55.4,15.08,15.08,0,0,0,5.48-5.73l-2.11-.57-1.44,13.41a1.14,1.14,0,0,0,1.71,1,36.89,36.89,0,0,0,8.75-7.34,1.16,1.16,0,0,0,0-1.61,1.14,1.14,0,0,0-1.6,0Z"/><ellipse class="cls-28" cx="562" cy="608.75" rx="19.78" ry="14.57" transform="translate(-129.46 1065.14) rotate(-80.71)"/><ellipse class="cls-28" cx="593.47" cy="611.45" rx="14.57" ry="19.78" transform="translate(-87.98 99.88) rotate(-8.96)"/><path class="cls-3" d="M585.9,615.13c4.39,0,4.4-6.82,0-6.82s-4.39,6.82,0,6.82Z"/><g class="cls-29"><path class="cls-30" d="M550.38,620.59a4.64,4.64,0,0,0,.57-2.06c0-.44-.16-1,.47-1.06.44,0,.88.06,1.32,0a2,2,0,0,0,1.46-.6,2.6,2.6,0,0,0,.37-1.71,7.87,7.87,0,0,0-.28-2.26c-.14-.49-.35-1.24.37-1.39a4.25,4.25,0,0,0,.79-.09c1.37-.54,1.07-2.24.71-3.33-.11-.34-.66-.19-.54.15.24.77.59,1.79-.07,2.45-.46.44-1.12.08-1.59.52a1.55,1.55,0,0,0-.33,1.45A11,11,0,0,1,554,615c0,.79.07,1.66-.86,1.89-.71.17-1.45-.13-2.15.06a.87.87,0,0,0-.64.89,5.1,5.1,0,0,1-.46,2.46c-.17.33.32.61.49.29Z"/></g><path class="cls-3" d="M568.86,614.86c4.39,0,4.4-6.82,0-6.82s-4.39,6.82,0,6.82Z"/><g class="cls-29"><path class="cls-30" d="M570.1,622.53a3.28,3.28,0,0,0-.88-1.11c-.15-.12-.46-.24-.45-.45s.37-.46.47-.59a1.35,1.35,0,0,0,.35-1.16c-.12-.46-.56-.75-.91-1a6,6,0,0,0-1.3-.74c-.22-.1-.58-.25-.49-.54s.22-.32.27-.53c.2-1-.86-1.51-1.6-1.8-.34-.13-.49.42-.15.55s1.09.41,1.18,1c0,.27-.13.36-.24.57a.7.7,0,0,0-.06.45,1.21,1.21,0,0,0,.73.81,6.68,6.68,0,0,1,1.23.67c.41.31,1,.67.68,1.25-.2.36-.62.62-.73,1s.13.6.39.79a3.08,3.08,0,0,1,1,1.16c.17.32.66,0,.49-.29Z"/></g><path class="cls-25" d="M562.64,604.76l15.83,2.6h0c1.57-9.56-4.29-18.59-13-20s-16.87,5.06-18.61,14.43Z"/><path class="cls-25" d="M592.64,605.82l13.54-1.9c-1.18-8.57-8.21-14.79-15.61-13.81s-12.5,8.66-11.53,17.18Z"/><g class="cls-29"><path class="cls-30" d="M587.15,627.35a4.77,4.77,0,0,0,.56-2.06c0-.44-.15-1,.47-1.06.44,0,.89.06,1.33,0a2,2,0,0,0,1.45-.6,2.54,2.54,0,0,0,.37-1.71,7.78,7.78,0,0,0-.28-2.26c-.14-.49-.34-1.24.37-1.39a4.36,4.36,0,0,0,.8-.09c1.37-.55,1.06-2.24.71-3.33-.11-.34-.66-.2-.55.15.25.76.6,1.79-.07,2.45-.45.44-1.11.08-1.58.52a1.5,1.5,0,0,0-.33,1.45,11,11,0,0,1,.37,2.3c0,.79.06,1.66-.87,1.89-.7.17-1.45-.14-2.15.06a.84.84,0,0,0-.63.89,5.22,5.22,0,0,1-.46,2.46c-.17.32.32.61.49.29Z"/></g><g class="cls-29"><path class="cls-30" d="M606.36,620.94a3.38,3.38,0,0,0-.88-1.11c-.15-.11-.46-.24-.45-.44s.37-.47.47-.59a1.38,1.38,0,0,0,.35-1.17c-.12-.46-.57-.74-.92-1a5.72,5.72,0,0,0-1.29-.75c-.22-.1-.58-.25-.5-.54s.23-.31.27-.53c.21-1-.85-1.51-1.59-1.79-.35-.14-.49.41-.16.54s1.1.41,1.19,1c0,.26-.14.36-.24.57a.67.67,0,0,0-.06.44,1.18,1.18,0,0,0,.73.81,7.33,7.33,0,0,1,1.23.67c.41.31,1,.67.68,1.26-.21.35-.62.61-.74,1a.73.73,0,0,0,.4.8,3,3,0,0,1,1,1.15c.17.33.66,0,.49-.29Z"/></g><g class="cls-29"><path class="cls-30" d="M597,611.37a2.07,2.07,0,0,0-.22-.77.61.61,0,0,0-.09-.16c0-.05,0,0,0,0l.06,0a1,1,0,0,0,.35-.19.7.7,0,0,0,.29-.57,1.68,1.68,0,0,0-.3-.72,5.2,5.2,0,0,0-.46-.59.47.47,0,0,1-.07-.12s-.1,0,0,0a.53.53,0,0,0,.22-.2c.29-.47-.08-1-.41-1.29a.28.28,0,0,0-.4.4c.12.11.39.33.34.53s0,.06-.1.1a.49.49,0,0,0-.2.25c-.15.48.34.78.55,1.13.08.12.31.41.25.55s-.4.22-.53.33a.5.5,0,0,0-.07.64,1.49,1.49,0,0,1,.26.67c0,.36.6.36.57,0Z"/></g><path class="cls-31" d="M508.33,658.21a21.76,21.76,0,0,0-3.74-4.4c-4.61-4.52-9.36-9.15-15.29-11.73a1,1,0,0,0-.42-.1.91.91,0,0,0-.54.41,3.56,3.56,0,0,0-1,2.31c.08,1,1.05,1.78,1.92,2.37l12,8c2,1.31,4,2.66,6.37,3"/><path class="cls-31" d="M509.31,657.63a22.14,22.14,0,0,0-3.63-4.34c-1.27-1.25-2.55-2.51-3.86-3.73a51.41,51.41,0,0,0-8.52-6.68q-1.16-.71-2.37-1.29c-.82-.4-1.84-1.05-2.76-.55a4.49,4.49,0,0,0-1.61,2,3.24,3.24,0,0,0,0,2.82,5.06,5.06,0,0,0,1.68,1.82c.8.58,1.64,1.11,2.46,1.66l5.27,3.52c1.9,1.27,3.78,2.56,5.7,3.81a14.82,14.82,0,0,0,5.72,2.51,1.18,1.18,0,0,0,1.4-.8A1.13,1.13,0,0,0,508,657a11.92,11.92,0,0,1-4.43-1.8c-1.52-.94-3-2-4.48-3-3.12-2.09-6.26-4.14-9.35-6.26a3,3,0,0,1-1.16-1.12c-.3-.73.44-1.16.67-1.76.06-.15.33-.2-.11-.06s-.26.06,0,.17.71.33,1.05.5c.75.38,1.48.79,2.19,1.22a48.77,48.77,0,0,1,7.54,5.9c1.33,1.23,2.63,2.5,3.93,3.78a21.12,21.12,0,0,1,3.56,4.16,1.14,1.14,0,0,0,2-1.15Z"/><path class="cls-32" d="M488.6,640.84c-1.34.32-2.08,1.7-2.55,2.89a2.77,2.77,0,0,0-.2,1,1.25,1.25,0,0,0,.89,1.19,1.61,1.61,0,0,0,.87,0,2.12,2.12,0,0,0,1.12-.88c.14-.21.26-.44.42-.65l-.18.23c.35-.45.77-.85,1.08-1.33a1.66,1.66,0,0,0,.28-1.33,1.3,1.3,0,0,0-.59-.82,1.67,1.67,0,0,0-.82-.18l.3,0h0l.28.11h0l.23.17,0,0,.18.23,0,0,.11.27v.54a1.26,1.26,0,0,0-.11-.87,1.14,1.14,0,0,0-.68-.52,1.13,1.13,0,0,0-.88.11,1.11,1.11,0,0,0-.52.68,1.52,1.52,0,0,0,0,.67,1.28,1.28,0,0,0,.46.64,1.22,1.22,0,0,0,.61.25l.32,0-.3,0h0l-.27-.11h0l-.23-.17a.08.08,0,0,1,0,0l-.17-.23v0l-.12-.27a.14.14,0,0,1,0,.06l0-.3v.1l0-.3a.58.58,0,0,1-.05.14l.12-.27a3,3,0,0,1-.27.42l.18-.23c-.21.27-.45.5-.66.76a6.46,6.46,0,0,0-.44.59c-.09.15-.18.32-.29.47l.18-.23a1.26,1.26,0,0,1-.2.2l.23-.18-.16.1.27-.12-.13,0,.3,0h-.13l.3,0h0l.27.11,0,0,.41.41,0,0,.12.28v0l0,.3c0-.05,0-.1,0-.15l0,.31a2.36,2.36,0,0,1,.17-.59l-.11.27a6,6,0,0,1,.77-1.38l-.18.23a3,3,0,0,1,.39-.4l-.23.18a2.6,2.6,0,0,1,.36-.21l-.27.12.22-.07a1.14,1.14,0,0,0,.79-1.4,1.16,1.16,0,0,0-1.4-.79Z"/><rect class="cls-33" x="632.5" y="568.56" width="638.22" height="329.44"/><path class="cls-34" d="M781.11,223.06l-7,.09a100,100,0,0,0-2.79,16.2.73.73,0,1,1-1.44,0,72.25,72.25,0,0,1,3-16.2H772c-1.17,4.41-2.7,13.59-2.7,13.59l-.54,4c-.72,8.19-11.88,6.93-10.71-1.53a134.8,134.8,0,0,1,3-15.75,23.81,23.81,0,0,1-2.43.18,1.2,1.2,0,0,0,.09-.81c-5.76-1.44-5.76-11.25,4.95-12.87a96.07,96.07,0,0,1,5-17.37c1.62-3.51,3.42-9.09,8-9.18a4.62,4.62,0,0,1,4,2.43,5,5,0,0,1,4.77,4.86c.27,3.6.63,7.29,1,10.8.09.09.09.09.18.09.09-3.06.27-6.21.63-9.18.09-.9.63,12.69,1.26,18.09a6.52,6.52,0,0,1,2.88,12.06c1.17,5.31,2.7,12.6,3.42,18,1,8.1-5.67,8.28-7.74,1.8C785.43,241.78,781.83,226.3,781.11,223.06Zm-2.25-12c-.36-2.25-.81-8.37-1.71-12.51-1.44,5-2.52,8.64-3.33,12.87C775.08,211.27,777.6,211.18,778.86,211.09Z"/><path class="cls-34" d="M805.77,245.38c-2.16.54-4.68-1.17-4.5-3.51,0-.9.09-1.71.09-2.61.18-3.51.18-7,.27-10.53-.54-4.23-1-8.55-1.44-12.78-.81-8.55-1.71-17-2.25-25.47-.27-3,2.34-4.59,5.13-4.14a7.54,7.54,0,0,1,2.52.81,5.94,5.94,0,0,1,2.34,1q.95,4.86,1.62,9.72l.45,2.61c.09-2.16-.09-5.49-.18-7a12.89,12.89,0,0,0-1.35-5.76c-.09-.27.27-.45.36-.18,2.43,3.15,2.52,7.47,3,11.25.45,4.59.81,9.18,1.17,13.68q.54,7.16.81,14.31l.27,4.59a.28.28,0,0,0,.18-.09v.18c0,.27-.09.36-.09.54a58.43,58.43,0,0,1,13.14-1.71c1.8,0,3.6-.09,5.31,0a7.48,7.48,0,0,1,4,1.08,4,4,0,0,1,2,3.06,7.88,7.88,0,0,1-.18,1.44c.36.45.72.9,1.08,1.44,1.26,2.16-.45,5.49-3.06,5.22A92.44,92.44,0,0,0,805.77,245.38Zm-5.49-46.89c.54,6.48.9,12.87,1.35,19.26V212.8l-.27-13.23c-.09-2.16-.54-5.31.18-7.65l.27-3.06a4.2,4.2,0,0,1,.45-.9,4,4,0,0,0-1.35.27c-2.07.81-1.17,3.6-1.08,5.31S800.1,196.87,800.28,198.49ZM820.08,246q-3.65.13-7.29.54c-2.34.18-4.95.9-7.29.63-.09,0-.09-.09,0-.18,2.07-1,4.77-1.17,7.11-1.53s4.59-.54,6.84-.72a146.58,146.58,0,0,1,15.39-.54c1.17.09,1.17,2.07,0,2A115.41,115.41,0,0,0,820.08,246Z"/><path class="cls-34" d="M848.07,245.38c-2.16.54-4.68-1.17-4.5-3.51,0-.9.09-1.71.09-2.61.18-3.51.18-7,.27-10.53-.54-4.23-1-8.55-1.44-12.78-.81-8.55-1.71-17-2.25-25.47-.27-3,2.34-4.59,5.13-4.14a7.54,7.54,0,0,1,2.52.81,5.94,5.94,0,0,1,2.34,1q.94,4.86,1.62,9.72l.45,2.61c.09-2.16-.09-5.49-.18-7a12.89,12.89,0,0,0-1.35-5.76c-.09-.27.27-.45.36-.18,2.43,3.15,2.52,7.47,3,11.25.45,4.59.81,9.18,1.17,13.68q.54,7.16.81,14.31l.27,4.59a.28.28,0,0,0,.18-.09v.18c0,.27-.09.36-.09.54a58.43,58.43,0,0,1,13.14-1.71c1.8,0,3.6-.09,5.31,0a7.48,7.48,0,0,1,4,1.08,4,4,0,0,1,2,3.06,7.88,7.88,0,0,1-.18,1.44c.36.45.72.9,1.08,1.44,1.26,2.16-.45,5.49-3.06,5.22A92.44,92.44,0,0,0,848.07,245.38Zm-5.49-46.89c.54,6.48.9,12.87,1.35,19.26V212.8l-.27-13.23c-.09-2.16-.54-5.31.18-7.65l.27-3.06a4.2,4.2,0,0,1,.45-.9,4,4,0,0,0-1.35.27c-2.07.81-1.17,3.6-1.08,5.31S842.4,196.87,842.58,198.49ZM862.38,246q-3.64.13-7.29.54c-2.34.18-5,.9-7.29.63-.09,0-.09-.09,0-.18,2.07-1,4.77-1.17,7.11-1.53s4.59-.54,6.84-.72a146.58,146.58,0,0,1,15.39-.54c1.17.09,1.17,2.07,0,2A115.41,115.41,0,0,0,862.38,246Z"/><path class="cls-34" d="M932.67,235.12A135.24,135.24,0,0,0,913,240.34c-3.06,1.08-6.12,2.16-9.09,3.42h-.09c-.18.09-.45.18-.63.27-1,.45-2,.81-3,1.26l-.09.09a36.63,36.63,0,0,1-6.12,2.16,7,7,0,0,1-.9.09c-1.44.27-3.06.18-3.78-1.35a2,2,0,0,1-.09-1.26,5,5,0,0,1-3-5.94c-.54-3.06-.72-6.3-1-9.45l-1.08-10.8-1.08-10.26a5.72,5.72,0,0,1-1.44-4.41,6.16,6.16,0,0,1,2.25-4.23,5.34,5.34,0,0,0,.36-.72c1.89-.81,3.87-1.53,5.76-2.16a141.81,141.81,0,0,1,18.18-4.68c4.77-1.08,9.45-2.34,14.13-3.6a10.62,10.62,0,0,1,1.8.36l1.44.54,1.44,1.17a10.9,10.9,0,0,1,.54,5.58l-4.5,1.35c-2,.63-4,1.26-6.12,1.8a1.28,1.28,0,0,1-.54.18c-4.59,1.26-13.5,4-14.49,4.41-2.88,1-5.76,2.07-8.55,3.24l-.18.18c.09.9.63,4.14.63,4.59,5-2.16,10-4.32,15.12-6.21,2.88-.72,5.85-1.53,8.73-2.34l1.17-.27c1.08-.18,2.07-.27,3.15-.36,2.25-.09,4.41,0,5.67,2.16a5.31,5.31,0,0,1,.36.72,5.51,5.51,0,0,1,.45,1.08c.09.09.09.09.18.09a3.33,3.33,0,0,1,1.53,2.25,4.35,4.35,0,0,1-2.34,4.5c-1.89.9-3.87.81-5.94,1.26s-4.41.81-6.57,1.35a97.07,97.07,0,0,0-12.78,4.32c-2.61,1.08-5,2.34-7.56,3.6l.54,5.85v.36l.27-.18c2-.9,4-1.71,5.94-2.52l7.65-3c1.35-.54,2.7-1.08,4-1.53,2.16-.81,4.32-1.62,6.48-2.34l3.51-1.08c1-.27,1.89-.72,2.88-1,6.93-1.44,8.64,6.48,9,11.61a4.19,4.19,0,0,1-1.71,3.69A1,1,0,0,1,932.67,235.12Zm-30.51-44.37,2.07-.54a91.54,91.54,0,0,1,11.25-1.71,21.93,21.93,0,0,1,2.43-.09c-3.51.9-7.11,1.8-10.62,2.61a158.82,158.82,0,0,0-18.18,4.77,49.11,49.11,0,0,0-6,2.34c-.18-.09-.18-.36,0-.54C889,194.44,895.68,192.46,902.16,190.75Zm-6.57,55.44a.33.33,0,0,0,.27-.09c.72-.36,1.44-.72,2.07-1.08,1.44-.72,2.79-1.44,4.14-2.16v-.18c-1.62.63-3.24,1.26-5,1.8a51,51,0,0,1-5.22,1.8A14.66,14.66,0,0,0,895.59,246.19Zm7.83-28.44c-1.8.54-3.51,1.08-5.22,1.53a4.46,4.46,0,0,1-1.44,2.52c4.41-2.25,9.09-4,13.59-5.76a11,11,0,0,1,1.53-.63l-.09-.27C909,216,906.21,216.85,903.42,217.75Z"/><path class="cls-34" d="M975.15,207.31a7.51,7.51,0,0,0-.72,1.08c.9,2,1.35,4.5-.54,6-.09.09-.27.09-.36.18a2.37,2.37,0,0,1-.63,1.35,4.78,4.78,0,0,1-3.69,1.08L967,221.08c-2.61,4.59-5.13,9.36-7.47,14.13a73.27,73.27,0,0,1-3.69,6.93c-.9,1.44-2,2.7-3.78,2.88a.41.41,0,0,1-.45-.36c-2.79,1.35-7.2-.9-6-4.77a77.26,77.26,0,0,1,3.15-7.47c.81-1.62,1.53-3.33,2.34-4.95a3.16,3.16,0,0,1-.45-.72c-.81,1.53-1.62,3.15-2.34,4.77q-1.89,3.91-3.51,7.83c0-1.26.18-2.52.27-3.78,1.62-3.78,3.24-7.47,5-11.16a4,4,0,0,1,.63-2.43l2.07-3.15c.09-.18.18-.27.18-.36,1.26-2.43,2.52-4.77,3.87-7.2-1.44-.72-2.79-1.53-3.24-1.8-3.42-2-6.66-4.23-10.08-6.12a3.65,3.65,0,0,0-.81-.45,21.93,21.93,0,0,1-2.52-1.26,18.91,18.91,0,0,0-2.34-1.17l-.27-.54a.68.68,0,0,1-.36-.18c-2-1.35-5.22-3.24-4.77-6.12a3,3,0,0,1,.36-1.08c-1.44-1.17-.27-4.68,1.44-5.13a4.64,4.64,0,0,1,1-.18h.63a10.93,10.93,0,0,1,4.59,1.44c3.06,1.26,6.12,2.52,9,4a120.26,120.26,0,0,1,13.32,7.47l2.16-3.51c1.35-2.07,2.61-4,4-6.12a29.79,29.79,0,0,1,4-5.49.66.66,0,0,1,1,.27c.72.09,1.35.81.81,1.44-3,4.14-5.85,8.28-8.55,12.6a15.39,15.39,0,0,0-1.17,2.07.09.09,0,0,0-.09.09c.09-.09.72.45.72.45s4-6.21,4.14-6.39c2.34-3.51,4.5-7.2,7.74-9.9a1.08,1.08,0,0,1,1.08-.36,5,5,0,0,1,5.22,1.08,4.77,4.77,0,0,1,.63,5.94,1.38,1.38,0,0,1-.18,1.17C981.45,198.22,978,202.63,975.15,207.31Z"/><path class="cls-34" d="M1045.08,227.38c-1.17,4.59-3.42,9.36-7.2,12.33-6.12,4.95-15,6.93-22.59,3.87a24.8,24.8,0,0,1-14.94-17.46,31.46,31.46,0,0,1-.63-5.85c.09-6.57,1.44-13.05,5.49-18.27a50.83,50.83,0,0,1,10.35-10.26,55.57,55.57,0,0,1,5.4-3.51,10.66,10.66,0,0,1,6.21-1.53,3.15,3.15,0,0,1,3.06,3.06,6.45,6.45,0,0,1,.36,3.51c-.18,1.53-.09,10.35,0,13.23l.27,8.55c0,1.53.09,3.06.18,4.5a16.74,16.74,0,0,1-.09,3.69.87.87,0,0,1-1.26.54c-.27-.18-.45-.27-.54-.45a1.92,1.92,0,0,1-.72,0,4.3,4.3,0,0,1-2.52-2.34,6.94,6.94,0,0,1-.72-1.71h-.27v.27c.54,2.07,1.8,4.95,4.41,4.5a1.32,1.32,0,1,1,.36,2.61,5.9,5.9,0,0,1-5.76-3.42c-1.26-2.79-1.17-5.76-1.26-8.64l-.54-17.37a13.17,13.17,0,0,1-1.17.81c-6.12,4.68-9.45,10.8-10.89,18.45a8.39,8.39,0,0,0-.18,1.26,7.74,7.74,0,0,0-.09,1.44,17.91,17.91,0,0,0,.9,6.21c1.71,5.31,4.86,10.35,10.71,10.71.36,0,.81.09,1.17.09a13.89,13.89,0,0,0,8.91-3.42,10.68,10.68,0,0,0,2.34-3,18.22,18.22,0,0,0,1.89-9.45,12,12,0,0,0-.72-4.05c-1.17-2.61-.81-5.67,1.89-7.2a5.39,5.39,0,0,1,7.2,1.89C1047.06,215.59,1046.43,222.34,1045.08,227.38ZM1022.49,197c.27,3.06.63,6,.9,9h.45a74,74,0,0,1,.09-10A13.73,13.73,0,0,1,1022.49,197Zm12.33,19a.31.31,0,0,1,.09.18C1034.91,216,1034.82,216,1034.82,216Zm.09.18c0,.09.09.09.09.18C1034.91,216.22,1034.91,216.22,1034.91,216.13Z"/><path class="cls-34" d="M1075.32,223.06l-7,.09a100,100,0,0,0-2.79,16.2.73.73,0,1,1-1.44,0,72.25,72.25,0,0,1,3-16.2h-.81c-1.17,4.41-2.7,13.59-2.7,13.59l-.54,4c-.72,8.19-11.88,6.93-10.71-1.53a134.8,134.8,0,0,1,3-15.75,23.81,23.81,0,0,1-2.43.18,1.2,1.2,0,0,0,.09-.81c-5.76-1.44-5.76-11.25,4.95-12.87a96.07,96.07,0,0,1,5-17.37c1.62-3.51,3.42-9.09,8-9.18a4.62,4.62,0,0,1,4,2.43,5,5,0,0,1,4.76,4.86c.28,3.6.63,7.29,1,10.8.09.09.09.09.18.09.1-3.06.28-6.21.64-9.18.09-.9.63,12.69,1.26,18.09a6.52,6.52,0,0,1,2.88,12.06c1.16,5.31,2.69,12.6,3.41,18,1,8.1-5.66,8.28-7.74,1.8C1079.63,241.78,1076,226.3,1075.32,223.06Zm-2.25-12c-.36-2.25-.82-8.37-1.71-12.51-1.44,5-2.53,8.64-3.33,12.87C1069.29,211.27,1071.81,211.18,1073.07,211.09Z"/><path class="cls-34" d="M1135.43,193c-.09,1.62-.45,3.24-1.89,4.23a3.55,3.55,0,0,1-1.35.54.91.91,0,0,1-.63.36c-4.59.9-9.09,1.71-13.68,2.34,0,4-.09,7.92-.09,11.88,0,5.49.09,11,.09,16.47.09,3.15.28,6.3.37,9.45-.19,2.16-.54,4.32-2.17,5.58v-.18c.09-1.26.09-2.52.18-3.78v-3.42c-.35,1.62-.44,4.14-1.08,5.94a4,4,0,0,1-4.76,2.52c-3.78-1.17-4.59-5.31-4.77-8.82-.27-4.59-.18-9.27,0-13.86s.54-9.27.72-13.95l.17-4v-2.88H1103c-2.43,0-4.86-.09-7.2-.27a14.28,14.28,0,0,1-5.49-1.53,7.91,7.91,0,0,1-2.88-3.51,4.78,4.78,0,0,1-2.34-5.31c.54-1.8,2.34-3.51,4.32-3.33,5,.45,9.81.81,14.76.81,0-.09.09-.18.09-.27a133.76,133.76,0,0,1-14.58-1.62c-.27,0-.18-.54.09-.45a263.43,263.43,0,0,0,37.7-.63c1-.18,1.89-.27,2.79-.36a8.67,8.67,0,0,1,1.53,0c1.35-.18,2.7-.27,4.05-.45.81-.09,1.08,1.44.18,1.62a1.53,1.53,0,0,0-.63.09,1.88,1.88,0,0,1,.54.36c2.07,1.17,2,4.59-.18,5.49A2.7,2.7,0,0,1,1135.43,193Zm-34.82,6A54.92,54.92,0,0,1,1089.9,197a9.5,9.5,0,0,0,5.94,2.07A42.16,42.16,0,0,0,1100.61,199Z"/></g><g id="Layer_17" data-name="Layer 17"><path class="cls-35" d="M1270.72,782.19c-5.44,91.19-4.22,162.91,19.78,158.71s101.73,17,159-9.43c7.41-76.8-56.41-124.19-154.14-157.57-1.38-6.07,6.14-27.94,5.14-25.89s-5,1.21-8.75,3.55c-1.78,1.11-3.38,1.83-4.25,2.74-2,2.1-16.56-9.36-16.78-6.29S1270.72,782.19,1270.72,782.19Z"/><polygon class="cls-36" points="632.5 747.49 583.55 747.49 583.55 898 632.5 891 632.5 747.49"/><rect class="cls-37" x="519.47" y="747.48" width="64.09" height="150.52"/><polygon class="cls-38" points="519.47 747.49 583.55 744.21 632.5 747.49 583.55 747.49 519.47 747.49"/><rect class="cls-36" x="557.45" y="769.15" width="75.05" height="164.57"/><polyline class="cls-37" points="557.45 911.15 488.21 911.15 488.21 933.73 557.45 933.73 557.45 911.15"/><rect class="cls-39" x="504.07" y="859.99" width="53.27" height="51.16"/><rect class="cls-40" x="585.66" y="769.15" width="18.2" height="51.01"/></g></svg>