<svg xmlns="http://www.w3.org/2000/svg" xmlns:xlink="http://www.w3.org/1999/xlink" viewBox="0 0 1089.05 200.62"><defs><style>.cls-1{fill:#706f6f;}.cls-10,.cls-11,.cls-12,.cls-13,.cls-14,.cls-15,.cls-16,.cls-2,.cls-3,.cls-4,.cls-5,.cls-6,.cls-7,.cls-8,.cls-9{opacity:0.87;}.cls-2{fill:url(#linear-gradient);}.cls-3{fill:url(#linear-gradient-2);}.cls-4{fill:url(#linear-gradient-3);}.cls-5{fill:url(#linear-gradient-4);}.cls-6{fill:url(#linear-gradient-5);}.cls-7{fill:url(#linear-gradient-6);}.cls-8{fill:url(#linear-gradient-7);}.cls-9{fill:url(#linear-gradient-8);}.cls-10{fill:url(#linear-gradient-9);}.cls-11{fill:url(#linear-gradient-10);}.cls-12{fill:url(#linear-gradient-11);}.cls-13{fill:url(#linear-gradient-12);}.cls-14{fill:url(#linear-gradient-13);}.cls-15{fill:url(#linear-gradient-14);}.cls-16{fill:url(#linear-gradient-15);}</style><linearGradient id="linear-gradient" y1="16.7" x2="326.87" y2="16.7" gradientUnits="userSpaceOnUse"><stop offset="0" stop-color="#f3e61e"/><stop offset="1" stop-color="#ede97e"/></linearGradient><linearGradient id="linear-gradient-2" x1="1.05" y1="58.39" x2="310.87" y2="58.39" xlink:href="#linear-gradient"/><linearGradient id="linear-gradient-3" x1="0.05" y1="100.39" x2="282.87" y2="100.39" xlink:href="#linear-gradient"/><linearGradient id="linear-gradient-4" x1="0.8" y1="142.01" x2="256.87" y2="142.01" xlink:href="#linear-gradient"/><linearGradient id="linear-gradient-5" x1="0.37" y1="183.86" x2="233.64" y2="183.86" xlink:href="#linear-gradient"/><linearGradient id="linear-gradient-6" x1="381.56" y1="16.5" x2="597.87" y2="16.5" xlink:href="#linear-gradient"/><linearGradient id="linear-gradient-7" x1="381.56" y1="58.5" x2="574.87" y2="58.5" xlink:href="#linear-gradient"/><linearGradient id="linear-gradient-8" x1="381.56" y1="100.5" x2="551.87" y2="100.5" xlink:href="#linear-gradient"/><linearGradient id="linear-gradient-9" x1="381.56" y1="142.5" x2="523.87" y2="142.5" xlink:href="#linear-gradient"/><linearGradient id="linear-gradient-10" x1="381.56" y1="183.5" x2="494.87" y2="183.5" xlink:href="#linear-gradient"/><linearGradient id="linear-gradient-11" x1="762.78" y1="16.98" x2="858.87" y2="16.98" xlink:href="#linear-gradient"/><linearGradient id="linear-gradient-12" x1="761.86" y1="58.12" x2="841.87" y2="58.12" xlink:href="#linear-gradient"/><linearGradient id="linear-gradient-13" x1="761.86" y1="100.12" x2="821.87" y2="100.12" xlink:href="#linear-gradient"/><linearGradient id="linear-gradient-14" x1="761.86" y1="142.12" x2="798.87" y2="142.12" xlink:href="#linear-gradient"/><linearGradient id="linear-gradient-15" x1="761.86" y1="184.12" x2="780.77" y2="184.12" xlink:href="#linear-gradient"/></defs><g id="Layer_19" data-name="Layer 19"><rect class="cls-1" x="0.27" y="0.2" width="326" height="33" rx="9.46"/><rect class="cls-2" y="0.2" width="326.87" height="33" rx="9.46"/><rect class="cls-1" x="1.33" y="41.89" width="326" height="33" rx="9.46"/><rect class="cls-3" x="1.05" y="41.89" width="309.82" height="33" rx="9.46"/><rect class="cls-1" x="0.33" y="83.89" width="326" height="33" rx="9.46"/><rect class="cls-4" x="0.05" y="83.89" width="282.82" height="33" rx="9.46"/><rect class="cls-1" x="1.07" y="125.51" width="326" height="33" rx="9.46"/><rect class="cls-5" x="0.8" y="125.51" width="256.07" height="33" rx="9.46"/><rect class="cls-1" x="0.64" y="167.36" width="326" height="33" rx="9.46"/><rect class="cls-6" x="0.37" y="167.36" width="233.27" height="33" rx="9.46"/><rect class="cls-1" x="381.83" width="326" height="33" rx="9.46"/><rect class="cls-7" x="381.56" width="216.31" height="33" rx="9.46"/><rect class="cls-1" x="381.83" y="42" width="326" height="33" rx="9.46"/><rect class="cls-8" x="381.56" y="42" width="193.31" height="33" rx="9.46"/><rect class="cls-1" x="381.83" y="84" width="326" height="33" rx="9.46"/><rect class="cls-9" x="381.56" y="84" width="170.31" height="33" rx="9.46"/><rect class="cls-1" x="381.83" y="126" width="326" height="33" rx="9.46"/><rect class="cls-10" x="381.56" y="126" width="142.31" height="33" rx="9.46"/><rect class="cls-1" x="381.83" y="167" width="326" height="33" rx="9.46"/><rect class="cls-11" x="381.56" y="167" width="113.31" height="33" rx="9.46"/><rect class="cls-1" x="763.05" y="0.48" width="326" height="33" rx="9.46"/><rect class="cls-12" x="762.78" y="0.48" width="96.09" height="33" rx="9.46"/><rect class="cls-1" x="762.13" y="41.62" width="326" height="33" rx="9.46"/><rect class="cls-13" x="761.86" y="41.62" width="80.01" height="33" rx="9.46"/><rect class="cls-1" x="762.13" y="83.62" width="326" height="33" rx="9.46"/><rect class="cls-14" x="761.86" y="83.62" width="60.01" height="33" rx="9.46"/><rect class="cls-1" x="762.13" y="125.62" width="326" height="33" rx="9.46"/><rect class="cls-15" x="761.86" y="125.62" width="37.01" height="33" rx="9.46"/><rect class="cls-1" x="762.13" y="167.62" width="326" height="33" rx="9.46"/><rect class="cls-16" x="761.86" y="167.62" width="18.91" height="33" rx="9.46"/></g></svg>