<svg xmlns="http://www.w3.org/2000/svg" viewBox="0 0 83 83.76"><defs><style>.cls-1{fill:#4a4948;}.cls-2{fill:#474040;}</style></defs><g id="Layer_16" data-name="Layer 16"><rect class="cls-1" x="32.35" width="18.3" height="37.35" rx="2.5"/><rect class="cls-1" x="9.53" y="22.82" width="18.3" height="37.35" rx="2.5" transform="translate(-22.82 60.18) rotate(-90)"/><rect class="cls-1" x="55.18" y="22.82" width="18.3" height="37.35" rx="2.5" transform="translate(105.82 -22.82) rotate(90)"/><rect class="cls-1" x="32.35" y="46.41" width="18.3" height="37.35" rx="2.5"/><rect class="cls-1" x="49.14" y="39.6" width="18.3" height="37.35" rx="2.5" transform="translate(-24.14 58.28) rotate(-45)"/><rect class="cls-1" x="14.68" y="39" width="18.3" height="37.35" rx="2.5" transform="translate(36.38 -3.45) rotate(34.05)"/><rect class="cls-1" x="50.9" y="5.48" width="18.21" height="37.17" rx="2.5" transform="matrix(0.87, 0.5, -0.5, 0.87, 20.07, -26.77)"/><rect class="cls-1" x="15.01" y="5.34" width="18.3" height="37.35" rx="2.5" transform="translate(-8.77 15.29) rotate(-30)"/><circle class="cls-2" cx="42.5" cy="39.5" r="18.5"/></g></svg>